<?xml version="1.0" encoding="UTF-8" standalone="no"?><!DOCTYPE svg PUBLIC "-//W3C//DTD SVG 1.1//EN" "http://www.w3.org/Graphics/SVG/1.1/DTD/svg11.dtd"><svg width="100%" height="100%" viewBox="0 0 9226 5103" version="1.1" xmlns="http://www.w3.org/2000/svg" xmlns:xlink="http://www.w3.org/1999/xlink" xml:space="preserve" xmlns:serif="http://www.serif.com/" style="fill-rule:evenodd;clip-rule:evenodd;"><rect id="Artboard1" x="0" y="0" width="9225.02" height="5102.41" style="fill:none;"/><g id="Layer1"><path d="M3332.5,3509.95l427.766,-246.97" style="fill:none;fill-rule:nonzero;stroke:#000;stroke-width:4.17px;stroke-dasharray:12.5,12.5,12.5,12.5,0,0;"/><path d="M3332.5,4497.83l427.766,-246.971" style="fill:none;fill-rule:nonzero;stroke:#000;stroke-width:4.17px;stroke-dasharray:12.5,12.5,12.5,12.5,0,0;"/><path d="M4188.03,2522.06l-427.767,-246.971" style="fill:none;fill-rule:nonzero;stroke:#000;stroke-width:4.17px;stroke-dasharray:12.5,12.5,12.5,12.5,0,0;"/><path d="M4188.03,3016l-0,-493.941" style="fill:none;fill-rule:nonzero;stroke:#000;stroke-width:4.17px;stroke-dasharray:12.5,12.5,12.5,12.5,0,0;"/><path d="M3760.26,3756.92l427.767,-246.971" style="fill:none;fill-rule:nonzero;stroke:#000;stroke-width:4.17px;stroke-dasharray:12.5,12.5,12.5,12.5,0,0;"/><path d="M2049.2,1781.15l427.766,246.971" style="fill:none;fill-rule:nonzero;stroke:#000;stroke-width:4.17px;stroke-dasharray:12.5,12.5,12.5,12.5,0,0;"/><path d="M2476.97,1534.18l-427.766,246.973" style="fill:none;fill-rule:nonzero;stroke:#000;stroke-width:4.17px;stroke-dasharray:12.5,12.5,12.5,12.5,0,0;"/><path d="M2476.97,3016l0,493.941" style="fill:none;fill-rule:nonzero;stroke:#000;stroke-width:4.17px;stroke-dasharray:12.5,12.5,12.5,12.5,0,0;"/><path d="M1621.43,2522.06l0,493.941" style="fill:none;fill-rule:nonzero;stroke:#000;stroke-width:4.17px;stroke-dasharray:12.5,12.5,12.5,12.5,0,0;"/><path d="M2476.97,4497.83l427.766,246.97" style="fill:none;fill-rule:nonzero;stroke:#000;stroke-width:4.17px;stroke-dasharray:12.5,12.5,12.5,12.5,0,0;"/><path d="M3332.5,4003.89l-427.766,-246.973" style="fill:none;fill-rule:nonzero;stroke:#000;stroke-width:4.17px;stroke-dasharray:12.5,12.5,12.5,12.5,0,0;"/><path d="M3332.5,2028.12l427.766,-246.971" style="fill:none;fill-rule:nonzero;stroke:#000;stroke-width:4.17px;stroke-dasharray:12.5,12.5,12.5,12.5,0,0;"/><path d="M3332.5,4497.83l0,-493.941" style="fill:none;fill-rule:nonzero;stroke:#000;stroke-width:4.17px;stroke-dasharray:12.5,12.5,12.5,12.5,0,0;"/><path d="M2904.73,3756.92l-427.766,246.973" style="fill:none;fill-rule:nonzero;stroke:#000;stroke-width:4.17px;stroke-dasharray:12.5,12.5,12.5,12.5,0,0;"/><path d="M3332.5,3509.95l-427.766,246.971" style="fill:none;fill-rule:nonzero;stroke:#000;stroke-width:4.17px;stroke-dasharray:12.5,12.5,12.5,12.5,0,0;"/><path d="M3332.5,2522.06l427.766,-246.971" style="fill:none;fill-rule:nonzero;stroke:#000;stroke-width:4.17px;stroke-dasharray:12.5,12.5,12.5,12.5,0,0;"/><path d="M2904.73,2769.03l-427.766,-246.97" style="fill:none;fill-rule:nonzero;stroke:#000;stroke-width:4.17px;stroke-dasharray:12.5,12.5,12.5,12.5,0,0;"/><path d="M3760.26,4250.86l427.767,-246.97" style="fill:none;fill-rule:nonzero;stroke:#000;stroke-width:4.17px;stroke-dasharray:12.5,12.5,12.5,12.5,0,0;"/><path d="M2904.73,3756.92l-427.766,-246.971" style="fill:none;fill-rule:nonzero;stroke:#000;stroke-width:4.17px;stroke-dasharray:12.5,12.5,12.5,12.5,0,0;"/><path d="M2049.2,3756.92l0,493.943" style="fill:none;fill-rule:nonzero;stroke:#000;stroke-width:4.17px;stroke-dasharray:12.5,12.5,12.5,12.5,0,0;"/><path d="M2904.73,4744.8l427.766,-246.97" style="fill:none;fill-rule:nonzero;stroke:#000;stroke-width:4.17px;stroke-dasharray:12.5,12.5,12.5,12.5,0,0;"/><path d="M2049.2,3756.92l427.766,246.973l427.766,246.97l0,493.941" style="fill:none;fill-rule:nonzero;stroke:#000;stroke-width:4.17px;stroke-dasharray:12.5,12.5,12.5,12.5,0,0;"/><path d="M2476.97,2522.06l-427.766,-246.971" style="fill:none;fill-rule:nonzero;stroke:#000;stroke-width:4.17px;stroke-dasharray:12.5,12.5,12.5,12.5,0,0;"/><path d="M2049.2,3262.97l427.766,246.97" style="fill:none;fill-rule:nonzero;stroke:#000;stroke-width:4.17px;stroke-dasharray:12.5,12.5,12.5,12.5,0,0;"/><path d="M2476.97,2028.12l427.766,246.97" style="fill:none;fill-rule:nonzero;stroke:#000;stroke-width:4.17px;stroke-dasharray:12.5,12.5,12.5,12.5,0,0;"/><path d="M2476.97,2028.12l0,493.941" style="fill:none;fill-rule:nonzero;stroke:#000;stroke-width:4.17px;stroke-dasharray:12.5,12.5,12.5,12.5,0,0;"/><path d="M2904.73,2769.03l-427.766,246.971" style="fill:none;fill-rule:nonzero;stroke:#000;stroke-width:4.17px;stroke-dasharray:12.5,12.5,12.5,12.5,0,0;"/><path d="M3332.5,2028.12l-427.766,-246.971" style="fill:none;fill-rule:nonzero;stroke:#000;stroke-width:4.17px;stroke-dasharray:12.5,12.5,12.5,12.5,0,0;"/><path d="M1621.43,3509.95l0,493.944" style="fill:none;fill-rule:nonzero;stroke:#000;stroke-width:4.17px;stroke-dasharray:12.5,12.5,12.5,12.5,0,0;"/><path d="M2049.2,2769.03l427.766,246.971" style="fill:none;fill-rule:nonzero;stroke:#000;stroke-width:4.17px;stroke-dasharray:12.5,12.5,12.5,12.5,0,0;"/><path d="M3332.5,3016l-427.766,-246.971" style="fill:none;fill-rule:nonzero;stroke:#000;stroke-width:4.17px;stroke-dasharray:12.5,12.5,12.5,12.5,0,0;"/><path d="M2904.73,3262.97l0,493.941" style="fill:none;fill-rule:nonzero;stroke:#000;stroke-width:4.17px;stroke-dasharray:12.5,12.5,12.5,12.5,0,0;"/><path d="M2476.97,2522.06l-427.766,246.97" style="fill:none;fill-rule:nonzero;stroke:#000;stroke-width:4.17px;stroke-dasharray:12.5,12.5,12.5,12.5,0,0;"/><path d="M3760.26,3756.92l-427.766,-246.971" style="fill:none;fill-rule:nonzero;stroke:#000;stroke-width:4.17px;stroke-dasharray:12.5,12.5,12.5,12.5,0,0;"/><path d="M4615.8,3262.97l-427.766,-246.971" style="fill:none;fill-rule:nonzero;stroke:#000;stroke-width:4.17px;stroke-dasharray:12.5,12.5,12.5,12.5,0,0;"/><path d="M4615.8,3756.92l-0,-493.941" style="fill:none;fill-rule:nonzero;stroke:#000;stroke-width:4.17px;stroke-dasharray:12.5,12.5,12.5,12.5,0,0;"/><path d="M3760.26,4250.86l0,-493.943" style="fill:none;fill-rule:nonzero;stroke:#000;stroke-width:4.17px;stroke-dasharray:12.5,12.5,12.5,12.5,0,0;"/><path d="M3760.26,3262.97l427.767,-246.971" style="fill:none;fill-rule:nonzero;stroke:#000;stroke-width:4.17px;stroke-dasharray:12.5,12.5,12.5,12.5,0,0;"/><path d="M3760.26,2769.03l-427.766,-246.97" style="fill:none;fill-rule:nonzero;stroke:#000;stroke-width:4.17px;stroke-dasharray:12.5,12.5,12.5,12.5,0,0;"/><path d="M3332.5,3509.95l0,-493.941" style="fill:none;fill-rule:nonzero;stroke:#000;stroke-width:4.17px;stroke-dasharray:12.5,12.5,12.5,12.5,0,0;"/><path d="M1621.43,2522.06l427.766,246.97" style="fill:none;fill-rule:nonzero;stroke:#000;stroke-width:4.17px;stroke-dasharray:12.5,12.5,12.5,12.5,0,0;"/><path d="M2904.73,3262.97l427.766,-246.971" style="fill:none;fill-rule:nonzero;stroke:#000;stroke-width:4.17px;stroke-dasharray:12.5,12.5,12.5,12.5,0,0;"/><path d="M2049.2,1781.15l0,493.941l-427.766,246.971" style="fill:none;fill-rule:nonzero;stroke:#000;stroke-width:4.17px;stroke-dasharray:12.5,12.5,12.5,12.5,0,0;"/><path d="M2049.2,4250.86l427.766,246.971" style="fill:none;fill-rule:nonzero;stroke:#000;stroke-width:4.17px;stroke-dasharray:12.5,12.5,12.5,12.5,0,0;"/><path d="M3760.26,3262.97l0,-493.942" style="fill:none;fill-rule:nonzero;stroke:#000;stroke-width:4.17px;stroke-dasharray:12.5,12.5,12.5,12.5,0,0;"/><path d="M4188.03,4003.89l-0,-493.944" style="fill:none;fill-rule:nonzero;stroke:#000;stroke-width:4.17px;stroke-dasharray:12.5,12.5,12.5,12.5,0,0;"/><path d="M3332.5,3016l427.766,-246.971" style="fill:none;fill-rule:nonzero;stroke:#000;stroke-width:4.17px;stroke-dasharray:12.5,12.5,12.5,12.5,0,0;"/><path d="M4188.03,3509.95l-427.767,-246.97" style="fill:none;fill-rule:nonzero;stroke:#000;stroke-width:4.17px;stroke-dasharray:12.5,12.5,12.5,12.5,0,0;"/><path d="M2476.97,3509.95l-427.766,246.971" style="fill:none;fill-rule:nonzero;stroke:#000;stroke-width:4.17px;stroke-dasharray:12.5,12.5,12.5,12.5,0,0;"/><path d="M3760.26,2769.03l427.767,-246.97" style="fill:none;fill-rule:nonzero;stroke:#000;stroke-width:4.17px;stroke-dasharray:12.5,12.5,12.5,12.5,0,0;"/><path d="M2476.97,3016l427.766,246.971" style="fill:none;fill-rule:nonzero;stroke:#000;stroke-width:4.17px;stroke-dasharray:12.5,12.5,12.5,12.5,0,0;"/><path d="M3760.26,1781.15l-427.766,-246.973l-427.766,246.973" style="fill:none;fill-rule:nonzero;stroke:#000;stroke-width:4.17px;stroke-dasharray:12.5,12.5,12.5,12.5,0,0;"/><path d="M2476.97,4003.89l0,493.941" style="fill:none;fill-rule:nonzero;stroke:#000;stroke-width:4.17px;stroke-dasharray:12.5,12.5,12.5,12.5,0,0;"/><path d="M3760.26,2275.09l0,-493.941" style="fill:none;fill-rule:nonzero;stroke:#000;stroke-width:4.17px;stroke-dasharray:12.5,12.5,12.5,12.5,0,0;"/><path d="M1193.67,3262.97l427.766,246.97" style="fill:none;fill-rule:nonzero;stroke:#000;stroke-width:4.17px;stroke-dasharray:12.5,12.5,12.5,12.5,0,0;"/><path d="M1193.67,3262.97l0,493.941" style="fill:none;fill-rule:nonzero;stroke:#000;stroke-width:4.17px;stroke-dasharray:12.5,12.5,12.5,12.5,0,0;"/><path d="M1621.43,3016l-427.766,246.971" style="fill:none;fill-rule:nonzero;stroke:#000;stroke-width:4.17px;stroke-dasharray:12.5,12.5,12.5,12.5,0,0;"/><path d="M2904.73,2275.09l427.766,-246.97" style="fill:none;fill-rule:nonzero;stroke:#000;stroke-width:4.17px;stroke-dasharray:12.5,12.5,12.5,12.5,0,0;"/><path d="M1193.67,3756.92l427.766,246.973" style="fill:none;fill-rule:nonzero;stroke:#000;stroke-width:4.17px;stroke-dasharray:12.5,12.5,12.5,12.5,0,0;"/><path d="M2904.73,2275.09l0,493.941" style="fill:none;fill-rule:nonzero;stroke:#000;stroke-width:4.17px;stroke-dasharray:12.5,12.5,12.5,12.5,0,0;"/><path d="M2904.73,1287.21l427.766,-246.971" style="fill:none;fill-rule:nonzero;stroke:#000;stroke-width:4.17px;stroke-dasharray:12.5,12.5,12.5,12.5,0,0;"/><path d="M2904.73,1287.21l0,493.943" style="fill:none;fill-rule:nonzero;stroke:#000;stroke-width:4.17px;stroke-dasharray:12.5,12.5,12.5,12.5,0,0;"/><path d="M2476.97,1040.24l427.766,246.971" style="fill:none;fill-rule:nonzero;stroke:#000;stroke-width:4.17px;stroke-dasharray:12.5,12.5,12.5,12.5,0,0;"/><path d="M2476.97,1040.24l0,493.941" style="fill:none;fill-rule:nonzero;stroke:#000;stroke-width:4.17px;stroke-dasharray:12.5,12.5,12.5,12.5,0,0;"/><path d="M2904.73,793.266l-427.766,246.971" style="fill:none;fill-rule:nonzero;stroke:#000;stroke-width:4.17px;stroke-dasharray:12.5,12.5,12.5,12.5,0,0;"/><path d="M2904.73,1781.15l-427.766,246.971" style="fill:none;fill-rule:nonzero;stroke:#000;stroke-width:4.17px;stroke-dasharray:12.5,12.5,12.5,12.5,0,0;"/><path d="M3332.5,1040.24l-427.766,-246.971" style="fill:none;fill-rule:nonzero;stroke:#000;stroke-width:4.17px;stroke-dasharray:12.5,12.5,12.5,12.5,0,0;"/><path d="M3332.5,1534.18l0,-493.941" style="fill:none;fill-rule:nonzero;stroke:#000;stroke-width:4.17px;stroke-dasharray:12.5,12.5,12.5,12.5,0,0;"/><path d="M2476.97,1534.18l427.766,246.973" style="fill:none;fill-rule:nonzero;stroke:#000;stroke-width:4.17px;stroke-dasharray:12.5,12.5,12.5,12.5,0,0;"/><path d="M3332.5,2522.06l0,-493.941" style="fill:none;fill-rule:nonzero;stroke:#000;stroke-width:4.17px;stroke-dasharray:12.5,12.5,12.5,12.5,0,0;"/><path d="M1621.43,3016l427.766,246.971" style="fill:none;fill-rule:nonzero;stroke:#000;stroke-width:4.17px;stroke-dasharray:12.5,12.5,12.5,12.5,0,0;"/><path d="M2904.73,2769.03l427.766,-246.97" style="fill:none;fill-rule:nonzero;stroke:#000;stroke-width:4.17px;stroke-dasharray:12.5,12.5,12.5,12.5,0,0;"/><path d="M3332.5,4003.89l427.766,-246.973" style="fill:none;fill-rule:nonzero;stroke:#000;stroke-width:4.17px;stroke-dasharray:12.5,12.5,12.5,12.5,0,0;"/><path d="M1621.43,3509.95l427.766,246.971" style="fill:none;fill-rule:nonzero;stroke:#000;stroke-width:4.17px;stroke-dasharray:12.5,12.5,12.5,12.5,0,0;"/><path d="M2904.73,4250.86l427.766,-246.97" style="fill:none;fill-rule:nonzero;stroke:#000;stroke-width:4.17px;stroke-dasharray:12.5,12.5,12.5,12.5,0,0;"/><path d="M2049.2,3262.97l-427.766,246.97" style="fill:none;fill-rule:nonzero;stroke:#000;stroke-width:4.17px;stroke-dasharray:12.5,12.5,12.5,12.5,0,0;"/><path d="M2049.2,2769.03l0,493.942" style="fill:none;fill-rule:nonzero;stroke:#000;stroke-width:4.17px;stroke-dasharray:12.5,12.5,12.5,12.5,0,0;"/><path d="M1621.43,4003.89l427.766,246.97" style="fill:none;fill-rule:nonzero;stroke:#000;stroke-width:4.17px;stroke-dasharray:12.5,12.5,12.5,12.5,0,0;"/><path d="M4188.03,3509.95l427.766,-246.97" style="fill:none;fill-rule:nonzero;stroke:#000;stroke-width:4.17px;stroke-dasharray:12.5,12.5,12.5,12.5,0,0;"/><path d="M4188.03,4003.89l427.766,-246.973" style="fill:none;fill-rule:nonzero;stroke:#000;stroke-width:4.17px;stroke-dasharray:12.5,12.5,12.5,12.5,0,0;"/><g transform="matrix(266.667,0,0,266.667,7956.84,1328.17)"></g><text x="6489.91px" y="1328.17px" style="font-family:'Arial-BoldMT', 'Arial', sans-serif;font-weight:700;font-size:266.667px;">Life Course</text><g transform="matrix(266.667,0,0,266.667,9098.12,3704.87)"></g><text x="6489.91px" y="3704.87px" style="font-family:'Arial-BoldMT', 'Arial', sans-serif;font-weight:700;font-size:266.667px;">Residential Decision</text><g transform="matrix(266.667,0,0,266.667,8845.64,2122.23)"></g><text x="6489.91px" y="2122.23px" style="font-family:'Arial-BoldMT', 'Arial', sans-serif;font-weight:700;font-size:266.667px;">Economic Mobility</text><g transform="matrix(266.667,0,0,266.667,8993.95,2910.81)"></g><text x="6489.91px" y="2910.81px" style="font-family:'Arial-BoldMT', 'Arial', sans-serif;font-weight:700;font-size:266.667px;">Residential Mobility</text><circle cx="6101" cy="3622.67" r="206.026" style="fill:#3d2e19;stroke:#fff;stroke-width:8.33px;stroke-linejoin:round;stroke-miterlimit:2;"/><circle cx="6101" cy="2823.14" r="206.026" style="fill:#0f2d5e;stroke:#000;stroke-width:4.17px;stroke-linejoin:round;stroke-miterlimit:2;"/><circle cx="6101" cy="2034.56" r="206.026" style="fill:#b29aae;stroke:#000;stroke-width:4.17px;stroke-linejoin:round;stroke-miterlimit:2;"/><circle cx="6108.54" cy="1245.98" r="206.026" style="fill:#7b8b65;stroke:#000;stroke-width:4.17px;stroke-linejoin:round;stroke-miterlimit:2;"/><circle cx="6101" cy="4408.95" r="206.026" style="fill:#f4f284;stroke:#000;stroke-width:4.17px;stroke-linejoin:round;stroke-miterlimit:2;"/><g transform="matrix(266.667,0,0,266.667,7275.33,4504.4)"></g><text x="6489.91px" y="4504.4px" style="font-family:'Arial-BoldMT', 'Arial', sans-serif;font-weight:700;font-size:266.667px;">Macro</text></g><g id="Mechanisms"><g transform="matrix(200,0,0,200,5187.07,2464.29)"></g><text x="4142.34px" y="2464.29px" style="font-family:'ArialMT', 'Arial', sans-serif;font-size:200px;">Immigration</text><g transform="matrix(200,0,0,200,2314.91,4608.04)"></g><text x="158.071px" y="4608.04px" style="font-family:'ArialMT', 'Arial', sans-serif;font-size:200px;">Social housing provision</text><g transform="matrix(200,0,0,200,2365.62,2012.42)"></g><text x="842.472px" y="2012.42px" style="font-family:'ArialMT', 'Arial', sans-serif;font-size:200px;">Housing decision</text><g transform="matrix(200,0,0,200,2142.71,1679.17)"></g><text x="708.632px" y="1679.17px" style="font-family:'ArialMT', 'Arial', sans-serif;font-size:200px;">Moving decision</text><g transform="matrix(200,0,0,200,2540.81,1234.24)"></g><text x="929.186px" y="1234.24px" style="font-family:'ArialMT', 'Arial', sans-serif;font-size:200px;">Economic mobility</text><g transform="matrix(200,0,0,200,5629.92,3209.02)"></g><text x="4562.73px" y="3209.02px" style="font-family:'ArialMT', 'Arial', sans-serif;font-size:200px;">Interest rate</text><g transform="matrix(200,0,0,200,4639.74,2126.26)"></g><text x="3928.22px" y="2126.26px" style="font-family:'ArialMT', 'Arial', sans-serif;font-size:200px;">Subsidy</text><g transform="matrix(200,0,0,200,4256.36,1234.24)"></g><text x="3278.04px" y="1234.24px" style="font-family:'ArialMT', 'Arial', sans-serif;font-size:200px;">Life course</text><g transform="matrix(200,0,0,200,5754.98,1852.78)"></g><text x="3075.78px" y="1852.78px" style="font-family:'ArialMT', 'Arial', sans-serif;font-size:200px;">Intergenerational transmission</text><g transform="matrix(200,0,0,200,3758.72,5035.8)"></g><text x="1968.78px" y="5035.8px" style="font-family:'ArialMT', 'Arial', sans-serif;font-size:200px;">New housing supply</text><g transform="matrix(200,0,0,200,2781.02,2276.96)"></g><text x="790.887px" y="2276.96px" style="font-family:'ArialMT', 'Arial', sans-serif;font-size:200px;">Housing tenure choice</text></g><g id="Axis"><g><path d="M2961.12,421.555l-56.382,-112.763l-56.381,112.763c28.191,-28.191 84.572,-28.191 112.763,-0Z" style="fill-rule:nonzero;"/><path d="M2961.12,2769.03c0,31.118 -25.264,56.382 -56.382,56.382c-31.117,0 -56.381,-25.264 -56.381,-56.382c-0,-31.117 25.264,-56.381 56.381,-56.381c31.118,-0 56.382,25.264 56.382,56.381Z" style="fill-rule:nonzero;"/><path d="M2904.73,399.002l0,2370.03" style="fill:none;fill-rule:nonzero;stroke:#000;stroke-width:37.59px;"/><path d="M2929.73,2812.34c23.899,-13.798 32.1,-44.403 18.302,-68.302c-13.798,-23.898 -44.403,-32.099 -68.302,-18.301c-23.898,13.798 -32.099,44.403 -18.301,68.301c13.798,23.899 44.403,32.1 68.301,18.302Z" style="fill-rule:nonzero;"/><path d="M808.224,4037.19l-111.602,6.7l61.601,-93.302c-9.15,34.151 15.85,77.452 50.001,86.602Z" style="fill-rule:nonzero;"/><path d="M2904.73,2769.03l-1720.63,993.402l-20.954,12.098l-20.957,12.101l-41.914,24.197l-20.955,12.101l-41.914,24.196l-20.954,12.101l-41.914,24.196l-20.954,12.099l-20.957,12.101l-20.957,12.098l-20.955,12.098l-20.957,12.101l-20.957,12.098l-20.954,12.098l-20.957,12.101l-20.957,12.098l-20.037,11.569" style="fill:none;fill-rule:nonzero;stroke:#000;stroke-width:33.33px;"/><path d="M5003.18,4037.19l111.603,6.703l-61.6,-93.304c9.15,34.151 -15.852,77.452 -50.003,86.601Z" style="fill-rule:nonzero;"/><path d="M2879.73,2811.12c-23.898,-13.799 -32.098,-44.404 -18.299,-68.302c13.799,-23.898 44.404,-32.098 68.302,-18.299c23.898,13.799 32.097,44.404 18.299,68.302c-13.799,23.898 -44.404,32.097 -68.302,18.299Z" style="fill-rule:nonzero;"/><path d="M5045.5,4003.89l-2140.76,-1236.07" style="fill:none;fill-rule:nonzero;stroke:#000;stroke-width:33.33px;"/></g><g transform="matrix(200,0,0,200,3178.4,225.045)"></g><text x="2611.8px" y="225.045px" style="font-family:'Arial-BoldMT', 'Arial', sans-serif;font-weight:700;font-size:200px;">Agent</text><g transform="matrix(200,0,0,200,1377.08,4327.29)"></g><text x="154.722px" y="4327.29px" style="font-family:'Arial-BoldMT', 'Arial', sans-serif;font-weight:700;font-size:200px;">Environment</text><g transform="matrix(200,0,0,200,5440.13,4327.29)"></g><text x="4650.87px" y="4327.29px" style="font-family:'Arial-BoldMT', 'Arial', sans-serif;font-weight:700;font-size:200px;">External</text></g><g id="Points"><circle cx="4385.94" cy="3126.63" r="75" style="fill:#f4f284;stroke:#000;stroke-width:4.17px;stroke-linejoin:round;stroke-miterlimit:2;"/><circle cx="2293.46" cy="1641" r="75" style="fill:#0f2d5e;stroke:#000;stroke-width:4.17px;stroke-linejoin:round;stroke-miterlimit:2;"/><circle cx="2693.95" cy="1163.72" r="75" style="fill:#b29aae;stroke:#000;stroke-width:4.17px;stroke-linejoin:round;stroke-miterlimit:2;"/><circle cx="3760.26" cy="2054.62" r="75" style="fill:#f4f284;stroke:#000;stroke-width:4.17px;stroke-linejoin:round;stroke-miterlimit:2;"/><circle cx="3974.15" cy="2398.58" r="75" style="fill:#f4f284;stroke:#000;stroke-width:4.17px;stroke-linejoin:round;stroke-miterlimit:2;"/><circle cx="2959.41" cy="1781.15" r="75" style="fill:#b29aae;stroke:#000;stroke-width:4.17px;stroke-linejoin:round;stroke-miterlimit:2;"/><circle cx="2904.94" cy="4730.02" r="75" style="fill:#f4f284;stroke:#000;stroke-width:4.17px;stroke-linejoin:round;stroke-miterlimit:2;"/><circle cx="2239.56" cy="4364.82" r="75" style="fill:#f4f284;stroke:#000;stroke-width:4.17px;stroke-linejoin:round;stroke-miterlimit:2;"/><circle cx="3098.17" cy="1163.72" r="75" style="fill:#7b8b65;stroke:#000;stroke-width:4.17px;stroke-linejoin:round;stroke-miterlimit:2;"/><circle cx="2862.43" cy="2232.79" r="75" style="fill:#0f2d5e;stroke:#000;stroke-width:4.17px;stroke-linejoin:round;stroke-miterlimit:2;"/><circle cx="2461.79" cy="2007.54" r="75" style="fill:#3d2e19;stroke:#fff;stroke-width:8.33px;stroke-linejoin:round;stroke-miterlimit:2;"/></g></svg>