<?xml version="1.0" encoding="UTF-8" standalone="no"?><!DOCTYPE svg PUBLIC "-//W3C//DTD SVG 1.1//EN" "http://www.w3.org/Graphics/SVG/1.1/DTD/svg11.dtd"><svg width="100%" height="100%" viewBox="0 0 38442 21263" version="1.1" xmlns="http://www.w3.org/2000/svg" xmlns:xlink="http://www.w3.org/1999/xlink" xml:space="preserve" xmlns:serif="http://www.serif.com/" style="fill-rule:evenodd;clip-rule:evenodd;"><rect id="Artboard1" x="0" y="0" width="38437.6" height="21260" style="fill:none;"/><g id="Layer1"><path d="M13885.4,14624.8l1782.36,-1029.04" style="fill:none;fill-rule:nonzero;stroke:#000;stroke-width:17.38px;stroke-dasharray:52.08,52.08,52.08,52.08,0,0;"/><path d="M13885.4,18741l1782.36,-1029.05" style="fill:none;fill-rule:nonzero;stroke:#000;stroke-width:17.38px;stroke-dasharray:52.08,52.08,52.08,52.08,0,0;"/><path d="M17450.1,10508.6l-1782.36,-1029.05" style="fill:none;fill-rule:nonzero;stroke:#000;stroke-width:17.38px;stroke-dasharray:52.08,52.08,52.08,52.08,0,0;"/><path d="M17450.1,12566.7l0,-2058.09" style="fill:none;fill-rule:nonzero;stroke:#000;stroke-width:17.38px;stroke-dasharray:52.08,52.08,52.08,52.08,0,0;"/><path d="M15667.8,15653.8l1782.36,-1029.05" style="fill:none;fill-rule:nonzero;stroke:#000;stroke-width:17.38px;stroke-dasharray:52.08,52.08,52.08,52.08,0,0;"/><path d="M8538.33,7421.46l1782.36,1029.05" style="fill:none;fill-rule:nonzero;stroke:#000;stroke-width:17.38px;stroke-dasharray:52.08,52.08,52.08,52.08,0,0;"/><path d="M10320.7,6392.42l-1782.36,1029.05" style="fill:none;fill-rule:nonzero;stroke:#000;stroke-width:17.38px;stroke-dasharray:52.08,52.08,52.08,52.08,0,0;"/><path d="M10320.7,12566.7l0,2058.09" style="fill:none;fill-rule:nonzero;stroke:#000;stroke-width:17.38px;stroke-dasharray:52.08,52.08,52.08,52.08,0,0;"/><path d="M6755.96,10508.6l0,2058.09" style="fill:none;fill-rule:nonzero;stroke:#000;stroke-width:17.38px;stroke-dasharray:52.08,52.08,52.08,52.08,0,0;"/><path d="M10320.7,18741l1782.36,1029.04" style="fill:none;fill-rule:nonzero;stroke:#000;stroke-width:17.38px;stroke-dasharray:52.08,52.08,52.08,52.08,0,0;"/><path d="M13885.4,16682.9l-1782.36,-1029.05" style="fill:none;fill-rule:nonzero;stroke:#000;stroke-width:17.38px;stroke-dasharray:52.08,52.08,52.08,52.08,0,0;"/><path d="M13885.4,8450.5l1782.36,-1029.05" style="fill:none;fill-rule:nonzero;stroke:#000;stroke-width:17.38px;stroke-dasharray:52.08,52.08,52.08,52.08,0,0;"/><path d="M13885.4,18741l-0,-2058.09" style="fill:none;fill-rule:nonzero;stroke:#000;stroke-width:17.38px;stroke-dasharray:52.08,52.08,52.08,52.08,0,0;"/><path d="M12103,15653.8l-1782.36,1029.06" style="fill:none;fill-rule:nonzero;stroke:#000;stroke-width:17.38px;stroke-dasharray:52.08,52.08,52.08,52.08,0,0;"/><path d="M13885.4,14624.8l-1782.36,1029.05" style="fill:none;fill-rule:nonzero;stroke:#000;stroke-width:17.38px;stroke-dasharray:52.08,52.08,52.08,52.08,0,0;"/><path d="M13885.4,10508.6l1782.36,-1029.05" style="fill:none;fill-rule:nonzero;stroke:#000;stroke-width:17.38px;stroke-dasharray:52.08,52.08,52.08,52.08,0,0;"/><path d="M12103,11537.6l-1782.36,-1029.04" style="fill:none;fill-rule:nonzero;stroke:#000;stroke-width:17.38px;stroke-dasharray:52.08,52.08,52.08,52.08,0,0;"/><path d="M15667.8,17711.9l1782.36,-1029.04" style="fill:none;fill-rule:nonzero;stroke:#000;stroke-width:17.38px;stroke-dasharray:52.08,52.08,52.08,52.08,0,0;"/><path d="M12103,15653.8l-1782.36,-1029.05" style="fill:none;fill-rule:nonzero;stroke:#000;stroke-width:17.38px;stroke-dasharray:52.08,52.08,52.08,52.08,0,0;"/><path d="M8538.33,15653.8l0,2058.1" style="fill:none;fill-rule:nonzero;stroke:#000;stroke-width:17.38px;stroke-dasharray:52.08,52.08,52.08,52.08,0,0;"/><path d="M12103,19770l1782.36,-1029.04" style="fill:none;fill-rule:nonzero;stroke:#000;stroke-width:17.38px;stroke-dasharray:52.08,52.08,52.08,52.08,0,0;"/><path d="M8538.33,15653.8l1782.36,1029.06l1782.36,1029.04l0,2058.09" style="fill:none;fill-rule:nonzero;stroke:#000;stroke-width:17.38px;stroke-dasharray:52.08,52.08,52.08,52.08,0,0;"/><path d="M10320.7,10508.6l-1782.36,-1029.05" style="fill:none;fill-rule:nonzero;stroke:#000;stroke-width:17.38px;stroke-dasharray:52.08,52.08,52.08,52.08,0,0;"/><path d="M8538.33,13595.7l1782.36,1029.04" style="fill:none;fill-rule:nonzero;stroke:#000;stroke-width:17.38px;stroke-dasharray:52.08,52.08,52.08,52.08,0,0;"/><path d="M10320.7,8450.5l1782.36,1029.04" style="fill:none;fill-rule:nonzero;stroke:#000;stroke-width:17.38px;stroke-dasharray:52.08,52.08,52.08,52.08,0,0;"/><path d="M10320.7,8450.5l0,2058.09" style="fill:none;fill-rule:nonzero;stroke:#000;stroke-width:17.38px;stroke-dasharray:52.08,52.08,52.08,52.08,0,0;"/><path d="M12103,11537.6l-1782.36,1029.05" style="fill:none;fill-rule:nonzero;stroke:#000;stroke-width:17.38px;stroke-dasharray:52.08,52.08,52.08,52.08,0,0;"/><path d="M13885.4,8450.5l-1782.36,-1029.05" style="fill:none;fill-rule:nonzero;stroke:#000;stroke-width:17.38px;stroke-dasharray:52.08,52.08,52.08,52.08,0,0;"/><path d="M6755.96,14624.8l0,2058.1" style="fill:none;fill-rule:nonzero;stroke:#000;stroke-width:17.38px;stroke-dasharray:52.08,52.08,52.08,52.08,0,0;"/><path d="M8538.33,11537.6l1782.36,1029.05" style="fill:none;fill-rule:nonzero;stroke:#000;stroke-width:17.38px;stroke-dasharray:52.08,52.08,52.08,52.08,0,0;"/><path d="M13885.4,12566.7l-1782.36,-1029.05" style="fill:none;fill-rule:nonzero;stroke:#000;stroke-width:17.38px;stroke-dasharray:52.08,52.08,52.08,52.08,0,0;"/><path d="M12103,13595.7l-0,2058.09" style="fill:none;fill-rule:nonzero;stroke:#000;stroke-width:17.38px;stroke-dasharray:52.08,52.08,52.08,52.08,0,0;"/><path d="M10320.7,10508.6l-1782.36,1029.04" style="fill:none;fill-rule:nonzero;stroke:#000;stroke-width:17.38px;stroke-dasharray:52.08,52.08,52.08,52.08,0,0;"/><path d="M15667.8,15653.8l-1782.36,-1029.05" style="fill:none;fill-rule:nonzero;stroke:#000;stroke-width:17.38px;stroke-dasharray:52.08,52.08,52.08,52.08,0,0;"/><path d="M19232.5,13595.7l-1782.36,-1029.05" style="fill:none;fill-rule:nonzero;stroke:#000;stroke-width:17.38px;stroke-dasharray:52.08,52.08,52.08,52.08,0,0;"/><path d="M19232.5,15653.8l0,-2058.09" style="fill:none;fill-rule:nonzero;stroke:#000;stroke-width:17.38px;stroke-dasharray:52.08,52.08,52.08,52.08,0,0;"/><path d="M15667.8,17711.9l0,-2058.1" style="fill:none;fill-rule:nonzero;stroke:#000;stroke-width:17.38px;stroke-dasharray:52.08,52.08,52.08,52.08,0,0;"/><path d="M15667.8,13595.7l1782.36,-1029.05" style="fill:none;fill-rule:nonzero;stroke:#000;stroke-width:17.38px;stroke-dasharray:52.08,52.08,52.08,52.08,0,0;"/><path d="M15667.8,11537.6l-1782.36,-1029.04" style="fill:none;fill-rule:nonzero;stroke:#000;stroke-width:17.38px;stroke-dasharray:52.08,52.08,52.08,52.08,0,0;"/><path d="M13885.4,14624.8l-0,-2058.09" style="fill:none;fill-rule:nonzero;stroke:#000;stroke-width:17.38px;stroke-dasharray:52.08,52.08,52.08,52.08,0,0;"/><path d="M6755.96,10508.6l1782.36,1029.04" style="fill:none;fill-rule:nonzero;stroke:#000;stroke-width:17.38px;stroke-dasharray:52.08,52.08,52.08,52.08,0,0;"/><path d="M12103,13595.7l1782.36,-1029.05" style="fill:none;fill-rule:nonzero;stroke:#000;stroke-width:17.38px;stroke-dasharray:52.08,52.08,52.08,52.08,0,0;"/><path d="M8538.33,7421.46l0,2058.09l-1782.36,1029.05" style="fill:none;fill-rule:nonzero;stroke:#000;stroke-width:17.38px;stroke-dasharray:52.08,52.08,52.08,52.08,0,0;"/><path d="M8538.33,17711.9l1782.36,1029.05" style="fill:none;fill-rule:nonzero;stroke:#000;stroke-width:17.38px;stroke-dasharray:52.08,52.08,52.08,52.08,0,0;"/><path d="M15667.8,13595.7l0,-2058.09" style="fill:none;fill-rule:nonzero;stroke:#000;stroke-width:17.38px;stroke-dasharray:52.08,52.08,52.08,52.08,0,0;"/><path d="M17450.1,16682.9l0,-2058.1" style="fill:none;fill-rule:nonzero;stroke:#000;stroke-width:17.38px;stroke-dasharray:52.08,52.08,52.08,52.08,0,0;"/><path d="M13885.4,12566.7l1782.36,-1029.05" style="fill:none;fill-rule:nonzero;stroke:#000;stroke-width:17.38px;stroke-dasharray:52.08,52.08,52.08,52.08,0,0;"/><path d="M17450.1,14624.8l-1782.36,-1029.04" style="fill:none;fill-rule:nonzero;stroke:#000;stroke-width:17.38px;stroke-dasharray:52.08,52.08,52.08,52.08,0,0;"/><path d="M10320.7,14624.8l-1782.36,1029.05" style="fill:none;fill-rule:nonzero;stroke:#000;stroke-width:17.38px;stroke-dasharray:52.08,52.08,52.08,52.08,0,0;"/><path d="M15667.8,11537.6l1782.36,-1029.04" style="fill:none;fill-rule:nonzero;stroke:#000;stroke-width:17.38px;stroke-dasharray:52.08,52.08,52.08,52.08,0,0;"/><path d="M10320.7,12566.7l1782.36,1029.05" style="fill:none;fill-rule:nonzero;stroke:#000;stroke-width:17.38px;stroke-dasharray:52.08,52.08,52.08,52.08,0,0;"/><path d="M15667.8,7421.46l-1782.36,-1029.05l-1782.36,1029.05" style="fill:none;fill-rule:nonzero;stroke:#000;stroke-width:17.38px;stroke-dasharray:52.08,52.08,52.08,52.08,0,0;"/><path d="M10320.7,16682.9l0,2058.09" style="fill:none;fill-rule:nonzero;stroke:#000;stroke-width:17.38px;stroke-dasharray:52.08,52.08,52.08,52.08,0,0;"/><path d="M15667.8,9479.54l0,-2058.09" style="fill:none;fill-rule:nonzero;stroke:#000;stroke-width:17.38px;stroke-dasharray:52.08,52.08,52.08,52.08,0,0;"/><path d="M4973.62,13595.7l1782.36,1029.04" style="fill:none;fill-rule:nonzero;stroke:#000;stroke-width:17.38px;stroke-dasharray:52.08,52.08,52.08,52.08,0,0;"/><path d="M4973.62,13595.7l0,2058.09" style="fill:none;fill-rule:nonzero;stroke:#000;stroke-width:17.38px;stroke-dasharray:52.08,52.08,52.08,52.08,0,0;"/><path d="M6755.96,12566.7l-1782.36,1029.05" style="fill:none;fill-rule:nonzero;stroke:#000;stroke-width:17.38px;stroke-dasharray:52.08,52.08,52.08,52.08,0,0;"/><path d="M12103,9479.54l1782.36,-1029.04" style="fill:none;fill-rule:nonzero;stroke:#000;stroke-width:17.38px;stroke-dasharray:52.08,52.08,52.08,52.08,0,0;"/><path d="M4973.62,15653.8l1782.36,1029.06" style="fill:none;fill-rule:nonzero;stroke:#000;stroke-width:17.38px;stroke-dasharray:52.08,52.08,52.08,52.08,0,0;"/><path d="M12103,9479.54l-0,2058.09" style="fill:none;fill-rule:nonzero;stroke:#000;stroke-width:17.38px;stroke-dasharray:52.08,52.08,52.08,52.08,0,0;"/><path d="M12103,5363.38l1782.36,-1029.05" style="fill:none;fill-rule:nonzero;stroke:#000;stroke-width:17.38px;stroke-dasharray:52.08,52.08,52.08,52.08,0,0;"/><path d="M12103,5363.38l-0,2058.1" style="fill:none;fill-rule:nonzero;stroke:#000;stroke-width:17.38px;stroke-dasharray:52.08,52.08,52.08,52.08,0,0;"/><path d="M10320.7,4334.33l1782.36,1029.05" style="fill:none;fill-rule:nonzero;stroke:#000;stroke-width:17.38px;stroke-dasharray:52.08,52.08,52.08,52.08,0,0;"/><path d="M10320.7,4334.33l0,2058.09" style="fill:none;fill-rule:nonzero;stroke:#000;stroke-width:17.38px;stroke-dasharray:52.08,52.08,52.08,52.08,0,0;"/><path d="M12103,3305.28l-1782.36,1029.05" style="fill:none;fill-rule:nonzero;stroke:#000;stroke-width:17.38px;stroke-dasharray:52.08,52.08,52.08,52.08,0,0;"/><path d="M12103,7421.46l-1782.36,1029.05" style="fill:none;fill-rule:nonzero;stroke:#000;stroke-width:17.38px;stroke-dasharray:52.08,52.08,52.08,52.08,0,0;"/><path d="M13885.4,4334.33l-1782.36,-1029.05" style="fill:none;fill-rule:nonzero;stroke:#000;stroke-width:17.38px;stroke-dasharray:52.08,52.08,52.08,52.08,0,0;"/><path d="M13885.4,6392.42l-0,-2058.09" style="fill:none;fill-rule:nonzero;stroke:#000;stroke-width:17.38px;stroke-dasharray:52.08,52.08,52.08,52.08,0,0;"/><path d="M10320.7,6392.42l1782.36,1029.05" style="fill:none;fill-rule:nonzero;stroke:#000;stroke-width:17.38px;stroke-dasharray:52.08,52.08,52.08,52.08,0,0;"/><path d="M13885.4,10508.6l-0,-2058.09" style="fill:none;fill-rule:nonzero;stroke:#000;stroke-width:17.38px;stroke-dasharray:52.08,52.08,52.08,52.08,0,0;"/><path d="M6755.96,12566.7l1782.36,1029.05" style="fill:none;fill-rule:nonzero;stroke:#000;stroke-width:17.38px;stroke-dasharray:52.08,52.08,52.08,52.08,0,0;"/><path d="M12103,11537.6l1782.36,-1029.04" style="fill:none;fill-rule:nonzero;stroke:#000;stroke-width:17.38px;stroke-dasharray:52.08,52.08,52.08,52.08,0,0;"/><path d="M13885.4,16682.9l1782.36,-1029.05" style="fill:none;fill-rule:nonzero;stroke:#000;stroke-width:17.38px;stroke-dasharray:52.08,52.08,52.08,52.08,0,0;"/><path d="M6755.96,14624.8l1782.36,1029.05" style="fill:none;fill-rule:nonzero;stroke:#000;stroke-width:17.38px;stroke-dasharray:52.08,52.08,52.08,52.08,0,0;"/><path d="M12103,17711.9l1782.36,-1029.04" style="fill:none;fill-rule:nonzero;stroke:#000;stroke-width:17.38px;stroke-dasharray:52.08,52.08,52.08,52.08,0,0;"/><path d="M8538.33,13595.7l-1782.36,1029.04" style="fill:none;fill-rule:nonzero;stroke:#000;stroke-width:17.38px;stroke-dasharray:52.08,52.08,52.08,52.08,0,0;"/><path d="M8538.33,11537.6l0,2058.09" style="fill:none;fill-rule:nonzero;stroke:#000;stroke-width:17.38px;stroke-dasharray:52.08,52.08,52.08,52.08,0,0;"/><path d="M6755.96,16682.9l1782.36,1029.04" style="fill:none;fill-rule:nonzero;stroke:#000;stroke-width:17.38px;stroke-dasharray:52.08,52.08,52.08,52.08,0,0;"/><path d="M17450.1,14624.8l1782.36,-1029.04" style="fill:none;fill-rule:nonzero;stroke:#000;stroke-width:17.38px;stroke-dasharray:52.08,52.08,52.08,52.08,0,0;"/><path d="M17450.1,16682.9l1782.36,-1029.05" style="fill:none;fill-rule:nonzero;stroke:#000;stroke-width:17.38px;stroke-dasharray:52.08,52.08,52.08,52.08,0,0;"/><text x="27041.3px" y="5534.04px" style="font-family:'Arial-BoldMT', 'Arial', sans-serif;font-weight:700;font-size:1111.11px;">Life Course</text><text x="27041.3px" y="15437px" style="font-family:'Arial-BoldMT', 'Arial', sans-serif;font-weight:700;font-size:1111.11px;">Residential Decision</text><text x="27041.3px" y="8842.62px" style="font-family:'Arial-BoldMT', 'Arial', sans-serif;font-weight:700;font-size:1111.11px;">Economic Mobility</text><text x="27041.3px" y="12128.4px" style="font-family:'Arial-BoldMT', 'Arial', sans-serif;font-weight:700;font-size:1111.11px;">Residential Mobility</text><circle cx="25420.8" cy="15094.5" r="858.442" style="fill:#3d2e19;stroke:#fff;stroke-width:34.71px;stroke-linejoin:round;stroke-miterlimit:2;"/><circle cx="25420.8" cy="11763.1" r="858.442" style="fill:#0f2d5e;stroke:#000;stroke-width:17.38px;stroke-linejoin:round;stroke-miterlimit:2;"/><circle cx="25420.8" cy="8477.33" r="858.442" style="fill:#b29aae;stroke:#000;stroke-width:17.38px;stroke-linejoin:round;stroke-miterlimit:2;"/><circle cx="25452.2" cy="5191.58" r="858.442" style="fill:#7b8b65;stroke:#000;stroke-width:17.38px;stroke-linejoin:round;stroke-miterlimit:2;"/><circle cx="25420.8" cy="18370.6" r="858.442" style="fill:#f4f284;stroke:#000;stroke-width:17.38px;stroke-linejoin:round;stroke-miterlimit:2;"/><text x="27041.3px" y="18768.3px" style="font-family:'Arial-BoldMT', 'Arial', sans-serif;font-weight:700;font-size:1111.11px;">Macro</text></g><g id="Mechanisms"><text x="17259.8px" y="10267.9px" style="font-family:'ArialMT', 'Arial', sans-serif;font-size:833.333px;">Immigration</text><text x="658.629px" y="19200.2px" style="font-family:'ArialMT', 'Arial', sans-serif;font-size:833.333px;">Social housing provision</text><text x="3510.3px" y="8385.08px" style="font-family:'ArialMT', 'Arial', sans-serif;font-size:833.333px;">Housing decision</text><text x="2952.63px" y="6996.54px" style="font-family:'ArialMT', 'Arial', sans-serif;font-size:833.333px;">Moving decision</text><text x="3871.61px" y="5142.67px" style="font-family:'ArialMT', 'Arial', sans-serif;font-size:833.333px;">Economic mobility</text><text x="19011.4px" y="13370.9px" style="font-family:'ArialMT', 'Arial', sans-serif;font-size:833.333px;">Interest rate</text><text x="16367.6px" y="8859.42px" style="font-family:'ArialMT', 'Arial', sans-serif;font-size:833.333px;">Subsidy</text><text x="13658.5px" y="5142.67px" style="font-family:'ArialMT', 'Arial', sans-serif;font-size:833.333px;">Life course</text><text x="12815.8px" y="7719.92px" style="font-family:'ArialMT', 'Arial', sans-serif;font-size:833.333px;">Intergenerational transmission</text><text x="8203.25px" y="20982.5px" style="font-family:'ArialMT', 'Arial', sans-serif;font-size:833.333px;">New housing supply</text><text x="3295.36px" y="9487.33px" style="font-family:'ArialMT', 'Arial', sans-serif;font-size:833.333px;">Housing tenure choice</text></g><g id="Axis"><g><path d="M12338,1756.48l-234.925,-469.846l-234.921,469.846c117.463,-117.462 352.383,-117.462 469.846,0Z" style="fill-rule:nonzero;"/><path d="M12338,11537.6c0,129.658 -105.267,234.925 -234.925,234.925c-129.654,0 -234.921,-105.267 -234.921,-234.925c0,-129.654 105.267,-234.921 234.921,-234.921c129.658,0 234.925,105.267 234.925,234.921Z" style="fill-rule:nonzero;"/><path d="M12103,1662.51l-0,9875.12" style="fill:none;fill-rule:nonzero;stroke:#000;stroke-width:156.63px;"/><path d="M12207.2,11718.1c99.579,-57.491 133.75,-185.012 76.259,-284.591c-57.492,-99.575 -185.013,-133.746 -284.592,-76.254c-99.575,57.491 -133.746,185.012 -76.254,284.587c57.492,99.579 185.012,133.75 284.587,76.258Z" style="fill-rule:nonzero;"/><path d="M3367.6,16821.6l-465.008,27.917l256.671,-388.759c-38.125,142.296 66.041,322.717 208.337,360.842Z" style="fill-rule:nonzero;"/><path d="M12103,11537.6l-7169.29,4139.18l-87.308,50.408l-87.321,50.421l-174.642,100.821l-87.312,50.421l-174.642,100.817l-87.308,50.42l-174.642,100.817l-87.308,50.413l-87.321,50.42l-87.321,50.409l-87.312,50.408l-87.321,50.421l-87.321,50.408l-87.308,50.409l-87.321,50.42l-87.321,50.409l-83.488,48.204" style="fill:none;fill-rule:nonzero;stroke:#000;stroke-width:138.88px;"/><path d="M20846.6,16821.6l465.013,27.929l-256.667,-388.766c38.125,142.295 -66.05,322.716 -208.346,360.837Z" style="fill-rule:nonzero;"/><path d="M11998.9,11713c-99.575,-57.496 -133.742,-185.017 -76.246,-284.592c57.496,-99.575 185.017,-133.741 284.592,-76.245c99.575,57.495 133.737,185.016 76.246,284.591c-57.496,99.575 -185.017,133.738 -284.592,76.246Z" style="fill-rule:nonzero;"/><path d="M21022.9,16682.9l-8919.83,-5150.29" style="fill:none;fill-rule:nonzero;stroke:#000;stroke-width:138.88px;"/></g><text x="10882.5px" y="937.688px" style="font-family:'Arial-BoldMT', 'Arial', sans-serif;font-weight:700;font-size:833.333px;">Agent</text><text x="644.675px" y="18030.4px" style="font-family:'Arial-BoldMT', 'Arial', sans-serif;font-weight:700;font-size:833.333px;">Environment</text><text x="19378.6px" y="18030.4px" style="font-family:'Arial-BoldMT', 'Arial', sans-serif;font-weight:700;font-size:833.333px;">External</text></g><g id="Points"><circle cx="18274.8" cy="13027.6" r="312.5" style="fill:#f4f284;stroke:#000;stroke-width:17.38px;stroke-linejoin:round;stroke-miterlimit:2;"/><circle cx="9556.08" cy="6837.5" r="312.5" style="fill:#0f2d5e;stroke:#000;stroke-width:17.38px;stroke-linejoin:round;stroke-miterlimit:2;"/><circle cx="11224.8" cy="4848.83" r="312.5" style="fill:#b29aae;stroke:#000;stroke-width:17.38px;stroke-linejoin:round;stroke-miterlimit:2;"/><circle cx="15667.8" cy="8560.92" r="312.5" style="fill:#f4f284;stroke:#000;stroke-width:17.38px;stroke-linejoin:round;stroke-miterlimit:2;"/><circle cx="16559" cy="9994.08" r="312.5" style="fill:#f4f284;stroke:#000;stroke-width:17.38px;stroke-linejoin:round;stroke-miterlimit:2;"/><circle cx="12330.9" cy="7421.46" r="312.5" style="fill:#b29aae;stroke:#000;stroke-width:17.38px;stroke-linejoin:round;stroke-miterlimit:2;"/><circle cx="12103.9" cy="19708.4" r="312.5" style="fill:#f4f284;stroke:#000;stroke-width:17.38px;stroke-linejoin:round;stroke-miterlimit:2;"/><circle cx="9331.5" cy="18186.8" r="312.5" style="fill:#f4f284;stroke:#000;stroke-width:17.38px;stroke-linejoin:round;stroke-miterlimit:2;"/><circle cx="12909" cy="4848.83" r="312.5" style="fill:#7b8b65;stroke:#000;stroke-width:17.38px;stroke-linejoin:round;stroke-miterlimit:2;"/><circle cx="11926.8" cy="9303.29" r="312.5" style="fill:#0f2d5e;stroke:#000;stroke-width:17.38px;stroke-linejoin:round;stroke-miterlimit:2;"/><circle cx="10257.5" cy="8364.75" r="312.5" style="fill:#3d2e19;stroke:#fff;stroke-width:34.71px;stroke-linejoin:round;stroke-miterlimit:2;"/></g><rect x="2880.42" y="7572.57" width="8202.94" height="1318.25" style="fill:none;stroke:#f00;stroke-width:125px;stroke-linecap:round;stroke-linejoin:round;stroke-miterlimit:1.5;"/></svg>