<?xml version="1.0" encoding="UTF-8" standalone="no"?><!DOCTYPE svg PUBLIC "-//W3C//DTD SVG 1.1//EN" "http://www.w3.org/Graphics/SVG/1.1/DTD/svg11.dtd"><svg width="100%" height="100%" viewBox="0 0 815 195" version="1.1" xmlns="http://www.w3.org/2000/svg" xmlns:xlink="http://www.w3.org/1999/xlink" xml:space="preserve" xmlns:serif="http://www.serif.com/" style="fill-rule:evenodd;clip-rule:evenodd;stroke-linecap:round;stroke-linejoin:round;stroke-miterlimit:1.5;"><rect id="Artboard1" x="0" y="0" width="814.266" height="194.667" style="fill:none;"/><rect x="88.055" y="15.126" width="283.698" height="158.267" style="fill:#eaf4dd;stroke:#231f20;stroke-width:2px;"/><rect x="283.654" y="75.243" width="80.292" height="45.402" style="fill:none;stroke:#000;stroke-width:0.2px;"/><rect x="463.666" y="7.518" width="80.292" height="45.402" style="fill:none;stroke:#000;stroke-width:0.2px;"/><rect x="489.493" y="129.161" width="56.378" height="44.233" style="fill:#eaf4dd;stroke:#231f20;stroke-width:2px;"/><rect x="571.73" y="129.161" width="40.891" height="34.892" style="fill:#eaf4dd;stroke:#231f20;stroke-width:2px;"/><path d="M81.538,81.448l-0,6.638c-0,1.832 -1.488,3.319 -3.319,3.319l-64.914,0c-1.832,0 -3.319,-1.487 -3.319,-3.319l-0,-6.638c-0,-1.832 1.487,-3.319 3.319,-3.319l64.914,0c1.831,0 3.319,1.487 3.319,3.319Z" style="fill:#bde6de;"/><clipPath id="_clip1"><path d="M81.538,81.448l-0,6.638c-0,1.832 -1.488,3.319 -3.319,3.319l-64.914,0c-1.832,0 -3.319,-1.487 -3.319,-3.319l-0,-6.638c-0,-1.832 1.487,-3.319 3.319,-3.319l64.914,0c1.831,0 3.319,1.487 3.319,3.319Z"/></clipPath><g clip-path="url(#_clip1)"><g transform="matrix(8,0,0,8,56.6581,87.6325)"></g><text x="34.865px" y="87.633px" style="font-family:'ArialMT', 'Arial', sans-serif;font-size:8px;fill:#231f20;">Inputs</text></g><path d="M359.557,144.118l-0,6.638c-0,1.832 -1.487,3.319 -3.319,3.319l-64.914,0c-1.832,0 -3.319,-1.487 -3.319,-3.319l-0,-6.638c-0,-1.832 1.487,-3.319 3.319,-3.319l64.914,-0c1.832,-0 3.319,1.487 3.319,3.319Z" style="fill:#bde6de;"/><clipPath id="_clip2"><path d="M359.557,144.118l-0,6.638c-0,1.832 -1.487,3.319 -3.319,3.319l-64.914,0c-1.832,0 -3.319,-1.487 -3.319,-3.319l-0,-6.638c-0,-1.832 1.487,-3.319 3.319,-3.319l64.914,-0c1.832,-0 3.319,1.487 3.319,3.319Z"/></clipPath><g clip-path="url(#_clip2)"><g transform="matrix(8,0,0,8,348.236,150.302)"></g><text x="299.326px" y="150.302px" style="font-family:'ArialMT', 'Arial', sans-serif;font-size:8px;fill:#231f20;">Measurement</text></g><path d="M359.557,102.917l-0,6.638c-0,1.832 -1.487,3.319 -3.319,3.319l-64.914,-0c-1.832,-0 -3.319,-1.487 -3.319,-3.319l-0,-6.638c-0,-1.832 1.487,-3.319 3.319,-3.319l64.914,-0c1.832,-0 3.319,1.487 3.319,3.319Z" style="fill:#bde6de;"/><clipPath id="_clip3"><path d="M359.557,102.917l-0,6.638c-0,1.832 -1.487,3.319 -3.319,3.319l-64.914,-0c-1.832,-0 -3.319,-1.487 -3.319,-3.319l-0,-6.638c-0,-1.832 1.487,-3.319 3.319,-3.319l64.914,-0c1.832,-0 3.319,1.487 3.319,3.319Z"/></clipPath><g clip-path="url(#_clip3)"><g transform="matrix(8,0,0,8,333.121,109.101)"></g><text x="314.441px" y="109.101px" style="font-family:'ArialMT', 'Arial', sans-serif;font-size:8px;fill:#231f20;">State</text></g><path d="M539.569,35.192l-0,6.638c-0,1.832 -1.488,3.319 -3.32,3.319l-64.913,0c-1.832,0 -3.319,-1.487 -3.319,-3.319l-0,-6.638c-0,-1.832 1.487,-3.319 3.319,-3.319l64.913,-0c1.832,-0 3.32,1.487 3.32,3.319Z" style="fill:#bde6de;"/><clipPath id="_clip4"><path d="M539.569,35.192l-0,6.638c-0,1.832 -1.488,3.319 -3.32,3.319l-64.913,0c-1.832,0 -3.319,-1.487 -3.319,-3.319l-0,-6.638c-0,-1.832 1.487,-3.319 3.319,-3.319l64.913,-0c1.832,-0 3.32,1.487 3.32,3.319Z"/></clipPath><g clip-path="url(#_clip4)"><g transform="matrix(8,0,0,8,513.132,41.3761)"></g><text x="494.453px" y="41.376px" style="font-family:'ArialMT', 'Arial', sans-serif;font-size:8px;fill:#231f20;">State</text></g><path d="M359.557,85.427l-0,6.638c-0,1.832 -1.487,3.319 -3.319,3.319l-64.914,0c-1.832,0 -3.319,-1.487 -3.319,-3.319l-0,-6.638c-0,-1.832 1.487,-3.319 3.319,-3.319l64.914,-0c1.832,-0 3.319,1.487 3.319,3.319Z" style="fill:#bde6de;"/><clipPath id="_clip5"><path d="M359.557,85.427l-0,6.638c-0,1.832 -1.487,3.319 -3.319,3.319l-64.914,0c-1.832,0 -3.319,-1.487 -3.319,-3.319l-0,-6.638c-0,-1.832 1.487,-3.319 3.319,-3.319l64.914,-0c1.832,-0 3.319,1.487 3.319,3.319Z"/></clipPath><g clip-path="url(#_clip5)"><g transform="matrix(8,0,0,8,338.904,91.6113)"></g><text x="308.658px" y="91.611px" style="font-family:'ArialMT', 'Arial', sans-serif;font-size:8px;fill:#231f20;">Location</text></g><path d="M539.569,17.702l-0,6.638c-0,1.832 -1.488,3.319 -3.32,3.319l-64.913,0c-1.832,0 -3.319,-1.487 -3.319,-3.319l-0,-6.638c-0,-1.832 1.487,-3.319 3.319,-3.319l64.913,-0c1.832,-0 3.32,1.487 3.32,3.319Z" style="fill:#bde6de;"/><clipPath id="_clip6"><path d="M539.569,17.702l-0,6.638c-0,1.832 -1.488,3.319 -3.32,3.319l-64.913,0c-1.832,0 -3.319,-1.487 -3.319,-3.319l-0,-6.638c-0,-1.832 1.487,-3.319 3.319,-3.319l64.913,-0c1.832,-0 3.32,1.487 3.32,3.319Z"/></clipPath><g clip-path="url(#_clip6)"><g transform="matrix(8,0,0,8,518.916,23.8864)"></g><text x="488.669px" y="23.886px" style="font-family:'ArialMT', 'Arial', sans-serif;font-size:8px;fill:#231f20;">Location</text></g><path d="M359.557,54.214l-0,6.638c-0,1.832 -1.487,3.319 -3.319,3.319l-64.914,0c-1.832,0 -3.319,-1.487 -3.319,-3.319l-0,-6.638c-0,-1.832 1.487,-3.319 3.319,-3.319l64.914,0c1.832,0 3.319,1.487 3.319,3.319Z" style="fill:#bde6de;"/><clipPath id="_clip7"><path d="M359.557,54.214l-0,6.638c-0,1.832 -1.487,3.319 -3.319,3.319l-64.914,0c-1.832,0 -3.319,-1.487 -3.319,-3.319l-0,-6.638c-0,-1.832 1.487,-3.319 3.319,-3.319l64.914,0c1.832,0 3.319,1.487 3.319,3.319Z"/></clipPath><g clip-path="url(#_clip7)"><g transform="matrix(8,0,0,8,336.898,60.3985)"></g><text x="310.664px" y="60.399px" style="font-family:'ArialMT', 'Arial', sans-serif;font-size:8px;fill:#231f20;">Entities</text></g><path d="M359.557,54.214l-0,6.638c-0,1.832 -1.487,3.319 -3.319,3.319l-64.914,0c-1.832,0 -3.319,-1.487 -3.319,-3.319l-0,-6.638c-0,-1.832 1.487,-3.319 3.319,-3.319l64.914,0c1.832,0 3.319,1.487 3.319,3.319Z" style="fill:none;stroke:#231f20;stroke-width:0.24px;"/><path d="M539.588,67.311l-0,6.638c-0,1.832 -1.487,3.319 -3.319,3.319l-64.914,0c-1.832,0 -3.319,-1.487 -3.319,-3.319l-0,-6.638c-0,-1.832 1.487,-3.319 3.319,-3.319l64.914,-0c1.832,-0 3.319,1.487 3.319,3.319Z" style="fill:#bde6de;"/><clipPath id="_clip8"><path d="M539.588,67.311l-0,6.638c-0,1.832 -1.487,3.319 -3.319,3.319l-64.914,0c-1.832,0 -3.319,-1.487 -3.319,-3.319l-0,-6.638c-0,-1.832 1.487,-3.319 3.319,-3.319l64.914,-0c1.832,-0 3.319,1.487 3.319,3.319Z"/></clipPath><g clip-path="url(#_clip8)"><g transform="matrix(8,0,0,8,516.929,73.4952)"></g><text x="490.695px" y="73.495px" style="font-family:'ArialMT', 'Arial', sans-serif;font-size:8px;fill:#231f20;">Entities</text></g><path d="M539.588,67.311l-0,6.638c-0,1.832 -1.487,3.319 -3.319,3.319l-64.914,0c-1.832,0 -3.319,-1.487 -3.319,-3.319l-0,-6.638c-0,-1.832 1.487,-3.319 3.319,-3.319l64.914,-0c1.832,-0 3.319,1.487 3.319,3.319Z" style="fill:none;stroke:#231f20;stroke-width:0.24px;"/><path d="M456.788,144.118l-0,6.638c-0,1.832 -1.487,3.319 -3.319,3.319l-64.914,0c-1.832,0 -3.319,-1.487 -3.319,-3.319l-0,-6.638c-0,-1.832 1.487,-3.319 3.319,-3.319l64.914,-0c1.832,-0 3.319,1.487 3.319,3.319Z" style="fill:#587244;"/><clipPath id="_clip9"><path d="M456.788,144.118l-0,6.638c-0,1.832 -1.487,3.319 -3.319,3.319l-64.914,0c-1.832,0 -3.319,-1.487 -3.319,-3.319l-0,-6.638c-0,-1.832 1.487,-3.319 3.319,-3.319l64.914,-0c1.832,-0 3.319,1.487 3.319,3.319Z"/></clipPath><g clip-path="url(#_clip9)"><g transform="matrix(8,0,0,8,454.805,150.302)"></g><text x="387.219px" y="150.302px" style="font-family:'ArialMT', 'Arial', sans-serif;font-size:8px;fill:#fff;">Collective outcome</text></g><path d="M539.588,89.462l-0,6.638c-0,1.832 -1.487,3.319 -3.319,3.319l-64.914,0c-1.832,0 -3.319,-1.487 -3.319,-3.319l-0,-6.638c-0,-1.832 1.487,-3.319 3.319,-3.319l64.914,-0c1.832,-0 3.319,1.487 3.319,3.319Z" style="fill:#bde6de;"/><clipPath id="_clip10"><path d="M539.588,89.462l-0,6.638c-0,1.832 -1.487,3.319 -3.319,3.319l-64.914,0c-1.832,0 -3.319,-1.487 -3.319,-3.319l-0,-6.638c-0,-1.832 1.487,-3.319 3.319,-3.319l64.914,-0c1.832,-0 3.319,1.487 3.319,3.319Z"/></clipPath><g clip-path="url(#_clip10)"><g transform="matrix(8,0,0,8,521.603,95.6462)"></g><text x="486.021px" y="95.646px" style="font-family:'ArialMT', 'Arial', sans-serif;font-size:8px;fill:#231f20;">Exchange</text></g><path d="M382.236,145.937l3,1.5l-3,1.5c0.75,-0.75 0.75,-2.25 -0,-3Z"/><path d="M359.557,147.437l23.279,-0" style="fill:none;stroke:#000;stroke-width:0.2px;"/><g transform="matrix(8,0,0,8,111.273,182.942)"></g><text x="88.457px" y="182.942px" style="font-family:'Arial-BoldMT', 'Arial', sans-serif;font-weight:700;font-size:8px;">City <tspan x="105.496px " y="182.942px ">A</tspan></text><g transform="matrix(8,0,0,8,512.606,182.942)"></g><text x="489.493px" y="182.942px" style="font-family:'Arial-BoldMT', 'Arial', sans-serif;font-weight:700;font-size:8px;">City B</text><g transform="matrix(8,0,0,8,594.843,173.134)"></g><text x="571.73px" y="173.134px" style="font-family:'Arial-BoldMT', 'Arial', sans-serif;font-weight:700;font-size:8px;">City C</text><path d="M104.246,103.09l1.926,3.534l1.672,-3.661c-0.868,0.931 -2.667,0.995 -3.598,0.127Z" style="fill:#231f20;"/><path d="M106.071,103.746c-0.417,-5.934 -2.488,-18.979 -12.655,-18.979c-13.16,0 -11.796,0 -11.796,0" style="fill:none;stroke:#231f20;stroke-width:0.24px;"/><path d="M284.368,55.359l3.6,1.8l-3.6,1.8c0.9,-0.9 0.9,-2.7 -0,-3.6Z" style="fill:#231f20;"/><path d="M265.409,106.624c0,0 -0.371,-49.465 11.72,-49.465l7.959,-0" style="fill:none;stroke:#231f20;stroke-width:0.24px;"/><path d="M107.844,66.572l-1.672,-3.662l-1.926,3.535c0.931,-0.868 2.73,-0.805 3.598,0.127Z" style="fill:#231f20;"/><path d="M106.071,65.789c-0.417,5.934 -2.488,18.978 -12.655,18.978c-13.16,0 -11.796,0 -11.796,0" style="fill:none;stroke:#231f20;stroke-width:0.24px;"/><path d="M284.368,55.4l3.6,1.8l-3.6,1.8c0.9,-0.9 0.9,-2.7 -0,-3.6Z" style="fill:#231f20;"/><path d="M265.409,62.91c0,0 -0.371,-5.71 11.72,-5.71l7.959,-0" style="fill:none;stroke:#231f20;stroke-width:0.24px;"/><path d="M107.95,39.052l-1.778,-3.611l-1.822,3.588c0.905,-0.894 2.705,-0.883 3.6,0.023Z" style="fill:#231f20;"/><path d="M106.154,38.321c-0.156,10.546 -1.51,46.446 -12.738,46.446c-13.16,0 -11.796,0 -11.796,0" style="fill:none;stroke:#231f20;stroke-width:0.24px;"/><path d="M284.368,55.368l3.6,1.8l-3.6,1.8c0.9,-0.9 0.9,-2.7 -0,-3.6Z" style="fill:#231f20;"/><path d="M265.409,35.441c0,-0 -0.371,21.727 11.72,21.727l7.959,-0" style="fill:none;stroke:#231f20;stroke-width:0.24px;"/><path d="M507.414,97.625l-3.602,1.796l3.598,1.804c-0.899,-0.901 -0.897,-2.701 0.004,-3.6Z" style="fill:#231f20;"/><path d="M506.692,99.424c15.478,0.077 88.089,1.18 88.089,15.119c-0,15.602 -0,13.985 -0,13.985" style="fill:none;stroke:#231f20;stroke-width:0.24px;"/><path d="M104.35,130.505l1.822,3.589l1.778,-3.611c-0.895,0.905 -2.695,0.917 -3.6,0.022Z" style="fill:#231f20;"/><path d="M106.154,131.214c-0.156,-10.546 -1.51,-46.447 -12.738,-46.447c-13.16,0 -11.796,0 -11.796,0" style="fill:none;stroke:#231f20;stroke-width:0.24px;"/><path d="M284.368,55.368l3.6,1.8l-3.6,1.8c0.9,-0.9 0.9,-2.7 -0,-3.6Z" style="fill:#231f20;"/><path d="M265.409,134.094c0,-0 -0.371,-76.926 11.72,-76.926l7.959,-0" style="fill:none;stroke:#231f20;stroke-width:0.24px;"/><path d="M323.8,64.171l0,11.072" style="fill:none;stroke:#000;stroke-width:0.2px;"/><path d="M503.812,52.92l-0,11.072" style="fill:none;stroke:#000;stroke-width:0.2px;"/><path d="M325.3,137.69l-1.5,3l-1.5,-3c0.75,0.75 2.25,0.75 3,0Z"/><path d="M323.8,120.645l0,17.645" style="fill:none;stroke:#000;stroke-width:0.2px;"/><path d="M465.036,91.281l3,1.5l-3,1.5c0.75,-0.75 0.75,-2.25 -0,-3Z" style="fill:#231f20;"/><path d="M371.753,92.781l93.883,-0" style="fill:none;stroke:#231f20;stroke-width:0.2px;"/><path d="M505.312,102.419l-1.5,-3l-1.5,3c0.75,-0.75 2.25,-0.75 3,0Z" style="fill:#231f20;"/><path d="M503.812,101.819l-0,26.757" style="fill:none;stroke:#231f20;stroke-width:0.2px;"/><path d="M507.411,97.619l-3.599,1.802l3.601,1.798c-0.901,-0.899 -0.901,-2.699 -0.002,-3.6Z" style="fill:#231f20;"/><path d="M506.692,99.42c22.879,0.02 174.34,0.7 174.34,15.123c-0,15.602 -0,13.985 -0,13.985" style="fill:none;stroke:#231f20;stroke-width:0.24px;"/><path d="M505.312,80.268l-1.5,-3l-1.5,3c0.75,-0.75 2.25,-0.75 3,0Z" style="fill:#231f20;"/><path d="M503.812,79.668l-0,6.475" style="fill:none;stroke:#231f20;stroke-width:0.2px;"/><path d="M581.475,72.13l3,-1.5l-3,-1.5c0.75,0.75 0.75,2.25 -0,3Z" style="fill:#231f20;"/><path d="M582.075,70.63l-42.487,-0" style="fill:none;stroke:#231f20;stroke-width:0.2px;"/><rect x="2.168" y="1.587" width="720.803" height="191.515" style="fill:none;stroke:#231f20;stroke-width:2px;"/><g transform="matrix(8,0,0,8,442.543,164.199)"></g><text x="398.984px" y="164.199px" style="font-family:'Arial-BoldMT', 'Arial', sans-serif;font-weight:700;font-size:8px;">Local (City)</text><g transform="matrix(8,0,0,8,808.905,88.7622)"></g><text x="745.799px" y="88.762px" style="font-family:'Arial-BoldMT', 'Arial', sans-serif;font-weight:700;font-size:8px;">Global (Country)</text><rect x="108.574" y="25.808" width="69.689" height="25.087" style="fill:#587244;stroke:#fff;stroke-width:2px;"/><rect x="193.799" y="25.808" width="69.689" height="25.087" style="fill:#587244;stroke:#fff;stroke-width:2px;"/><rect x="108.574" y="56.805" width="69.689" height="25.087" style="fill:#587244;stroke:#fff;stroke-width:2px;"/><rect x="193.799" y="56.805" width="69.689" height="25.087" style="fill:#587244;stroke:#fff;stroke-width:2px;"/><rect x="108.574" y="87.787" width="69.689" height="25.087" style="fill:#587244;stroke:#fff;stroke-width:2px;"/><rect x="193.799" y="87.787" width="69.689" height="25.087" style="fill:#587244;stroke:#fff;stroke-width:2px;"/><rect x="108.574" y="128.498" width="69.689" height="25.087" style="fill:#587244;stroke:#fff;stroke-width:2px;"/><rect x="193.799" y="128.498" width="69.689" height="25.087" style="fill:#587244;stroke:#fff;stroke-width:2px;"/><circle cx="143.418" cy="117.21" r="0.708"/><circle cx="143.418" cy="120.211" r="0.708"/><circle cx="143.418" cy="123.372" r="0.708"/><circle cx="228.644" cy="117.21" r="0.708"/><circle cx="228.644" cy="120.211" r="0.708"/><circle cx="228.644" cy="123.372" r="0.708"/><g transform="matrix(8,0,0,8,245.749,143.905)"></g><text x="211.538px" y="143.905px" style="font-family:'Arial-BoldMT', 'Arial', sans-serif;font-weight:700;font-size:8px;fill:#fff;">Output N</text><g transform="matrix(8,0,0,8,162.977,41.2147)"></g><text x="123.859px" y="41.215px" style="font-family:'Arial-BoldMT', 'Arial', sans-serif;font-weight:700;font-size:8px;fill:#fff;">Module 01</text><g transform="matrix(8,0,0,8,247.31,41.2147)"></g><text x="209.978px" y="41.215px" style="font-family:'Arial-BoldMT', 'Arial', sans-serif;font-weight:700;font-size:8px;fill:#fff;">Output 01</text><g transform="matrix(8,0,0,8,162.977,72.2118)"></g><text x="123.859px" y="72.212px" style="font-family:'Arial-BoldMT', 'Arial', sans-serif;font-weight:700;font-size:8px;fill:#fff;">Module 02</text><g transform="matrix(8,0,0,8,247.31,72.2118)"></g><text x="209.978px" y="72.212px" style="font-family:'Arial-BoldMT', 'Arial', sans-serif;font-weight:700;font-size:8px;fill:#fff;">Output 02</text><g transform="matrix(8,0,0,8,162.977,103.194)"></g><text x="123.859px" y="103.194px" style="font-family:'Arial-BoldMT', 'Arial', sans-serif;font-weight:700;font-size:8px;fill:#fff;">Module 03</text><g transform="matrix(8,0,0,8,247.31,103.194)"></g><text x="209.978px" y="103.194px" style="font-family:'Arial-BoldMT', 'Arial', sans-serif;font-weight:700;font-size:8px;fill:#fff;">Output 03</text><g transform="matrix(8,0,0,8,161.416,143.905)"></g><text x="125.42px" y="143.905px" style="font-family:'Arial-BoldMT', 'Arial', sans-serif;font-weight:700;font-size:8px;fill:#fff;">Module N</text><rect x="657.977" y="129.161" width="46.11" height="44.233" style="fill:#eaf4dd;stroke:#231f20;stroke-width:2px;"/><path d="M656.027,67.311l-0,6.638c-0,1.832 -1.487,3.319 -3.319,3.319l-64.914,0c-1.832,0 -3.319,-1.487 -3.319,-3.319l-0,-6.638c-0,-1.832 1.487,-3.319 3.319,-3.319l64.914,-0c1.832,-0 3.319,1.487 3.319,3.319Z" style="fill:#bde6de;"/><clipPath id="_clip11"><path d="M656.027,67.311l-0,6.638c-0,1.832 -1.487,3.319 -3.319,3.319l-64.914,0c-1.832,0 -3.319,-1.487 -3.319,-3.319l-0,-6.638c-0,-1.832 1.487,-3.319 3.319,-3.319l64.914,-0c1.832,-0 3.319,1.487 3.319,3.319Z"/></clipPath><g clip-path="url(#_clip11)"><g transform="matrix(8,0,0,8,644.706,73.4952)"></g><text x="595.796px" y="73.495px" style="font-family:'ArialMT', 'Arial', sans-serif;font-size:8px;fill:#231f20;">Measurement</text></g><path d="M812.881,67.311l0,6.638c0,1.832 -1.487,3.319 -3.319,3.319l-64.914,0c-1.831,0 -3.319,-1.487 -3.319,-3.319l0,-6.638c0,-1.832 1.488,-3.319 3.319,-3.319l64.914,-0c1.832,-0 3.319,1.487 3.319,3.319Z" style="fill:#587244;"/><clipPath id="_clip12"><path d="M812.881,67.311l0,6.638c0,1.832 -1.487,3.319 -3.319,3.319l-64.914,0c-1.831,0 -3.319,-1.487 -3.319,-3.319l0,-6.638c0,-1.832 1.488,-3.319 3.319,-3.319l64.914,-0c1.832,-0 3.319,1.487 3.319,3.319Z"/></clipPath><g clip-path="url(#_clip12)"><g transform="matrix(8,0,0,8,810.898,73.4952)"></g><text x="743.312px" y="73.495px" style="font-family:'ArialMT', 'Arial', sans-serif;font-size:8px;fill:#fff;">Collective outcome</text></g><path d="M738.329,69.13l3,1.5l-3,1.5c0.75,-0.75 0.75,-2.25 0,-3Z"/><path d="M656.027,70.63l82.902,-0" style="fill:none;stroke:#000;stroke-width:0.2px;"/><g transform="matrix(8,0,0,8,760.503,189.16)"></g><text x="728.945px" y="189.16px" style="font-family:'Arial-BoldMT', 'Arial', sans-serif;font-weight:700;font-size:8px;">National</text><g transform="matrix(8,0,0,8,681.492,182.942)"></g><text x="658.379px" y="182.942px" style="font-family:'Arial-BoldMT', 'Arial', sans-serif;font-weight:700;font-size:8px;">City N</text><g><path d="M643.747,150.773c-0,-0.391 0.317,-0.708 0.708,-0.708c0.39,0 0.707,0.317 0.707,0.708c0,0.391 -0.317,0.708 -0.707,0.708c-0.391,-0 -0.708,-0.317 -0.708,-0.708Z"/><path d="M646.747,150.773c0,-0.391 0.317,-0.708 0.708,-0.708c0.391,0 0.708,0.317 0.708,0.708c-0,0.391 -0.317,0.708 -0.708,0.708c-0.391,-0 -0.708,-0.317 -0.708,-0.708Z"/><path d="M649.908,150.773c-0,-0.391 0.317,-0.708 0.708,-0.708c0.39,0 0.707,0.317 0.707,0.708c0,0.391 -0.317,0.708 -0.707,0.708c-0.391,-0 -0.708,-0.317 -0.708,-0.708Z"/></g></svg>