<?xml version="1.0" encoding="UTF-8"?><svg id="Layer_1" xmlns="http://www.w3.org/2000/svg" viewBox="0 0 512 512"><defs><style>.cls-1{fill:none;stroke:#e78224;stroke-miterlimit:10;stroke-width:10px;}.cls-2{fill:#e88224;}</style></defs><path class="cls-2" d="M162.85,256.03c-71.02-70.46-40.44-190.24,54.92-219.54,83.73-25.38,169.31,36.06,171.05,123.7,.23,7.98-.46,16.3-1.68,24.19-4.53,27.07-17.71,52.66-37.27,71.65,8.73-9.35,16.17-19.88,21.96-31.27,46.93-94.55-29.46-202.13-134.27-187.67-104.84,16.4-146.87,141.6-74.72,218.94h0Z"/><circle class="cls-1" cx="256.36" cy="256.31" r="241.83"/><g><path class="cls-2" d="M236.12,255.67l-73.25,1.56,.87-.37c-51.66,53.6-47.52,141.04,9.54,188.96,17.86,15.28,39.99,25.39,63.2,29.08l-2.75,2.36c.21-61.74,1.43-159.14,2.38-221.59h0Zm0,0c.85,64.12,2.34,160.92,2.4,224.36-49.65-6.14-93.62-42.64-108.8-90.3-12.71-38.38-6.57-82.17,16.35-115.43,4.72-6.84,10.07-13.26,15.92-19.15l.37-.37h.5l73.26,.89h0Z"/><path class="cls-2" d="M349.01,255.15c-20.66,.43-52.93,1.21-73.82,1.57l1.22-1.23c.63,51.62,1.07,115.14,1.19,166.48l.08,55.49-2.85-2.47c5.86-.88,11.66-2.12,17.36-3.72,65.67-18.89,105.65-86.72,90.48-153.37-5.04-23.52-17.1-45.35-33.66-62.75h0Zm0,0c31.01,29.28,45.6,74.72,37.98,116.74-9.11,56.14-57.81,102.13-114.31,108.46,.02-52.78,.24-116.58,.69-169.36l.58-55.49v-1.24h1.22c20.94,.41,53.15,.44,73.83,.9h0Z"/></g></svg>