<?xml version="1.0" encoding="utf-8"?>
<!-- Generator: Adobe Illustrator 28.1.0, SVG Export Plug-In . SVG Version: 6.00 Build 0)  -->
<svg version="1.1" id="Layer_1" xmlns="http://www.w3.org/2000/svg" xmlns:xlink="http://www.w3.org/1999/xlink" x="0px" y="0px"
	 viewBox="0 0 193.5 35" style="enable-background:new 0 0 193.5 35;" xml:space="preserve">
<style type="text/css">
	.st0{fill:#231F20;}
	.st1{fill:#F16522;}
	.st2{fill:#FFFFFF;}
	.st3{font-family:'BanglaMN';}
	.st4{font-size:7.7596px;}
	.st5{fill:#FF6600;}
	.st6{fill:#FFCCAA;}
</style>
<path class="st0" d="M109.8,19c1.3,0,2-0.9,2-2.1v-6.3h2.8V17c0,2.8-2.3,4-4.9,4c-2.6,0-4.8-1.1-4.9-4v-6.5h2.8v6.3
	C107.8,18.1,108.5,19,109.8,19z M133.6,17.5v-0.7c0-2-1.1-3.4-3.1-3.4c-2.2,0-3.3,1.7-3.3,3.8c0,2.1,0.9,3.7,3.2,3.7
	c1.7,0,2.9-0.8,3.2-2.4h-1.4c-0.2,1-0.7,1.4-1.7,1.4c-1.4,0-1.8-1.2-1.8-2.5C128.5,17.5,133.6,17.5,133.6,17.5z M128.6,16.5
	c0-1.1,0.7-2.1,1.8-2.1c1.3,0,1.8,0.9,1.8,2.1H128.6z M135.2,10.5h1.3v10.2h-1.3V10.5z M97.6,20.7h2.8v-8.2h3.2v-2h-9.2v2h3.2V20.7z
	 M104.4,5.6c-0.7,0.2-1.4,0-1.4-0.9c0-1.4,3.3-2.6,3.8-3.8c0.1-0.3,0.1-0.6,0-0.6c-0.1,0,0,0.2-0.3,0.4c-1.4,1.4-3.7,1.4-5.4,2.2
	c-1.2,0.5-4.5,2.1-3.8,5.7c0,0.2,0.1,0.7,0.2,0.7c0.1,0,0.1-0.3,0.1-0.7c0-2.1,2.5-2.7,3.3-4.1c0.1-0.2,0.3-0.4,0.3-0.3
	c0,0.1,0,0.1,0,0.3c-0.3,1.1-1.4,1.9-1.1,2.7c0.4,1.1,1.7,0.3,2.1-0.4c0.1-0.2,0.2-0.3,0.2-0.3c0.1,0,0.1,0.2,0,0.4
	c-0.2,1.2-0.5,1.9-1.4,2.6c-0.3,0.2-0.7,0.3-0.7,0.4c0,0,0.2,0,0.4,0c2.4-0.2,4.4-3,4.9-4.8c0.1-0.1,0.1-0.2,0-0.3
	c-0.1-0.1-0.2,0.1-0.3,0.2C105.1,5.2,104.8,5.5,104.4,5.6z M140.8,20.7v-6.2h1.6v-0.9h-1.6v-1.1c0-0.8,0.4-1,1.2-1
	c0.2,0,0.5,0,0.7,0v-1.1c-0.3-0.1-0.6-0.1-1-0.1c-1.3,0-2.2,0.6-2.2,2v1.3H138v0.9h1.4v6.2C139.4,20.7,140.8,20.7,140.8,20.7z
	 M143.2,13.7v0.9h1.2v4.5c0,0.9,0,1.9,2,1.9c0.3,0,0.6,0,0.9-0.1v-1c-0.2,0.1-0.5,0.1-0.7,0.1c-0.5,0-0.9-0.2-0.9-0.7v-4.6h1.6v-0.9
	h-1.6v-1.9l-1.3,0.4v1.5C144.4,13.7,143.2,13.7,143.2,13.7z M119,11.8h2.1c2.4,0,3.3,1.8,3.3,3.9c0,2.1-1,3.9-3.3,3.9H119
	C119,19.5,119,11.8,119,11.8z M117.5,20.7h3.5c4.4,0,4.8-3.7,4.8-5.1s-0.5-5.1-4.8-5.1h-3.5C117.5,10.5,117.5,20.7,117.5,20.7z
	 M99.9,31.8c0.7,0,1.2-0.4,1.2-1.1c0-0.6-0.4-1.1-1-1.1h-1.8v2.2H99.9z M98.2,27.6l1.4,0c0.8,0,1.3-0.3,1.3-1.1c0-0.6-0.5-1-1.2-1
	h-1.5V27.6z M95.4,33.8V23.6h4.9c1.9,0,3.5,0.9,3.5,2.7c0,1.3-1.1,2-2.2,2.2v0c1.4,0.2,2.5,1,2.5,2.5c0,3-3.8,2.8-3.9,2.8
	C100.2,33.8,95.4,33.8,95.4,33.8z M111.4,23.6h3.3l-3.5,4.5l3.8,5.7h-3.5l-3.4-5.4h0v5.4h-2.8V23.6h2.8v4.5h0
	C108.1,28.1,111.4,23.6,111.4,23.6z M118.9,32.6h2.4c1.1,0,2-0.5,2-1.7s-0.9-1.7-2-1.7h-2.4V32.6z M118.9,27.9h1.7
	c1.3,0,2.3-0.2,2.3-1.5s-0.9-1.6-2.3-1.5h-1.7V27.9z M117.5,33.8V23.6h3.6c1.7,0,3.3,0.7,3.3,2.7c0,1.1-0.7,1.9-1.7,2.2v0
	c1.3,0.2,2,1.4,2,2.6c0,1.2-0.8,2.1-1.8,2.5c-0.5,0.2-1.1,0.2-1.7,0.2C121.1,33.8,117.5,33.8,117.5,33.8z M129.6,33
	c1.6,0,2.1-1.3,2.1-2.8c0-1.5-0.5-2.8-2.1-2.8c-1.6,0-2.1,1.3-2.1,2.8S128,33,129.6,33z M133.1,30.2c0,2.2-1.2,3.8-3.5,3.8
	c-2.3,0-3.5-1.6-3.5-3.8s1.2-3.8,3.5-3.8C131.9,26.5,133.1,28,133.1,30.2z M139.6,26.7h1.3v7.1h-1.3v-1h0c-0.5,0.9-1.4,1.3-2.4,1.3
	c-1.5,0-2.3-1.1-2.3-2.6v-4.7h1.3v4.2c0,1.2,0.3,2.1,1.6,2.1c0.6,0,1.3-0.3,1.6-1c0.3-0.7,0.3-1.5,0.3-1.7
	C139.6,30.3,139.6,26.7,139.6,26.7z M153.6,26.7l-2.5,7.1h-1.5l-1.6-5.8h0l-1.8,5.8h-1.6l-2.3-7.1h1.5l1.7,5.7h0l1.8-5.7h1.7
	l1.6,5.6h0l1.8-5.6C152.2,26.7,153.6,26.7,153.6,26.7z M154.8,33.8V23.6h1.3v6l2.7-2.9h1.7l-3,3l3.2,4.1H159l-2.8-3.8h0v3.8
	C156.1,33.8,154.8,33.8,154.8,33.8z M166.6,26.7h1.3v7.1h-1.3v-1h0c-0.5,0.9-1.4,1.3-2.4,1.3c-1.5,0-2.3-1.1-2.3-2.6v-4.7h1.3v4.2
	c0,1.2,0.3,2.1,1.6,2.1c0.6,0,1.3-0.3,1.6-1c0.3-0.7,0.3-1.5,0.3-1.7C166.6,30.3,166.6,26.7,166.6,26.7z M171.3,27.7L171.3,27.7
	c0.5-0.9,1.5-1.3,2.2-1.3c0.5,0,2.7,0.1,2.7,2.4v4.9h-1.3v-4.5c0-1.2-0.5-1.8-1.6-1.8c0,0-0.7,0-1.3,0.5c-0.2,0.2-0.6,0.5-0.6,1.9
	v3.9H170v-7.1h1.3V27.7z M181.3,33.1c1.6,0,2-1.5,2-2.8c0-1.3-0.5-2.8-2-2.8c-1.6,0-2,1.5-2,2.8C179.3,31.5,179.8,33.1,181.3,33.1z
	 M183.3,23.6h1.3v8.9c0,0.4,0,0.8,0.1,1.3h-1.4l0-1.1v-0.1h0c-0.5,1-1.4,1.3-2.4,1.3c-2.1,0-2.9-1.9-2.9-3.8c0-1.9,1-3.8,3.2-3.8
	c0.9,0,1.8,0.3,2.2,1.2h0C183.3,27.7,183.3,23.6,183.3,23.6z M191.2,29.6c0-1.2-0.5-2.1-1.8-2.1c-1.1,0-1.8,0.9-1.8,2.1H191.2z
	 M187.6,30.5c-0.1,1.2,0.4,2.5,1.8,2.5c1,0,1.6-0.4,1.7-1.4h1.4c-0.2,1.6-1.5,2.4-3.1,2.4c-2.3,0-3.2-1.6-3.2-3.7
	c0-2.1,1-3.8,3.3-3.8c2.1,0,3.1,1.4,3.1,3.3v0.7C192.6,30.5,187.6,30.5,187.6,30.5z M151.4,16.6c0.7,0,1-0.4,1-1.1
	c0-0.8-0.5-1.1-1.2-1.1h-0.4v2.2H151.4z M151.3,14.3c0.9,0,1.3,0.4,1.3,1.3c0,0.9-0.5,1.3-1.3,1.3h-0.7v-2.6
	C150.6,14.3,151.3,14.3,151.3,14.3z M154.5,15.8c0-0.4-0.2-0.6-0.6-0.6c-0.4,0-0.5,0.3-0.6,0.6H154.5z M153.4,16
	c0,0.4,0.2,0.7,0.6,0.7c0.3,0,0.5-0.2,0.5-0.4h0.2c-0.1,0.4-0.4,0.6-0.8,0.6c-0.5,0-0.8-0.5-0.8-1c0-0.5,0.3-1,0.8-1
	c0.6,0,0.8,0.4,0.8,1C154.8,16,153.4,16,153.4,16z M156.1,16.7c0.4,0,0.5-0.5,0.5-0.8c0-0.3-0.1-0.7-0.6-0.7c-0.4,0-0.6,0.4-0.6,0.7
	C155.4,16.3,155.6,16.7,156.1,16.7z M155.4,17.6h-0.2v-2.1c0-0.1,0-0.3,0-0.4h0.2l0,0.3l0,0c0.1-0.2,0.4-0.3,0.6-0.3
	c0.5,0,0.7,0.5,0.7,1c0,0.5-0.2,1-0.7,1c-0.3,0-0.5-0.1-0.6-0.3h0C155.4,16.6,155.4,17.6,155.4,17.6z M157.8,16.7
	c0.5,0,0.6-0.4,0.5-0.8c-0.3,0-1,0-1,0.4C157.4,16.6,157.6,16.7,157.8,16.7z M158.3,15.6c0-0.3-0.2-0.4-0.4-0.4
	c-0.2,0-0.4,0.1-0.4,0.3h-0.2c0.1-0.4,0.3-0.5,0.7-0.5c0.4,0,0.7,0.2,0.6,0.6v0.9c0,0.1,0,0.3,0,0.4h-0.2l0-0.3h0l0,0
	c-0.1,0.2-0.3,0.3-0.6,0.3c-0.3,0-0.6-0.2-0.6-0.6c0-0.2,0.1-0.4,0.4-0.5c0.2-0.1,0.6-0.1,0.8-0.1L158.3,15.6L158.3,15.6z
	 M159.3,16.9h-0.2v-1.4c0-0.1,0-0.3,0-0.4h0.2l0,0.3h0c0.1-0.2,0.2-0.3,0.4-0.3c0.1,0,0.1,0,0.2,0v0.2c0,0-0.1,0-0.1,0
	c-0.3,0-0.5,0.2-0.5,0.6V16.9z M160.6,15.3h-0.4v-0.2h0.4v-0.4l0.2-0.1v0.5h0.4v0.2h-0.4v1.2c0,0.2,0.1,0.3,0.2,0.3
	c0.1,0,0.1,0,0.2,0v0.2c-0.1,0-0.1,0-0.2,0c-0.5,0-0.4-0.3-0.4-0.5C160.6,16.4,160.6,15.3,160.6,15.3z M161.9,15.3L161.9,15.3
	c0.1-0.2,0.3-0.3,0.6-0.3c0.3,0,0.5,0.2,0.6,0.4c0.1-0.2,0.3-0.4,0.6-0.4c0.6,0,0.6,0.5,0.6,0.7v1.1h-0.2v-1.2
	c0-0.3-0.2-0.5-0.5-0.5c-0.4,0-0.5,0.3-0.5,0.6v1h-0.2v-1.2c0-0.3-0.2-0.5-0.5-0.5c-0.4,0-0.5,0.3-0.5,0.6v1h-0.2v-1.4
	c0-0.1,0-0.3,0-0.4h0.2C161.9,15.1,161.9,15.3,161.9,15.3z M166.2,15.8c0-0.4-0.2-0.6-0.6-0.6c-0.4,0-0.5,0.3-0.6,0.6
	C165,15.8,166.2,15.8,166.2,15.8z M165,16c0,0.4,0.2,0.7,0.6,0.7c0.3,0,0.5-0.2,0.5-0.4h0.2c-0.1,0.4-0.4,0.6-0.8,0.6
	c-0.5,0-0.8-0.5-0.8-1c0-0.5,0.3-1,0.8-1c0.6,0,0.8,0.4,0.8,1C166.4,16,165,16,165,16z M167.1,16.9h-0.2v-1.4c0-0.1,0-0.3,0-0.4h0.2
	l0,0.3l0,0c0.1-0.2,0.3-0.3,0.6-0.3c0.6,0,0.6,0.5,0.6,0.7v1.1h-0.2v-1.2c0-0.3-0.2-0.5-0.5-0.5c-0.4,0-0.5,0.3-0.5,0.6
	C167.1,15.8,167.1,16.9,167.1,16.9z M169,15.3h-0.4v-0.2h0.4v-0.4l0.2-0.1v0.5h0.4v0.2h-0.4v1.2c0,0.2,0.1,0.3,0.2,0.3
	c0.1,0,0.1,0,0.2,0v0.2c-0.1,0-0.1,0-0.2,0c-0.5,0-0.4-0.3-0.4-0.5C169,16.4,169,15.3,169,15.3z M169.7,19.3c0-0.2-0.1-0.4-0.4-0.5
	c-0.2-0.1-0.5-0.1-0.7,0.1l-0.2,0.2c-0.2-0.4-0.8-0.5-1.2,0c0-0.1,0-0.1,0-0.2c0-0.1-0.1-0.1-0.1-0.1c-0.1,0-0.1,0-0.1,0.1
	c0,0.5,0,1.1,0,1.6c0,0.1,0,0.1,0.1,0.1c0.1,0,0.1,0,0.1-0.1c0-0.3,0-0.6,0-0.9c0-0.1,0-0.2,0-0.3c0.1-0.3,0.3-0.4,0.6-0.4
	c0.2,0,0.4,0.2,0.4,0.5c0,0,0,0.1,0,0.1c0,0.3,0,0.6,0,0.9c0,0.1,0,0.1,0.1,0.1c0.1,0,0.1-0.1,0.1-0.1c0-0.4,0-0.7,0-1.1
	c0-0.2,0.1-0.3,0.2-0.4c0.3-0.2,0.7,0,0.7,0.4c0,0.4,0,0.8,0,1.1c0,0.1,0,0.1,0.1,0.1c0.1,0,0.1,0,0.1-0.1
	C169.7,20.2,169.8,19.7,169.7,19.3L169.7,19.3z M159.9,20.2c-0.1,0.2-0.2,0.3-0.4,0.3c-0.2,0-0.4-0.1-0.5-0.3
	c-0.2-0.3-0.2-0.6,0-0.9c0.1-0.2,0.3-0.3,0.5-0.3c0.2,0,0.4,0.1,0.5,0.3c0.1,0.1,0.1,0.3,0.1,0.4C159.9,19.9,159.9,20,159.9,20.2z
	 M159.3,18.8c-0.2,0-0.4,0.1-0.5,0.3v-0.9c0-0.1,0-0.2-0.1-0.2c-0.1,0-0.1,0.1-0.1,0.2c0,0.8,0,1.6,0,2.4c0,0.1,0,0.1,0.1,0.1
	c0.1,0,0.1,0,0.1-0.1c0,0,0-0.1,0-0.1c0,0,0.1,0.1,0.1,0.1c0.4,0.4,1,0.2,1.2-0.3c0.1-0.3,0.1-0.6,0-1
	C160,18.9,159.7,18.7,159.3,18.8z M156.6,18c-0.1,0-0.1,0.1-0.1,0.2c0,0.5,0,1.1,0,1.6c0,0.4-0.2,0.7-0.6,0.7
	c-0.5,0.1-0.9-0.2-0.9-0.7c0-0.5,0-1.1,0-1.6c0-0.1,0-0.1-0.1-0.1c-0.1,0-0.1,0-0.1,0.1c0,0.6,0,1.1,0,1.7c0,0.6,0.4,0.9,1,0.9
	c0.6,0,0.9-0.4,0.9-0.9c0-0.3,0-0.5,0-0.8c0-0.3,0-0.6,0-0.8C156.7,18.1,156.7,18,156.6,18z M161.2,20.5c-0.2,0-0.4-0.1-0.4-0.3
	c0-0.2,0.1-0.4,0.3-0.4c0.2,0,0.4-0.1,0.5,0c0,0,0.1,0,0.1,0.1C161.8,20.2,161.5,20.5,161.2,20.5z M161.9,20.2l0-0.9
	c0-0.2-0.1-0.4-0.2-0.5c-0.3-0.1-0.6-0.1-0.8,0c-0.1,0.1-0.2,0.2-0.2,0.3c0,0-0.1,0.1,0,0.1c0.1,0,0.1,0.1,0.2,0
	c0.1-0.3,0.3-0.3,0.6-0.2c0.2,0.1,0.3,0.2,0.2,0.5c0,0.2-0.2,0.1-0.3,0.1c-0.2,0-0.4,0-0.6,0.1c-0.2,0.1-0.3,0.4-0.3,0.6
	c0,0.2,0.2,0.4,0.4,0.5c0.3,0.1,0.6,0,0.8-0.3c0,0,0,0.1,0,0.1c0,0.1,0,0.2,0.1,0.2c0.2,0,0.1-0.1,0.1-0.2
	C161.9,20.4,161.9,20.3,161.9,20.2L161.9,20.2z M151.7,20.3c-0.3,0.3-0.7,0.3-0.9-0.1c-0.1-0.2-0.1-0.3-0.1-0.5
	c0-0.2,0.1-0.4,0.2-0.6c0.2-0.2,0.5-0.2,0.8,0c0,0,0,0,0,0C152,19.5,152,20,151.7,20.3z M151.2,18.8c-0.3,0-0.5,0.2-0.7,0.5
	c-0.1,0.3-0.1,0.7,0,1c0.1,0.4,0.5,0.6,0.9,0.5c0.5-0.1,0.7-0.5,0.7-1.1C152.1,19.1,151.8,18.8,151.2,18.8z M166.2,19.7
	c-0.2-0.1-0.4-0.1-0.6-0.2c-0.1,0-0.2-0.1-0.2-0.2c0-0.1,0.1-0.2,0.2-0.3c0.3-0.1,0.5,0,0.7,0.2c0.1,0.1,0.2,0.1,0.2,0
	c0.1,0,0-0.1,0-0.1c-0.1-0.3-0.3-0.4-0.7-0.4c-0.1,0-0.3,0-0.4,0.1c-0.1,0.1-0.2,0.3-0.2,0.4c0,0.2,0.1,0.3,0.3,0.4
	c0.1,0,0.2,0.1,0.3,0.1c0.1,0,0.3,0.1,0.4,0.1c0.2,0.1,0.2,0.3,0.1,0.4c-0.1,0.2-0.3,0.2-0.5,0.2c-0.2,0-0.4-0.1-0.4-0.3
	c0-0.1-0.1-0.1-0.2-0.1c-0.1,0,0,0.1,0,0.2c0,0.1,0.1,0.2,0.3,0.3c0.3,0.1,0.6,0.1,0.9,0c0.2-0.1,0.3-0.3,0.3-0.5
	C166.6,19.8,166.4,19.7,166.2,19.7z M163.9,19.4c0-0.4-0.3-0.7-0.7-0.6c-0.2,0-0.3,0.1-0.5,0.3c0,0,0-0.1,0-0.1c0-0.1,0-0.1-0.2-0.1
	c-0.1,0-0.1,0.1-0.1,0.1c0,0.1,0,0.2,0,0.2v1.3c0,0.1,0,0.1,0.1,0.1c0.1,0,0.1,0,0.1-0.1c0-0.4,0-0.7,0-1.1c0-0.3,0.3-0.5,0.6-0.5
	c0.3,0,0.4,0.2,0.4,0.5c0,0.4,0,0.7,0,1.1c0,0.1,0,0.1,0.1,0.1c0.1,0,0.1,0,0.1-0.1C163.9,20.2,163.9,19.8,163.9,19.4L163.9,19.4z
	 M152.9,18.5c0-0.2,0.1-0.3,0.3-0.3c0,0,0.1,0.1,0.1-0.1c0-0.1-0.1-0.1-0.1-0.1c-0.3-0.1-0.5,0.1-0.5,0.5c0,0.1,0,0.2,0,0.3
	c-0.1,0.1-0.2,0-0.3,0.1c-0.1,0-0.1,0-0.1,0.1c0,0.1,0,0.1,0.1,0.1c0.1,0,0.1,0,0.2,0c0.1,0,0.1,0,0.1,0.1c0,0.2,0,0.5,0,0.7
	c0,0.2,0,0.5,0,0.7c0,0.1,0,0.1,0.1,0.1c0.1,0,0.1-0.1,0.1-0.1l0-1.2c0-0.3,0-0.3,0.3-0.3c0.1,0,0.1,0,0.1-0.1c0-0.1,0-0.1-0.1-0.1
	C152.9,18.8,152.9,18.8,152.9,18.5C152.9,18.5,152.9,18.5,152.9,18.5z M158.2,18.8c-0.2,0-0.4,0.1-0.5,0.3c0-0.1,0-0.1,0-0.1
	c0-0.1,0-0.1-0.1-0.1c-0.1,0-0.1,0.1-0.1,0.1c0,0.5,0,1,0,1.6c0,0.1,0,0.2,0.1,0.2c0.1,0,0.1-0.1,0.1-0.2c0-0.3,0-0.7,0-1
	c0-0.4,0.2-0.6,0.5-0.6c0.1,0,0.1,0,0.1-0.1C158.2,18.8,158.2,18.8,158.2,18.8z M164.6,18.8c-0.1,0-0.1,0-0.1,0.1c0,0.5,0,1.1,0,1.6
	c0,0.1,0,0.1,0.1,0.1c0.1,0,0.1,0,0.1-0.1c0-0.3,0-0.5,0-0.8c0-0.3,0-0.5,0-0.8C164.7,18.9,164.7,18.8,164.6,18.8z M164.6,18
	c-0.1,0-0.1,0.1-0.1,0.1c0,0.1,0,0.1,0.1,0.1c0.1,0,0.1-0.1,0.1-0.2C164.7,18,164.7,18,164.6,18z"/>
<g>
	<g>
		<defs>
			<path id="SVGID_1_" d="M71.5,13.2c0.3-0.4,0.3-1-0.1-1.4c-0.4-0.3-1-0.3-1.4,0.1c-0.3,0.4-0.3,1,0.1,1.4
				C70.5,13.7,71.2,13.6,71.5,13.2 M73,15.2c0.5-0.2,0.7-0.8,0.5-1.3c-0.2-0.5-0.8-0.7-1.3-0.5c-0.5,0.2-0.7,0.8-0.5,1.3
				C71.9,15.2,72.5,15.4,73,15.2z M73.4,15.7c-0.5,0-1,0.4-1,1c0,0.5,0.4,1,1,1c0.5,0,1-0.4,1-1C74.4,16.1,74,15.7,73.4,15.7z
				 M72.8,19.9c0.5,0.2,1.1,0,1.3-0.5c0.2-0.5,0-1.1-0.5-1.3c-0.5-0.2-1.1,0-1.3,0.5C72.1,19.1,72.3,19.7,72.8,19.9z M72.8,21.8
				c0.4-0.4,0.4-1,0.1-1.4c-0.4-0.4-1-0.4-1.4-0.1c-0.4,0.4-0.4,1-0.1,1.4C71.8,22.1,72.4,22.1,72.8,21.8z M70,21.6
				c-0.5,0.2-0.8,0.7-0.6,1.2c0.2,0.5,0.7,0.8,1.2,0.6c0.5-0.2,0.8-0.7,0.6-1.2C71.1,21.7,70.5,21.4,70,21.6z M73.4,24.5
				c0.4-0.3,0.4-0.8,0.1-1.2c-0.3-0.4-0.8-0.4-1.2-0.1c-0.4,0.3-0.4,0.8-0.1,1.2C72.5,24.7,73,24.8,73.4,24.5z M76.8,17.6
				c0-0.5-0.4-0.8-0.8-0.9c-0.5,0-0.8,0.4-0.9,0.8c0,0.5,0.4,0.8,0.8,0.9C76.4,18.5,76.7,18.1,76.8,17.6z M75.3,20.8
				c0.4,0.1,0.9-0.1,1.1-0.5c0.1-0.4-0.1-0.9-0.5-1.1c-0.4-0.1-0.9,0.1-1.1,0.5C74.6,20.1,74.8,20.6,75.3,20.8z M75.3,22.4
				c0.3-0.4,0.1-0.9-0.2-1.2c-0.4-0.3-0.9-0.1-1.2,0.2c-0.3,0.4-0.1,0.9,0.2,1.2C74.5,22.9,75,22.8,75.3,22.4z M75.7,15.8
				c0.4-0.1,0.7-0.6,0.5-1.1c-0.1-0.4-0.6-0.7-1.1-0.5c-0.4,0.1-0.7,0.6-0.5,1.1C74.8,15.7,75.3,15.9,75.7,15.8z M74.8,12
				c-0.3-0.4-0.8-0.4-1.2-0.1c-0.4,0.3-0.4,0.8-0.1,1.2c0.3,0.4,0.8,0.4,1.2,0.1C75,12.9,75.1,12.4,74.8,12z M71.8,11.4
				c0.4,0.3,0.9,0.2,1.2-0.2c0.3-0.4,0.2-0.9-0.2-1.2c-0.4-0.3-0.9-0.2-1.2,0.2C71.3,10.6,71.4,11.2,71.8,11.4z M73.1,9.6
				c0.3,0.2,0.8,0.1,1-0.2c0.2-0.3,0.1-0.8-0.2-1c-0.3-0.2-0.8-0.1-1,0.2C72.7,8.9,72.8,9.4,73.1,9.6z M75.5,10.7
				c0.3-0.3,0.3-0.7,0-1c-0.3-0.3-0.7-0.3-1,0c-0.3,0.3-0.3,0.7,0,1C74.8,11,75.3,11,75.5,10.7z M75.7,12.2c0.2,0.3,0.7,0.4,1,0.2
				c0.3-0.2,0.4-0.7,0.2-1c-0.2-0.3-0.7-0.4-1-0.2C75.6,11.4,75.5,11.8,75.7,12.2z M76.9,12.8c-0.4,0.2-0.5,0.6-0.4,1
				c0.2,0.4,0.6,0.5,1,0.4c0.4-0.2,0.5-0.6,0.4-1C77.7,12.8,77.3,12.6,76.9,12.8z M77.1,15.6c0.1,0.4,0.5,0.6,0.9,0.5
				c0.4-0.1,0.6-0.5,0.5-0.9c-0.1-0.4-0.5-0.6-0.9-0.5C77.2,14.8,77,15.2,77.1,15.6z M78.8,17.6c0-0.4-0.3-0.7-0.7-0.7
				c-0.4,0-0.7,0.3-0.7,0.7c0,0.4,0.3,0.7,0.7,0.7C78.4,18.3,78.8,18,78.8,17.6z M78.5,19.7c0.1-0.4-0.2-0.8-0.6-0.9
				c-0.4-0.1-0.8,0.2-0.9,0.6c-0.1,0.4,0.2,0.8,0.6,0.9C78.1,20.4,78.4,20.1,78.5,19.7z M77,22.1c0.4,0.2,0.8,0,1-0.4
				c0.2-0.4,0-0.8-0.4-1c-0.4-0.2-0.8,0-1,0.4C76.4,21.5,76.6,21.9,77,22.1z M76.8,23.7c0.2-0.3,0.1-0.8-0.2-1
				c-0.3-0.2-0.8-0.1-1,0.2c-0.2,0.3-0.1,0.8,0.2,1C76.1,24.1,76.6,24,76.8,23.7z M75.5,25.3c0.3-0.3,0.3-0.7,0-1
				c-0.3-0.3-0.7-0.3-1,0c-0.3,0.3-0.3,0.7,0,1C74.7,25.6,75.2,25.6,75.5,25.3z M73,25.5c-0.3,0.2-0.4,0.7-0.2,1
				c0.2,0.3,0.7,0.4,1,0.2c0.3-0.2,0.4-0.7,0.2-1C73.8,25.3,73.3,25.2,73,25.5z M75.8,8.6c0.2-0.2,0.2-0.6,0-0.9
				c-0.2-0.2-0.6-0.2-0.9,0c-0.2,0.2-0.2,0.6,0,0.9C75.1,8.8,75.5,8.8,75.8,8.6z M77.4,10.3c0.3-0.2,0.4-0.6,0.2-0.9
				c-0.2-0.3-0.6-0.4-0.9-0.2c-0.3,0.2-0.4,0.6-0.2,0.9C76.7,10.4,77.1,10.5,77.4,10.3z M77.8,12c0.1,0.3,0.5,0.5,0.8,0.3
				c0.3-0.1,0.5-0.5,0.3-0.8c-0.1-0.3-0.5-0.5-0.8-0.3C77.8,11.3,77.6,11.7,77.8,12z M79.3,14.5c0.3-0.1,0.6-0.4,0.5-0.7
				c-0.1-0.3-0.4-0.6-0.7-0.5c-0.3,0.1-0.6,0.4-0.5,0.7C78.7,14.3,79,14.5,79.3,14.5z M79.7,15.7c-0.3,0-0.6,0.3-0.6,0.6
				c0,0.3,0.3,0.6,0.6,0.6c0.3,0,0.6-0.3,0.6-0.6C80.3,15.9,80.1,15.7,79.7,15.7z M80.3,19c0.1-0.3-0.1-0.7-0.5-0.7
				c-0.3-0.1-0.7,0.1-0.7,0.5c-0.1,0.3,0.1,0.7,0.5,0.7C79.9,19.6,80.2,19.4,80.3,19z M79,21.6c0.3,0.1,0.7,0,0.8-0.3
				c0.1-0.3,0-0.7-0.3-0.8c-0.3-0.1-0.7,0-0.8,0.3C78.5,21.1,78.7,21.5,79,21.6z M78.9,23.5c0.2-0.3,0.1-0.7-0.2-0.9
				c-0.3-0.2-0.7-0.1-0.9,0.2c-0.2,0.3-0.1,0.7,0.2,0.9C78.3,23.9,78.7,23.8,78.9,23.5z M77.4,25.7c0.2-0.2,0.3-0.6,0-0.9
				c-0.2-0.2-0.6-0.3-0.9,0c-0.2,0.2-0.3,0.6,0,0.9C76.7,25.9,77.1,25.9,77.4,25.7z M75,26.3c-0.3,0.2-0.4,0.6-0.2,0.9
				c0.2,0.3,0.6,0.4,0.9,0.2c0.3-0.2,0.4-0.6,0.2-0.9C75.6,26.2,75.3,26.1,75,26.3z M75.2,6.3c0.3,0.2,0.6,0.1,0.8-0.2
				c0.2-0.3,0.1-0.6-0.2-0.8c-0.3-0.2-0.6-0.1-0.8,0.2C74.8,5.8,74.9,6.2,75.2,6.3z M78.1,8c0.2-0.2,0.2-0.6,0-0.8
				c-0.2-0.2-0.6-0.2-0.8,0C77,7.4,77,7.8,77.2,8C77.5,8.3,77.8,8.3,78.1,8z M79.8,10.4c0.3-0.2,0.4-0.5,0.2-0.8
				c-0.2-0.3-0.5-0.4-0.8-0.2c-0.3,0.2-0.4,0.5-0.2,0.8C79.2,10.5,79.5,10.6,79.8,10.4z M80.1,12.3c0.1,0.3,0.5,0.4,0.8,0.3
				c0.3-0.1,0.4-0.5,0.3-0.8c-0.1-0.3-0.5-0.4-0.8-0.3C80.1,11.6,80,12,80.1,12.3z M81.5,15.1c0.3-0.1,0.5-0.4,0.5-0.7
				c-0.1-0.3-0.4-0.5-0.7-0.5c-0.3,0.1-0.5,0.4-0.5,0.7C80.9,15,81.2,15.2,81.5,15.1z M81.7,16.7c-0.3,0-0.6,0.3-0.6,0.6
				c0,0.3,0.3,0.6,0.6,0.6c0.3,0,0.6-0.3,0.6-0.6C82.3,17,82,16.7,81.7,16.7z M81.3,20.9c0.3,0.1,0.6-0.1,0.7-0.5
				c0.1-0.3-0.1-0.6-0.5-0.7c-0.3-0.1-0.6,0.1-0.7,0.5C80.8,20.5,81,20.8,81.3,20.9z M80.9,22.4c-0.3-0.1-0.6,0-0.8,0.3
				c-0.1,0.3,0,0.6,0.3,0.8c0.3,0.1,0.6,0,0.8-0.3C81.3,22.8,81.2,22.5,80.9,22.4z M79.9,25.5c0.2-0.3,0.1-0.6-0.2-0.8
				c-0.3-0.2-0.6-0.1-0.8,0.2c-0.2,0.3-0.1,0.6,0.2,0.8C79.3,25.9,79.7,25.8,79.9,25.5z M77.1,27c-0.2,0.2-0.2,0.6,0,0.8
				c0.2,0.2,0.6,0.2,0.8,0c0.2-0.2,0.2-0.6,0-0.8C77.7,26.8,77.3,26.8,77.1,27z M75,28.7c-0.3,0.2-0.4,0.5-0.2,0.8
				c0.2,0.3,0.5,0.4,0.8,0.2c0.3-0.2,0.4-0.5,0.2-0.8C75.6,28.6,75.3,28.5,75,28.7z M77.8,3.5c0.1-0.1,0.1-0.3-0.1-0.4
				C77.5,3,77.4,3,77.3,3.2c-0.1,0.1-0.1,0.3,0.1,0.4C77.5,3.7,77.7,3.6,77.8,3.5z M80.2,5.7c0.1-0.1,0.1-0.3,0-0.4
				c-0.1-0.1-0.3-0.1-0.4,0c-0.1,0.1-0.1,0.3,0,0.4C79.9,5.8,80.1,5.8,80.2,5.7z M82.2,8.2c0.1-0.1,0.2-0.3,0.1-0.4
				c-0.1-0.1-0.3-0.2-0.4-0.1c-0.1,0.1-0.2,0.3-0.1,0.4C81.9,8.2,82.1,8.3,82.2,8.2z M83.5,10.6c-0.2,0.1-0.2,0.2-0.2,0.4
				c0.1,0.2,0.2,0.2,0.4,0.2c0.2-0.1,0.2-0.2,0.2-0.4C83.8,10.6,83.6,10.5,83.5,10.6z M84.6,14.2c0.2,0,0.3-0.2,0.2-0.4
				c0-0.2-0.2-0.3-0.4-0.2c-0.2,0-0.3,0.2-0.2,0.4C84.3,14.1,84.4,14.2,84.6,14.2z M84.9,16.9c-0.2,0-0.3,0.1-0.3,0.3
				c0,0.2,0.1,0.3,0.3,0.3c0.2,0,0.3-0.1,0.3-0.3C85.2,17.1,85.1,16.9,84.9,16.9z M84.7,20.4c-0.2,0-0.3,0.1-0.4,0.2
				c0,0.2,0.1,0.3,0.2,0.4c0.2,0,0.3-0.1,0.4-0.2C84.9,20.6,84.8,20.4,84.7,20.4z M83.6,24.1c-0.2-0.1-0.3,0-0.4,0.2
				c-0.1,0.2,0,0.3,0.2,0.4c0.2,0.1,0.3,0,0.4-0.2C83.8,24.3,83.8,24.2,83.6,24.1z M81.5,27.3c-0.1,0.1-0.1,0.3,0.1,0.4
				c0.1,0.1,0.3,0.1,0.4-0.1c0.1-0.1,0.1-0.3-0.1-0.4C81.8,27.1,81.6,27.1,81.5,27.3z M79.6,29.4c-0.1,0.1-0.1,0.3,0,0.4
				c0.1,0.1,0.3,0.1,0.4,0c0.1-0.1,0.1-0.3,0-0.4C80,29.3,79.8,29.3,79.6,29.4z M77,31.5c-0.1,0.1-0.2,0.3-0.1,0.4
				c0.1,0.1,0.3,0.2,0.4,0.1c0.1-0.1,0.2-0.3,0.1-0.4C77.4,31.5,77.2,31.4,77,31.5z M77.5,5.2c-0.1,0.1-0.2,0.4,0,0.5
				c0.1,0.1,0.4,0.2,0.5,0c0.1-0.1,0.2-0.4,0-0.5C77.9,5.1,77.6,5.1,77.5,5.2z M80,7.9c0.2-0.1,0.2-0.4,0.1-0.5
				c-0.1-0.2-0.4-0.2-0.5-0.1c-0.2,0.1-0.2,0.4-0.1,0.5C79.6,8,79.8,8,80,7.9z M81.7,10.6c0.2-0.1,0.3-0.3,0.2-0.5
				c-0.1-0.2-0.3-0.3-0.5-0.2c-0.2,0.1-0.3,0.3-0.2,0.5C81.3,10.6,81.5,10.7,81.7,10.6z M82.3,12.9c0,0.2,0.2,0.3,0.4,0.3
				c0.2,0,0.3-0.2,0.3-0.4c0-0.2-0.2-0.3-0.4-0.3C82.4,12.5,82.2,12.7,82.3,12.9z M83.2,15.2c-0.2,0-0.4,0.2-0.4,0.4
				c0,0.2,0.2,0.4,0.4,0.4c0.2,0,0.4-0.2,0.4-0.4C83.6,15.4,83.4,15.2,83.2,15.2z M82.9,18.8c0,0.2,0.1,0.4,0.3,0.4
				c0.2,0,0.4-0.1,0.4-0.3c0-0.2-0.1-0.4-0.3-0.4C83.1,18.4,82.9,18.6,82.9,18.8z M82.8,21.6c-0.2-0.1-0.4,0-0.5,0.2
				c-0.1,0.2,0,0.4,0.2,0.5c0.2,0.1,0.4,0,0.5-0.2C83.1,21.9,83,21.6,82.8,21.6z M81.7,25.1c0.1-0.2,0.1-0.4-0.1-0.5
				c-0.2-0.1-0.4-0.1-0.5,0.1c-0.1,0.2-0.1,0.4,0.1,0.5C81.4,25.3,81.6,25.3,81.7,25.1z M80,27.7c0.1-0.1,0.2-0.4,0-0.5
				c-0.1-0.1-0.4-0.2-0.5,0c-0.1,0.1-0.2,0.4,0,0.5C79.6,27.8,79.9,27.8,80,27.7z M77.3,29.3c-0.2,0.1-0.2,0.3-0.1,0.5
				c0.1,0.2,0.3,0.2,0.5,0.1c0.2-0.1,0.2-0.3,0.1-0.5C77.7,29.2,77.5,29.1,77.3,29.3z"/>
		</defs>
		
			<linearGradient id="SVGID_00000115491363584717949700000018346427856155313590_" gradientUnits="userSpaceOnUse" x1="69.3903" y1="17.5641" x2="85.2284" y2="17.5641">
			<stop  offset="0" style="stop-color:#F16522"/>
			<stop  offset="1" style="stop-color:#FFFFFF"/>
		</linearGradient>
		<use xlink:href="#SVGID_1_"  style="overflow:visible;fill:url(#SVGID_00000115491363584717949700000018346427856155313590_);"/>
		<clipPath id="SVGID_00000034799237151180862020000000524198020962267820_">
			<use xlink:href="#SVGID_1_"  style="overflow:visible;"/>
		</clipPath>
	</g>
	<g>
		<path class="st1" d="M69.4,12c-0.1,0.5-0.7,0.8-1.2,0.7c-0.5-0.1-0.8-0.7-0.7-1.2c0.1-0.5,0.7-0.8,1.2-0.7
			C69.3,11,69.6,11.5,69.4,12"/>
		<path class="st1" d="M67.1,23c0-0.5,0.5-0.9,1.1-0.9c0.5,0,0.9,0.5,0.9,1.1c0,0.5-0.5,0.9-1.1,0.9C67.5,24,67.1,23.6,67.1,23"/>
		<path class="st1" d="M65,22.4c0.3-0.5,0.8-0.7,1.3-0.4c0.5,0.3,0.7,0.8,0.4,1.3c-0.3,0.5-0.8,0.7-1.3,0.4
			C65,23.4,64.8,22.8,65,22.4"/>
		<path class="st1" d="M63.3,20.8c0.4-0.3,1-0.3,1.4,0.2c0.3,0.4,0.3,1-0.2,1.4c-0.4,0.3-1,0.3-1.4-0.2
			C62.8,21.8,62.9,21.2,63.3,20.8"/>
		<path class="st1" d="M62.3,18.8c0.5-0.1,1.1,0.2,1.2,0.7c0.1,0.5-0.2,1.1-0.7,1.2c-0.5,0.1-1.1-0.2-1.2-0.7
			C61.5,19.4,61.8,18.9,62.3,18.8"/>
		<path class="st1" d="M62.2,16.6c0.5,0.1,0.9,0.6,0.8,1.1c-0.1,0.5-0.6,0.9-1.1,0.8c-0.5-0.1-0.9-0.6-0.8-1.1
			C61.2,16.9,61.7,16.5,62.2,16.6"/>
		<path class="st1" d="M63,14.4c0.5,0.3,0.6,0.9,0.3,1.3c-0.3,0.5-0.9,0.6-1.3,0.3c-0.5-0.3-0.6-0.9-0.3-1.3
			C61.9,14.3,62.5,14.1,63,14.4"/>
		<path class="st1" d="M64.6,12.8c0.3,0.4,0.2,1-0.2,1.4c-0.4,0.3-1,0.2-1.4-0.2c-0.3-0.4-0.2-1,0.2-1.4
			C63.7,12.2,64.3,12.3,64.6,12.8"/>
		<path class="st1" d="M67,11.8c0.1,0.5-0.3,1-0.8,1.1c-0.5,0.1-1-0.3-1.1-0.8c-0.1-0.5,0.3-1,0.8-1.1C66.4,11,66.9,11.3,67,11.8"/>
		<path class="st1" d="M68.6,25.6c0,0.5-0.4,0.8-0.8,0.8c-0.5,0-0.8-0.4-0.8-0.8c0-0.5,0.4-0.8,0.8-0.8
			C68.3,24.8,68.6,25.1,68.6,25.6"/>
		<path class="st1" d="M71.2,24.9c0.1,0.4-0.1,0.9-0.5,1.1c-0.4,0.1-0.9-0.1-1.1-0.5c-0.1-0.4,0.1-0.9,0.5-1.1
			C70.5,24.2,71,24.5,71.2,24.9"/>
		<path class="st1" d="M66.9,9.3c0-0.5,0.4-0.8,0.9-0.8c0.5,0,0.8,0.4,0.8,0.9c0,0.5-0.4,0.8-0.9,0.8C67.3,10.2,66.9,9.8,66.9,9.3"
			/>
		<path class="st1" d="M69.4,9.4C69.5,9,70,8.7,70.4,8.9C70.9,9,71.1,9.5,71,10c-0.1,0.4-0.6,0.7-1.1,0.5
			C69.5,10.3,69.2,9.9,69.4,9.4"/>
		<path class="st1" d="M64.4,10c-0.1-0.4,0.1-0.9,0.6-1c0.4-0.1,0.9,0.1,1,0.6c0.1,0.4-0.1,0.9-0.6,1C65,10.7,64.6,10.5,64.4,10"/>
		<path class="st1" d="M62.2,11.6c-0.3-0.4-0.2-0.9,0.2-1.2c0.4-0.3,0.9-0.2,1.2,0.2c0.3,0.4,0.2,0.9-0.2,1.2
			C63,12,62.4,12,62.2,11.6"/>
		<path class="st1" d="M59.8,15.9c-0.4-0.2-0.7-0.6-0.5-1.1c0.2-0.4,0.6-0.7,1.1-0.5c0.4,0.2,0.7,0.6,0.5,1.1
			C60.7,15.8,60.2,16,59.8,15.9"/>
		<path class="st1" d="M60.6,13.5c-0.4-0.3-0.5-0.8-0.2-1.2c0.3-0.4,0.8-0.5,1.2-0.2c0.4,0.3,0.5,0.8,0.2,1.2
			C61.5,13.7,61,13.8,60.6,13.5"/>
		<path class="st1" d="M59.6,18.4c-0.5,0-0.8-0.4-0.8-0.9c0-0.5,0.4-0.8,0.9-0.8c0.5,0,0.8,0.4,0.8,0.9C60.5,18,60.1,18.4,59.6,18.4
			"/>
		<path class="st1" d="M60.3,20.9c-0.4,0.1-0.9-0.1-1-0.6c-0.1-0.4,0.1-0.9,0.6-1c0.4-0.1,0.9,0.1,1,0.6
			C61,20.3,60.8,20.7,60.3,20.9"/>
		<path class="st1" d="M61.8,23c-0.4,0.3-0.9,0.2-1.2-0.2c-0.3-0.4-0.2-0.9,0.2-1.2c0.4-0.3,0.9-0.2,1.2,0.2
			C62.2,22.2,62.1,22.8,61.8,23"/>
		<path class="st1" d="M65.8,25.5c-0.2,0.4-0.6,0.7-1.1,0.5c-0.4-0.2-0.7-0.6-0.5-1.1c0.2-0.4,0.6-0.7,1.1-0.5
			C65.8,24.6,66,25,65.8,25.5"/>
		<path class="st1" d="M63.7,24.6c-0.3,0.4-0.8,0.5-1.2,0.2c-0.4-0.3-0.5-0.8-0.2-1.2c0.3-0.4,0.8-0.5,1.2-0.2
			C63.9,23.7,64,24.2,63.7,24.6"/>
		<path class="st1" d="M68.5,7.2c0,0.4-0.3,0.7-0.7,0.7c-0.4,0-0.7-0.3-0.7-0.7c0-0.4,0.3-0.7,0.7-0.7C68.2,6.5,68.5,6.8,68.5,7.2"
			/>
		<path class="st1" d="M70.5,7.6c-0.1,0.4-0.5,0.7-0.9,0.6C69.3,8,69,7.7,69.1,7.3c0.1-0.4,0.5-0.7,0.9-0.6
			C70.3,6.8,70.6,7.2,70.5,7.6"/>
		<path class="st1" d="M72.3,8.2c-0.2,0.4-0.6,0.6-1,0.4c-0.4-0.2-0.6-0.6-0.4-1c0.2-0.4,0.6-0.6,1-0.4C72.3,7.4,72.5,7.9,72.3,8.2"
			/>
		<path class="st1" d="M57.5,16.8c0.4,0,0.7,0.3,0.7,0.7c0,0.4-0.3,0.7-0.7,0.7c-0.4,0-0.7-0.3-0.7-0.7
			C56.8,17.1,57.1,16.8,57.5,16.8"/>
		<path class="st1" d="M57.8,14.8c0.4,0.1,0.7,0.5,0.6,0.9c-0.1,0.4-0.5,0.7-0.9,0.6c-0.4-0.1-0.7-0.5-0.6-0.9
			C57.1,15,57.4,14.7,57.8,14.8"/>
		<path class="st1" d="M58.5,13c0.4,0.1,0.6,0.6,0.4,0.9c-0.1,0.4-0.6,0.6-0.9,0.4c-0.4-0.1-0.6-0.6-0.4-0.9
			C57.7,13,58.1,12.8,58.5,13"/>
		<path class="st1" d="M59.6,11.2c0.3,0.2,0.4,0.7,0.2,1c-0.2,0.3-0.7,0.4-1,0.2c-0.3-0.2-0.4-0.7-0.2-1
			C58.8,11,59.3,10.9,59.6,11.2"/>
		<path class="st1" d="M61,9.7c0.3,0.3,0.3,0.7,0,1c-0.3,0.3-0.7,0.3-1,0c-0.3-0.3-0.3-0.7,0-1C60.2,9.5,60.7,9.5,61,9.7"/>
		<path class="st1" d="M62.6,8.5c0.2,0.3,0.1,0.8-0.2,1c-0.3,0.2-0.8,0.1-1-0.2c-0.2-0.3-0.1-0.8,0.2-1C62,8.1,62.4,8.2,62.6,8.5"/>
		<path class="st1" d="M64.3,7.8c0.2,0.4,0,0.8-0.4,1c-0.4,0.2-0.8,0-1-0.4c-0.2-0.4,0-0.8,0.4-1C63.7,7.2,64.2,7.4,64.3,7.8"/>
		<path class="st1" d="M66.3,7.3c0.1,0.4-0.1,0.8-0.5,0.9C65.4,8.3,65,8,64.9,7.7c-0.1-0.4,0.1-0.8,0.5-0.9
			C65.8,6.7,66.2,6.9,66.3,7.3"/>
		<path class="st1" d="M67.1,27.7c0-0.4,0.3-0.7,0.7-0.7c0.4,0,0.7,0.3,0.7,0.7c0,0.4-0.3,0.7-0.7,0.7
			C67.4,28.5,67.1,28.1,67.1,27.7"/>
		<path class="st1" d="M65.1,27.4c0.1-0.4,0.5-0.7,0.9-0.6c0.4,0.1,0.7,0.5,0.6,0.9c-0.1,0.4-0.5,0.7-0.9,0.6
			C65.3,28.2,65,27.8,65.1,27.4"/>
		<path class="st1" d="M63.3,26.7c0.1-0.4,0.6-0.6,0.9-0.4c0.4,0.1,0.6,0.6,0.4,0.9c-0.1,0.4-0.6,0.6-0.9,0.4
			C63.3,27.5,63.1,27.1,63.3,26.7"/>
		<path class="st1" d="M61.5,25.6c0.2-0.3,0.7-0.4,1-0.2c0.3,0.2,0.4,0.7,0.2,1c-0.2,0.3-0.7,0.4-1,0.2
			C61.3,26.4,61.2,25.9,61.5,25.6"/>
		<path class="st1" d="M60,24.3c0.3-0.3,0.7-0.3,1,0c0.3,0.3,0.3,0.7,0,1c-0.3,0.3-0.7,0.3-1,0C59.8,25,59.8,24.5,60,24.3"/>
		<path class="st1" d="M58.8,22.6c0.3-0.2,0.8-0.1,1,0.2c0.2,0.3,0.1,0.8-0.2,1c-0.3,0.2-0.8,0.1-1-0.2
			C58.4,23.3,58.5,22.8,58.8,22.6"/>
		<path class="st1" d="M58.1,20.9c0.4-0.2,0.8,0,1,0.4c0.2,0.4,0,0.8-0.4,1c-0.4,0.2-0.8,0-1-0.4C57.5,21.5,57.7,21.1,58.1,20.9"/>
		<path class="st1" d="M57.6,18.9c0.4-0.1,0.8,0.1,0.9,0.5c0.1,0.4-0.1,0.8-0.5,0.9c-0.4,0.1-0.8-0.1-0.9-0.5
			C57,19.4,57.2,19,57.6,18.9"/>
		<path class="st1" d="M71.1,27.2c-0.2-0.4,0-0.8,0.4-1c0.4-0.2,0.8,0,1,0.4c0.2,0.4,0,0.8-0.4,1C71.6,27.8,71.2,27.6,71.1,27.2"/>
		<path class="st1" d="M69.1,27.6c-0.1-0.4,0.2-0.8,0.6-0.9c0.4-0.1,0.8,0.2,0.9,0.6c0.1,0.4-0.2,0.8-0.6,0.9
			C69.5,28.3,69.1,28,69.1,27.6"/>
		<path class="st1" d="M67.1,5.5c0,0.3-0.3,0.6-0.6,0.6c-0.3,0-0.6-0.3-0.6-0.6c0-0.3,0.3-0.6,0.6-0.6C66.8,4.8,67.1,5.1,67.1,5.5"
			/>
		<path class="st1" d="M69.8,5.6c-0.1,0.3-0.4,0.5-0.7,0.5c-0.3-0.1-0.5-0.4-0.5-0.7c0.1-0.3,0.4-0.5,0.8-0.5
			C69.7,5,69.9,5.3,69.8,5.6"/>
		<path class="st1" d="M72,6.3c-0.1,0.3-0.5,0.5-0.8,0.3c-0.3-0.1-0.5-0.5-0.3-0.8c0.1-0.3,0.5-0.5,0.8-0.3C72,5.6,72.2,5.9,72,6.3"
			/>
		<path class="st1" d="M73.9,7.2c-0.2,0.3-0.6,0.4-0.9,0.2c-0.3-0.2-0.4-0.6-0.2-0.9c0.2-0.3,0.6-0.4,0.9-0.2
			C74.1,6.5,74.1,6.9,73.9,7.2"/>
		<path class="st1" d="M72.8,28.3c-0.1-0.3,0-0.7,0.3-0.8c0.3-0.1,0.7,0,0.8,0.3c0.1,0.3,0,0.7-0.3,0.8C73.3,28.8,73,28.6,72.8,28.3
			"/>
		<path class="st1" d="M70.7,29.1c-0.1-0.3,0.2-0.7,0.5-0.7c0.3-0.1,0.7,0.2,0.7,0.5c0.1,0.3-0.2,0.7-0.5,0.7
			C71.1,29.7,70.7,29.4,70.7,29.1"/>
		<path class="st1" d="M68.4,29.4c0-0.3,0.3-0.6,0.6-0.6c0.3,0,0.6,0.3,0.6,0.6c0,0.3-0.3,0.6-0.6,0.6
			C68.7,30.1,68.4,29.8,68.4,29.4"/>
		<path class="st1" d="M65.8,29.3c0.1-0.3,0.4-0.5,0.7-0.5c0.3,0.1,0.5,0.4,0.5,0.7c-0.1,0.3-0.4,0.5-0.7,0.5
			C65.9,30,65.7,29.6,65.8,29.3"/>
		<path class="st1" d="M63.8,28.8c0.1-0.3,0.5-0.5,0.8-0.3c0.3,0.1,0.5,0.5,0.3,0.8c-0.1,0.3-0.5,0.5-0.8,0.3
			C63.8,29.5,63.7,29.1,63.8,28.8"/>
		<path class="st1" d="M61.2,27.6c0.2-0.3,0.6-0.3,0.9-0.1c0.3,0.2,0.3,0.6,0.1,0.9c-0.2,0.3-0.6,0.3-0.9,0.1
			C61.1,28.2,61,27.9,61.2,27.6"/>
		<path class="st1" d="M59.6,26.3c0.2-0.2,0.6-0.2,0.9,0c0.2,0.2,0.2,0.6,0,0.9c-0.2,0.2-0.6,0.2-0.9,0
			C59.3,26.9,59.3,26.6,59.6,26.3"/>
		<path class="st1" d="M58,24.6c0.3-0.2,0.7-0.1,0.9,0.2c0.2,0.3,0.1,0.7-0.2,0.9c-0.3,0.2-0.7,0.1-0.9-0.2
			C57.7,25.1,57.7,24.8,58,24.6"/>
		<path class="st1" d="M56.9,22.7c0.3-0.1,0.7,0,0.8,0.3c0.1,0.3,0,0.7-0.3,0.8c-0.3,0.1-0.7,0-0.8-0.3
			C56.5,23.2,56.6,22.9,56.9,22.7"/>
		<path class="st1" d="M56.2,20.8c0.3-0.1,0.7,0.1,0.7,0.5c0.1,0.3-0.1,0.7-0.5,0.7c-0.3,0.1-0.7-0.1-0.7-0.5
			C55.6,21.3,55.9,20.9,56.2,20.8"/>
		<path class="st1" d="M55.7,18.3c0.3,0,0.6,0.3,0.6,0.6c0,0.3-0.3,0.6-0.6,0.6c-0.3,0-0.6-0.3-0.6-0.6
			C55.1,18.6,55.4,18.3,55.7,18.3"/>
		<path class="st1" d="M55.8,15.8c0.3,0.1,0.6,0.4,0.5,0.7c-0.1,0.3-0.4,0.6-0.7,0.5c-0.3-0.1-0.6-0.4-0.5-0.7
			C55.2,15.9,55.5,15.7,55.8,15.8"/>
		<path class="st1" d="M56.4,13.4c0.3,0.1,0.5,0.5,0.3,0.8c-0.1,0.3-0.5,0.5-0.8,0.3c-0.3-0.1-0.5-0.5-0.3-0.8
			C55.7,13.4,56.1,13.3,56.4,13.4"/>
		<path class="st1" d="M57.4,11.2c0.3,0.2,0.4,0.6,0.2,0.9c-0.2,0.3-0.6,0.4-0.9,0.2c-0.3-0.2-0.4-0.6-0.2-0.9
			C56.8,11.1,57.2,11,57.4,11.2"/>
		<path class="st1" d="M59,9.2c0.2,0.2,0.2,0.6,0,0.9c-0.2,0.2-0.6,0.2-0.9,0c-0.2-0.2-0.2-0.6,0-0.9C58.3,9,58.7,9,59,9.2"/>
		<path class="st1" d="M60.6,7.8c0.2,0.3,0.1,0.7-0.2,0.9c-0.3,0.2-0.7,0.1-0.9-0.2c-0.2-0.3-0.1-0.7,0.2-0.9
			C60,7.4,60.4,7.5,60.6,7.8"/>
		<path class="st1" d="M62.5,6.7c0.1,0.3,0,0.7-0.3,0.8c-0.3,0.1-0.7,0-0.8-0.3c-0.1-0.3,0-0.7,0.3-0.8C62,6.2,62.4,6.3,62.5,6.7"/>
		<path class="st1" d="M64.7,5.8c0.1,0.3-0.2,0.7-0.5,0.7c-0.3,0.1-0.7-0.1-0.7-0.5c-0.1-0.3,0.2-0.7,0.5-0.7
			C64.3,5.3,64.6,5.5,64.7,5.8"/>
		<path class="st1" d="M65.5,3.7c0.1,0.3-0.1,0.6-0.5,0.7c-0.3,0.1-0.6-0.1-0.7-0.5c-0.1-0.3,0.1-0.6,0.5-0.7
			C65.2,3.1,65.5,3.4,65.5,3.7"/>
		<path class="st1" d="M68.4,3.5c0,0.3-0.3,0.6-0.6,0.6c-0.3,0-0.6-0.3-0.6-0.6c0-0.3,0.3-0.6,0.6-0.6C68.1,2.9,68.4,3.2,68.4,3.5"
			/>
		<path class="st1" d="M71.6,4c-0.1,0.3-0.4,0.5-0.7,0.4c-0.3-0.1-0.5-0.4-0.4-0.7c0.1-0.3,0.4-0.5,0.7-0.4
			C71.5,3.4,71.7,3.7,71.6,4"/>
		<path class="st1" d="M73.8,4.9c-0.1,0.3-0.5,0.4-0.8,0.3c-0.3-0.1-0.4-0.5-0.3-0.8c0.1-0.3,0.5-0.4,0.8-0.3
			C73.8,4.2,74,4.6,73.8,4.9"/>
		<path class="st1" d="M72.5,30.6c-0.1-0.3,0-0.6,0.3-0.8c0.3-0.1,0.6,0,0.8,0.3c0.1,0.3,0,0.6-0.3,0.8
			C72.9,31.1,72.6,30.9,72.5,30.6"/>
		<path class="st1" d="M69.9,31.3c-0.1-0.3,0.1-0.6,0.5-0.7c0.3-0.1,0.6,0.1,0.7,0.5c0.1,0.3-0.1,0.6-0.5,0.7
			C70.3,31.8,70,31.6,69.9,31.3"/>
		<path class="st1" d="M66.9,31.4c0-0.3,0.3-0.6,0.6-0.6c0.3,0,0.6,0.3,0.6,0.6c0,0.3-0.3,0.6-0.6,0.6C67.2,32,66.9,31.7,66.9,31.4"
			/>
		<path class="st1" d="M64.3,31c0.1-0.3,0.4-0.5,0.7-0.5c0.3,0.1,0.5,0.4,0.5,0.7c-0.1,0.3-0.4,0.5-0.7,0.5
			C64.4,31.6,64.2,31.3,64.3,31"/>
		<path class="st1" d="M61.6,30c0.1-0.3,0.5-0.4,0.8-0.3c0.3,0.1,0.4,0.5,0.3,0.8c-0.1,0.3-0.5,0.4-0.8,0.3
			C61.6,30.7,61.5,30.3,61.6,30"/>
		<path class="st1" d="M59,28.3c0.2-0.3,0.6-0.3,0.8-0.1c0.3,0.2,0.3,0.6,0.1,0.8c-0.2,0.3-0.6,0.3-0.8,0.1
			C58.8,28.9,58.8,28.6,59,28.3"/>
		<path class="st1" d="M57.4,26.8c0.2-0.2,0.6-0.2,0.8,0c0.2,0.2,0.2,0.6,0,0.8c-0.2,0.2-0.6,0.2-0.8,0C57.1,27.4,57.1,27,57.4,26.8
			"/>
		<path class="st1" d="M55.8,24.7c0.3-0.2,0.6-0.1,0.8,0.2c0.2,0.3,0.1,0.6-0.2,0.8c-0.3,0.2-0.6,0.1-0.8-0.2
			C55.4,25.2,55.5,24.8,55.8,24.7"/>
		<path class="st1" d="M54.8,22.6c0.3-0.1,0.6,0,0.8,0.3c0.1,0.3,0,0.6-0.3,0.8c-0.3,0.1-0.6,0-0.8-0.3
			C54.3,23.1,54.5,22.7,54.8,22.6"/>
		<path class="st1" d="M54,19.9c0.3-0.1,0.6,0.1,0.7,0.5c0.1,0.3-0.1,0.6-0.5,0.7c-0.3,0.1-0.6-0.1-0.7-0.5
			C53.5,20.3,53.7,20,54,19.9"/>
		<path class="st1" d="M53.8,17c0.3,0,0.6,0.3,0.6,0.6c0,0.3-0.3,0.6-0.6,0.6c-0.3,0-0.6-0.3-0.6-0.6C53.2,17.3,53.5,17,53.8,17"/>
		<path class="st1" d="M54.2,14.2c0.3,0.1,0.5,0.4,0.5,0.7c-0.1,0.3-0.4,0.5-0.7,0.5c-0.3-0.1-0.5-0.4-0.5-0.7
			C53.6,14.3,53.9,14.1,54.2,14.2"/>
		<path class="st1" d="M55.1,11.7c0.3,0.1,0.4,0.5,0.3,0.8c-0.1,0.3-0.5,0.4-0.8,0.3c-0.3-0.1-0.4-0.5-0.3-0.8
			C54.4,11.7,54.8,11.5,55.1,11.7"/>
		<path class="st1" d="M56.4,9.3c0.3,0.2,0.3,0.5,0.2,0.8c-0.2,0.3-0.5,0.3-0.8,0.2c-0.3-0.2-0.3-0.5-0.2-0.8
			C55.8,9.2,56.2,9.1,56.4,9.3"/>
		<path class="st1" d="M58.5,7c0.2,0.2,0.2,0.6,0,0.8c-0.2,0.2-0.6,0.2-0.8,0c-0.2-0.2-0.2-0.6,0-0.8C57.9,6.8,58.3,6.8,58.5,7"/>
		<path class="st1" d="M60.5,5.5c0.2,0.3,0.1,0.6-0.2,0.8c-0.3,0.2-0.6,0.1-0.8-0.2c-0.2-0.3-0.1-0.6,0.2-0.8
			C60,5.2,60.3,5.3,60.5,5.5"/>
		<path class="st1" d="M62.9,4.4c0.1,0.3,0,0.6-0.3,0.8c-0.3,0.1-0.6,0-0.8-0.3c-0.1-0.3,0-0.6,0.3-0.8C62.5,3.9,62.8,4.1,62.9,4.4"
			/>
		<path class="st1" d="M66.6,2c0,0.2-0.2,0.4-0.4,0.4c-0.2,0-0.4-0.2-0.4-0.4c0-0.2,0.2-0.4,0.4-0.4C66.4,1.6,66.6,1.8,66.6,2"/>
		<path class="st1" d="M68,0.3c0,0.2-0.1,0.3-0.3,0.3c-0.2,0-0.3-0.1-0.3-0.3c0-0.2,0.1-0.3,0.3-0.3C67.9,0,68,0.1,68,0.3"/>
		<path class="st1" d="M72.1,0.8c0,0.2-0.2,0.3-0.4,0.2c-0.2,0-0.3-0.2-0.2-0.4c0-0.2,0.2-0.3,0.4-0.2C72,0.5,72.1,0.7,72.1,0.8"/>
		<path class="st1" d="M75.2,2c-0.1,0.2-0.3,0.2-0.4,0.1c-0.2-0.1-0.2-0.2-0.1-0.4c0.1-0.2,0.2-0.2,0.4-0.1
			C75.2,1.7,75.3,1.8,75.2,2"/>
		<path class="st1" d="M73.8,33.5c-0.1-0.2,0-0.3,0.2-0.4c0.2-0.1,0.3,0,0.4,0.2c0.1,0.2,0,0.3-0.2,0.4C74,33.8,73.8,33.7,73.8,33.5
			"/>
		<path class="st1" d="M70.6,34.4c0-0.2,0.1-0.3,0.2-0.4c0.2,0,0.3,0.1,0.4,0.2c0,0.2-0.1,0.3-0.2,0.4
			C70.8,34.7,70.7,34.5,70.6,34.4"/>
		<path class="st1" d="M67.1,34.6c0-0.2,0.1-0.3,0.3-0.3c0.2,0,0.3,0.1,0.3,0.3c0,0.2-0.1,0.3-0.3,0.3
			C67.2,34.9,67.1,34.8,67.1,34.6"/>
		<path class="st1" d="M63.5,34.1c0-0.2,0.2-0.3,0.4-0.2c0.2,0,0.3,0.2,0.2,0.4c0,0.2-0.2,0.3-0.4,0.2
			C63.5,34.4,63.4,34.2,63.5,34.1"/>
		<path class="st1" d="M60.3,32.9c0.1-0.2,0.3-0.2,0.4-0.1c0.2,0.1,0.2,0.3,0.1,0.4c-0.1,0.2-0.2,0.2-0.4,0.1
			C60.3,33.3,60.2,33.1,60.3,32.9"/>
		<path class="st1" d="M57.3,31c0.1-0.1,0.3-0.2,0.4-0.1c0.1,0.1,0.2,0.3,0.1,0.4c-0.1,0.1-0.3,0.2-0.4,0.1
			C57.2,31.4,57.2,31.2,57.3,31"/>
		<path class="st1" d="M55,29c0.1-0.1,0.3-0.1,0.4,0c0.1,0.1,0.1,0.3,0,0.4c-0.1,0.1-0.3,0.1-0.4,0C54.9,29.3,54.9,29.1,55,29"/>
		<path class="st1" d="M53.2,26.6c0.1-0.1,0.3-0.1,0.4,0.1c0.1,0.1,0.1,0.3-0.1,0.4c-0.1,0.1-0.3,0.1-0.4-0.1
			C53.1,26.9,53.1,26.7,53.2,26.6"/>
		<path class="st1" d="M52,24.2c0.2-0.1,0.3,0,0.4,0.2c0.1,0.2,0,0.3-0.2,0.4c-0.2,0.1-0.3,0-0.4-0.2C51.8,24.5,51.8,24.3,52,24.2"
			/>
		<path class="st1" d="M51,21.2c0.2,0,0.3,0.1,0.4,0.2c0,0.2-0.1,0.3-0.2,0.4c-0.2,0-0.3-0.1-0.4-0.2C50.7,21.4,50.8,21.2,51,21.2"
			/>
		<path class="st1" d="M50.6,17.4c0.2,0,0.3,0.1,0.3,0.3c0,0.2-0.1,0.3-0.3,0.3c-0.2,0-0.3-0.1-0.3-0.3
			C50.3,17.5,50.4,17.4,50.6,17.4"/>
		<path class="st1" d="M50.9,14.2c0.2,0,0.3,0.2,0.2,0.4c0,0.2-0.2,0.3-0.4,0.2c-0.2,0-0.3-0.2-0.2-0.4
			C50.6,14.3,50.8,14.2,50.9,14.2"/>
		<path class="st1" d="M52,10.8c0.2,0.1,0.2,0.2,0.2,0.4c-0.1,0.2-0.2,0.2-0.4,0.2c-0.2-0.1-0.2-0.2-0.2-0.4
			C51.6,10.8,51.8,10.7,52,10.8"/>
		<path class="st1" d="M53.7,7.7c0.1,0.1,0.2,0.3,0.1,0.4c-0.1,0.1-0.3,0.2-0.4,0.1c-0.1-0.1-0.2-0.3-0.1-0.4
			C53.3,7.6,53.5,7.6,53.7,7.7"/>
		<path class="st1" d="M56,5c0.1,0.1,0.1,0.3,0,0.4c-0.1,0.1-0.3,0.1-0.4,0c-0.1-0.1-0.1-0.3,0-0.4C55.7,4.9,55.9,4.9,56,5"/>
		<path class="st1" d="M58.6,2.9c0.1,0.1,0.1,0.3-0.1,0.4c-0.1,0.1-0.3,0.1-0.4-0.1c-0.1-0.1-0.1-0.3,0.1-0.4
			C58.3,2.8,58.5,2.8,58.6,2.9"/>
		<path class="st1" d="M61.7,1.4c0.1,0.2,0,0.3-0.2,0.4s-0.3,0-0.4-0.2c-0.1-0.2,0-0.3,0.2-0.4C61.5,1.2,61.7,1.2,61.7,1.4"/>
		<path class="st1" d="M64.6,0.6c0,0.2-0.1,0.3-0.2,0.4C64.2,1,64,0.9,64,0.7c0-0.2,0.1-0.3,0.2-0.4C64.4,0.3,64.6,0.4,64.6,0.6"/>
		<path class="st1" d="M70.1,2.1c0,0.2-0.3,0.3-0.5,0.3c-0.2,0-0.3-0.2-0.3-0.5c0-0.2,0.2-0.3,0.5-0.3C70,1.7,70.1,1.9,70.1,2.1"/>
		<path class="st1" d="M73.2,2.9c-0.1,0.2-0.3,0.3-0.5,0.2c-0.2-0.1-0.3-0.3-0.2-0.5c0.1-0.2,0.3-0.3,0.5-0.2
			C73.2,2.5,73.3,2.7,73.2,2.9"/>
		<path class="st1" d="M75.6,4.1c-0.1,0.2-0.4,0.2-0.5,0.1C74.9,4,74.9,3.8,75,3.6c0.1-0.2,0.4-0.2,0.5-0.1
			C75.7,3.7,75.7,3.9,75.6,4.1"/>
		<path class="st1" d="M74.7,31.3c-0.1-0.2,0-0.4,0.2-0.5c0.2-0.1,0.4,0,0.5,0.2c0.1,0.2,0,0.4-0.2,0.5
			C75.1,31.6,74.8,31.5,74.7,31.3"/>
		<path class="st1" d="M71.9,32.4c0-0.2,0.1-0.4,0.3-0.4c0.2,0,0.4,0.1,0.4,0.3c0,0.2-0.1,0.4-0.3,0.4C72.2,32.8,72,32.6,71.9,32.4"
			/>
		<path class="st1" d="M68.7,33c0-0.2,0.2-0.4,0.4-0.4c0.2,0,0.4,0.2,0.4,0.4c0,0.2-0.2,0.4-0.4,0.4C68.9,33.3,68.7,33.2,68.7,33"/>
		<path class="st1" d="M65.3,32.8c0-0.2,0.3-0.3,0.5-0.3c0.2,0,0.3,0.3,0.3,0.5c0,0.2-0.3,0.3-0.5,0.3C65.4,33.2,65.3,33,65.3,32.8"
			/>
		<path class="st1" d="M62.6,32.1c0.1-0.2,0.3-0.3,0.5-0.2c0.2,0.1,0.3,0.3,0.2,0.5c-0.1,0.2-0.3,0.3-0.5,0.2
			C62.6,32.5,62.5,32.3,62.6,32.1"/>
		<path class="st1" d="M59.6,30.6c0.1-0.2,0.4-0.2,0.5-0.1c0.2,0.1,0.2,0.4,0.1,0.5c-0.1,0.2-0.4,0.2-0.5,0.1
			C59.5,31,59.4,30.8,59.6,30.6"/>
		<path class="st1" d="M57.2,28.8c0.2-0.1,0.4-0.1,0.5,0c0.1,0.2,0.1,0.4,0,0.5c-0.2,0.1-0.4,0.1-0.5,0C57,29.2,57,29,57.2,28.8"/>
		<path class="st1" d="M55.4,26.8c0.2-0.1,0.4-0.1,0.5,0.1c0.1,0.2,0.1,0.4-0.1,0.5c-0.2,0.1-0.4,0.1-0.5-0.1
			C55.2,27.2,55.2,27,55.4,26.8"/>
		<path class="st1" d="M54,24.6c0.2-0.1,0.4,0,0.5,0.2c0.1,0.2,0,0.4-0.2,0.5c-0.2,0.1-0.4,0-0.5-0.2C53.7,24.9,53.8,24.7,54,24.6"
			/>
		<path class="st1" d="M52.9,22c0.2,0,0.4,0.1,0.5,0.3c0,0.2-0.1,0.4-0.3,0.5c-0.2,0-0.4-0.1-0.5-0.3C52.6,22.2,52.7,22,52.9,22"/>
		<path class="st1" d="M52.3,18.7c0.2,0,0.4,0.2,0.4,0.4c0,0.2-0.2,0.4-0.4,0.4c-0.2,0-0.4-0.2-0.4-0.4
			C51.9,18.8,52.1,18.7,52.3,18.7"/>
		<path class="st1" d="M52.3,15.7c0.2,0,0.3,0.2,0.3,0.4c0,0.2-0.2,0.3-0.4,0.3c-0.2,0-0.3-0.2-0.3-0.4
			C51.9,15.8,52.1,15.7,52.3,15.7"/>
		<path class="st1" d="M53,12.7c0.2,0.1,0.3,0.3,0.2,0.5c-0.1,0.2-0.3,0.3-0.5,0.2c-0.2-0.1-0.3-0.3-0.2-0.5
			C52.6,12.7,52.8,12.6,53,12.7"/>
		<path class="st1" d="M54.2,9.8c0.2,0.1,0.2,0.4,0.1,0.5c-0.1,0.2-0.4,0.2-0.5,0.1c-0.2-0.1-0.2-0.4-0.1-0.5
			C53.8,9.8,54.1,9.7,54.2,9.8"/>
		<path class="st1" d="M56.2,7.1c0.1,0.2,0.1,0.4,0,0.5c-0.2,0.1-0.4,0.1-0.5,0c-0.1-0.2-0.1-0.4,0-0.5C55.8,7,56,7,56.2,7.1"/>
		<path class="st1" d="M58.4,5.1c0.1,0.2,0.1,0.4-0.1,0.5c-0.2,0.1-0.4,0.1-0.5-0.1c-0.1-0.2-0.1-0.4,0.1-0.5
			C58.1,4.8,58.3,4.9,58.4,5.1"/>
		<path class="st1" d="M60.9,3.5C61,3.7,60.9,4,60.7,4c-0.2,0.1-0.4,0-0.5-0.2c-0.1-0.2,0-0.4,0.2-0.5C60.6,3.2,60.8,3.3,60.9,3.5"
			/>
		<path class="st1" d="M63.7,2.5c0,0.2-0.1,0.4-0.3,0.4c-0.2,0-0.4-0.1-0.4-0.3c0-0.2,0.1-0.4,0.3-0.4C63.5,2.1,63.7,2.3,63.7,2.5"
			/>
	</g>
	<g>
		<path class="st0" d="M71.7,19.5c-1,1.3-2.2,2-3.8,2c-2,0-4-1.3-4-4.1c0-2.6,1.7-4.1,3.8-4.1c2,0,2.9,1.2,3,1.5
			c0.6,0.9,0.8,2.2,0.8,3h-5.7c0.2,1.2,1,1.9,2.2,1.9c1.3,0,1.8-0.7,2-1.1L71.7,19.5z M69.6,16.4c-0.2-1.2-0.9-1.6-1.7-1.6
			c-1,0-1.7,0.6-1.9,1.6H69.6z"/>
		<path class="st0" d="M74.9,13.5v1.1c0.2-0.4,0.7-1.3,2.5-1.3v1.9c-0.4,0-1.1,0-1.7,0.5c-0.8,0.6-0.8,1.4-0.8,2.7v2.9h-1.8v-7.7
			H74.9z"/>
		<path class="st0" d="M83.2,16.2c-0.1-0.5-0.7-1.3-1.7-1.3c-1.1,0-1.9,0.8-1.9,2.4c0,1.4,0.7,2.4,1.9,2.4c1.2,0,1.6-0.9,1.9-1.5
			L85,19c-0.6,1.7-2.1,2.4-3.5,2.4c-2.1,0-3.8-1.7-3.8-4.1c0-2.4,1.7-4.1,3.9-4.1c1.9,0,2.9,1.3,3.3,2.2L83.2,16.2z"/>
	</g>
</g>
<g id="Layer_2_00000131359860836638812460000011276854621319668117_">
	<circle id="path837" cx="18" cy="17.5" r="17"/>
	<text transform="matrix(1 0 0 1 5.2273 19.7861)" class="st2 st3 st4">SEGUE</text>
</g>
<g id="svg8" xmlns:cc="http://creativecommons.org/ns#" xmlns:dc="http://purl.org/dc/elements/1.1/" xmlns:svg="http://www.w3.org/2000/svg" xmlns:inkscape="http://www.inkscape.org/namespaces/inkscape" xmlns:sodipodi="http://sodipodi.sourceforge.net/DTD/sodipodi-0.dtd" xmlns:rdf="http://www.w3.org/1999/02/22-rdf-syntax-ns#">
	
		<sodipodi:namedview  bordercolor="#666666" borderopacity="1.0" id="base" inkscape:current-layer="layer1" inkscape:cx="400" inkscape:cy="560" inkscape:document-rotation="0" inkscape:document-units="mm" inkscape:pageopacity="0.0" inkscape:pageshadow="2" inkscape:window-height="777" inkscape:window-maximized="0" inkscape:window-width="1252" inkscape:window-x="0" inkscape:window-y="25" inkscape:zoom="0.35" pagecolor="#ffffff" showgrid="false">
		</sodipodi:namedview>
	<g id="layer1" inkscape:groupmode="layer" inkscape:label="Layer 1">
		<g id="g869">
			<ellipse id="path839" class="st5" cx="11.4" cy="29.2" rx="1.4" ry="1.4"/>
			<circle id="circle841" class="st5" cx="14.5" cy="26.3" r="1.4"/>
			<circle id="circle843" class="st5" cx="16.3" cy="30.7" r="1.4"/>
			<circle id="circle845" class="st5" cx="21.8" cy="25.2" r="1.4"/>
			<circle id="circle847" class="st5" cx="21.8" cy="29.4" r="1.4"/>
			<circle id="circle849" class="st5" cx="27.3" cy="27.8" r="1.4"/>
		</g>
		<g id="g877">
			<circle id="circle851" class="st6" cx="10.9" cy="6.1" r="1.4"/>
			<circle id="circle853" class="st6" cx="14" cy="9" r="1.4"/>
			<circle id="circle855" class="st6" cx="15.8" cy="4.7" r="1.4"/>
			<circle id="circle857" class="st6" cx="21.3" cy="10.1" r="1.4"/>
			<circle id="circle859" class="st6" cx="21.3" cy="5.9" r="1.4"/>
			<circle id="circle861" class="st6" cx="26.7" cy="7.6" r="1.4"/>
		</g>
	</g>
</g>
<rect x="42.4" y="6.1" class="st5" width="0.8" height="23.3"/>
</svg>
