<?xml version="1.0" encoding="UTF-8" standalone="no"?><!DOCTYPE svg PUBLIC "-//W3C//DTD SVG 1.1//EN" "http://www.w3.org/Graphics/SVG/1.1/DTD/svg11.dtd"><svg width="100%" height="100%" viewBox="0 0 541 321" version="1.1" xmlns="http://www.w3.org/2000/svg" xmlns:xlink="http://www.w3.org/1999/xlink" xml:space="preserve" xmlns:serif="http://www.serif.com/" style="fill-rule:evenodd;clip-rule:evenodd;stroke-miterlimit:10;"><rect id="Artboard1" x="0" y="0" width="540.3" height="320.162" style="fill:none;"/><g id="Artboard11" serif:id="Artboard1"><g><path d="M482.775,172.885l-0,51.905" style="fill:none;fill-rule:nonzero;stroke:#000;stroke-width:0.97px;"/><path d="M482.775,229.871l-3.388,-6.775l3.388,1.694l3.387,-1.694l-3.387,6.775Z" style="fill-rule:nonzero;stroke:#000;stroke-width:0.97px;"/><rect x="427.327" y="143.85" width="110.895" height="29.035" style="fill:#fff;stroke:#000;stroke-width:0.97px;stroke-miterlimit:4;"/><g><g><g transform="matrix(11.614,0,0,11.614,533.973,161.755)"></g><text x="430.048px" y="161.755px" style="font-family:'Helvetica';font-size:11.614px;">Accessible Distance</text></g></g><path d="M393.056,55.777l14.915,0.029l-0,102.591l13.201,-0.02" style="fill:none;fill-rule:nonzero;stroke:#000;stroke-width:0.97px;"/><path d="M426.253,158.368l-6.775,3.397l1.694,-3.388l-1.703,-3.387l6.784,3.378Z" style="fill-rule:nonzero;stroke:#000;stroke-width:0.97px;"/><rect x="282.152" y="41.259" width="110.895" height="29.035" style="fill:#fff;stroke:#000;stroke-width:0.97px;stroke-miterlimit:4;"/><g><g><text x="294.884px" y="59.164px" style="font-family:'Helvetica';font-size:11.614px;">Recreation (RC)</text></g></g><path d="M393.056,158.368l28.116,-0" style="fill:none;fill-rule:nonzero;stroke:#000;stroke-width:0.97px;"/><path d="M426.253,158.368l-6.775,3.387l1.694,-3.387l-1.694,-3.388l6.775,3.388Z" style="fill-rule:nonzero;stroke:#000;stroke-width:0.97px;"/><rect x="254.345" y="143.85" width="138.702" height="29.035" style="fill:#fff;stroke:#000;stroke-width:1.1px;stroke-miterlimit:4;"/><g><g><g transform="matrix(11.614,0,0,11.614,391.52,161.755)"></g><text x="255.344px" y="161.755px" style="font-family:'Helvetica';font-size:11.614px;">Institutions &amp; Facilities (IF)</text></g></g><path d="M393.056,264.83l14.915,0.029l-0,-106.462l13.201,-0.02" style="fill:none;fill-rule:nonzero;stroke:#000;stroke-width:0.97px;"/><path d="M426.253,158.368l-6.775,3.397l1.694,-3.388l-1.703,-3.387l6.784,3.378Z" style="fill-rule:nonzero;stroke:#000;stroke-width:0.97px;"/><rect x="282.152" y="250.312" width="110.895" height="29.035" style="fill:#fff;stroke:#000;stroke-width:0.97px;stroke-miterlimit:4;"/><g><g><text x="286.704px" y="268.217px" style="font-family:'Helvetica';font-size:11.614px;">T<tspan x="293.373px 297.24px " y="268.217px 268.217px ">ra</tspan>nsportation (TP)</text></g></g><g opacity="0.8"><path d="M202.971,139.011l26.364,0.029l0,19.357l20.141,-0.02" style="fill:none;fill-rule:nonzero;stroke:#000;stroke-width:0.97px;"/><path d="M254.557,158.368l-6.775,3.397l1.694,-3.388l-1.704,-3.387l6.785,3.378Z" style="fill-rule:nonzero;stroke:#000;stroke-width:0.97px;"/><path d="M202.971,177.724l26.364,0.029l0,-19.356l20.141,-0.02" style="fill:none;fill-rule:nonzero;stroke:#000;stroke-width:0.97px;"/><path d="M254.557,158.368l-6.775,3.397l1.694,-3.388l-1.704,-3.387l6.785,3.378Z" style="fill-rule:nonzero;stroke:#000;stroke-width:0.97px;"/><path d="M230.433,17.063l26.364,0.03l-0,38.713l20.14,-0.019" style="fill:none;fill-rule:nonzero;stroke:#000;stroke-width:0.97px;"/><path d="M282.018,55.777l-6.774,3.397l1.693,-3.387l-1.703,-3.388l6.784,3.378Z" style="fill-rule:nonzero;stroke:#000;stroke-width:0.97px;"/><path d="M230.433,55.777l46.504,-0" style="fill:none;fill-rule:nonzero;stroke:#000;stroke-width:0.97px;"/><path d="M282.018,55.777l-6.774,3.387l1.693,-3.387l-1.693,-3.387l6.774,3.387Z" style="fill-rule:nonzero;stroke:#000;stroke-width:0.97px;"/><path d="M230.433,94.49l26.364,0.029l-0,-38.713l20.14,-0.019" style="fill:none;fill-rule:nonzero;stroke:#000;stroke-width:0.97px;"/><path d="M282.018,55.777l-6.774,3.397l1.693,-3.387l-1.703,-3.388l6.784,3.378Z" style="fill-rule:nonzero;stroke:#000;stroke-width:0.97px;"/><path d="M229.86,303.543l26.363,0.029l0,-38.713l20.141,-0.02" style="fill:none;fill-rule:nonzero;stroke:#000;stroke-width:0.97px;"/><path d="M281.445,264.83l-6.775,3.397l1.694,-3.388l-1.703,-3.387l6.784,3.378Z" style="fill-rule:nonzero;stroke:#000;stroke-width:0.97px;"/><path d="M229.86,264.83l46.504,-0" style="fill:none;fill-rule:nonzero;stroke:#000;stroke-width:0.97px;"/><path d="M281.445,264.83l-6.775,3.387l1.694,-3.387l-1.694,-3.388l6.775,3.388Z" style="fill-rule:nonzero;stroke:#000;stroke-width:0.97px;"/><path d="M229.86,226.116l26.363,0.029l0,38.714l20.141,-0.02" style="fill:none;fill-rule:nonzero;stroke:#000;stroke-width:0.97px;"/><path d="M281.445,264.83l-6.775,3.397l1.694,-3.388l-1.703,-3.387l6.784,3.378Z" style="fill-rule:nonzero;stroke:#000;stroke-width:0.97px;"/><rect x="92.067" y="124.493" width="110.895" height="29.035" style="fill:#fff;fill-opacity:0.58;stroke:#000;stroke-width:0.97px;stroke-miterlimit:4;"/><g><g><text x="97.044px" y="142.398px" style="font-family:'Helvetica';font-size:11.614px;fill-opacity:0.58;">Public institutions...</text></g></g><rect x="92.067" y="163.207" width="110.895" height="29.035" style="fill:#fff;fill-opacity:0.58;stroke:#000;stroke-width:0.97px;stroke-miterlimit:4;"/><g><g><text x="96.08px" y="181.112px" style="font-family:'Helvetica';font-size:11.614px;fill-opacity:0.58;">Socio-cultural inst...</text></g></g><rect x="119.528" y="2.546" width="110.895" height="29.035" style="fill:#fff;fill-opacity:0.58;stroke:#000;stroke-width:0.97px;stroke-miterlimit:4;"/><g><g><text x="119.654px" y="20.451px" style="font-family:'Helvetica';font-size:11.614px;fill-opacity:0.58;">Park and public gar<tspan x="219.088px 222.315px " y="20.451px 20.451px ">..</tspan>.</text></g></g><rect x="119.528" y="41.259" width="110.895" height="29.035" style="fill:#fff;fill-opacity:0.58;stroke:#000;stroke-width:0.97px;stroke-miterlimit:4;"/><g><g><text x="122.889px" y="59.164px" style="font-family:'Helvetica';font-size:11.614px;fill-opacity:0.58;">Sports grounds (41)</text></g></g><rect x="119.528" y="79.973" width="110.895" height="29.035" style="fill:#fff;fill-opacity:0.58;stroke:#000;stroke-width:0.97px;stroke-miterlimit:4;"/><g><g><text x="118.693px" y="97.878px" style="font-family:'Helvetica';font-size:11.614px;fill-opacity:0.58;">Allotment garden (4...</text></g></g><rect x="2.42" y="41.501" width="110.895" height="29.035" style="fill:#fff;fill-opacity:0.58;stroke:#000;stroke-width:0.97px;stroke-miterlimit:4;"/><g><g><text x="5.461px" y="59.164px" style="font-family:'Helvetica';font-size:11.614px;fill-opacity:0.58;">Holiday recreation...</text></g></g><rect x="2.42" y="2.546" width="110.895" height="29.035" style="fill:#fff;fill-opacity:0.58;stroke:#000;stroke-width:0.97px;stroke-miterlimit:4;"/><g><g><text x="8.047px" y="20.451px" style="font-family:'Helvetica';font-size:11.614px;fill-opacity:0.58;">Area for day trips...</text></g></g><rect x="2.42" y="79.973" width="110.895" height="29.035" style="fill:#fff;fill-opacity:0.58;stroke:#000;stroke-width:0.97px;stroke-miterlimit:4;"/><g><g><text x="4.071px" y="97.878px" style="font-family:'Helvetica';font-size:11.614px;fill-opacity:0.58;">W<tspan x="14.608px 21.067px " y="97.878px 97.878px ">at</tspan>er with recreati...</text></g></g><rect x="118.955" y="289.026" width="110.895" height="29.035" style="fill:#fff;fill-opacity:0.58;stroke:#000;stroke-width:0.97px;stroke-miterlimit:4;"/><g><g><text x="144.594px" y="306.93px" style="font-family:'Helvetica';font-size:11.614px;fill-opacity:0.58;">Airport (12)</text></g></g><rect x="118.955" y="250.312" width="110.895" height="29.035" style="fill:#fff;fill-opacity:0.58;stroke:#000;stroke-width:0.97px;stroke-miterlimit:4;"/><g><g><text x="136.303px" y="268.217px" style="font-family:'Helvetica';font-size:11.614px;fill-opacity:0.58;">Main road (1<tspan x="200.646px 207.105px " y="268.217px 268.217px ">1)</tspan></text></g></g><rect x="118.955" y="211.599" width="110.895" height="29.035" style="fill:#fff;fill-opacity:0.58;stroke:#000;stroke-width:0.97px;stroke-miterlimit:4;"/><g><g><text x="140.072px" y="229.504px" style="font-family:'Helvetica';font-size:11.614px;fill-opacity:0.58;">Railroad (10)</text></g></g></g><rect x="427.327" y="230.955" width="110.895" height="29.035" style="fill:#fff;stroke:#000;stroke-width:0.97px;stroke-miterlimit:4;"/><g><g><text x="429.084px" y="248.86px" style="font-family:'Helvetica';font-size:11.614px;">Accessibility to <tspan x="507.836px 515.582px " y="248.86px 248.86px ">Am</tspan>...</text></g></g><path d="M482.775,100.539l-0,37.146" style="fill:none;fill-rule:nonzero;stroke:#000;stroke-width:0.97px;"/><path d="M482.775,142.766l-3.388,-6.775l3.388,1.694l3.387,-1.694l-3.387,6.775Z" style="fill-rule:nonzero;stroke:#000;stroke-width:0.97px;"/><circle cx="482.775" cy="66.423" r="34.116" style="fill:#fff;stroke:#000;stroke-width:0.97px;stroke-miterlimit:4;"/><g><g><text x="454.245px" y="69.811px" style="font-family:'Helvetica';font-size:11.614px;">Household</text></g></g></g></g></svg>