<?xml version="1.0" encoding="UTF-8" standalone="no"?><!DOCTYPE svg PUBLIC "-//W3C//DTD SVG 1.1//EN" "http://www.w3.org/Graphics/SVG/1.1/DTD/svg11.dtd"><svg width="100%" height="100%" viewBox="0 0 503 433" version="1.1" xmlns="http://www.w3.org/2000/svg" xmlns:xlink="http://www.w3.org/1999/xlink" xml:space="preserve" xmlns:serif="http://www.serif.com/" style="fill-rule:evenodd;clip-rule:evenodd;stroke-linecap:round;stroke-linejoin:round;stroke-miterlimit:1.5;"><rect id="Artboard1" x="0" y="0" width="503" height="432.909" style="fill:none;"/><clipPath id="_clip1"><rect x="0" y="0" width="503" height="432.909"/></clipPath><g clip-path="url(#_clip1)"><g id="Layer2"></g><g id="Low--" serif:id="Low!!"></g><g id="Low"></g><g id="Medium"></g><g id="High"></g><g id="High--" serif:id="High!!"></g><g id="OtherElements"></g><path d="M296.425,66.794l-0,7.99c-0,2.205 -1.79,3.995 -3.995,3.995l-60.856,0c-2.205,0 -3.995,-1.79 -3.995,-3.995l0,-7.99c0,-2.205 1.79,-3.995 3.995,-3.995l60.856,-0c2.205,-0 3.995,1.79 3.995,3.995Z" style="fill:#f4f284;fill-opacity:0.5;"/><clipPath id="_clip2"><path d="M296.425,66.794l-0,7.99c-0,2.205 -1.79,3.995 -3.995,3.995l-60.856,0c-2.205,0 -3.995,-1.79 -3.995,-3.995l0,-7.99c0,-2.205 1.79,-3.995 3.995,-3.995l60.856,-0c2.205,-0 3.995,1.79 3.995,3.995Z"/></clipPath><g clip-path="url(#_clip2)"><g transform="matrix(6.66667,0,0,6.66667,284.237,73.1768)"></g><text x="239.767px" y="73.177px" style="font-family:'ArialMT', 'Arial', sans-serif;font-size:6.667px;">Social Housing</text></g><path d="M296.425,66.794l-0,7.99c-0,2.205 -1.79,3.995 -3.995,3.995l-60.856,0c-2.205,0 -3.995,-1.79 -3.995,-3.995l0,-7.99c0,-2.205 1.79,-3.995 3.995,-3.995l60.856,-0c2.205,-0 3.995,1.79 3.995,3.995Z" style="fill:none;stroke:#000;stroke-width:0.83px;"/><path d="M294.961,88.856l-0,7.991c-0,2.205 -1.791,3.995 -3.996,3.995l-59.892,-0c-2.205,-0 -3.995,-1.79 -3.995,-3.995l-0,-7.991c-0,-2.204 1.79,-3.995 3.995,-3.995l59.892,0c2.205,0 3.996,1.791 3.996,3.995Z" style="fill:#f4f284;fill-opacity:0.5;"/><clipPath id="_clip3"><path d="M294.961,88.856l-0,7.991c-0,2.205 -1.791,3.995 -3.996,3.995l-59.892,-0c-2.205,-0 -3.995,-1.79 -3.995,-3.995l-0,-7.991c-0,-2.204 1.79,-3.995 3.995,-3.995l59.892,0c2.205,0 3.996,1.791 3.996,3.995Z"/></clipPath><g clip-path="url(#_clip3)"><g transform="matrix(6.66667,0,0,6.66667,280.103,95.2393)"></g><text x="241.936px" y="95.239px" style="font-family:'ArialMT', 'Arial', sans-serif;font-size:6.667px;">Interest Rate</text></g><path d="M294.961,88.856l-0,7.991c-0,2.205 -1.791,3.995 -3.996,3.995l-59.892,-0c-2.205,-0 -3.995,-1.79 -3.995,-3.995l-0,-7.991c-0,-2.204 1.79,-3.995 3.995,-3.995l59.892,0c2.205,0 3.996,1.791 3.996,3.995Z" style="fill:none;stroke:#000;stroke-width:0.83px;"/><path d="M500.913,324.775l-0,7.99c-0,2.205 -1.79,3.995 -3.995,3.995l-92.73,0c-2.205,0 -3.996,-1.79 -3.996,-3.995l0,-7.99c0,-2.205 1.791,-3.995 3.996,-3.995l92.73,-0c2.205,-0 3.995,1.79 3.995,3.995Z" style="fill:#f4f284;fill-opacity:0.5;"/><clipPath id="_clip4"><path d="M500.913,324.775l-0,7.99c-0,2.205 -1.79,3.995 -3.995,3.995l-92.73,0c-2.205,0 -3.996,-1.79 -3.996,-3.995l0,-7.99c0,-2.205 1.791,-3.995 3.996,-3.995l92.73,-0c2.205,-0 3.995,1.79 3.995,3.995Z"/></clipPath><g clip-path="url(#_clip4)"><g transform="matrix(6.66667,0,0,6.66667,481.495,331.158)"></g><text x="419.61px" y="331.158px" style="font-family:'ArialMT', 'Arial', sans-serif;font-size:6.667px;">New Housing Supply</text></g><path d="M500.913,324.775l-0,7.99c-0,2.205 -1.79,3.995 -3.995,3.995l-92.73,0c-2.205,0 -3.996,-1.79 -3.996,-3.995l0,-7.99c0,-2.205 1.791,-3.995 3.996,-3.995l92.73,-0c2.205,-0 3.995,1.79 3.995,3.995Z" style="fill:none;stroke:#000;stroke-width:0.83px;"/><path d="M478.502,172.357l0,7.991c0,2.205 -1.79,3.995 -3.995,3.995l-92.73,-0c-2.205,-0 -3.995,-1.79 -3.995,-3.995l-0,-7.991c-0,-2.205 1.79,-3.995 3.995,-3.995l92.73,0c2.205,0 3.995,1.79 3.995,3.995Z" style="fill:#f4f284;fill-opacity:0.5;"/><clipPath id="_clip5"><path d="M478.502,172.357l0,7.991c0,2.205 -1.79,3.995 -3.995,3.995l-92.73,-0c-2.205,-0 -3.995,-1.79 -3.995,-3.995l-0,-7.991c-0,-2.205 1.79,-3.995 3.995,-3.995l92.73,0c2.205,0 3.995,1.79 3.995,3.995Z"/></clipPath><g clip-path="url(#_clip5)"><g transform="matrix(6.66667,0,0,6.66667,440.001,178.74)"></g><text x="416.283px" y="178.74px" style="font-family:'ArialMT', 'Arial', sans-serif;font-size:6.667px;">Subsidy</text></g><path d="M478.502,172.357l0,7.991c0,2.205 -1.79,3.995 -3.995,3.995l-92.73,-0c-2.205,-0 -3.995,-1.79 -3.995,-3.995l-0,-7.991c-0,-2.205 1.79,-3.995 3.995,-3.995l92.73,0c2.205,0 3.995,1.79 3.995,3.995Z" style="fill:none;stroke:#000;stroke-width:0.83px;"/><path d="M447.867,303.854l2.5,-5l2.5,5c-1.25,-1.25 -3.75,-1.25 -5,0Z"/><path d="M450.367,320.78l0,-17.926" style="fill:none;stroke:#000;stroke-width:0.42px;"/><path d="M194.103,95.352l-5,-2.5l5,-2.5c-1.25,1.25 -1.25,3.75 -0,5Z"/><path d="M227.078,92.852l-33.975,-0" style="fill:none;stroke:#000;stroke-width:0.42px;"/><path d="M333.979,262.132l-5,-2.5l5,-2.5c-1.25,1.25 -1.25,3.75 0,5Z"/><path d="M377.782,176.353l-27.94,-0l0,83.279l-16.863,-0" style="fill:none;stroke:#000;stroke-width:0.42px;"/><path d="M127.904,162.299l-2.5,5l-2.5,-5c1.25,1.25 3.75,1.25 5,0Z"/><path d="M99.76,120.543l-0,26.768l25.644,-0l-0,15.988" style="fill:none;stroke:#000;stroke-width:0.42px;"/><path d="M190.984,242.382l-5,-2.5l5,-2.5c-1.25,1.25 -1.25,3.75 0,5Z"/><path d="M244.585,282.623l-34.233,-0l-0.193,-42.741l-20.175,0" style="fill:none;stroke:#000;stroke-width:0.42px;"/><path d="M140.464,162.299l-2.5,5l-2.5,-5c1.25,1.25 3.75,1.25 5,0Z"/><path d="M163.608,120.543l-0,26.768l-25.644,-0l-0,15.988" style="fill:none;stroke:#000;stroke-width:0.42px;"/><path d="M65.139,31.331l5,2.5l-5,2.5c1.25,-1.25 1.25,-3.75 -0,-5Z"/><path d="M53.406,33.831l12.733,0" style="fill:none;stroke:#000;stroke-width:0.42px;"/><path d="M190.328,30.679l-0,6.305c-0,1.741 -1.413,3.153 -3.153,3.153l-113.061,0c-1.74,0 -3.153,-1.412 -3.153,-3.153l-0,-6.305c-0,-1.741 1.413,-3.153 3.153,-3.153l113.061,-0c1.74,-0 3.153,1.412 3.153,3.153Z" style="fill:#0f2d5e;fill-opacity:0.5;"/><clipPath id="_clip6"><path d="M190.328,30.679l-0,6.305c-0,1.741 -1.413,3.153 -3.153,3.153l-113.061,0c-1.74,0 -3.153,-1.412 -3.153,-3.153l-0,-6.305c-0,-1.741 1.413,-3.153 3.153,-3.153l113.061,-0c1.74,-0 3.153,1.412 3.153,3.153Z"/></clipPath><g clip-path="url(#_clip6)"><g transform="matrix(6.66667,0,0,6.66667,178.821,36.3055)"></g><text x="82.467px" y="36.306px" style="font-family:'ArialMT', 'Arial', sans-serif;font-size:6.667px;">Moving Consideration Likelihood</text></g><path d="M190.328,30.679l-0,6.305c-0,1.741 -1.413,3.153 -3.153,3.153l-113.061,0c-1.74,0 -3.153,-1.412 -3.153,-3.153l-0,-6.305c-0,-1.741 1.413,-3.153 3.153,-3.153l113.061,-0c1.74,-0 3.153,1.412 3.153,3.153Z" style="fill:none;stroke:#000;stroke-width:0.83px;"/><path d="M165.609,53.34l-0,6.306c-0,1.74 -1.413,3.153 -3.153,3.153l-63.623,-0c-1.74,-0 -3.153,-1.413 -3.153,-3.153l-0,-6.306c-0,-1.74 1.413,-3.153 3.153,-3.153l63.623,0c1.74,0 3.153,1.413 3.153,3.153Z" style="fill:#0f2d5e;fill-opacity:0.5;"/><clipPath id="_clip7"><path d="M165.609,53.34l-0,6.306c-0,1.74 -1.413,3.153 -3.153,3.153l-63.623,-0c-1.74,-0 -3.153,-1.413 -3.153,-3.153l-0,-6.306c-0,-1.74 1.413,-3.153 3.153,-3.153l63.623,0c1.74,0 3.153,1.413 3.153,3.153Z"/></clipPath><g clip-path="url(#_clip7)"><g transform="matrix(6.66667,0,0,6.66667,156.697,58.9672)"></g><text x="104.438px" y="58.967px" style="font-family:'ArialMT', 'Arial', sans-serif;font-size:6.667px;">Mobile household</text></g><path d="M165.609,53.34l-0,6.306c-0,1.74 -1.413,3.153 -3.153,3.153l-63.623,-0c-1.74,-0 -3.153,-1.413 -3.153,-3.153l-0,-6.306c-0,-1.74 1.413,-3.153 3.153,-3.153l63.623,0c1.74,0 3.153,1.413 3.153,3.153Z" style="fill:none;stroke:#000;stroke-width:0.83px;"/><path d="M128.557,111.084l-0,6.306c-0,1.74 -1.413,3.153 -3.153,3.153l-51.288,-0c-1.74,-0 -3.153,-1.413 -3.153,-3.153l0,-6.306c0,-1.74 1.413,-3.153 3.153,-3.153l51.288,0c1.74,0 3.153,1.413 3.153,3.153Z" style="fill:#0f2d5e;fill-opacity:0.5;"/><clipPath id="_clip8"><path d="M128.557,111.084l-0,6.306c-0,1.74 -1.413,3.153 -3.153,3.153l-51.288,-0c-1.74,-0 -3.153,-1.413 -3.153,-3.153l0,-6.306c0,-1.74 1.413,-3.153 3.153,-3.153l51.288,0c1.74,0 3.153,1.413 3.153,3.153Z"/></clipPath><g clip-path="url(#_clip8)"><g transform="matrix(6.66667,0,0,6.66667,121.002,116.711)"></g><text x="78.391px" y="116.711px" style="font-family:'ArialMT', 'Arial', sans-serif;font-size:6.667px;">Buying Market</text></g><path d="M128.557,111.084l-0,6.306c-0,1.74 -1.413,3.153 -3.153,3.153l-51.288,-0c-1.74,-0 -3.153,-1.413 -3.153,-3.153l0,-6.306c0,-1.74 1.413,-3.153 3.153,-3.153l51.288,0c1.74,0 3.153,1.413 3.153,3.153Z" style="fill:none;stroke:#000;stroke-width:0.83px;"/><path d="M188.843,111.084l-0,6.306c-0,1.74 -1.413,3.153 -3.153,3.153l-47.618,-0c-1.74,-0 -3.153,-1.413 -3.153,-3.153l0,-6.306c0,-1.74 1.413,-3.153 3.153,-3.153l47.618,0c1.74,0 3.153,1.413 3.153,3.153Z" style="fill:#0f2d5e;fill-opacity:0.5;"/><clipPath id="_clip9"><path d="M188.843,111.084l-0,6.306c-0,1.74 -1.413,3.153 -3.153,3.153l-47.618,-0c-1.74,-0 -3.153,-1.413 -3.153,-3.153l0,-6.306c0,-1.74 1.413,-3.153 3.153,-3.153l47.618,0c1.74,0 3.153,1.413 3.153,3.153Z"/></clipPath><g clip-path="url(#_clip9)"><g transform="matrix(6.66667,0,0,6.66667,179.976,116.711)"></g><text x="143.667px" y="116.711px" style="font-family:'ArialMT', 'Arial', sans-serif;font-size:6.667px;">Rent Market</text></g><path d="M188.843,111.084l-0,6.306c-0,1.74 -1.413,3.153 -3.153,3.153l-47.618,-0c-1.74,-0 -3.153,-1.413 -3.153,-3.153l0,-6.306c0,-1.74 1.413,-3.153 3.153,-3.153l47.618,0c1.74,0 3.153,1.413 3.153,3.153Z" style="fill:none;stroke:#000;stroke-width:0.83px;"/><path d="M189.103,89.699l-0,6.306c-0,1.74 -1.413,3.152 -3.153,3.152l-111.834,0c-1.74,0 -3.153,-1.412 -3.153,-3.152l0,-6.306c0,-1.74 1.413,-3.153 3.153,-3.153l111.834,-0c1.74,-0 3.153,1.413 3.153,3.153Z" style="fill:#0f2d5e;fill-opacity:0.5;"/><clipPath id="_clip10"><path d="M189.103,89.699l-0,6.306c-0,1.74 -1.413,3.152 -3.153,3.152l-111.834,0c-1.74,0 -3.153,-1.412 -3.153,-3.152l0,-6.306c0,-1.74 1.413,-3.153 3.153,-3.153l111.834,-0c1.74,-0 3.153,1.413 3.153,3.153Z"/></clipPath><g clip-path="url(#_clip10)"><g transform="matrix(6.66667,0,0,6.66667,179.872,95.3257)"></g><text x="79.934px" y="95.326px" style="font-family:'ArialMT', 'Arial', sans-serif;font-size:6.667px;">Housing <tspan x="106.125px 109.459px 113.166px " y="95.326px 95.326px 95.326px ">Ten</tspan>ure Switch Likelihood</text></g><path d="M189.103,89.699l-0,6.306c-0,1.74 -1.413,3.152 -3.153,3.152l-111.834,0c-1.74,0 -3.153,-1.412 -3.153,-3.152l0,-6.306c0,-1.74 1.413,-3.153 3.153,-3.153l111.834,-0c1.74,-0 3.153,1.413 3.153,3.153Z" style="fill:none;stroke:#000;stroke-width:0.83px;"/><path d="M197.684,170.452l0,6.306c0,1.74 -1.413,3.153 -3.153,3.153l-127.614,0c-1.74,0 -3.153,-1.413 -3.153,-3.153l0,-6.306c0,-1.74 1.413,-3.153 3.153,-3.153l127.614,0c1.74,0 3.153,1.413 3.153,3.153Z" style="fill:#3d2e19;fill-opacity:0.5;"/><clipPath id="_clip11"><path d="M197.684,170.452l0,6.306c0,1.74 -1.413,3.153 -3.153,3.153l-127.614,0c-1.74,0 -3.153,-1.413 -3.153,-3.153l0,-6.306c0,-1.74 1.413,-3.153 3.153,-3.153l127.614,0c1.74,0 3.153,1.413 3.153,3.153Z"/></clipPath><g clip-path="url(#_clip11)"><g transform="matrix(6.66667,0,0,6.66667,183.906,175.993)"></g><text x="77.542px" y="175.993px" style="font-family:'ArialMT', 'Arial', sans-serif;font-size:6.667px;">Residence Consideration Likelihood</text></g><path d="M197.684,170.452l0,6.306c0,1.74 -1.413,3.153 -3.153,3.153l-127.614,0c-1.74,0 -3.153,-1.413 -3.153,-3.153l0,-6.306c0,-1.74 1.413,-3.153 3.153,-3.153l127.614,0c1.74,0 3.153,1.413 3.153,3.153Z" style="fill:none;stroke:#000;stroke-width:0.83px;"/><path d="M197.684,214.758l0,6.306c0,1.74 -1.413,3.153 -3.153,3.153l-127.614,0c-1.74,0 -3.153,-1.413 -3.153,-3.153l0,-6.306c0,-1.74 1.413,-3.153 3.153,-3.153l127.614,0c1.74,0 3.153,1.413 3.153,3.153Z" style="fill:#3d2e19;fill-opacity:0.5;"/><clipPath id="_clip12"><path d="M197.684,214.758l0,6.306c0,1.74 -1.413,3.153 -3.153,3.153l-127.614,0c-1.74,0 -3.153,-1.413 -3.153,-3.153l0,-6.306c0,-1.74 1.413,-3.153 3.153,-3.153l127.614,0c1.74,0 3.153,1.413 3.153,3.153Z"/></clipPath><g clip-path="url(#_clip12)"><g transform="matrix(6.66667,0,0,6.66667,185.511,220.299)"></g><text x="75.937px" y="220.299px" style="font-family:'ArialMT', 'Arial', sans-serif;font-size:6.667px;">Af<tspan x="82.116px 83.968px " y="220.299px 220.299px ">fo</tspan>rdability Consideration Likelihood</text></g><path d="M197.684,214.758l0,6.306c0,1.74 -1.413,3.153 -3.153,3.153l-127.614,0c-1.74,0 -3.153,-1.413 -3.153,-3.153l0,-6.306c0,-1.74 1.413,-3.153 3.153,-3.153l127.614,0c1.74,0 3.153,1.413 3.153,3.153Z" style="fill:none;stroke:#000;stroke-width:0.83px;"/><path d="M328.979,256.479l0,6.306c0,1.74 -1.413,3.153 -3.153,3.153l-91.765,-0c-1.74,-0 -3.153,-1.413 -3.153,-3.153l0,-6.306c0,-1.74 1.413,-3.153 3.153,-3.153l91.765,0c1.74,0 3.153,1.413 3.153,3.153Z" style="fill:#b29aae;fill-opacity:0.7;"/><clipPath id="_clip13"><path d="M328.979,256.479l0,6.306c0,1.74 -1.413,3.153 -3.153,3.153l-91.765,-0c-1.74,-0 -3.153,-1.413 -3.153,-3.153l0,-6.306c0,-1.74 1.413,-3.153 3.153,-3.153l91.765,0c1.74,0 3.153,1.413 3.153,3.153Z"/></clipPath><g clip-path="url(#_clip13)"><g transform="matrix(6.66667,0,0,6.66667,319.415,262.02)"></g><text x="240.473px" y="262.02px" style="font-family:'ArialMT', 'Arial', sans-serif;font-size:6.667px;">Income Change Likelihood</text></g><path d="M328.979,256.479l0,6.306c0,1.74 -1.413,3.153 -3.153,3.153l-91.765,-0c-1.74,-0 -3.153,-1.413 -3.153,-3.153l0,-6.306c0,-1.74 1.413,-3.153 3.153,-3.153l91.765,0c1.74,0 3.153,1.413 3.153,3.153Z" style="fill:none;stroke:#000;stroke-width:0.83px;"/><path d="M152.585,357.282l-0,5.66c-0,1.562 -1.268,2.83 -2.83,2.83l-136.035,0c-1.562,0 -2.83,-1.268 -2.83,-2.83l0,-5.66c0,-1.562 1.268,-2.83 2.83,-2.83l136.035,-0c1.562,-0 2.83,1.268 2.83,2.83Z" style="fill:#7b8b65;fill-opacity:0.5;"/><clipPath id="_clip14"><path d="M152.585,357.282l-0,5.66c-0,1.562 -1.268,2.83 -2.83,2.83l-136.035,0c-1.562,0 -2.83,-1.268 -2.83,-2.83l0,-5.66c0,-1.562 1.268,-2.83 2.83,-2.83l136.035,-0c1.562,-0 2.83,1.268 2.83,2.83Z"/></clipPath><g clip-path="url(#_clip14)"><g transform="matrix(6.66667,0,0,6.66667,111.388,362.5)"></g><text x="52.087px" y="362.5px" style="font-family:'ArialMT', 'Arial', sans-serif;font-size:6.667px;">Life Event Schedule</text></g><path d="M152.585,357.282l-0,5.66c-0,1.562 -1.268,2.83 -2.83,2.83l-136.035,0c-1.562,0 -2.83,-1.268 -2.83,-2.83l0,-5.66c0,-1.562 1.268,-2.83 2.83,-2.83l136.035,-0c1.562,-0 2.83,1.268 2.83,2.83Z" style="fill:none;stroke:#000;stroke-width:0.83px;"/><path d="M152.585,382.724l-0,5.661c-0,1.562 -1.268,2.83 -2.83,2.83l-136.035,-0c-1.562,-0 -2.83,-1.268 -2.83,-2.83l0,-5.661c0,-1.562 1.268,-2.83 2.83,-2.83l136.035,-0c1.562,-0 2.83,1.268 2.83,2.83Z" style="fill:#7b8b65;fill-opacity:0.5;"/><clipPath id="_clip15"><path d="M152.585,382.724l-0,5.661c-0,1.562 -1.268,2.83 -2.83,2.83l-136.035,-0c-1.562,-0 -2.83,-1.268 -2.83,-2.83l0,-5.661c0,-1.562 1.268,-2.83 2.83,-2.83l136.035,-0c1.562,-0 2.83,1.268 2.83,2.83Z"/></clipPath><g clip-path="url(#_clip15)"><g transform="matrix(6.66667,0,0,6.66667,130.654,387.942)"></g><text x="32.821px" y="387.942px" style="font-family:'ArialMT', 'Arial', sans-serif;font-size:6.667px;">Life Event Occurrence Likelihood</text></g><path d="M152.585,382.724l-0,5.661c-0,1.562 -1.268,2.83 -2.83,2.83l-136.035,-0c-1.562,-0 -2.83,-1.268 -2.83,-2.83l0,-5.661c0,-1.562 1.268,-2.83 2.83,-2.83l136.035,-0c1.562,-0 2.83,1.268 2.83,2.83Z" style="fill:none;stroke:#000;stroke-width:0.83px;"/><path d="M52.343,30.679l-0,5.661c-0,1.562 -1.268,2.83 -2.83,2.83l-46.685,-0c-1.562,-0 -2.83,-1.268 -2.83,-2.83l0,-5.661c0,-1.562 1.268,-2.83 2.83,-2.83l46.685,-0c1.562,-0 2.83,1.268 2.83,2.83Z" style="fill:#7b8b65;fill-opacity:0.5;"/><clipPath id="_clip16"><path d="M52.343,30.679l-0,5.661c-0,1.562 -1.268,2.83 -2.83,2.83l-46.685,-0c-1.562,-0 -2.83,-1.268 -2.83,-2.83l0,-5.661c0,-1.562 1.268,-2.83 2.83,-2.83l46.685,-0c1.562,-0 2.83,1.268 2.83,2.83Z"/></clipPath><g clip-path="url(#_clip16)"><g transform="matrix(6.66667,0,0,6.66667,42.6614,35.897)"></g><text x="9.68px" y="35.897px" style="font-family:'ArialMT', 'Arial', sans-serif;font-size:6.667px;">Life Events</text></g><path d="M52.343,30.679l-0,5.661c-0,1.562 -1.268,2.83 -2.83,2.83l-46.685,-0c-1.562,-0 -2.83,-1.268 -2.83,-2.83l0,-5.661c0,-1.562 1.268,-2.83 2.83,-2.83l46.685,-0c1.562,-0 2.83,1.268 2.83,2.83Z" style="fill:none;stroke:#000;stroke-width:0.83px;"/><path d="M64.346,91.328l5,2.5l-5,2.5c1.25,-1.25 1.25,-3.75 -0,-5Z"/><path d="M27.289,82.265l-0,11.563l38.057,-0" style="fill:none;stroke:#000;stroke-width:0.42px;"/><path d="M58.507,171.612l5,2.5l-5,2.5c1.25,-1.25 1.25,-3.75 -0,-5Z"/><path d="M27.289,82.265l-0,91.847l32.218,-0" style="fill:none;stroke:#000;stroke-width:0.42px;"/><path d="M314.914,278.27l0,7.013c0,1.935 -1.571,3.506 -3.506,3.506l-62.929,0c-1.935,0 -3.506,-1.571 -3.506,-3.506l0,-7.013c0,-1.935 1.571,-3.506 3.506,-3.506l62.929,0c1.935,0 3.506,1.571 3.506,3.506Z" style="fill:#b29aae;fill-opacity:0.7;"/><clipPath id="_clip17"><path d="M314.914,278.27l0,7.013c0,1.935 -1.571,3.506 -3.506,3.506l-62.929,0c-1.935,0 -3.506,-1.571 -3.506,-3.506l0,-7.013c0,-1.935 1.571,-3.506 3.506,-3.506l62.929,0c1.935,0 3.506,1.571 3.506,3.506Z"/></clipPath><g clip-path="url(#_clip17)"><g transform="matrix(6.66667,0,0,6.66667,304.397,284.164)"></g><text x="255.478px" y="284.164px" style="font-family:'ArialMT', 'Arial', sans-serif;font-size:6.667px;fill:#312f2f;">Updated Income</text></g><path d="M314.914,278.27l0,7.013c0,1.935 -1.571,3.506 -3.506,3.506l-62.929,0c-1.935,0 -3.506,-1.571 -3.506,-3.506l0,-7.013c0,-1.935 1.571,-3.506 3.506,-3.506l62.929,0c1.935,0 3.506,1.571 3.506,3.506Z" style="fill:none;stroke:#000;stroke-width:0.83px;"/><path d="M394.387,289.342l5,2.5l-5,2.5c1.25,-1.25 1.25,-3.75 -0,-5Z"/><path d="M368.474,306.598l14.287,-0l-0,-14.756l12.626,-0" style="fill:none;stroke:#000;stroke-width:0.42px;"/><path d="M165.621,8.233l-0,7.012c-0,1.936 -1.571,3.507 -3.507,3.507l-62.928,-0c-1.935,-0 -3.506,-1.571 -3.506,-3.507l-0,-7.012c-0,-1.935 1.571,-3.507 3.506,-3.507l62.928,0c1.936,0 3.507,1.572 3.507,3.507Z" style="fill:none;"/><clipPath id="_clip18"><path d="M165.621,8.233l-0,7.012c-0,1.936 -1.571,3.507 -3.507,3.507l-62.928,-0c-1.935,-0 -3.506,-1.571 -3.506,-3.507l-0,-7.012c-0,-1.935 1.571,-3.507 3.506,-3.507l62.928,0c1.936,0 3.507,1.572 3.507,3.507Z"/></clipPath><g clip-path="url(#_clip18)"><g transform="matrix(6.66667,0,0,6.66667,158.817,14.1268)"></g><text x="102.472px" y="14.127px" style="font-family:'ArialMT', 'Arial', sans-serif;font-size:6.667px;">Located household</text></g><path d="M165.621,8.233l-0,7.012c-0,1.936 -1.571,3.507 -3.507,3.507l-62.928,-0c-1.935,-0 -3.506,-1.571 -3.506,-3.507l-0,-7.012c-0,-1.935 1.571,-3.507 3.506,-3.507l62.928,0c1.936,0 3.507,1.572 3.507,3.507Z" style="fill:none;stroke:#540000;stroke-width:1px;"/><path d="M314.914,233.191l0,7.012c0,1.935 -1.571,3.507 -3.506,3.507l-62.929,-0c-1.935,-0 -3.506,-1.572 -3.506,-3.507l0,-7.012c0,-1.936 1.571,-3.507 3.506,-3.507l62.929,0c1.935,0 3.506,1.571 3.506,3.507Z" style="fill:none;"/><clipPath id="_clip19"><path d="M314.914,233.191l0,7.012c0,1.935 -1.571,3.507 -3.506,3.507l-62.929,-0c-1.935,-0 -3.506,-1.572 -3.506,-3.507l0,-7.012c0,-1.936 1.571,-3.507 3.506,-3.507l62.929,0c1.935,0 3.506,1.571 3.506,3.507Z"/></clipPath><g clip-path="url(#_clip19)"><g transform="matrix(6.66667,0,0,6.66667,305.507,239.085)"></g><text x="254.368px" y="239.085px" style="font-family:'ArialMT', 'Arial', sans-serif;font-size:6.667px;">Assigned Income</text></g><path d="M314.914,233.191l0,7.012c0,1.935 -1.571,3.507 -3.506,3.507l-62.929,-0c-1.935,-0 -3.506,-1.572 -3.506,-3.507l0,-7.012c0,-1.936 1.571,-3.507 3.506,-3.507l62.929,0c1.935,0 3.506,1.571 3.506,3.507Z" style="fill:none;stroke:#540000;stroke-width:1px;"/><path d="M165.05,192.545l0,6.306c0,1.74 -1.412,3.153 -3.153,3.153l-62.346,-0c-1.74,-0 -3.153,-1.413 -3.153,-3.153l-0,-6.306c-0,-1.74 1.413,-3.153 3.153,-3.153l62.346,-0c1.741,-0 3.153,1.413 3.153,3.153Z" style="fill:#3d2e19;fill-opacity:0.5;"/><clipPath id="_clip20"><path d="M165.05,192.545l0,6.306c0,1.74 -1.412,3.153 -3.153,3.153l-62.346,-0c-1.74,-0 -3.153,-1.413 -3.153,-3.153l-0,-6.306c-0,-1.74 1.413,-3.153 3.153,-3.153l62.346,-0c1.741,-0 3.153,1.413 3.153,3.153Z"/></clipPath><g clip-path="url(#_clip20)"><g transform="matrix(6.66667,0,0,6.66667,157.591,198.085)"></g><text x="103.857px" y="198.085px" style="font-family:'ArialMT', 'Arial', sans-serif;font-size:6.667px;">House Choice Set</text></g><path d="M165.05,192.545l0,6.306c0,1.74 -1.412,3.153 -3.153,3.153l-62.346,-0c-1.74,-0 -3.153,-1.413 -3.153,-3.153l-0,-6.306c-0,-1.74 1.413,-3.153 3.153,-3.153l62.346,-0c1.741,-0 3.153,1.413 3.153,3.153Z" style="fill:none;stroke:#000;stroke-width:0.83px;"/><path d="M185.984,236.729l0,6.306c0,1.74 -1.413,3.153 -3.153,3.153l-104.214,0c-1.74,0 -3.153,-1.413 -3.153,-3.153l-0,-6.306c-0,-1.74 1.413,-3.152 3.153,-3.152l104.214,-0c1.74,-0 3.153,1.412 3.153,3.152Z" style="fill:#3d2e19;fill-opacity:0.5;"/><clipPath id="_clip21"><path d="M185.984,236.729l0,6.306c0,1.74 -1.413,3.153 -3.153,3.153l-104.214,0c-1.74,0 -3.153,-1.413 -3.153,-3.153l-0,-6.306c-0,-1.74 1.413,-3.152 3.153,-3.152l104.214,-0c1.74,-0 3.153,1.412 3.153,3.152Z"/></clipPath><g clip-path="url(#_clip21)"><g transform="matrix(6.66667,0,0,6.66667,176.245,242.27)"></g><text x="85.203px" y="242.27px" style="font-family:'ArialMT', 'Arial', sans-serif;font-size:6.667px;">Sort by Household <tspan x="141.535px 145.981px 147.713px 149.565px " y="242.27px 242.27px 242.27px 242.27px ">Affo</tspan>rdability</text></g><path d="M185.984,236.729l0,6.306c0,1.74 -1.413,3.153 -3.153,3.153l-104.214,0c-1.74,0 -3.153,-1.413 -3.153,-3.153l-0,-6.306c-0,-1.74 1.413,-3.152 3.153,-3.152l104.214,-0c1.74,-0 3.153,1.412 3.153,3.152Z" style="fill:none;stroke:#000;stroke-width:0.83px;"/><path d="M185.984,258.822l0,6.306c0,1.74 -1.413,3.153 -3.153,3.153l-104.214,-0c-1.74,-0 -3.153,-1.413 -3.153,-3.153l-0,-6.306c-0,-1.74 1.413,-3.153 3.153,-3.153l104.214,-0c1.74,-0 3.153,1.413 3.153,3.153Z" style="fill:#3d2e19;fill-opacity:0.5;"/><clipPath id="_clip22"><path d="M185.984,258.822l0,6.306c0,1.74 -1.413,3.153 -3.153,3.153l-104.214,-0c-1.74,-0 -3.153,-1.413 -3.153,-3.153l-0,-6.306c-0,-1.74 1.413,-3.153 3.153,-3.153l104.214,-0c1.74,-0 3.153,1.413 3.153,3.153Z"/></clipPath><g clip-path="url(#_clip22)"><g transform="matrix(6.66667,0,0,6.66667,162.407,264.362)"></g><text x="99.041px" y="264.362px" style="font-family:'ArialMT', 'Arial', sans-serif;font-size:6.667px;">Final Housing Choice</text></g><path d="M185.984,258.822l0,6.306c0,1.74 -1.413,3.153 -3.153,3.153l-104.214,-0c-1.74,-0 -3.153,-1.413 -3.153,-3.153l-0,-6.306c-0,-1.74 1.413,-3.153 3.153,-3.153l104.214,-0c1.74,-0 3.153,1.413 3.153,3.153Z" style="fill:none;stroke:#000;stroke-width:0.83px;"/><path d="M367.911,332.264l0,7.013c0,1.935 -1.571,3.506 -3.506,3.506l-141.367,0c-1.935,0 -3.506,-1.571 -3.506,-3.506l-0,-7.013c-0,-1.935 1.571,-3.506 3.506,-3.506l141.367,-0c1.935,-0 3.506,1.571 3.506,3.506Z" style="fill:none;"/><clipPath id="_clip23"><path d="M367.911,332.264l0,7.013c0,1.935 -1.571,3.506 -3.506,3.506l-141.367,0c-1.935,0 -3.506,-1.571 -3.506,-3.506l-0,-7.013c-0,-1.935 1.571,-3.506 3.506,-3.506l141.367,-0c1.935,-0 3.506,1.571 3.506,3.506Z"/></clipPath><g clip-path="url(#_clip23)"><g transform="matrix(6.66667,0,0,6.66667,343.003,338.158)"></g><text x="244.415px" y="338.158px" style="font-family:'ArialMT', 'Arial', sans-serif;font-size:6.667px;">Update Neighbourhood <tspan x="314.842px 319.288px " y="338.158px 338.158px ">At</tspan>tributes</text></g><path d="M367.911,332.264l0,7.013c0,1.935 -1.571,3.506 -3.506,3.506l-141.367,0c-1.935,0 -3.506,-1.571 -3.506,-3.506l-0,-7.013c-0,-1.935 1.571,-3.506 3.506,-3.506l141.367,-0c1.935,-0 3.506,1.571 3.506,3.506Z" style="fill:none;stroke:#540000;stroke-width:1px;"/><path d="M367.911,302.926l0,7.013c0,1.935 -1.571,3.506 -3.506,3.506l-141.367,0c-1.935,0 -3.506,-1.571 -3.506,-3.506l-0,-7.013c-0,-1.935 1.571,-3.506 3.506,-3.506l141.367,-0c1.935,-0 3.506,1.571 3.506,3.506Z" style="fill:none;"/><clipPath id="_clip24"><path d="M367.911,302.926l0,7.013c0,1.935 -1.571,3.506 -3.506,3.506l-141.367,0c-1.935,0 -3.506,-1.571 -3.506,-3.506l-0,-7.013c-0,-1.935 1.571,-3.506 3.506,-3.506l141.367,-0c1.935,-0 3.506,1.571 3.506,3.506Z"/></clipPath><g clip-path="url(#_clip24)"><g transform="matrix(6.66667,0,0,6.66667,328.297,308.82)"></g><text x="259.121px" y="308.82px" style="font-family:'ArialMT', 'Arial', sans-serif;font-size:6.667px;">Update V<tspan x="286.422px 290.13px " y="308.82px 308.82px ">ac</tspan>ancy States</text></g><path d="M367.911,302.926l0,7.013c0,1.935 -1.571,3.506 -3.506,3.506l-141.367,0c-1.935,0 -3.506,-1.571 -3.506,-3.506l-0,-7.013c-0,-1.935 1.571,-3.506 3.506,-3.506l141.367,-0c1.935,-0 3.506,1.571 3.506,3.506Z" style="fill:none;stroke:#540000;stroke-width:1px;"/><path d="M93.134,71.746l-0,7.012c-0,1.935 -1.571,3.507 -3.506,3.507l-68.892,-0c-1.935,-0 -3.506,-1.572 -3.506,-3.507l-0,-7.012c-0,-1.936 1.571,-3.507 3.506,-3.507l68.892,0c1.935,0 3.506,1.571 3.506,3.507Z" style="fill:none;"/><clipPath id="_clip25"><path d="M93.134,71.746l-0,7.012c-0,1.935 -1.571,3.507 -3.506,3.507l-68.892,-0c-1.935,-0 -3.506,-1.572 -3.506,-3.507l-0,-7.012c-0,-1.936 1.571,-3.507 3.506,-3.507l68.892,0c1.935,0 3.506,1.571 3.506,3.507Z"/></clipPath><g clip-path="url(#_clip25)"><g transform="matrix(6.66667,0,0,6.66667,85.5627,77.6396)"></g><text x="24.788px" y="77.64px" style="font-family:'ArialMT', 'Arial', sans-serif;font-size:6.667px;">Household Structure</text></g><path d="M93.134,71.746l-0,7.012c-0,1.935 -1.571,3.507 -3.506,3.507l-68.892,-0c-1.935,-0 -3.506,-1.572 -3.506,-3.507l-0,-7.012c-0,-1.936 1.571,-3.507 3.506,-3.507l68.892,0c1.935,0 3.506,1.571 3.506,3.507Z" style="fill:none;stroke:#540000;stroke-width:1px;"/><path d="M501.365,288.335l-0,7.013c-0,1.935 -1.571,3.506 -3.507,3.506l-94.965,0c-1.935,0 -3.506,-1.571 -3.506,-3.506l-0,-7.013c-0,-1.935 1.571,-3.506 3.506,-3.506l94.965,0c1.936,0 3.507,1.571 3.507,3.506Z" style="fill:none;"/><clipPath id="_clip26"><path d="M501.365,288.335l-0,7.013c-0,1.935 -1.571,3.506 -3.507,3.506l-94.965,0c-1.935,0 -3.506,-1.571 -3.506,-3.506l-0,-7.013c-0,-1.935 1.571,-3.506 3.506,-3.506l94.965,0c1.936,0 3.507,1.571 3.507,3.506Z"/></clipPath><g clip-path="url(#_clip26)"><g transform="matrix(6.66667,0,0,6.66667,476.061,294.229)"></g><text x="424.674px" y="294.229px" style="font-family:'ArialMT', 'Arial', sans-serif;font-size:6.667px;">Housing V<tspan x="454.937px 458.645px " y="294.229px 294.229px ">ac</tspan>ancy</text></g><path d="M501.365,288.335l-0,7.013c-0,1.935 -1.571,3.506 -3.507,3.506l-94.965,0c-1.935,0 -3.506,-1.571 -3.506,-3.506l-0,-7.013c-0,-1.935 1.571,-3.506 3.506,-3.506l94.965,0c1.936,0 3.507,1.571 3.507,3.506Z" style="fill:none;stroke:#540000;stroke-width:1px;"/><path d="M130.65,18.752l0,8.774" style="fill:none;stroke:#000;stroke-width:0.42px;"/><path d="M130.65,62.799l0,23.747" style="fill:none;stroke:#000;stroke-width:0.42px;"/><path d="M130.65,202.71l0,8.774" style="fill:none;stroke:#000;stroke-width:0.42px;"/><path d="M133.15,43.911l-2.5,5l-2.5,-5c1.25,1.25 3.75,1.25 5,0Z"/><path d="M130.65,40.137l0,4.774" style="fill:none;stroke:#000;stroke-width:0.42px;"/><path d="M282.444,269.764l-2.5,5l-2.5,-5c1.25,1.25 3.75,1.25 5,0Z"/><path d="M279.944,265.99l-0,4.774" style="fill:none;stroke:#000;stroke-width:0.42px;"/><path d="M282.444,247.483l-2.5,5l-2.5,-5c1.25,1.25 3.75,1.25 5,0Z"/><path d="M279.944,243.71l-0,4.773" style="fill:none;stroke:#000;stroke-width:0.42px;"/><path d="M133.15,227.87l-2.5,5l-2.5,-5c1.25,1.25 3.75,1.25 5,-0Z"/><path d="M130.65,224.096l0,4.774" style="fill:none;stroke:#000;stroke-width:0.42px;"/><path d="M133.224,183.685l-2.5,5l-2.5,-5c1.25,1.25 3.75,1.25 5,0Z"/><path d="M130.724,179.911l0,4.774" style="fill:none;stroke:#000;stroke-width:0.42px;"/><path d="M133.224,250.669l-2.5,5l-2.5,-5c1.25,1.25 3.75,1.25 5,-0Z"/><path d="M130.724,246.895l0,4.774" style="fill:none;stroke:#000;stroke-width:0.42px;"/><path d="M263.588,345.876l-2.5,5l-2.5,-5c1.25,1.25 3.75,1.25 5,0Z"/><path d="M261.088,342.783l-0,4.093" style="fill:none;stroke:#000;stroke-width:0.42px;"/><path d="M222.078,68.289l5,2.5l-5,2.5c1.25,-1.25 1.25,-3.75 -0,-5Z"/><path d="M130.65,62.799l0,7.99l92.428,0" style="fill:none;stroke:#000;stroke-width:0.42px;"/><path d="M302.021,354.639l0,7.012c0,1.935 -1.571,3.507 -3.506,3.507l-74.855,-0c-1.935,-0 -3.506,-1.572 -3.506,-3.507l0,-7.012c0,-1.936 1.571,-3.507 3.506,-3.507l74.855,0c1.935,0 3.506,1.571 3.506,3.507Z" style="fill:none;"/><clipPath id="_clip27"><path d="M302.021,354.639l0,7.012c0,1.935 -1.571,3.507 -3.506,3.507l-74.855,-0c-1.935,-0 -3.506,-1.572 -3.506,-3.507l0,-7.012c0,-1.936 1.571,-3.507 3.506,-3.507l74.855,0c1.935,0 3.506,1.571 3.506,3.507Z"/></clipPath><g clip-path="url(#_clip27)"><g transform="matrix(6.66667,0,0,6.66667,285.815,360.533)"></g><text x="236.346px" y="360.533px" style="font-family:'ArialMT', 'Arial', sans-serif;font-size:6.667px;">Scheduler (t + 1)</text></g><path d="M302.021,354.639l0,7.012c0,1.935 -1.571,3.507 -3.506,3.507l-74.855,-0c-1.935,-0 -3.506,-1.572 -3.506,-3.507l0,-7.012c0,-1.936 1.571,-3.507 3.506,-3.507l74.855,0c1.935,0 3.506,1.571 3.506,3.507Z" style="fill:none;stroke:#000;stroke-width:0.42px;"/><g><path d="M159.192,416.197l-0,7.99c-0,2.205 -1.79,3.995 -3.995,3.995l-66.62,0c-2.205,0 -3.995,-1.79 -3.995,-3.995l0,-7.99c0,-2.205 1.79,-3.995 3.995,-3.995l66.62,-0c2.205,-0 3.995,1.79 3.995,3.995Z" style="fill:#7b8b65;fill-opacity:0.5;"/><clipPath id="_clip28"><path d="M159.192,416.197l-0,7.99c-0,2.205 -1.79,3.995 -3.995,3.995l-66.62,0c-2.205,0 -3.995,-1.79 -3.995,-3.995l0,-7.99c0,-2.205 1.79,-3.995 3.995,-3.995l66.62,-0c2.205,-0 3.995,1.79 3.995,3.995Z"/></clipPath><g clip-path="url(#_clip28)"><g transform="matrix(6.66667,0,0,6.66667,140.224,422.578)"></g><text x="103.55px" y="422.578px" style="font-family:'Arial-BoldMT', 'Arial', sans-serif;font-weight:700;font-size:6.667px;">Life Course</text></g><path d="M159.192,416.197l-0,7.99c-0,2.205 -1.79,3.995 -3.995,3.995l-66.62,0c-2.205,0 -3.995,-1.79 -3.995,-3.995l0,-7.99c0,-2.205 1.79,-3.995 3.995,-3.995l66.62,-0c2.205,-0 3.995,1.79 3.995,3.995Z" style="fill:none;stroke:#000;stroke-width:0.83px;"/><g transform="matrix(6.66667,0,0,6.66667,76.5174,423.351)"></g><text x="54.271px" y="423.351px" style="font-family:'ArialMT', 'Arial', sans-serif;font-size:6.667px;">Legend</text><path d="M321.415,416.197l0,7.99c0,2.205 -1.79,3.995 -3.995,3.995l-66.619,0c-2.205,0 -3.995,-1.79 -3.995,-3.995l-0,-7.99c-0,-2.205 1.79,-3.995 3.995,-3.995l66.619,-0c2.205,-0 3.995,1.79 3.995,3.995Z" style="fill:#0f2d5e;fill-opacity:0.5;"/><clipPath id="_clip29"><path d="M321.415,416.197l0,7.99c0,2.205 -1.79,3.995 -3.995,3.995l-66.619,0c-2.205,0 -3.995,-1.79 -3.995,-3.995l-0,-7.99c-0,-2.205 1.79,-3.995 3.995,-3.995l66.619,-0c2.205,-0 3.995,1.79 3.995,3.995Z"/></clipPath><g clip-path="url(#_clip29)"><g transform="matrix(6.66667,0,0,6.66667,312.826,422.689)"></g><text x="255.395px" y="422.689px" style="font-family:'ArialMT', 'Arial', sans-serif;font-size:6.667px;">Residential Mobility</text></g><path d="M321.415,416.197l0,7.99c0,2.205 -1.79,3.995 -3.995,3.995l-66.619,0c-2.205,0 -3.995,-1.79 -3.995,-3.995l-0,-7.99c-0,-2.205 1.79,-3.995 3.995,-3.995l66.619,-0c2.205,-0 3.995,1.79 3.995,3.995Z" style="fill:none;stroke:#000;stroke-width:0.83px;"/><path d="M402.434,416.197l-0,7.99c-0,2.205 -1.791,3.995 -3.996,3.995l-66.619,0c-2.205,0 -3.995,-1.79 -3.995,-3.995l0,-7.99c0,-2.205 1.79,-3.995 3.995,-3.995l66.619,-0c2.205,-0 3.996,1.79 3.996,3.995Z" style="fill:#3d2e19;fill-opacity:0.5;"/><clipPath id="_clip30"><path d="M402.434,416.197l-0,7.99c-0,2.205 -1.791,3.995 -3.996,3.995l-66.619,0c-2.205,0 -3.995,-1.79 -3.995,-3.995l0,-7.99c0,-2.205 1.79,-3.995 3.995,-3.995l66.619,-0c2.205,-0 3.996,1.79 3.996,3.995Z"/></clipPath><g clip-path="url(#_clip30)"><g transform="matrix(6.66667,0,0,6.66667,395.329,422.58)"></g><text x="334.929px" y="422.58px" style="font-family:'ArialMT', 'Arial', sans-serif;font-size:6.667px;">Residential Decision</text></g><path d="M402.434,416.197l-0,7.99c-0,2.205 -1.791,3.995 -3.996,3.995l-66.619,0c-2.205,0 -3.995,-1.79 -3.995,-3.995l0,-7.99c0,-2.205 1.79,-3.995 3.995,-3.995l66.619,-0c2.205,-0 3.996,1.79 3.996,3.995Z" style="fill:none;stroke:#000;stroke-width:0.83px;"/><path d="M240.094,416.197l0,7.99c0,2.205 -1.79,3.995 -3.995,3.995l-66.619,0c-2.205,0 -3.995,-1.79 -3.995,-3.995l-0,-7.99c-0,-2.205 1.79,-3.995 3.995,-3.995l66.619,-0c2.205,-0 3.995,1.79 3.995,3.995Z" style="fill:#b29aae;fill-opacity:0.5;"/><clipPath id="_clip31"><path d="M240.094,416.197l0,7.99c0,2.205 -1.79,3.995 -3.995,3.995l-66.619,0c-2.205,0 -3.995,-1.79 -3.995,-3.995l-0,-7.99c-0,-2.205 1.79,-3.995 3.995,-3.995l66.619,-0c2.205,-0 3.995,1.79 3.995,3.995Z"/></clipPath><g clip-path="url(#_clip31)"><g transform="matrix(6.66667,0,0,6.66667,229.65,422.689)"></g><text x="175.929px" y="422.689px" style="font-family:'ArialMT', 'Arial', sans-serif;font-size:6.667px;">Economic Mobility</text></g><path d="M240.094,416.197l0,7.99c0,2.205 -1.79,3.995 -3.995,3.995l-66.619,0c-2.205,0 -3.995,-1.79 -3.995,-3.995l-0,-7.99c-0,-2.205 1.79,-3.995 3.995,-3.995l66.619,-0c2.205,-0 3.995,1.79 3.995,3.995Z" style="fill:none;stroke:#000;stroke-width:0.83px;"/><path d="M482.554,416.197l0,7.99c0,2.205 -1.79,3.995 -3.995,3.995l-66.619,0c-2.205,0 -3.995,-1.79 -3.995,-3.995l0,-7.99c0,-2.205 1.79,-3.995 3.995,-3.995l66.619,-0c2.205,-0 3.995,1.79 3.995,3.995Z" style="fill:#f4f284;fill-opacity:0.5;"/><clipPath id="_clip32"><path d="M482.554,416.197l0,7.99c0,2.205 -1.79,3.995 -3.995,3.995l-66.619,0c-2.205,0 -3.995,-1.79 -3.995,-3.995l0,-7.99c0,-2.205 1.79,-3.995 3.995,-3.995l66.619,-0c2.205,-0 3.995,1.79 3.995,3.995Z"/></clipPath><g clip-path="url(#_clip32)"><g transform="matrix(6.66667,0,0,6.66667,454.511,422.58)"></g><text x="435.989px" y="422.58px" style="font-family:'ArialMT', 'Arial', sans-serif;font-size:6.667px;">Macro</text></g><path d="M482.554,416.197l0,7.99c0,2.205 -1.79,3.995 -3.995,3.995l-66.619,0c-2.205,0 -3.995,-1.79 -3.995,-3.995l0,-7.99c0,-2.205 1.79,-3.995 3.995,-3.995l66.619,-0c2.205,-0 3.995,1.79 3.995,3.995Z" style="fill:none;stroke:#000;stroke-width:0.83px;"/></g><path d="M287.562,380.947l0,7.013c0,1.935 -1.571,3.506 -3.506,3.506l-45.937,-0c-1.935,-0 -3.506,-1.571 -3.506,-3.506l0,-7.013c0,-1.935 1.571,-3.506 3.506,-3.506l45.937,-0c1.935,-0 3.506,1.571 3.506,3.506Z" style="fill:none;"/><clipPath id="_clip33"><path d="M287.562,380.947l0,7.013c0,1.935 -1.571,3.506 -3.506,3.506l-45.937,-0c-1.935,-0 -3.506,-1.571 -3.506,-3.506l0,-7.013c0,-1.935 1.571,-3.506 3.506,-3.506l45.937,-0c1.935,-0 3.506,1.571 3.506,3.506Z"/></clipPath><g clip-path="url(#_clip33)"><g transform="matrix(6.66667,0,0,6.66667,271.462,386.841)"></g><text x="250.704px" y="386.841px" style="font-family:'ArialMT', 'Arial', sans-serif;font-size:6.667px;">Ageing</text></g><path d="M287.562,380.947l0,7.013c0,1.935 -1.571,3.506 -3.506,3.506l-45.937,-0c-1.935,-0 -3.506,-1.571 -3.506,-3.506l0,-7.013c0,-1.935 1.571,-3.506 3.506,-3.506l45.937,-0c1.935,-0 3.506,1.571 3.506,3.506Z" style="fill:none;stroke:#540000;stroke-width:1px;"/><path d="M263.588,372.441l-2.5,5l-2.5,-5c1.25,1.25 3.75,1.25 5,-0Z"/><path d="M261.088,365.158l-0,8.283" style="fill:none;stroke:#000;stroke-width:0.42px;"/><path d="M157.964,386.953l-5,-2.5l5,-2.5c-1.25,1.25 -1.25,3.75 -0,5Z"/><path d="M234.613,384.453l-77.649,0" style="fill:none;stroke:#000;stroke-width:0.42px;"/><path d="M74.211,372.529l2.5,-5l2.5,5c-1.25,-1.25 -3.75,-1.25 -5,0Z"/><path d="M76.711,377.808l-0,-6.279" style="fill:none;stroke:#000;stroke-width:0.42px;"/><path d="M12.634,45.844l2.5,-5l2.5,5c-1.25,-1.25 -3.75,-1.25 -5,0Z"/><path d="M15.134,354.452l-0,-309.608" style="fill:none;stroke:#000;stroke-width:0.42px;"/><rect x="-0.353" y="0" width="503.353" height="404.749" style="fill:#fff;fill-opacity:0.8;"/><g><g><g transform="matrix(12.5,0,0,12.5,495.19,80.4917)"></g><text x="399.365px" y="80.492px" style="font-family:'Arial-BoldMT', 'Arial', sans-serif;font-weight:700;font-size:12.5px;">Optional Plug In</text><path d="M500.083,22.45l0,31.135c0,8.592 -6.975,15.568 -15.567,15.568l-105.581,-0c-8.592,-0 -15.568,-6.976 -15.568,-15.568l0,-31.135c0,-8.592 6.976,-15.567 15.568,-15.567l105.581,-0c8.592,-0 15.567,6.975 15.567,15.567Z" style="fill:none;stroke:#000;stroke-width:0.42px;"/></g><path d="M474.531,13.78l0,7.012c0,1.936 -1.571,3.507 -3.506,3.507l-79.071,-0c-1.936,-0 -3.507,-1.571 -3.507,-3.507l0,-7.012c0,-1.935 1.571,-3.507 3.507,-3.507l79.071,0c1.935,0 3.506,1.572 3.506,3.507Z" style="fill:#b29aae;fill-opacity:0.5;"/><clipPath id="_clip34"><path d="M474.531,13.78l0,7.012c0,1.936 -1.571,3.507 -3.506,3.507l-79.071,-0c-1.936,-0 -3.507,-1.571 -3.507,-3.507l0,-7.012c0,-1.935 1.571,-3.507 3.507,-3.507l79.071,0c1.935,0 3.506,1.572 3.506,3.507Z"/></clipPath><g clip-path="url(#_clip34)"><g transform="matrix(6.66667,0,0,6.66667,463.294,19.7698)"></g><text x="399.684px" y="19.77px" style="font-family:'ArialMT', 'Arial', sans-serif;font-size:6.667px;">Guesstimated W<tspan x="448.838px 452.546px " y="19.77px 19.77px ">ea</tspan>lth</text></g><path d="M474.531,13.78l0,7.012c0,1.936 -1.571,3.507 -3.506,3.507l-79.071,-0c-1.936,-0 -3.507,-1.571 -3.507,-3.507l0,-7.012c0,-1.935 1.571,-3.507 3.507,-3.507l79.071,0c1.935,0 3.506,1.572 3.506,3.507Z" style="fill:none;stroke:#000;stroke-width:0.83px;"/><path d="M474.531,57.572l0,6.306c0,1.74 -1.412,3.153 -3.152,3.153l-79.779,-0c-1.74,-0 -3.153,-1.413 -3.153,-3.153l0,-6.306c0,-1.74 1.413,-3.153 3.153,-3.153l79.779,-0c1.74,-0 3.152,1.413 3.152,3.153Z" style="fill:#b29aae;fill-opacity:0.5;"/><clipPath id="_clip35"><path d="M474.531,57.572l0,6.306c0,1.74 -1.412,3.153 -3.152,3.153l-79.779,-0c-1.74,-0 -3.153,-1.413 -3.153,-3.153l0,-6.306c0,-1.74 1.413,-3.153 3.153,-3.153l79.779,-0c1.74,-0 3.152,1.413 3.152,3.153Z"/></clipPath><g clip-path="url(#_clip35)"><g transform="matrix(6.66667,0,0,6.66667,455.332,63.1988)"></g><text x="407.647px" y="63.199px" style="font-family:'ArialMT', 'Arial', sans-serif;font-size:6.667px;">Updated W<tspan x="440.876px 444.583px " y="63.199px 63.199px ">ea</tspan>lth</text></g><path d="M474.531,57.572l0,6.306c0,1.74 -1.412,3.153 -3.152,3.153l-79.779,-0c-1.74,-0 -3.153,-1.413 -3.153,-3.153l0,-6.306c0,-1.74 1.413,-3.153 3.153,-3.153l79.779,-0c1.74,-0 3.152,1.413 3.152,3.153Z" style="fill:none;stroke:#000;stroke-width:0.83px;"/><path d="M431.489,24.259l0,8.774" style="fill:none;stroke:#000;stroke-width:0.42px;"/><path d="M433.989,49.419l-2.5,5l-2.5,-5c1.25,1.25 3.75,1.25 5,-0Z"/><path d="M431.489,45.645l0,4.774" style="fill:none;stroke:#000;stroke-width:0.42px;"/><path d="M489.311,36.186l-0,6.306c-0,1.74 -1.413,3.153 -3.153,3.153l-109.337,0c-1.74,0 -3.153,-1.413 -3.153,-3.153l-0,-6.306c-0,-1.74 1.413,-3.153 3.153,-3.153l109.337,0c1.74,0 3.153,1.413 3.153,3.153Z" style="fill:#b29aae;fill-opacity:0.5;"/><clipPath id="_clip36"><path d="M489.311,36.186l-0,6.306c-0,1.74 -1.413,3.153 -3.153,3.153l-109.337,0c-1.74,0 -3.153,-1.413 -3.153,-3.153l-0,-6.306c-0,-1.74 1.413,-3.153 3.153,-3.153l109.337,0c1.74,0 3.153,1.413 3.153,3.153Z"/></clipPath><g clip-path="url(#_clip36)"><g transform="matrix(6.66667,0,0,6.66667,478.303,41.8132)"></g><text x="384.676px" y="41.813px" style="font-family:'ArialMT', 'Arial', sans-serif;font-size:6.667px;">W<tspan x="390.848px 394.556px " y="41.813px 41.813px ">ea</tspan>lth <tspan x="407.036px 410.861px 413.081px " y="41.813px 41.813px 41.813px ">Tra</tspan>nsmission Likelihood</text></g><path d="M489.311,36.186l-0,6.306c-0,1.74 -1.413,3.153 -3.153,3.153l-109.337,0c-1.74,0 -3.153,-1.413 -3.153,-3.153l-0,-6.306c-0,-1.74 1.413,-3.153 3.153,-3.153l109.337,0c1.74,0 3.153,1.413 3.153,3.153Z" style="fill:none;stroke:#000;stroke-width:0.83px;"/><g><path d="M479.19,215.537l-0,34.037c-0,9.393 -7.626,17.019 -17.019,17.019l-67.239,-0c-9.393,-0 -17.018,-7.626 -17.018,-17.019l-0,-34.037c-0,-9.393 7.625,-17.019 17.018,-17.019l67.239,0c9.393,0 17.019,7.626 17.019,17.019Z" style="fill:none;stroke:#000;stroke-width:0.42px;"/><path d="M430.647,243.301l-2.497,5.001l-2.503,-4.998c1.25,1.249 3.75,1.247 5,-0.003Z"/><path d="M428.145,239.528c-0,0 0.001,2.46 0.002,4.774" style="fill:none;stroke:#000;stroke-width:0.42px;"/><path d="M428.15,218.169l-0,8.748" style="fill:none;stroke:#000;stroke-width:0.42px;"/><path d="M483.667,235.722l-5,-2.5l5,-2.5c-1.25,1.25 -1.25,3.75 -0,5Z"/><path d="M497.858,284.829l0,-51.607l-15.191,0" style="fill:none;stroke:#000;stroke-width:0.42px;"/><path d="M472.561,207.624l0,7.012c0,1.936 -1.571,3.507 -3.506,3.507l-81.811,-0c-1.935,-0 -3.506,-1.571 -3.506,-3.507l-0,-7.012c-0,-1.935 1.571,-3.507 3.506,-3.507l81.811,0c1.935,0 3.506,1.572 3.506,3.507Z" style="fill:none;"/><clipPath id="_clip37"><path d="M472.561,207.624l0,7.012c0,1.936 -1.571,3.507 -3.506,3.507l-81.811,-0c-1.935,-0 -3.506,-1.571 -3.506,-3.507l-0,-7.012c-0,-1.935 1.571,-3.507 3.506,-3.507l81.811,0c1.935,0 3.506,1.572 3.506,3.507Z"/></clipPath><g clip-path="url(#_clip37)"><g transform="matrix(6.66667,0,0,6.66667,457.6,213.518)"></g><text x="398.684px" y="213.518px" style="font-family:'ArialMT', 'Arial', sans-serif;font-size:6.667px;">Initial Hedonic Price</text></g><path d="M472.561,207.624l0,7.012c0,1.936 -1.571,3.507 -3.506,3.507l-81.811,-0c-1.935,-0 -3.506,-1.571 -3.506,-3.507l-0,-7.012c-0,-1.935 1.571,-3.507 3.506,-3.507l81.811,0c1.935,0 3.506,1.572 3.506,3.507Z" style="fill:none;stroke:#540000;stroke-width:1px;"/><g transform="matrix(12.5,0,0,12.5,473.35,277.373)"></g><text x="377.525px" y="277.373px" style="font-family:'Arial-BoldMT', 'Arial', sans-serif;font-weight:700;font-size:12.5px;">Optional Plug In</text><path d="M472.546,229.968l0,6.243c0,1.723 -1.398,3.122 -3.121,3.122l-82.581,-0c-1.723,-0 -3.121,-1.399 -3.121,-3.122l-0,-6.243c-0,-1.723 1.398,-3.121 3.121,-3.121l82.581,-0c1.723,-0 3.121,1.398 3.121,3.121Z" style="fill:none;"/><clipPath id="_clip38"><path d="M472.546,229.968l0,6.243c0,1.723 -1.398,3.122 -3.121,3.122l-82.581,-0c-1.723,-0 -3.121,-1.399 -3.121,-3.122l-0,-6.243c-0,-1.723 1.398,-3.121 3.121,-3.121l82.581,-0c1.723,-0 3.121,1.398 3.121,3.121Z"/></clipPath><g clip-path="url(#_clip38)"><g transform="matrix(6.66667,0,0,6.66667,464.261,235.477)"></g><text x="391.993px" y="235.477px" style="font-family:'ArialMT', 'Arial', sans-serif;font-size:6.667px;">Price Change Likelihood</text></g><path d="M472.546,229.968l0,6.243c0,1.723 -1.398,3.122 -3.121,3.122l-82.581,-0c-1.723,-0 -3.121,-1.399 -3.121,-3.122l-0,-6.243c-0,-1.723 1.398,-3.121 3.121,-3.121l82.581,-0c1.723,-0 3.121,1.398 3.121,3.121Z" style="fill:none;stroke:#540000;stroke-width:1px;"/><path d="M472.545,251.424l-0,6.243c-0,1.722 -1.399,3.121 -3.122,3.121l-82.58,0c-1.723,0 -3.122,-1.399 -3.122,-3.121l0,-6.243c0,-1.723 1.399,-3.122 3.122,-3.122l82.58,0c1.723,0 3.122,1.399 3.122,3.122Z" style="fill:none;"/><clipPath id="_clip39"><path d="M472.545,251.424l-0,6.243c-0,1.722 -1.399,3.121 -3.122,3.121l-82.58,0c-1.723,0 -3.122,-1.399 -3.122,-3.121l0,-6.243c0,-1.723 1.399,-3.122 3.122,-3.122l82.58,0c1.723,0 3.122,1.399 3.122,3.122Z"/></clipPath><g clip-path="url(#_clip39)"><g transform="matrix(6.66667,0,0,6.66667,462.404,256.933)"></g><text x="393.846px" y="256.933px" style="font-family:'ArialMT', 'Arial', sans-serif;font-size:6.667px;">Updated Housing Price</text></g><path d="M472.545,251.424l-0,6.243c-0,1.722 -1.399,3.121 -3.122,3.121l-82.58,0c-1.723,0 -3.122,-1.399 -3.122,-3.121l0,-6.243c0,-1.723 1.399,-3.122 3.122,-3.122l82.58,0c1.723,0 3.122,1.399 3.122,3.122Z" style="fill:none;stroke:#540000;stroke-width:1px;"/></g><circle cx="246.058" cy="149.907" r="91.786" style="fill:#fff;fill-opacity:0.78;stroke:#000;stroke-width:0.83px;"/></g><path d="M358.367,42.103l5,2.5l-5,2.5c1.25,-1.25 1.25,-3.75 0,-5Z"/><path d="M26.927,40.137l0,4.466l332.44,0" style="fill:none;stroke:#000;stroke-width:0.42px;"/><g><g><g transform="matrix(12.5,0,0,12.5,495.19,160.692)"></g><text x="399.365px" y="160.692px" style="font-family:'Arial-BoldMT', 'Arial', sans-serif;font-weight:700;font-size:12.5px;">Optional Plug In</text><path d="M501.348,102.651l-0,31.135c-0,8.592 -6.976,15.567 -15.568,15.567l-105.581,0c-8.592,0 -15.568,-6.975 -15.568,-15.567l0,-31.135c0,-8.592 6.976,-15.568 15.568,-15.568l105.581,0c8.592,0 15.568,6.976 15.568,15.568Z" style="fill:none;stroke:#000;stroke-width:0.42px;"/></g><path d="M475.796,93.98l-0,7.013c-0,1.935 -1.572,3.506 -3.507,3.506l-79.071,0c-1.935,0 -3.506,-1.571 -3.506,-3.506l-0,-7.013c-0,-1.935 1.571,-3.506 3.506,-3.506l79.071,-0c1.935,-0 3.507,1.571 3.507,3.506Z" style="fill:#7b8b65;fill-opacity:0.5;"/><clipPath id="_clip40"><path d="M475.796,93.98l-0,7.013c-0,1.935 -1.572,3.506 -3.507,3.506l-79.071,0c-1.935,0 -3.506,-1.571 -3.506,-3.506l-0,-7.013c-0,-1.935 1.571,-3.506 3.506,-3.506l79.071,-0c1.935,-0 3.507,1.571 3.507,3.506Z"/></clipPath><g clip-path="url(#_clip40)"><g transform="matrix(6.66667,0,0,6.66667,467.671,99.9703)"></g><text x="397.837px" y="99.97px" style="font-family:'ArialMT', 'Arial', sans-serif;font-size:6.667px;">Parents&apos; Eduction Level</text></g><path d="M475.796,93.98l-0,7.013c-0,1.935 -1.572,3.506 -3.507,3.506l-79.071,0c-1.935,0 -3.506,-1.571 -3.506,-3.506l-0,-7.013c-0,-1.935 1.571,-3.506 3.506,-3.506l79.071,-0c1.935,-0 3.507,1.571 3.507,3.506Z" style="fill:none;stroke:#000;stroke-width:0.83px;"/><path d="M482.257,137.772l0,6.306c0,1.74 -1.412,3.153 -3.153,3.153l-92.701,-0c-1.74,-0 -3.153,-1.413 -3.153,-3.153l-0,-6.306c-0,-1.74 1.413,-3.153 3.153,-3.153l92.701,0c1.741,0 3.153,1.413 3.153,3.153Z" style="fill:#7b8b65;fill-opacity:0.5;"/><clipPath id="_clip41"><path d="M482.257,137.772l0,6.306c0,1.74 -1.412,3.153 -3.153,3.153l-92.701,-0c-1.74,-0 -3.153,-1.413 -3.153,-3.153l-0,-6.306c-0,-1.74 1.413,-3.153 3.153,-3.153l92.701,0c1.741,0 3.153,1.413 3.153,3.153Z"/></clipPath><g clip-path="url(#_clip41)"><g transform="matrix(6.66667,0,0,6.66667,471.313,143.399)"></g><text x="394.194px" y="143.399px" style="font-family:'ArialMT', 'Arial', sans-serif;font-size:6.667px;">Of<tspan x="401.111px 402.964px " y="143.399px 143.399px ">fs</tspan>pring&apos;s Eduction Level</text></g><path d="M482.257,137.772l0,6.306c0,1.74 -1.412,3.153 -3.153,3.153l-92.701,-0c-1.74,-0 -3.153,-1.413 -3.153,-3.153l-0,-6.306c-0,-1.74 1.413,-3.153 3.153,-3.153l92.701,0c1.741,0 3.153,1.413 3.153,3.153Z" style="fill:none;stroke:#000;stroke-width:0.83px;"/><path d="M432.754,104.46l-0,8.774" style="fill:none;stroke:#000;stroke-width:0.42px;"/><path d="M435.254,129.619l-2.5,5l-2.5,-5c1.25,1.25 3.75,1.25 5,0Z"/><path d="M432.754,125.845l-0,4.774" style="fill:none;stroke:#000;stroke-width:0.42px;"/><path d="M497.894,116.387l0,6.306c0,1.74 -1.412,3.152 -3.153,3.152l-123.975,0c-1.741,0 -3.153,-1.412 -3.153,-3.152l-0,-6.306c-0,-1.74 1.412,-3.153 3.153,-3.153l123.975,-0c1.741,-0 3.153,1.413 3.153,3.153Z" style="fill:#7b8b65;fill-opacity:0.5;"/><clipPath id="_clip42"><path d="M497.894,116.387l0,6.306c0,1.74 -1.412,3.152 -3.153,3.152l-123.975,0c-1.741,0 -3.153,-1.412 -3.153,-3.152l-0,-6.306c-0,-1.74 1.412,-3.153 3.153,-3.153l123.975,-0c1.741,-0 3.153,1.413 3.153,3.153Z"/></clipPath><g clip-path="url(#_clip42)"><g transform="matrix(6.66667,0,0,6.66667,487.607,122.014)"></g><text x="377.9px" y="122.014px" style="font-family:'ArialMT', 'Arial', sans-serif;font-size:6.667px;">Intergenerational Eduction Likelihood</text></g><path d="M497.894,116.387l0,6.306c0,1.74 -1.412,3.152 -3.153,3.152l-123.975,0c-1.741,0 -3.153,-1.412 -3.153,-3.152l-0,-6.306c-0,-1.74 1.412,-3.153 3.153,-3.153l123.975,-0c1.741,-0 3.153,1.413 3.153,3.153Z" style="fill:none;stroke:#000;stroke-width:0.83px;"/></g><path d="M320.536,238.527l-5,-2.5l5,-2.5c-1.25,1.25 -1.25,3.75 0,5Z"/><path d="M364.631,118.218l-27.101,0l0,117.809l-17.994,0" style="fill:none;stroke:#000;stroke-width:0.42px;"/><g><g><path d="M326.651,142.279l0,6.306c0,1.74 -1.412,3.153 -3.153,3.153l-112.523,-0c-1.741,-0 -3.153,-1.413 -3.153,-3.153l-0,-6.306c-0,-1.74 1.412,-3.153 3.153,-3.153l112.523,-0c1.741,-0 3.153,1.413 3.153,3.153Z" style="fill:#3d2e19;fill-opacity:0.5;"/><clipPath id="_clip43"><path d="M326.651,142.279l0,6.306c0,1.74 -1.412,3.153 -3.153,3.153l-112.523,-0c-1.741,-0 -3.153,-1.413 -3.153,-3.153l-0,-6.306c-0,-1.74 1.412,-3.153 3.153,-3.153l112.523,-0c1.741,-0 3.153,1.413 3.153,3.153Z"/></clipPath><g clip-path="url(#_clip43)"><g transform="matrix(6.66667,0,0,6.66667,315.231,147.819)"></g><text x="219.242px" y="147.819px" style="font-family:'ArialMT', 'Arial', sans-serif;font-size:6.667px;">Region Consideration Likelihood</text></g><path d="M326.651,142.279l0,6.306c0,1.74 -1.412,3.153 -3.153,3.153l-112.523,-0c-1.741,-0 -3.153,-1.413 -3.153,-3.153l-0,-6.306c-0,-1.74 1.412,-3.153 3.153,-3.153l112.523,-0c1.741,-0 3.153,1.413 3.153,3.153Z" style="fill:none;stroke:#000;stroke-width:0.83px;"/><path d="M300.404,163.529l0,6.306c0,1.74 -1.413,3.153 -3.153,3.153l-60.029,0c-1.74,0 -3.153,-1.413 -3.153,-3.153l-0,-6.306c-0,-1.74 1.413,-3.152 3.153,-3.152l60.029,-0c1.74,-0 3.153,1.412 3.153,3.152Z" style="fill:#3d2e19;fill-opacity:0.5;"/><clipPath id="_clip44"><path d="M300.404,163.529l0,6.306c0,1.74 -1.413,3.153 -3.153,3.153l-60.029,0c-1.74,0 -3.153,-1.413 -3.153,-3.153l-0,-6.306c-0,-1.74 1.413,-3.152 3.153,-3.152l60.029,-0c1.74,-0 3.153,1.412 3.153,3.152Z"/></clipPath><g clip-path="url(#_clip44)"><g transform="matrix(6.66667,0,0,6.66667,292.438,169.07)"></g><text x="242.035px" y="169.07px" style="font-family:'ArialMT', 'Arial', sans-serif;font-size:6.667px;">Region Selection</text></g><path d="M300.404,163.529l0,6.306c0,1.74 -1.413,3.153 -3.153,3.153l-60.029,0c-1.74,0 -3.153,-1.413 -3.153,-3.153l-0,-6.306c-0,-1.74 1.413,-3.152 3.153,-3.152l60.029,-0c1.74,-0 3.153,1.412 3.153,3.152Z" style="fill:none;stroke:#000;stroke-width:0.83px;"/><path d="M269.736,155.377l-2.5,5l-2.5,-5c1.25,1.25 3.75,1.25 5,-0Z"/><path d="M267.236,151.603l0,4.774" style="fill:none;stroke:#000;stroke-width:0.42px;"/></g><g transform="matrix(6.66667,0,0,6.66667,325.849,186.089)"></g><text x="260.647px" y="186.089px" style="font-family:'Arial-BoldMT', 'Arial', sans-serif;font-weight:700;font-size:6.667px;">Plug in after upscale</text><path d="M330.16,144.859l0,21.319c0,5.883 -4.776,10.66 -10.659,10.66l-105.491,-0c-5.883,-0 -10.659,-4.777 -10.659,-10.66l-0,-21.319c-0,-5.883 4.776,-10.66 10.659,-10.66l105.491,0c5.883,0 10.659,4.777 10.659,10.66Z" style="fill:none;stroke:#000;stroke-width:0.42px;"/><path d="M162.123,158.018l-5,-2.5l5,-2.5c-1.25,1.25 -1.25,3.75 -0,5Z"/><path d="M203.351,155.518l-42.228,0" style="fill:none;stroke:#000;stroke-width:0.42px;"/></g><g><path d="M242.773,278.646l0,35.558c0,9.813 -7.967,17.78 -17.779,17.78l-175.947,-0c-9.813,-0 -17.779,-7.967 -17.779,-17.78l-0,-35.558c-0,-9.813 7.966,-17.779 17.779,-17.779l175.947,-0c9.812,-0 17.779,7.966 17.779,17.779Z" style="fill:#fff;stroke:#000;stroke-width:0.83px;"/><g><path d="M236.921,274.343l-0,10.517c-0,2.903 -2.357,5.259 -5.259,5.259l-187.679,0c-2.902,0 -5.258,-2.356 -5.258,-5.259l-0,-10.517c-0,-2.903 2.356,-5.259 5.258,-5.259l187.679,0c2.902,0 5.259,2.356 5.259,5.259Z" style="fill:#3d2e19;fill-opacity:0.5;"/><clipPath id="_clip45"><path d="M236.921,274.343l-0,10.517c-0,2.903 -2.357,5.259 -5.259,5.259l-187.679,0c-2.902,0 -5.258,-2.356 -5.258,-5.259l-0,-10.517c-0,-2.903 2.356,-5.259 5.258,-5.259l187.679,0c2.902,0 5.259,2.356 5.259,5.259Z"/></clipPath><g clip-path="url(#_clip45)"><g transform="matrix(12.5,0,0,12.5,227.813,284.079)"></g><text x="47.832px" y="284.079px" style="font-family:'ArialMT', 'Arial', sans-serif;font-size:12.5px;">Region Consideration Likelihood</text></g><path d="M236.921,274.343l-0,10.517c-0,2.903 -2.357,5.259 -5.259,5.259l-187.679,0c-2.902,0 -5.258,-2.356 -5.258,-5.259l-0,-10.517c-0,-2.903 2.356,-5.259 5.258,-5.259l187.679,0c2.902,0 5.259,2.356 5.259,5.259Z" style="fill:none;stroke:#000;stroke-width:0.83px;"/><path d="M193.143,309.787l-0,10.517c-0,2.903 -2.357,5.259 -5.259,5.259l-100.123,0c-2.902,0 -5.258,-2.356 -5.258,-5.259l-0,-10.517c-0,-2.903 2.356,-5.259 5.258,-5.259l100.123,0c2.902,0 5.259,2.356 5.259,5.259Z" style="fill:#3d2e19;fill-opacity:0.5;"/><clipPath id="_clip46"><path d="M193.143,309.787l-0,10.517c-0,2.903 -2.357,5.259 -5.259,5.259l-100.123,0c-2.902,0 -5.258,-2.356 -5.258,-5.259l-0,-10.517c-0,-2.903 2.356,-5.259 5.258,-5.259l100.123,0c2.902,0 5.259,2.356 5.259,5.259Z"/></clipPath><g clip-path="url(#_clip46)"><g transform="matrix(12.5,0,0,12.5,185.076,319.522)"></g><text x="90.569px" y="319.522px" style="font-family:'ArialMT', 'Arial', sans-serif;font-size:12.5px;">Region Selection</text></g><path d="M193.143,309.787l-0,10.517c-0,2.903 -2.357,5.259 -5.259,5.259l-100.123,0c-2.902,0 -5.258,-2.356 -5.258,-5.259l-0,-10.517c-0,-2.903 2.356,-5.259 5.258,-5.259l100.123,0c2.902,0 5.259,2.356 5.259,5.259Z" style="fill:none;stroke:#000;stroke-width:0.83px;"/><path d="M140.323,299.528l-2.5,5l-2.5,-5c1.25,1.25 3.75,1.25 5,0Z"/><path d="M137.823,289.894l-0,10.634" style="fill:none;stroke:#000;stroke-width:0.42px;"/></g><g transform="matrix(12.5,0,0,12.5,235.583,347.908)"></g><text x="111.938px" y="347.908px" style="font-family:'Arial-BoldMT', 'Arial', sans-serif;font-weight:700;font-size:12.5px;">Plug In after Upscale</text></g></g></svg>