<?xml version="1.0" encoding="UTF-8" standalone="no"?><!DOCTYPE svg PUBLIC "-//W3C//DTD SVG 1.1//EN" "http://www.w3.org/Graphics/SVG/1.1/DTD/svg11.dtd"><svg width="100%" height="100%" viewBox="0 0 503 433" version="1.1" xmlns="http://www.w3.org/2000/svg" xmlns:xlink="http://www.w3.org/1999/xlink" xml:space="preserve" xmlns:serif="http://www.serif.com/" style="fill-rule:evenodd;clip-rule:evenodd;stroke-linecap:round;stroke-linejoin:round;stroke-miterlimit:1.5;"><rect id="Artboard1" x="0" y="0" width="503" height="432.909" style="fill:none;"/><g id="Layer2"></g><g id="Low--" serif:id="Low!!"></g><g id="Low"></g><g id="Medium"></g><g id="High"></g><g id="High--" serif:id="High!!"></g><g id="OtherElements"></g><path d="M190.986,242.382l-5,-2.5l5,-2.5c-1.25,1.25 -1.25,3.75 -0,5Z"/><path d="M244.587,282.623l-34.234,-0l-0.192,-42.741l-20.175,0" style="fill:none;stroke:#000;stroke-width:0.42px;"/><path d="M197.686,214.758l-0,6.306c-0,1.74 -1.413,3.153 -3.153,3.153l-127.614,0c-1.74,0 -3.153,-1.413 -3.153,-3.153l-0,-6.306c-0,-1.74 1.413,-3.153 3.153,-3.153l127.614,0c1.74,0 3.153,1.413 3.153,3.153Z" style="fill:#3d2e19;fill-opacity:0.5;"/><clipPath id="_clip1"><path d="M197.686,214.758l-0,6.306c-0,1.74 -1.413,3.153 -3.153,3.153l-127.614,0c-1.74,0 -3.153,-1.413 -3.153,-3.153l-0,-6.306c-0,-1.74 1.413,-3.153 3.153,-3.153l127.614,0c1.74,0 3.153,1.413 3.153,3.153Z"/></clipPath><g clip-path="url(#_clip1)"><g transform="matrix(6.66667,0,0,6.66667,185.513,220.299)"></g><text x="75.939px" y="220.299px" style="font-family:'ArialMT', 'Arial', sans-serif;font-size:6.667px;">Af<tspan x="82.117px 83.97px " y="220.299px 220.299px ">fo</tspan>rdability Consideration Likelihood</text></g><path d="M197.686,214.758l-0,6.306c-0,1.74 -1.413,3.153 -3.153,3.153l-127.614,0c-1.74,0 -3.153,-1.413 -3.153,-3.153l-0,-6.306c-0,-1.74 1.413,-3.153 3.153,-3.153l127.614,0c1.74,0 3.153,1.413 3.153,3.153Z" style="fill:none;stroke:#000;stroke-width:0.83px;"/><path d="M328.981,256.479l-0,6.306c-0,1.74 -1.413,3.153 -3.153,3.153l-91.765,-0c-1.74,-0 -3.153,-1.413 -3.153,-3.153l-0,-6.306c-0,-1.74 1.413,-3.153 3.153,-3.153l91.765,0c1.74,0 3.153,1.413 3.153,3.153Z" style="fill:#b29aae;fill-opacity:0.7;"/><clipPath id="_clip2"><path d="M328.981,256.479l-0,6.306c-0,1.74 -1.413,3.153 -3.153,3.153l-91.765,-0c-1.74,-0 -3.153,-1.413 -3.153,-3.153l-0,-6.306c-0,-1.74 1.413,-3.153 3.153,-3.153l91.765,0c1.74,0 3.153,1.413 3.153,3.153Z"/></clipPath><g clip-path="url(#_clip2)"><g transform="matrix(6.66667,0,0,6.66667,319.416,262.02)"></g><text x="240.474px" y="262.02px" style="font-family:'ArialMT', 'Arial', sans-serif;font-size:6.667px;">Income Change Likelihood</text></g><path d="M328.981,256.479l-0,6.306c-0,1.74 -1.413,3.153 -3.153,3.153l-91.765,-0c-1.74,-0 -3.153,-1.413 -3.153,-3.153l-0,-6.306c-0,-1.74 1.413,-3.153 3.153,-3.153l91.765,0c1.74,0 3.153,1.413 3.153,3.153Z" style="fill:none;stroke:#000;stroke-width:0.83px;"/><path d="M152.587,357.282l-0,5.66c-0,1.562 -1.269,2.83 -2.831,2.83l-136.034,0c-1.562,0 -2.83,-1.268 -2.83,-2.83l-0,-5.66c-0,-1.562 1.268,-2.83 2.83,-2.83l136.034,-0c1.562,-0 2.831,1.268 2.831,2.83Z" style="fill:#7b8b65;fill-opacity:0.5;"/><clipPath id="_clip3"><path d="M152.587,357.282l-0,5.66c-0,1.562 -1.269,2.83 -2.831,2.83l-136.034,0c-1.562,0 -2.83,-1.268 -2.83,-2.83l-0,-5.66c-0,-1.562 1.268,-2.83 2.83,-2.83l136.034,-0c1.562,-0 2.831,1.268 2.831,2.83Z"/></clipPath><g clip-path="url(#_clip3)"><g transform="matrix(6.66667,0,0,6.66667,111.389,362.5)"></g><text x="52.089px" y="362.5px" style="font-family:'ArialMT', 'Arial', sans-serif;font-size:6.667px;">Life Event Schedule</text></g><path d="M152.587,357.282l-0,5.66c-0,1.562 -1.269,2.83 -2.831,2.83l-136.034,0c-1.562,0 -2.83,-1.268 -2.83,-2.83l-0,-5.66c-0,-1.562 1.268,-2.83 2.83,-2.83l136.034,-0c1.562,-0 2.831,1.268 2.831,2.83Z" style="fill:none;stroke:#000;stroke-width:0.83px;"/><path d="M152.587,382.724l-0,5.661c-0,1.562 -1.269,2.83 -2.831,2.83l-136.034,-0c-1.562,-0 -2.83,-1.268 -2.83,-2.83l-0,-5.661c-0,-1.562 1.268,-2.83 2.83,-2.83l136.034,-0c1.562,-0 2.831,1.268 2.831,2.83Z" style="fill:#7b8b65;fill-opacity:0.5;"/><clipPath id="_clip4"><path d="M152.587,382.724l-0,5.661c-0,1.562 -1.269,2.83 -2.831,2.83l-136.034,-0c-1.562,-0 -2.83,-1.268 -2.83,-2.83l-0,-5.661c-0,-1.562 1.268,-2.83 2.83,-2.83l136.034,-0c1.562,-0 2.831,1.268 2.831,2.83Z"/></clipPath><g clip-path="url(#_clip4)"><g transform="matrix(6.66667,0,0,6.66667,130.655,387.942)"></g><text x="32.823px" y="387.942px" style="font-family:'ArialMT', 'Arial', sans-serif;font-size:6.667px;">Life Event Occurrence Likelihood</text></g><path d="M152.587,382.724l-0,5.661c-0,1.562 -1.269,2.83 -2.831,2.83l-136.034,-0c-1.562,-0 -2.83,-1.268 -2.83,-2.83l-0,-5.661c-0,-1.562 1.268,-2.83 2.83,-2.83l136.034,-0c1.562,-0 2.831,1.268 2.831,2.83Z" style="fill:none;stroke:#000;stroke-width:0.83px;"/><path d="M314.916,278.27l-0,7.013c-0,1.935 -1.571,3.506 -3.507,3.506l-62.928,0c-1.935,0 -3.506,-1.571 -3.506,-3.506l-0,-7.013c-0,-1.935 1.571,-3.506 3.506,-3.506l62.928,0c1.936,0 3.507,1.571 3.507,3.506Z" style="fill:#b29aae;fill-opacity:0.7;"/><clipPath id="_clip5"><path d="M314.916,278.27l-0,7.013c-0,1.935 -1.571,3.506 -3.507,3.506l-62.928,0c-1.935,0 -3.506,-1.571 -3.506,-3.506l-0,-7.013c-0,-1.935 1.571,-3.506 3.506,-3.506l62.928,0c1.936,0 3.507,1.571 3.507,3.506Z"/></clipPath><g clip-path="url(#_clip5)"><g transform="matrix(6.66667,0,0,6.66667,304.399,284.164)"></g><text x="255.48px" y="284.164px" style="font-family:'ArialMT', 'Arial', sans-serif;font-size:6.667px;fill:#312f2f;">Updated Income</text></g><path d="M314.916,278.27l-0,7.013c-0,1.935 -1.571,3.506 -3.507,3.506l-62.928,0c-1.935,0 -3.506,-1.571 -3.506,-3.506l-0,-7.013c-0,-1.935 1.571,-3.506 3.506,-3.506l62.928,0c1.936,0 3.507,1.571 3.507,3.506Z" style="fill:none;stroke:#000;stroke-width:0.83px;"/><path d="M314.916,233.191l-0,7.012c-0,1.935 -1.571,3.507 -3.507,3.507l-62.928,-0c-1.935,-0 -3.506,-1.572 -3.506,-3.507l-0,-7.012c-0,-1.936 1.571,-3.507 3.506,-3.507l62.928,0c1.936,0 3.507,1.571 3.507,3.507Z" style="fill:none;"/><clipPath id="_clip6"><path d="M314.916,233.191l-0,7.012c-0,1.935 -1.571,3.507 -3.507,3.507l-62.928,-0c-1.935,-0 -3.506,-1.572 -3.506,-3.507l-0,-7.012c-0,-1.936 1.571,-3.507 3.506,-3.507l62.928,0c1.936,0 3.507,1.571 3.507,3.507Z"/></clipPath><g clip-path="url(#_clip6)"><g transform="matrix(6.66667,0,0,6.66667,305.509,239.085)"></g><text x="254.37px" y="239.085px" style="font-family:'ArialMT', 'Arial', sans-serif;font-size:6.667px;">Assigned Income</text></g><path d="M314.916,233.191l-0,7.012c-0,1.935 -1.571,3.507 -3.507,3.507l-62.928,-0c-1.935,-0 -3.506,-1.572 -3.506,-3.507l-0,-7.012c-0,-1.936 1.571,-3.507 3.506,-3.507l62.928,0c1.936,0 3.507,1.571 3.507,3.507Z" style="fill:none;stroke:#540000;stroke-width:1px;"/><path d="M165.052,192.545l0,6.306c0,1.74 -1.413,3.153 -3.153,3.153l-62.347,-0c-1.74,-0 -3.152,-1.413 -3.152,-3.153l-0,-6.306c-0,-1.74 1.412,-3.153 3.152,-3.153l62.347,-0c1.74,-0 3.153,1.413 3.153,3.153Z" style="fill:#3d2e19;fill-opacity:0.5;"/><clipPath id="_clip7"><path d="M165.052,192.545l0,6.306c0,1.74 -1.413,3.153 -3.153,3.153l-62.347,-0c-1.74,-0 -3.152,-1.413 -3.152,-3.153l-0,-6.306c-0,-1.74 1.412,-3.153 3.152,-3.153l62.347,-0c1.74,-0 3.153,1.413 3.153,3.153Z"/></clipPath><g clip-path="url(#_clip7)"><g transform="matrix(6.66667,0,0,6.66667,157.593,198.085)"></g><text x="103.859px" y="198.085px" style="font-family:'ArialMT', 'Arial', sans-serif;font-size:6.667px;">House Choice Set</text></g><path d="M165.052,192.545l0,6.306c0,1.74 -1.413,3.153 -3.153,3.153l-62.347,-0c-1.74,-0 -3.152,-1.413 -3.152,-3.153l-0,-6.306c-0,-1.74 1.412,-3.153 3.152,-3.153l62.347,-0c1.74,-0 3.153,1.413 3.153,3.153Z" style="fill:none;stroke:#000;stroke-width:0.83px;"/><path d="M185.986,236.729l-0,6.306c-0,1.74 -1.413,3.153 -3.153,3.153l-104.214,0c-1.741,0 -3.153,-1.413 -3.153,-3.153l-0,-6.306c-0,-1.74 1.412,-3.152 3.153,-3.152l104.214,-0c1.74,-0 3.153,1.412 3.153,3.152Z" style="fill:#3d2e19;fill-opacity:0.5;"/><clipPath id="_clip8"><path d="M185.986,236.729l-0,6.306c-0,1.74 -1.413,3.153 -3.153,3.153l-104.214,0c-1.741,0 -3.153,-1.413 -3.153,-3.153l-0,-6.306c-0,-1.74 1.412,-3.152 3.153,-3.152l104.214,-0c1.74,-0 3.153,1.412 3.153,3.152Z"/></clipPath><g clip-path="url(#_clip8)"><g transform="matrix(6.66667,0,0,6.66667,176.247,242.27)"></g><text x="85.205px" y="242.27px" style="font-family:'ArialMT', 'Arial', sans-serif;font-size:6.667px;">Sort by Household <tspan x="141.536px 145.983px 147.715px 149.567px " y="242.27px 242.27px 242.27px 242.27px ">Affo</tspan>rdability</text></g><path d="M185.986,236.729l-0,6.306c-0,1.74 -1.413,3.153 -3.153,3.153l-104.214,0c-1.741,0 -3.153,-1.413 -3.153,-3.153l-0,-6.306c-0,-1.74 1.412,-3.152 3.153,-3.152l104.214,-0c1.74,-0 3.153,1.412 3.153,3.152Z" style="fill:none;stroke:#000;stroke-width:0.83px;"/><path d="M185.986,258.822l-0,6.306c-0,1.74 -1.413,3.153 -3.153,3.153l-104.214,-0c-1.741,-0 -3.153,-1.413 -3.153,-3.153l-0,-6.306c-0,-1.74 1.412,-3.153 3.153,-3.153l104.214,-0c1.74,-0 3.153,1.413 3.153,3.153Z" style="fill:#3d2e19;fill-opacity:0.5;"/><clipPath id="_clip9"><path d="M185.986,258.822l-0,6.306c-0,1.74 -1.413,3.153 -3.153,3.153l-104.214,-0c-1.741,-0 -3.153,-1.413 -3.153,-3.153l-0,-6.306c-0,-1.74 1.412,-3.153 3.153,-3.153l104.214,-0c1.74,-0 3.153,1.413 3.153,3.153Z"/></clipPath><g clip-path="url(#_clip9)"><g transform="matrix(6.66667,0,0,6.66667,162.409,264.362)"></g><text x="99.043px" y="264.362px" style="font-family:'ArialMT', 'Arial', sans-serif;font-size:6.667px;">Final Housing Choice</text></g><path d="M185.986,258.822l-0,6.306c-0,1.74 -1.413,3.153 -3.153,3.153l-104.214,-0c-1.741,-0 -3.153,-1.413 -3.153,-3.153l-0,-6.306c-0,-1.74 1.412,-3.153 3.153,-3.153l104.214,-0c1.74,-0 3.153,1.413 3.153,3.153Z" style="fill:none;stroke:#000;stroke-width:0.83px;"/><path d="M367.913,332.264l-0,7.013c-0,1.935 -1.571,3.506 -3.506,3.506l-141.367,0c-1.935,0 -3.506,-1.571 -3.506,-3.506l-0,-7.013c-0,-1.935 1.571,-3.506 3.506,-3.506l141.367,-0c1.935,-0 3.506,1.571 3.506,3.506Z" style="fill:none;"/><clipPath id="_clip10"><path d="M367.913,332.264l-0,7.013c-0,1.935 -1.571,3.506 -3.506,3.506l-141.367,0c-1.935,0 -3.506,-1.571 -3.506,-3.506l-0,-7.013c-0,-1.935 1.571,-3.506 3.506,-3.506l141.367,-0c1.935,-0 3.506,1.571 3.506,3.506Z"/></clipPath><g clip-path="url(#_clip10)"><g transform="matrix(6.66667,0,0,6.66667,343.004,338.158)"></g><text x="244.417px" y="338.158px" style="font-family:'ArialMT', 'Arial', sans-serif;font-size:6.667px;">Update Neighbourhood <tspan x="314.843px 319.29px " y="338.158px 338.158px ">At</tspan>tributes</text></g><path d="M367.913,332.264l-0,7.013c-0,1.935 -1.571,3.506 -3.506,3.506l-141.367,0c-1.935,0 -3.506,-1.571 -3.506,-3.506l-0,-7.013c-0,-1.935 1.571,-3.506 3.506,-3.506l141.367,-0c1.935,-0 3.506,1.571 3.506,3.506Z" style="fill:none;stroke:#540000;stroke-width:1px;"/><path d="M367.913,302.926l-0,7.013c-0,1.935 -1.571,3.506 -3.506,3.506l-141.367,0c-1.935,0 -3.506,-1.571 -3.506,-3.506l-0,-7.013c-0,-1.935 1.571,-3.506 3.506,-3.506l141.367,-0c1.935,-0 3.506,1.571 3.506,3.506Z" style="fill:none;"/><clipPath id="_clip11"><path d="M367.913,302.926l-0,7.013c-0,1.935 -1.571,3.506 -3.506,3.506l-141.367,0c-1.935,0 -3.506,-1.571 -3.506,-3.506l-0,-7.013c-0,-1.935 1.571,-3.506 3.506,-3.506l141.367,-0c1.935,-0 3.506,1.571 3.506,3.506Z"/></clipPath><g clip-path="url(#_clip11)"><g transform="matrix(6.66667,0,0,6.66667,328.299,308.82)"></g><text x="259.122px" y="308.82px" style="font-family:'ArialMT', 'Arial', sans-serif;font-size:6.667px;">Update V<tspan x="286.424px 290.132px " y="308.82px 308.82px ">ac</tspan>ancy States</text></g><path d="M367.913,302.926l-0,7.013c-0,1.935 -1.571,3.506 -3.506,3.506l-141.367,0c-1.935,0 -3.506,-1.571 -3.506,-3.506l-0,-7.013c-0,-1.935 1.571,-3.506 3.506,-3.506l141.367,-0c1.935,-0 3.506,1.571 3.506,3.506Z" style="fill:none;stroke:#540000;stroke-width:1px;"/><path d="M130.652,202.71l-0,8.774" style="fill:none;stroke:#000;stroke-width:0.42px;"/><path d="M133.152,227.87l-2.5,5l-2.5,-5c1.25,1.25 3.75,1.25 5,-0Z"/><path d="M130.652,224.096l-0,4.774" style="fill:none;stroke:#000;stroke-width:0.42px;"/><path d="M133.226,250.669l-2.5,5l-2.5,-5c1.25,1.25 3.75,1.25 5,-0Z"/><path d="M130.726,246.895l-0,4.774" style="fill:none;stroke:#000;stroke-width:0.42px;"/><path d="M263.589,345.876l-2.5,5l-2.5,-5c1.25,1.25 3.75,1.25 5,0Z"/><path d="M261.089,342.783l0,4.093" style="fill:none;stroke:#000;stroke-width:0.42px;"/><path d="M302.023,354.639l-0,7.012c-0,1.935 -1.571,3.507 -3.506,3.507l-74.855,-0c-1.935,-0 -3.506,-1.572 -3.506,-3.507l-0,-7.012c-0,-1.936 1.571,-3.507 3.506,-3.507l74.855,0c1.935,0 3.506,1.571 3.506,3.507Z" style="fill:none;"/><clipPath id="_clip12"><path d="M302.023,354.639l-0,7.012c-0,1.935 -1.571,3.507 -3.506,3.507l-74.855,-0c-1.935,-0 -3.506,-1.572 -3.506,-3.507l-0,-7.012c-0,-1.936 1.571,-3.507 3.506,-3.507l74.855,0c1.935,0 3.506,1.571 3.506,3.507Z"/></clipPath><g clip-path="url(#_clip12)"><g transform="matrix(6.66667,0,0,6.66667,285.817,360.533)"></g><text x="236.348px" y="360.533px" style="font-family:'ArialMT', 'Arial', sans-serif;font-size:6.667px;">Scheduler (t + 1)</text></g><path d="M302.023,354.639l-0,7.012c-0,1.935 -1.571,3.507 -3.506,3.507l-74.855,-0c-1.935,-0 -3.506,-1.572 -3.506,-3.507l-0,-7.012c-0,-1.936 1.571,-3.507 3.506,-3.507l74.855,0c1.935,0 3.506,1.571 3.506,3.507Z" style="fill:none;stroke:#000;stroke-width:0.42px;"/><g><path d="M159.193,416.197l0,7.99c0,2.205 -1.79,3.995 -3.995,3.995l-66.619,0c-2.205,0 -3.995,-1.79 -3.995,-3.995l-0,-7.99c-0,-2.205 1.79,-3.995 3.995,-3.995l66.619,-0c2.205,-0 3.995,1.79 3.995,3.995Z" style="fill:#7b8b65;fill-opacity:0.5;"/><clipPath id="_clip13"><path d="M159.193,416.197l0,7.99c0,2.205 -1.79,3.995 -3.995,3.995l-66.619,0c-2.205,0 -3.995,-1.79 -3.995,-3.995l-0,-7.99c-0,-2.205 1.79,-3.995 3.995,-3.995l66.619,-0c2.205,-0 3.995,1.79 3.995,3.995Z"/></clipPath><g clip-path="url(#_clip13)"><g transform="matrix(6.66667,0,0,6.66667,140.225,422.578)"></g><text x="103.552px" y="422.578px" style="font-family:'Arial-BoldMT', 'Arial', sans-serif;font-weight:700;font-size:6.667px;">Life Course</text></g><path d="M159.193,416.197l0,7.99c0,2.205 -1.79,3.995 -3.995,3.995l-66.619,0c-2.205,0 -3.995,-1.79 -3.995,-3.995l-0,-7.99c-0,-2.205 1.79,-3.995 3.995,-3.995l66.619,-0c2.205,-0 3.995,1.79 3.995,3.995Z" style="fill:none;stroke:#000;stroke-width:0.83px;"/><g transform="matrix(6.66667,0,0,6.66667,76.5191,423.351)"></g><text x="54.273px" y="423.351px" style="font-family:'ArialMT', 'Arial', sans-serif;font-size:6.667px;">Legend</text><path d="M321.417,416.197l-0,7.99c-0,2.205 -1.79,3.995 -3.995,3.995l-66.619,0c-2.205,0 -3.996,-1.79 -3.996,-3.995l0,-7.99c0,-2.205 1.791,-3.995 3.996,-3.995l66.619,-0c2.205,-0 3.995,1.79 3.995,3.995Z" style="fill:#0f2d5e;fill-opacity:0.5;"/><clipPath id="_clip14"><path d="M321.417,416.197l-0,7.99c-0,2.205 -1.79,3.995 -3.995,3.995l-66.619,0c-2.205,0 -3.996,-1.79 -3.996,-3.995l0,-7.99c0,-2.205 1.791,-3.995 3.996,-3.995l66.619,-0c2.205,-0 3.995,1.79 3.995,3.995Z"/></clipPath><g clip-path="url(#_clip14)"><g transform="matrix(6.66667,0,0,6.66667,312.828,422.689)"></g><text x="255.396px" y="422.689px" style="font-family:'ArialMT', 'Arial', sans-serif;font-size:6.667px;">Residential Mobility</text></g><path d="M321.417,416.197l-0,7.99c-0,2.205 -1.79,3.995 -3.995,3.995l-66.619,0c-2.205,0 -3.996,-1.79 -3.996,-3.995l0,-7.99c0,-2.205 1.791,-3.995 3.996,-3.995l66.619,-0c2.205,-0 3.995,1.79 3.995,3.995Z" style="fill:none;stroke:#000;stroke-width:0.83px;"/><path d="M402.435,416.197l0,7.99c0,2.205 -1.79,3.995 -3.995,3.995l-66.619,0c-2.205,0 -3.995,-1.79 -3.995,-3.995l-0,-7.99c-0,-2.205 1.79,-3.995 3.995,-3.995l66.619,-0c2.205,-0 3.995,1.79 3.995,3.995Z" style="fill:#3d2e19;fill-opacity:0.5;"/><clipPath id="_clip15"><path d="M402.435,416.197l0,7.99c0,2.205 -1.79,3.995 -3.995,3.995l-66.619,0c-2.205,0 -3.995,-1.79 -3.995,-3.995l-0,-7.99c-0,-2.205 1.79,-3.995 3.995,-3.995l66.619,-0c2.205,-0 3.995,1.79 3.995,3.995Z"/></clipPath><g clip-path="url(#_clip15)"><g transform="matrix(6.66667,0,0,6.66667,395.331,422.58)"></g><text x="334.93px" y="422.58px" style="font-family:'ArialMT', 'Arial', sans-serif;font-size:6.667px;">Residential Decision</text></g><path d="M402.435,416.197l0,7.99c0,2.205 -1.79,3.995 -3.995,3.995l-66.619,0c-2.205,0 -3.995,-1.79 -3.995,-3.995l-0,-7.99c-0,-2.205 1.79,-3.995 3.995,-3.995l66.619,-0c2.205,-0 3.995,1.79 3.995,3.995Z" style="fill:none;stroke:#000;stroke-width:0.83px;"/><path d="M240.096,416.197l-0,7.99c-0,2.205 -1.79,3.995 -3.995,3.995l-66.62,0c-2.204,0 -3.995,-1.79 -3.995,-3.995l0,-7.99c0,-2.205 1.791,-3.995 3.995,-3.995l66.62,-0c2.205,-0 3.995,1.79 3.995,3.995Z" style="fill:#b29aae;fill-opacity:0.5;"/><clipPath id="_clip16"><path d="M240.096,416.197l-0,7.99c-0,2.205 -1.79,3.995 -3.995,3.995l-66.62,0c-2.204,0 -3.995,-1.79 -3.995,-3.995l0,-7.99c0,-2.205 1.791,-3.995 3.995,-3.995l66.62,-0c2.205,-0 3.995,1.79 3.995,3.995Z"/></clipPath><g clip-path="url(#_clip16)"><g transform="matrix(6.66667,0,0,6.66667,229.651,422.689)"></g><text x="175.931px" y="422.689px" style="font-family:'ArialMT', 'Arial', sans-serif;font-size:6.667px;">Economic Mobility</text></g><path d="M240.096,416.197l-0,7.99c-0,2.205 -1.79,3.995 -3.995,3.995l-66.62,0c-2.204,0 -3.995,-1.79 -3.995,-3.995l0,-7.99c0,-2.205 1.791,-3.995 3.995,-3.995l66.62,-0c2.205,-0 3.995,1.79 3.995,3.995Z" style="fill:none;stroke:#000;stroke-width:0.83px;"/><path d="M482.556,416.197l0,7.99c0,2.205 -1.79,3.995 -3.995,3.995l-66.619,0c-2.205,0 -3.995,-1.79 -3.995,-3.995l-0,-7.99c-0,-2.205 1.79,-3.995 3.995,-3.995l66.619,-0c2.205,-0 3.995,1.79 3.995,3.995Z" style="fill:#f4f284;fill-opacity:0.5;"/><clipPath id="_clip17"><path d="M482.556,416.197l0,7.99c0,2.205 -1.79,3.995 -3.995,3.995l-66.619,0c-2.205,0 -3.995,-1.79 -3.995,-3.995l-0,-7.99c-0,-2.205 1.79,-3.995 3.995,-3.995l66.619,-0c2.205,-0 3.995,1.79 3.995,3.995Z"/></clipPath><g clip-path="url(#_clip17)"><g transform="matrix(6.66667,0,0,6.66667,454.513,422.58)"></g><text x="435.99px" y="422.58px" style="font-family:'ArialMT', 'Arial', sans-serif;font-size:6.667px;">Macro</text></g><path d="M482.556,416.197l0,7.99c0,2.205 -1.79,3.995 -3.995,3.995l-66.619,0c-2.205,0 -3.995,-1.79 -3.995,-3.995l-0,-7.99c-0,-2.205 1.79,-3.995 3.995,-3.995l66.619,-0c2.205,-0 3.995,1.79 3.995,3.995Z" style="fill:none;stroke:#000;stroke-width:0.83px;"/></g><path d="M287.564,380.947l-0,7.013c-0,1.935 -1.571,3.506 -3.506,3.506l-45.937,-0c-1.935,-0 -3.506,-1.571 -3.506,-3.506l-0,-7.013c-0,-1.935 1.571,-3.506 3.506,-3.506l45.937,-0c1.935,-0 3.506,1.571 3.506,3.506Z" style="fill:none;"/><clipPath id="_clip18"><path d="M287.564,380.947l-0,7.013c-0,1.935 -1.571,3.506 -3.506,3.506l-45.937,-0c-1.935,-0 -3.506,-1.571 -3.506,-3.506l-0,-7.013c-0,-1.935 1.571,-3.506 3.506,-3.506l45.937,-0c1.935,-0 3.506,1.571 3.506,3.506Z"/></clipPath><g clip-path="url(#_clip18)"><g transform="matrix(6.66667,0,0,6.66667,271.464,386.841)"></g><text x="250.706px" y="386.841px" style="font-family:'ArialMT', 'Arial', sans-serif;font-size:6.667px;">Ageing</text></g><path d="M287.564,380.947l-0,7.013c-0,1.935 -1.571,3.506 -3.506,3.506l-45.937,-0c-1.935,-0 -3.506,-1.571 -3.506,-3.506l-0,-7.013c-0,-1.935 1.571,-3.506 3.506,-3.506l45.937,-0c1.935,-0 3.506,1.571 3.506,3.506Z" style="fill:none;stroke:#540000;stroke-width:1px;"/><path d="M263.589,372.441l-2.5,5l-2.5,-5c1.25,1.25 3.75,1.25 5,-0Z"/><path d="M261.089,365.158l0,8.283" style="fill:none;stroke:#000;stroke-width:0.42px;"/><path d="M157.965,386.953l-5,-2.5l5,-2.5c-1.25,1.25 -1.25,3.75 0,5Z"/><path d="M234.615,384.453l-77.65,0" style="fill:none;stroke:#000;stroke-width:0.42px;"/><path d="M74.212,372.529l2.5,-5l2.5,5c-1.25,-1.25 -3.75,-1.25 -5,0Z"/><path d="M76.712,377.808l0,-6.279" style="fill:none;stroke:#000;stroke-width:0.42px;"/><path d="M12.636,45.844l2.5,-5l2.5,5c-1.25,-1.25 -3.75,-1.25 -5,0Z"/><path d="M15.136,354.452l-0,-309.608" style="fill:none;stroke:#000;stroke-width:0.42px;"/><path d="M294.962,88.856l0,7.991c0,2.205 -1.79,3.995 -3.995,3.995l-59.892,-0c-2.205,-0 -3.995,-1.79 -3.995,-3.995l-0,-7.991c-0,-2.204 1.79,-3.995 3.995,-3.995l59.892,0c2.205,0 3.995,1.791 3.995,3.995Z" style="fill:#f4f284;fill-opacity:0.5;"/><clipPath id="_clip19"><path d="M294.962,88.856l0,7.991c0,2.205 -1.79,3.995 -3.995,3.995l-59.892,-0c-2.205,-0 -3.995,-1.79 -3.995,-3.995l-0,-7.991c-0,-2.204 1.79,-3.995 3.995,-3.995l59.892,0c2.205,0 3.995,1.791 3.995,3.995Z"/></clipPath><g clip-path="url(#_clip19)"><g transform="matrix(6.66667,0,0,6.66667,280.105,95.2393)"></g><text x="241.937px" y="95.239px" style="font-family:'ArialMT', 'Arial', sans-serif;font-size:6.667px;">Interest Rate</text></g><path d="M294.962,88.856l0,7.991c0,2.205 -1.79,3.995 -3.995,3.995l-59.892,-0c-2.205,-0 -3.995,-1.79 -3.995,-3.995l-0,-7.991c-0,-2.204 1.79,-3.995 3.995,-3.995l59.892,0c2.205,0 3.995,1.791 3.995,3.995Z" style="fill:none;stroke:#000;stroke-width:0.83px;"/><path d="M296.427,66.794l-0,7.99c-0,2.205 -1.791,3.995 -3.996,3.995l-60.855,0c-2.205,0 -3.995,-1.79 -3.995,-3.995l-0,-7.99c-0,-2.205 1.79,-3.995 3.995,-3.995l60.855,-0c2.205,-0 3.996,1.79 3.996,3.995Z" style="fill:#f4f284;fill-opacity:0.5;"/><clipPath id="_clip20"><path d="M296.427,66.794l-0,7.99c-0,2.205 -1.791,3.995 -3.996,3.995l-60.855,0c-2.205,0 -3.995,-1.79 -3.995,-3.995l-0,-7.99c-0,-2.205 1.79,-3.995 3.995,-3.995l60.855,-0c2.205,-0 3.996,1.79 3.996,3.995Z"/></clipPath><g clip-path="url(#_clip20)"><g transform="matrix(6.66667,0,0,6.66667,284.238,73.1768)"></g><text x="239.769px" y="73.177px" style="font-family:'ArialMT', 'Arial', sans-serif;font-size:6.667px;">Social Housing</text></g><path d="M296.427,66.794l-0,7.99c-0,2.205 -1.791,3.995 -3.996,3.995l-60.855,0c-2.205,0 -3.995,-1.79 -3.995,-3.995l-0,-7.99c-0,-2.205 1.79,-3.995 3.995,-3.995l60.855,-0c2.205,-0 3.996,1.79 3.996,3.995Z" style="fill:none;stroke:#000;stroke-width:0.83px;"/><path d="M500.914,324.775l0,7.99c0,2.205 -1.79,3.995 -3.995,3.995l-92.73,0c-2.205,0 -3.995,-1.79 -3.995,-3.995l0,-7.99c0,-2.205 1.79,-3.995 3.995,-3.995l92.73,-0c2.205,-0 3.995,1.79 3.995,3.995Z" style="fill:#f4f284;fill-opacity:0.5;"/><clipPath id="_clip21"><path d="M500.914,324.775l0,7.99c0,2.205 -1.79,3.995 -3.995,3.995l-92.73,0c-2.205,0 -3.995,-1.79 -3.995,-3.995l0,-7.99c0,-2.205 1.79,-3.995 3.995,-3.995l92.73,-0c2.205,-0 3.995,1.79 3.995,3.995Z"/></clipPath><g clip-path="url(#_clip21)"><g transform="matrix(6.66667,0,0,6.66667,481.497,331.158)"></g><text x="419.612px" y="331.158px" style="font-family:'ArialMT', 'Arial', sans-serif;font-size:6.667px;">New Housing Supply</text></g><path d="M500.914,324.775l0,7.99c0,2.205 -1.79,3.995 -3.995,3.995l-92.73,0c-2.205,0 -3.995,-1.79 -3.995,-3.995l0,-7.99c0,-2.205 1.79,-3.995 3.995,-3.995l92.73,-0c2.205,-0 3.995,1.79 3.995,3.995Z" style="fill:none;stroke:#000;stroke-width:0.83px;"/><path d="M478.504,172.357l-0,7.991c-0,2.205 -1.79,3.995 -3.995,3.995l-92.73,-0c-2.205,-0 -3.995,-1.79 -3.995,-3.995l-0,-7.991c-0,-2.205 1.79,-3.995 3.995,-3.995l92.73,0c2.205,0 3.995,1.79 3.995,3.995Z" style="fill:#f4f284;fill-opacity:0.5;"/><clipPath id="_clip22"><path d="M478.504,172.357l-0,7.991c-0,2.205 -1.79,3.995 -3.995,3.995l-92.73,-0c-2.205,-0 -3.995,-1.79 -3.995,-3.995l-0,-7.991c-0,-2.205 1.79,-3.995 3.995,-3.995l92.73,0c2.205,0 3.995,1.79 3.995,3.995Z"/></clipPath><g clip-path="url(#_clip22)"><g transform="matrix(6.66667,0,0,6.66667,440.002,178.74)"></g><text x="416.285px" y="178.74px" style="font-family:'ArialMT', 'Arial', sans-serif;font-size:6.667px;">Subsidy</text></g><path d="M478.504,172.357l-0,7.991c-0,2.205 -1.79,3.995 -3.995,3.995l-92.73,-0c-2.205,-0 -3.995,-1.79 -3.995,-3.995l-0,-7.991c-0,-2.205 1.79,-3.995 3.995,-3.995l92.73,0c2.205,0 3.995,1.79 3.995,3.995Z" style="fill:none;stroke:#000;stroke-width:0.83px;"/><path d="M447.869,303.854l2.5,-5l2.5,5c-1.25,-1.25 -3.75,-1.25 -5,0Z"/><path d="M450.369,320.78l-0,-17.926" style="fill:none;stroke:#000;stroke-width:0.42px;"/><path d="M194.104,95.352l-5,-2.5l5,-2.5c-1.25,1.25 -1.25,3.75 0,5Z"/><path d="M227.08,92.852l-33.976,-0" style="fill:none;stroke:#000;stroke-width:0.42px;"/><path d="M333.981,262.132l-5,-2.5l5,-2.5c-1.25,1.25 -1.25,3.75 -0,5Z"/><path d="M377.784,176.353l-27.94,-0l0,83.279l-16.863,-0" style="fill:none;stroke:#000;stroke-width:0.42px;"/><path d="M127.905,162.299l-2.5,5l-2.5,-5c1.25,1.25 3.75,1.25 5,0Z"/><path d="M99.762,120.543l-0,26.768l25.643,-0l0,15.988" style="fill:none;stroke:#000;stroke-width:0.42px;"/><path d="M140.466,162.299l-2.5,5l-2.5,-5c1.25,1.25 3.75,1.25 5,0Z"/><path d="M163.609,120.543l0,26.768l-25.643,-0l-0,15.988" style="fill:none;stroke:#000;stroke-width:0.42px;"/><path d="M65.14,31.331l5,2.5l-5,2.5c1.25,-1.25 1.25,-3.75 0,-5Z"/><path d="M53.408,33.831l12.732,0" style="fill:none;stroke:#000;stroke-width:0.42px;"/><path d="M190.329,30.679l0,6.305c0,1.741 -1.412,3.153 -3.152,3.153l-113.061,0c-1.741,0 -3.153,-1.412 -3.153,-3.153l-0,-6.305c-0,-1.741 1.412,-3.153 3.153,-3.153l113.061,-0c1.74,-0 3.152,1.412 3.152,3.153Z" style="fill:#0f2d5e;fill-opacity:0.5;"/><clipPath id="_clip23"><path d="M190.329,30.679l0,6.305c0,1.741 -1.412,3.153 -3.152,3.153l-113.061,0c-1.741,0 -3.153,-1.412 -3.153,-3.153l-0,-6.305c-0,-1.741 1.412,-3.153 3.153,-3.153l113.061,-0c1.74,-0 3.152,1.412 3.152,3.153Z"/></clipPath><g clip-path="url(#_clip23)"><g transform="matrix(6.66667,0,0,6.66667,178.823,36.3055)"></g><text x="82.469px" y="36.306px" style="font-family:'ArialMT', 'Arial', sans-serif;font-size:6.667px;">Moving Consideration Likelihood</text></g><path d="M190.329,30.679l0,6.305c0,1.741 -1.412,3.153 -3.152,3.153l-113.061,0c-1.741,0 -3.153,-1.412 -3.153,-3.153l-0,-6.305c-0,-1.741 1.412,-3.153 3.153,-3.153l113.061,-0c1.74,-0 3.152,1.412 3.152,3.153Z" style="fill:none;stroke:#000;stroke-width:0.83px;"/><path d="M165.611,53.34l-0,6.306c-0,1.74 -1.413,3.153 -3.153,3.153l-63.624,-0c-1.74,-0 -3.153,-1.413 -3.153,-3.153l0,-6.306c0,-1.74 1.413,-3.153 3.153,-3.153l63.624,0c1.74,0 3.153,1.413 3.153,3.153Z" style="fill:#0f2d5e;fill-opacity:0.5;"/><clipPath id="_clip24"><path d="M165.611,53.34l-0,6.306c-0,1.74 -1.413,3.153 -3.153,3.153l-63.624,-0c-1.74,-0 -3.153,-1.413 -3.153,-3.153l0,-6.306c0,-1.74 1.413,-3.153 3.153,-3.153l63.624,0c1.74,0 3.153,1.413 3.153,3.153Z"/></clipPath><g clip-path="url(#_clip24)"><g transform="matrix(6.66667,0,0,6.66667,156.699,58.9672)"></g><text x="104.44px" y="58.967px" style="font-family:'ArialMT', 'Arial', sans-serif;font-size:6.667px;">Mobile household</text></g><path d="M165.611,53.34l-0,6.306c-0,1.74 -1.413,3.153 -3.153,3.153l-63.624,-0c-1.74,-0 -3.153,-1.413 -3.153,-3.153l0,-6.306c0,-1.74 1.413,-3.153 3.153,-3.153l63.624,0c1.74,0 3.153,1.413 3.153,3.153Z" style="fill:none;stroke:#000;stroke-width:0.83px;"/><path d="M128.558,111.084l0,6.306c0,1.74 -1.412,3.153 -3.153,3.153l-51.287,-0c-1.74,-0 -3.153,-1.413 -3.153,-3.153l-0,-6.306c-0,-1.74 1.413,-3.153 3.153,-3.153l51.287,0c1.741,0 3.153,1.413 3.153,3.153Z" style="fill:#0f2d5e;fill-opacity:0.5;"/><clipPath id="_clip25"><path d="M128.558,111.084l0,6.306c0,1.74 -1.412,3.153 -3.153,3.153l-51.287,-0c-1.74,-0 -3.153,-1.413 -3.153,-3.153l-0,-6.306c-0,-1.74 1.413,-3.153 3.153,-3.153l51.287,0c1.741,0 3.153,1.413 3.153,3.153Z"/></clipPath><g clip-path="url(#_clip25)"><g transform="matrix(6.66667,0,0,6.66667,121.004,116.711)"></g><text x="78.393px" y="116.711px" style="font-family:'ArialMT', 'Arial', sans-serif;font-size:6.667px;">Buying Market</text></g><path d="M128.558,111.084l0,6.306c0,1.74 -1.412,3.153 -3.153,3.153l-51.287,-0c-1.74,-0 -3.153,-1.413 -3.153,-3.153l-0,-6.306c-0,-1.74 1.413,-3.153 3.153,-3.153l51.287,0c1.741,0 3.153,1.413 3.153,3.153Z" style="fill:none;stroke:#000;stroke-width:0.83px;"/><path d="M188.845,111.084l-0,6.306c-0,1.74 -1.413,3.153 -3.153,3.153l-47.618,-0c-1.74,-0 -3.153,-1.413 -3.153,-3.153l-0,-6.306c-0,-1.74 1.413,-3.153 3.153,-3.153l47.618,0c1.74,0 3.153,1.413 3.153,3.153Z" style="fill:#0f2d5e;fill-opacity:0.5;"/><clipPath id="_clip26"><path d="M188.845,111.084l-0,6.306c-0,1.74 -1.413,3.153 -3.153,3.153l-47.618,-0c-1.74,-0 -3.153,-1.413 -3.153,-3.153l-0,-6.306c-0,-1.74 1.413,-3.153 3.153,-3.153l47.618,0c1.74,0 3.153,1.413 3.153,3.153Z"/></clipPath><g clip-path="url(#_clip26)"><g transform="matrix(6.66667,0,0,6.66667,179.978,116.711)"></g><text x="143.669px" y="116.711px" style="font-family:'ArialMT', 'Arial', sans-serif;font-size:6.667px;">Rent Market</text></g><path d="M188.845,111.084l-0,6.306c-0,1.74 -1.413,3.153 -3.153,3.153l-47.618,-0c-1.74,-0 -3.153,-1.413 -3.153,-3.153l-0,-6.306c-0,-1.74 1.413,-3.153 3.153,-3.153l47.618,0c1.74,0 3.153,1.413 3.153,3.153Z" style="fill:none;stroke:#000;stroke-width:0.83px;"/><path d="M189.104,89.699l0,6.306c0,1.74 -1.412,3.152 -3.152,3.152l-111.834,0c-1.74,0 -3.153,-1.412 -3.153,-3.152l-0,-6.306c-0,-1.74 1.413,-3.153 3.153,-3.153l111.834,-0c1.74,-0 3.152,1.413 3.152,3.153Z" style="fill:#0f2d5e;fill-opacity:0.5;"/><clipPath id="_clip27"><path d="M189.104,89.699l0,6.306c0,1.74 -1.412,3.152 -3.152,3.152l-111.834,0c-1.74,0 -3.153,-1.412 -3.153,-3.152l-0,-6.306c-0,-1.74 1.413,-3.153 3.153,-3.153l111.834,-0c1.74,-0 3.152,1.413 3.152,3.153Z"/></clipPath><g clip-path="url(#_clip27)"><g transform="matrix(6.66667,0,0,6.66667,179.874,95.3257)"></g><text x="79.936px" y="95.326px" style="font-family:'ArialMT', 'Arial', sans-serif;font-size:6.667px;">Housing <tspan x="106.127px 109.46px 113.168px " y="95.326px 95.326px 95.326px ">Ten</tspan>ure Switch Likelihood</text></g><path d="M189.104,89.699l0,6.306c0,1.74 -1.412,3.152 -3.152,3.152l-111.834,0c-1.74,0 -3.153,-1.412 -3.153,-3.152l-0,-6.306c-0,-1.74 1.413,-3.153 3.153,-3.153l111.834,-0c1.74,-0 3.152,1.413 3.152,3.153Z" style="fill:none;stroke:#000;stroke-width:0.83px;"/><path d="M197.686,170.452l-0,6.306c-0,1.74 -1.413,3.153 -3.153,3.153l-127.614,0c-1.74,0 -3.153,-1.413 -3.153,-3.153l-0,-6.306c-0,-1.74 1.413,-3.153 3.153,-3.153l127.614,0c1.74,0 3.153,1.413 3.153,3.153Z" style="fill:#3d2e19;fill-opacity:0.5;"/><clipPath id="_clip28"><path d="M197.686,170.452l-0,6.306c-0,1.74 -1.413,3.153 -3.153,3.153l-127.614,0c-1.74,0 -3.153,-1.413 -3.153,-3.153l-0,-6.306c-0,-1.74 1.413,-3.153 3.153,-3.153l127.614,0c1.74,0 3.153,1.413 3.153,3.153Z"/></clipPath><g clip-path="url(#_clip28)"><g transform="matrix(6.66667,0,0,6.66667,183.908,175.993)"></g><text x="77.544px" y="175.993px" style="font-family:'ArialMT', 'Arial', sans-serif;font-size:6.667px;">Residence Consideration Likelihood</text></g><path d="M197.686,170.452l-0,6.306c-0,1.74 -1.413,3.153 -3.153,3.153l-127.614,0c-1.74,0 -3.153,-1.413 -3.153,-3.153l-0,-6.306c-0,-1.74 1.413,-3.153 3.153,-3.153l127.614,0c1.74,0 3.153,1.413 3.153,3.153Z" style="fill:none;stroke:#000;stroke-width:0.83px;"/><path d="M52.344,30.679l0,5.661c0,1.562 -1.268,2.83 -2.83,2.83l-46.684,-0c-1.562,-0 -2.83,-1.268 -2.83,-2.83l0,-5.661c0,-1.562 1.268,-2.83 2.83,-2.83l46.684,-0c1.562,-0 2.83,1.268 2.83,2.83Z" style="fill:#7b8b65;fill-opacity:0.5;"/><clipPath id="_clip29"><path d="M52.344,30.679l0,5.661c0,1.562 -1.268,2.83 -2.83,2.83l-46.684,-0c-1.562,-0 -2.83,-1.268 -2.83,-2.83l0,-5.661c0,-1.562 1.268,-2.83 2.83,-2.83l46.684,-0c1.562,-0 2.83,1.268 2.83,2.83Z"/></clipPath><g clip-path="url(#_clip29)"><g transform="matrix(6.66667,0,0,6.66667,42.6631,35.897)"></g><text x="9.681px" y="35.897px" style="font-family:'ArialMT', 'Arial', sans-serif;font-size:6.667px;">Life Events</text></g><path d="M52.344,30.679l0,5.661c0,1.562 -1.268,2.83 -2.83,2.83l-46.684,-0c-1.562,-0 -2.83,-1.268 -2.83,-2.83l0,-5.661c0,-1.562 1.268,-2.83 2.83,-2.83l46.684,-0c1.562,-0 2.83,1.268 2.83,2.83Z" style="fill:none;stroke:#000;stroke-width:0.83px;"/><path d="M64.348,91.328l5,2.5l-5,2.5c1.25,-1.25 1.25,-3.75 -0,-5Z"/><path d="M27.291,82.265l-0,11.563l38.057,-0" style="fill:none;stroke:#000;stroke-width:0.42px;"/><path d="M58.508,171.612l5,2.5l-5,2.5c1.25,-1.25 1.25,-3.75 0,-5Z"/><path d="M27.291,82.265l-0,91.847l32.217,-0" style="fill:none;stroke:#000;stroke-width:0.42px;"/><path d="M394.388,289.342l5,2.5l-5,2.5c1.25,-1.25 1.25,-3.75 0,-5Z"/><path d="M368.475,306.598l14.288,-0l-0,-14.756l12.625,-0" style="fill:none;stroke:#000;stroke-width:0.42px;"/><path d="M165.622,8.233l0,7.012c0,1.936 -1.571,3.507 -3.506,3.507l-62.928,-0c-1.935,-0 -3.507,-1.571 -3.507,-3.507l0,-7.012c0,-1.935 1.572,-3.507 3.507,-3.507l62.928,0c1.935,0 3.506,1.572 3.506,3.507Z" style="fill:none;"/><clipPath id="_clip30"><path d="M165.622,8.233l0,7.012c0,1.936 -1.571,3.507 -3.506,3.507l-62.928,-0c-1.935,-0 -3.507,-1.571 -3.507,-3.507l0,-7.012c0,-1.935 1.572,-3.507 3.507,-3.507l62.928,0c1.935,0 3.506,1.572 3.506,3.507Z"/></clipPath><g clip-path="url(#_clip30)"><g transform="matrix(6.66667,0,0,6.66667,158.818,14.1268)"></g><text x="102.474px" y="14.127px" style="font-family:'ArialMT', 'Arial', sans-serif;font-size:6.667px;">Located household</text></g><path d="M165.622,8.233l0,7.012c0,1.936 -1.571,3.507 -3.506,3.507l-62.928,-0c-1.935,-0 -3.507,-1.571 -3.507,-3.507l0,-7.012c0,-1.935 1.572,-3.507 3.507,-3.507l62.928,0c1.935,0 3.506,1.572 3.506,3.507Z" style="fill:none;stroke:#540000;stroke-width:1px;"/><path d="M93.136,71.746l-0,7.012c-0,1.935 -1.571,3.507 -3.507,3.507l-68.891,-0c-1.936,-0 -3.507,-1.572 -3.507,-3.507l0,-7.012c0,-1.936 1.571,-3.507 3.507,-3.507l68.891,0c1.936,0 3.507,1.571 3.507,3.507Z" style="fill:none;"/><clipPath id="_clip31"><path d="M93.136,71.746l-0,7.012c-0,1.935 -1.571,3.507 -3.507,3.507l-68.891,-0c-1.936,-0 -3.507,-1.572 -3.507,-3.507l0,-7.012c0,-1.936 1.571,-3.507 3.507,-3.507l68.891,0c1.936,0 3.507,1.571 3.507,3.507Z"/></clipPath><g clip-path="url(#_clip31)"><g transform="matrix(6.66667,0,0,6.66667,85.5644,77.6396)"></g><text x="24.79px" y="77.64px" style="font-family:'ArialMT', 'Arial', sans-serif;font-size:6.667px;">Household Structure</text></g><path d="M93.136,71.746l-0,7.012c-0,1.935 -1.571,3.507 -3.507,3.507l-68.891,-0c-1.936,-0 -3.507,-1.572 -3.507,-3.507l0,-7.012c0,-1.936 1.571,-3.507 3.507,-3.507l68.891,0c1.936,0 3.507,1.571 3.507,3.507Z" style="fill:none;stroke:#540000;stroke-width:1px;"/><path d="M501.366,288.335l0,7.013c0,1.935 -1.571,3.506 -3.506,3.506l-94.965,0c-1.935,0 -3.507,-1.571 -3.507,-3.506l0,-7.013c0,-1.935 1.572,-3.506 3.507,-3.506l94.965,0c1.935,0 3.506,1.571 3.506,3.506Z" style="fill:none;"/><clipPath id="_clip32"><path d="M501.366,288.335l0,7.013c0,1.935 -1.571,3.506 -3.506,3.506l-94.965,0c-1.935,0 -3.507,-1.571 -3.507,-3.506l0,-7.013c0,-1.935 1.572,-3.506 3.507,-3.506l94.965,0c1.935,0 3.506,1.571 3.506,3.506Z"/></clipPath><g clip-path="url(#_clip32)"><g transform="matrix(6.66667,0,0,6.66667,476.062,294.229)"></g><text x="424.675px" y="294.229px" style="font-family:'ArialMT', 'Arial', sans-serif;font-size:6.667px;">Housing V<tspan x="454.939px 458.647px " y="294.229px 294.229px ">ac</tspan>ancy</text></g><path d="M501.366,288.335l0,7.013c0,1.935 -1.571,3.506 -3.506,3.506l-94.965,0c-1.935,0 -3.507,-1.571 -3.507,-3.506l0,-7.013c0,-1.935 1.572,-3.506 3.507,-3.506l94.965,0c1.935,0 3.506,1.571 3.506,3.506Z" style="fill:none;stroke:#540000;stroke-width:1px;"/><path d="M130.652,18.752l-0,8.774" style="fill:none;stroke:#000;stroke-width:0.42px;"/><path d="M130.652,62.799l-0,23.747" style="fill:none;stroke:#000;stroke-width:0.42px;"/><path d="M133.152,43.911l-2.5,5l-2.5,-5c1.25,1.25 3.75,1.25 5,0Z"/><path d="M130.652,40.137l-0,4.774" style="fill:none;stroke:#000;stroke-width:0.42px;"/><path d="M282.445,269.764l-2.5,5l-2.5,-5c1.25,1.25 3.75,1.25 5,0Z"/><path d="M279.945,265.99l0,4.774" style="fill:none;stroke:#000;stroke-width:0.42px;"/><path d="M282.445,247.483l-2.5,5l-2.5,-5c1.25,1.25 3.75,1.25 5,0Z"/><path d="M279.945,243.71l0,4.773" style="fill:none;stroke:#000;stroke-width:0.42px;"/><path d="M133.226,183.685l-2.5,5l-2.5,-5c1.25,1.25 3.75,1.25 5,0Z"/><path d="M130.726,179.911l-0,4.774" style="fill:none;stroke:#000;stroke-width:0.42px;"/><path d="M222.08,68.289l5,2.5l-5,2.5c1.25,-1.25 1.25,-3.75 -0,-5Z"/><path d="M130.652,62.799l-0,7.99l92.428,0" style="fill:none;stroke:#000;stroke-width:0.42px;"/></svg>