<?xml version="1.0" encoding="UTF-8" standalone="no"?><!DOCTYPE svg PUBLIC "-//W3C//DTD SVG 1.1//EN" "http://www.w3.org/Graphics/SVG/1.1/DTD/svg11.dtd"><svg width="100%" height="100%" viewBox="0 0 3786 1378" version="1.1" xmlns="http://www.w3.org/2000/svg" xmlns:xlink="http://www.w3.org/1999/xlink" xml:space="preserve" xmlns:serif="http://www.serif.com/" style="fill-rule:evenodd;clip-rule:evenodd;stroke-linecap:round;stroke-linejoin:round;stroke-miterlimit:1.5;"><rect id="Paper-03" serif:id="Paper 03" x="0" y="0" width="3785.28" height="1377.87" style="fill:none;"/><clipPath id="_clip1"><rect x="0" y="0" width="3785.28" height="1377.87"/></clipPath><g clip-path="url(#_clip1)"><path d="M3564.63,1377.73l-23.622,0l-8.002,-777.96l23.622,-0l8.002,777.96Z" style="fill:#ecf4df;"/><g id="paper01"><path d="M3478.58,36.904l-0,79.354l-1093.52,0l-0,-79.354l1093.52,0Zm-8.333,8.334c-0,-0 -1076.86,-0 -1076.86,-0c0,-0 0,62.687 0,62.687c0,-0 1076.86,-0 1076.86,-0l-0,-62.687Z" style="fill:#dbdbdb;"/><path d="M3478.58,332.043l-0,79.354l-1093.52,-0l-0,-79.354l1093.52,-0Zm-8.333,8.333c-95.496,0 -981.36,0 -1076.86,0l0,62.687c0,0 1076.86,0 1076.86,0l-0,-62.687Z" style="fill:#dbdbdb;"/><path d="M2881.12,143.544l-0,79.354l-496.063,-0l-0,-79.354l496.063,0Zm-8.333,8.333c-0,0 -479.397,0 -479.397,0l0,62.687c59.553,0 419.844,0 479.397,0.001l-0,-62.688Z" style="fill:#dbdbdb;"/><path d="M3478.58,143.544l-0,79.354l-496.063,-0l-0,-79.354l496.063,0Zm-8.333,8.333c-0,0 -415.065,0 -479.397,0l0,62.687c59.553,0 419.844,0 479.397,0.001l-0,-62.688Z" style="fill:#dbdbdb;"/><g transform="matrix(-1.11022e-16,1,-1,3.83476e-17,5292.85,-5292.85)"><g transform="matrix(50,0,0,50,5661.99,1708.78)"></g><text x="5506.38px" y="1708.78px" style="font-family:'ArialMT', 'Arial', sans-serif;font-size:50px;fill:#dbdbdb;">Theory</text></g><path d="M2944.32,307.043l-12.5,25l-12.5,-25c6.25,6.25 18.75,6.25 25,-0Z" style="fill:#dbdbdb;"/><path d="M2633.09,222.898l0,53.42l298.73,0l-0,35.725" style="fill:none;stroke:#dbdbdb;stroke-width:4.17px;"/><path d="M2944.32,307.043l-12.5,25l-12.5,-25c6.25,6.25 18.75,6.25 25,-0Z" style="fill:#dbdbdb;"/><path d="M3230.55,222.898l0,53.42l-298.729,0l-0,35.725" style="fill:none;stroke:#dbdbdb;stroke-width:4.17px;"/><path d="M2944.32,475.501l-12.5,25l-12.5,-25c6.25,6.25 18.75,6.25 25,-0Z" style="fill:#dbdbdb;"/><path d="M2931.82,411.397l-0,69.104" style="fill:none;stroke:#dbdbdb;stroke-width:4.17px;"/><g transform="matrix(50,0,0,50,3302.84,389.627)"></g><text x="2560.8px" y="389.627px" style="font-family:'ArialMT', 'Arial', sans-serif;font-size:50px;fill:#dbdbdb;">Theory and Mechanism Selection</text><g transform="matrix(50,0,0,50,2824.83,201.129)"></g><text x="2441.34px" y="201.129px" style="font-family:'ArialMT', 'Arial', sans-serif;font-size:50px;fill:#dbdbdb;">Theory Research</text><g transform="matrix(50,0,0,50,3108.31,94.489)"></g><text x="2755.33px" y="94.489px" style="font-family:'ArialMT', 'Arial', sans-serif;font-size:50px;fill:#dbdbdb;">Literature Study</text><g transform="matrix(50,0,0,50,3398.66,201.129)"></g><text x="3062.43px" y="201.129px" style="font-family:'ArialMT', 'Arial', sans-serif;font-size:50px;fill:#dbdbdb;">ABM Research</text></g><g id="Paper02"><path d="M2171.48,500.501l-0,79.353l-841.716,0l-0,-79.353l841.716,-0Zm-8.334,8.333c0,-0 -825.049,-0 -825.049,-0l0,62.687c0,0 825.049,0 825.049,0l0,-62.687Z" style="fill:#dbdbdb;"/><path d="M3226.84,677.785l0,79.354l-841.716,-0l0,-79.354l841.716,-0Zm-8.333,8.333c-81.988,0 -743.062,0 -825.049,0l-0,62.687c-0,0 825.049,0 825.049,0l-0,-62.687Z" style="fill:#dbdbdb;"/><path d="M3226.77,874.016l-0,79.354l-841.716,-0l-0,-79.354l841.716,-0Zm-8.334,8.333c-81.987,0 -743.061,0 -825.049,0l0,62.687c81.988,0 743.062,0 825.049,0l0,-62.687Z" style="fill:#dbdbdb;"/><path d="M3478.58,1070.44l-0,79.354l-716.322,0l-0,-79.354l716.322,0Zm-8.333,8.334c-74.503,-0 -625.154,-0 -699.656,-0c0,-0 0,62.687 0,62.687c74.502,-0 625.153,-0 699.656,-0l-0,-62.687Z" style="fill:#dbdbdb;"/><path d="M3478.58,500.501l-0,79.353l-1093.52,0l-0,-79.353l1093.52,-0Zm-8.333,8.333c-0,-0 -976.324,-0 -1076.86,-0c0,-0 0,62.687 0,62.687c100.532,0 1076.86,0 1076.86,0l-0,-62.687Z" style="fill:#dbdbdb;"/><path d="M2196.48,552.677l-25,-12.5l25,-12.5c-6.25,6.25 -6.25,18.75 -0,25Z" style="fill:#dbdbdb;"/><path d="M2385.05,540.177l-193.578,0" style="fill:none;stroke:#dbdbdb;stroke-width:4.17px;"/><path d="M2360.05,704.962l25,12.5l-25,12.5c6.25,-6.25 6.25,-18.75 -0,-25Z" style="fill:#dbdbdb;"/><path d="M2171.48,717.462l193.578,-0" style="fill:none;stroke:#dbdbdb;stroke-width:4.17px;"/><path d="M1763.12,652.594l-12.5,25l-12.5,-25c6.25,6.25 18.75,6.25 25,0Z" style="fill:#dbdbdb;"/><path d="M1750.62,579.854l-0,77.74" style="fill:none;stroke:#dbdbdb;stroke-width:4.17px;"/><path d="M2818.48,849.016l-12.5,25l-12.5,-25c6.25,6.25 18.75,6.25 25,-0Z" style="fill:#dbdbdb;"/><path d="M2805.98,756.948l0,97.068" style="fill:none;stroke:#dbdbdb;stroke-width:4.17px;"/><path d="M3059.8,1045.71l-12.5,25l-12.5,-25c6.25,6.25 18.75,6.25 25,-0Z" style="fill:#dbdbdb;"/><path d="M3047.3,953.646l0,97.068" style="fill:none;stroke:#dbdbdb;stroke-width:4.17px;"/><g transform="matrix(50,0,0,50,2081.34,558.085)"></g><text x="1419.89px" y="558.085px" style="font-family:'ArialMT', 'Arial', sans-serif;font-size:50px;fill:#dbdbdb;">Model Design &amp; Development</text><g transform="matrix(50,0,0,50,3133.91,735.369)"></g><text x="2478.05px" y="735.369px" style="font-family:'ArialMT', 'Arial', sans-serif;font-size:50px;fill:#dbdbdb;">Prototype Model Optimisation</text><g transform="matrix(50,0,0,50,3309.73,558.085)"></g><text x="2553.9px" y="558.085px" style="font-family:'ArialMT', 'Arial', sans-serif;font-size:50px;fill:#dbdbdb;">Conceptual Framework Formation</text><g transform="matrix(50,0,0,50,3111.65,931.6)"></g><text x="2500.18px" y="931.6px" style="font-family:'ArialMT', 'Arial', sans-serif;font-size:50px;fill:#dbdbdb;">Prototype Model Evaluation</text><g transform="matrix(50,0,0,50,3402.54,1128.02)"></g><text x="2838.29px" y="1128.02px" style="font-family:'ArialMT', 'Arial', sans-serif;font-size:50px;fill:#dbdbdb;">Conclusion on Groningen</text></g><g id="Paper03"><rect x="15.831" y="677.594" width="841.716" height="79.354" style="fill:#ecf4df;"/><path d="M857.547,677.594l0,79.354l-841.716,-0l0,-79.354l841.716,0Zm-8.333,8.333c-0,0 -825.05,0 -825.05,0l0,62.688c81.988,-0 743.062,-0 825.05,-0l-0,-62.688Z"/><rect x="1329.76" y="677.594" width="841.716" height="79.354" style="fill:#ecf4df;"/><path d="M2171.48,677.594l-0,79.354l-841.716,-0l-0,-79.354l841.716,0Zm-8.334,8.333c0,0 -825.049,0 -825.049,0l0,62.688c0,-0 825.049,-0 825.049,-0l0,-62.688Z"/><rect x="15.831" y="874.016" width="841.716" height="79.354" style="fill:#ecf4df;"/><path d="M857.547,874.016l0,79.354l-841.716,-0l0,-79.354l841.716,-0Zm-8.333,8.333c-81.988,0 -743.062,0 -825.05,0l0,62.687c86.951,0 825.05,0 825.05,0l-0,-62.687Z"/><rect x="1329.76" y="874.016" width="841.716" height="79.354" style="fill:#ecf4df;"/><path d="M2171.48,874.016l-0,79.354l-841.716,-0l-0,-79.354l841.716,-0Zm-8.334,8.333c0,0 -825.049,0 -825.049,0l0,62.687c86.95,0 825.049,0 825.049,0l0,-62.687Z"/><rect x="942.722" y="677.594" width="301.865" height="79.354" style="fill:#ecf4df;"/><path d="M1244.59,677.594l0,79.354l-301.864,-0l-0,-79.354l301.864,0Zm-8.333,8.333c0,0 -285.198,0 -285.198,0l-0,62.688c47.818,-0 285.198,-0 285.198,-0l0,-62.688Z"/><rect x="1809.16" y="1070.44" width="769.714" height="79.354" style="fill:#ecf4df;"/><path d="M2578.88,1070.44l-0,79.354l-769.714,0l-0,-79.354l769.714,0Zm-8.333,8.334c-0,-0 -753.048,-0 -753.048,-0l0,62.687c0,-0 753.048,-0 753.048,-0l-0,-62.687Z"/><rect x="915.847" y="1070.44" width="765.895" height="79.354" style="fill:#ecf4df;"/><path d="M1681.74,1070.44l-0,79.354l-765.896,0l0,-79.354l765.896,0Zm-8.334,8.334c0,-0 -749.228,-0 -749.228,-0l-0,62.687c-0,-0 749.228,-0 749.228,-0l0,-62.687Z"/><g><path d="M857.3,913.693l472.461,-0" style="fill:none;"/><path d="M1304.76,901.193l25,12.5l-25,12.5c6.25,-6.25 6.25,-18.75 -0,-25Z"/><path d="M857.3,913.693l452.461,-0" style="fill:none;stroke:#000;stroke-width:4.17px;"/></g><g><path d="M942.722,717.271l-85.175,-0" style="fill:none;"/><path d="M882.547,729.771l-25,-12.5l25,-12.5c-6.25,6.25 -6.25,18.75 0,25Z"/><path d="M942.722,717.271l-65.175,-0" style="fill:none;stroke:#000;stroke-width:4.17px;"/></g><g><path d="M436.689,756.948l0,117.068" style="fill:none;"/><path d="M449.189,849.016l-12.5,25l-12.5,-25c6.25,6.25 18.75,6.25 25,-0Z"/><path d="M436.689,756.948l0,97.068" style="fill:none;stroke:#000;stroke-width:4.17px;"/></g><path d="M1454.25,1045.44l-12.5,25l-12.5,-25c6.25,6.25 18.75,6.25 25,0Z"/><path d="M1441.75,953.37l-0,97.067" style="fill:none;stroke:#000;stroke-width:4.17px;"/><path d="M2007.94,1045.71l-12.5,25l-12.5,-25c6.25,6.25 18.75,6.25 25,-0Z"/><path d="M1995.44,953.646l-0,97.068" style="fill:none;stroke:#000;stroke-width:4.17px;"/><g><path d="M1329.76,717.271l-85.175,-0" style="fill:none;"/><path d="M1269.59,729.771l-25,-12.5l25,-12.5c-6.25,6.25 -6.25,18.75 0,25Z"/><path d="M1329.76,717.271l-65.175,-0" style="fill:none;stroke:#000;stroke-width:4.17px;"/></g><g transform="matrix(50,0,0,50,792.426,735.179)"></g><text x="80.952px" y="735.179px" style="font-family:'ArialMT', 'Arial', sans-serif;font-size:50px;">National Scale Model (Baseline)</text><g transform="matrix(50,0,0,50,2045.25,931.6)"></g><text x="1455.99px" y="931.6px" style="font-family:'ArialMT', 'Arial', sans-serif;font-size:50px;">Baseline Model Evaluation</text><g transform="matrix(50,0,0,50,753.51,931.6)"></g><text x="119.868px" y="931.6px" style="font-family:'ArialMT', 'Arial', sans-serif;font-size:50px;">Baseline Model Optimisation</text><g transform="matrix(50,0,0,50,1640.68,1128.02)"></g><text x="956.913px" y="1128.02px" style="font-family:'ArialMT', 'Arial', sans-serif;font-size:50px;">Conclusion on the Netherlands</text><g transform="matrix(50,0,0,50,1183.97,735.179)"></g><text x="1003.33px" y="735.179px" style="font-family:'ArialMT', 'Arial', sans-serif;font-size:50px;">Upscale</text><g transform="matrix(50,0,0,50,2474.3,1128.02)"></g><text x="1913.75px" y="1128.02px" style="font-family:'ArialMT', 'Arial', sans-serif;font-size:50px;">V<tspan x="1943.39px 1971.19px " y="1128.02px 1128.02px ">al</tspan>idated Baseline Model</text><g transform="matrix(50,0,0,50,2075.75,735.179)"></g><text x="1425.49px" y="735.179px" style="font-family:'ArialMT', 'Arial', sans-serif;font-size:50px;">Single City Model (Prototype)</text></g><g id="Paper04"><path d="M1417.38,1266.86l0,79.354l-499.767,-0l0,-79.354l499.767,0Zm-8.333,8.333c-59.828,0 -423.272,0 -483.1,0c-0,0 -0,62.688 -0,62.688c-0,-0 483.1,-0 483.1,-0l0,-62.688Z" style="fill:#dbdbdb;"/><path d="M670.305,1266.86l-0,79.354l-652.754,-0l-0,-79.354l652.754,0Zm-8.334,8.333c0,0 -636.087,0 -636.087,0l-0,62.688c70.457,-0 565.63,-0 636.087,-0l0,-62.688Z" style="fill:#dbdbdb;"/><path d="M773.028,1070.08l-0,79.354l-755.477,0l-0,-79.354l755.477,0Zm-8.333,8.334c-0,-0 -738.811,-0 -738.811,-0l-0,62.687c-0,-0 738.811,-0 738.811,-0l-0,-62.687Z" style="fill:#dbdbdb;"/><path d="M3026.37,1266.86l0,79.354l-769.714,-0l0,-79.354l769.714,0Zm-8.333,8.333c-0,0 -753.047,0 -753.047,0l-0,62.688c82.698,-0 753.047,-0 753.047,-0l-0,-62.688Z" style="fill:#dbdbdb;"/><path d="M2099.48,1266.86l-0,79.354l-524.938,-0l-0,-79.354l524.938,0Zm-8.333,8.333c-0,0 -508.272,0 -508.272,0l0,62.688c0,-0 508.272,-0 508.272,-0l-0,-62.688Z" style="fill:#dbdbdb;"/><path d="M2124.48,1319.04l-25,-12.5l25,-12.5c-6.25,6.25 -6.25,18.75 -0,25Z" style="fill:#dbdbdb;"/><path d="M2256.65,1306.54l-137.167,-0" style="fill:none;stroke:#dbdbdb;stroke-width:4.17px;"/><path d="M1442.38,1319.04l-25,-12.5l25,-12.5c-6.25,6.25 -6.25,18.75 0,25Z" style="fill:#dbdbdb;"/><path d="M1574.55,1306.54l-137.168,-0" style="fill:none;stroke:#dbdbdb;stroke-width:4.17px;"/><path d="M695.305,1319.04l-25,-12.5l25,-12.5c-6.25,6.25 -6.25,18.75 -0,25Z" style="fill:#dbdbdb;"/><path d="M917.611,1306.54l-227.306,-0" style="fill:none;stroke:#dbdbdb;stroke-width:4.17px;"/><path d="M2389.9,1241.86l-12.5,25l-12.5,-25c6.25,6.25 18.75,6.25 25,0Z" style="fill:#dbdbdb;"/><path d="M2377.4,1149.79l-0,97.068" style="fill:none;stroke:#dbdbdb;stroke-width:4.17px;"/><path d="M331.428,1174.79l12.5,-25l12.5,25c-6.25,-6.25 -18.75,-6.25 -25,0Z" style="fill:#dbdbdb;"/><path d="M343.928,1266.86l-0,-97.068" style="fill:none;stroke:#dbdbdb;stroke-width:4.17px;"/><g transform="matrix(50,0,0,50,1378.74,1324.44)"></g><text x="956.252px" y="1324.44px" style="font-family:'ArialMT', 'Arial', sans-serif;font-size:50px;fill:#dbdbdb;">Outputs Evaluation</text><g transform="matrix(50,0,0,50,2935.61,1324.44)"></g><text x="2347.4px" y="1324.44px" style="font-family:'ArialMT', 'Arial', sans-serif;font-size:50px;fill:#dbdbdb;">Policy Parameter V<tspan x="2771.62px 2799.43px " y="1324.44px 1324.44px ">ar</tspan>iation</text><g transform="matrix(50,0,0,50,549.567,1324.44)"></g><text x="138.288px" y="1324.44px" style="font-family:'ArialMT', 'Arial', sans-serif;font-size:50px;fill:#dbdbdb;">Optimal Strategies</text><g transform="matrix(50,0,0,50,734.364,1127.67)"></g><text x="56.215px" y="1127.67px" style="font-family:'ArialMT', 'Arial', sans-serif;font-size:50px;fill:#dbdbdb;">Policy Insights and Conclusion</text><g transform="matrix(50,0,0,50,2059.35,1324.44)"></g><text x="1614.68px" y="1324.44px" style="font-family:'ArialMT', 'Arial', sans-serif;font-size:50px;fill:#dbdbdb;">Scenario Simulation</text></g><g transform="matrix(-1.16454e-17,1,-1,-9.43353e-17,5892.62,-4693.07)"><g transform="matrix(50,0,0,50,5772.14,2308.55)"></g><text x="5591.52px" y="2308.55px" style="font-family:'ArialMT', 'Arial', sans-serif;font-size:50px;stroke:#dbdbdb;stroke-width:1px;stroke-linecap:butt;stroke-miterlimit:2;">Practice</text></g><path d="M3556.63,582.677l-23.622,0l-0,-582.677l23.622,-0l-0,582.677Z" style="fill:#c5e5de;"/></g></svg>