<?xml version="1.0" encoding="UTF-8" standalone="no"?><!DOCTYPE svg PUBLIC "-//W3C//DTD SVG 1.1//EN" "http://www.w3.org/Graphics/SVG/1.1/DTD/svg11.dtd"><svg width="100%" height="100%" viewBox="0 0 909 331" version="1.1" xmlns="http://www.w3.org/2000/svg" xmlns:xlink="http://www.w3.org/1999/xlink" xml:space="preserve" xmlns:serif="http://www.serif.com/" style="fill-rule:evenodd;clip-rule:evenodd;stroke-linejoin:round;stroke-miterlimit:2;"><rect id="Paper-02" serif:id="Paper 02" x="0" y="0" width="908.468" height="330.689" style="fill:none;"/><clipPath id="_clip1"><rect x="0" y="0" width="908.468" height="330.689"/></clipPath><g clip-path="url(#_clip1)"><path d="M855.511,330.656l-5.669,0l-1.921,-186.71l5.67,-0l1.92,186.71Zm-2.02,-2c-0,0 -1.88,-182.71 -1.88,-182.71l-1.669,-0c0,-0 1.879,182.71 1.879,182.71l1.67,0Z"/><path d="M883.864,330.656l-5.67,0l0,-87.733l5.67,0l-0,87.733Zm-2,-2l-0,-83.733l-1.67,0l0,83.733l1.67,0Z"/><g transform="matrix(-1.16454e-17,1,-1,-9.43353e-17,1414.23,-1126.34)"><g transform="matrix(12,0,0,12,1385.31,554.052)"></g><text x="1341.96px" y="554.052px" style="font-family:'ArialMT', 'Arial', sans-serif;font-size:12px;stroke:#dbdbdb;stroke-width:0.24px;">Practice</text></g><g transform="matrix(-6.64688e-18,1,-1,-5.8259e-17,1543.48,-1057.63)"><g transform="matrix(12,0,0,12,1370.44,653.029)"></g><text x="1318.41px" y="653.029px" style="font-family:'ArialMT', 'Arial', sans-serif;font-size:12px;stroke:#dbdbdb;stroke-width:0.24px;">Synthesis</text></g><g id="paper01"><path d="M853.591,139.843l-5.67,-0l0,-139.843l5.67,-0l-0,139.843Zm-2,-2l-0,-135.843l-1.67,-0l0,135.843l1.67,-0Z"/><path d="M834.858,8.857l0,19.045l-262.445,-0l0,-19.045l262.445,0Zm-2,2c0,0 -234.317,0 -258.445,0l0,15.045c22.919,-0 235.527,-0 258.445,-0l0,-15.045Z" style="fill:#dbdbdb;"/><path d="M834.858,79.69l0,19.045l-262.445,0l0,-19.045l262.445,0Zm-2,2c0,0 -258.445,0 -258.445,0c0,0 0,15.045 0,15.045c24.128,0 258.445,0 258.445,0l0,-15.045Z" style="fill:#dbdbdb;"/><path d="M691.468,34.451l0,19.044l-119.055,0l0,-19.044l119.055,-0Zm-2,2c0,-0 -115.055,-0 -115.055,-0l0,15.044c14.293,0 100.763,0 115.055,0l0,-15.044Z" style="fill:#dbdbdb;"/><path d="M834.858,34.451l0,19.044l-119.055,0l0,-19.044l119.055,-0Zm-2,2c0,-0 -115.055,-0 -115.055,-0l0,15.044c15.44,0 115.055,0 115.055,0l0,-15.044Z" style="fill:#dbdbdb;"/><g transform="matrix(-1.11022e-16,1,-1,3.83476e-17,1270.28,-1270.28)"><g transform="matrix(12,0,0,12,1358.88,410.106)"></g><text x="1321.53px" y="410.106px" style="font-family:'ArialMT', 'Arial', sans-serif;font-size:12px;">Theory</text></g><path d="M706.636,73.69l-3,6l-3,-6c1.5,1.5 4.5,1.5 6,0Z" style="fill:#dbdbdb;"/><path d="M631.941,53.495l-0,12.821l71.695,0l-0,8.574" style="fill:none;stroke:#dbdbdb;stroke-width:1px;stroke-linecap:round;stroke-miterlimit:1.5;"/><path d="M706.636,73.69l-3,6l-3,-6c1.5,1.5 4.5,1.5 6,0Z" style="fill:#dbdbdb;"/><path d="M775.331,53.495l-0,12.821l-71.695,0l-0,8.574" style="fill:none;stroke:#dbdbdb;stroke-width:1px;stroke-linecap:round;stroke-miterlimit:1.5;"/><path d="M706.636,114.12l-3,6l-3,-6c1.5,1.5 4.5,1.5 6,0Z" style="fill:#dbdbdb;"/><path d="M703.636,98.735l-0,16.585" style="fill:none;stroke:#dbdbdb;stroke-width:1px;stroke-linecap:round;stroke-miterlimit:1.5;"/><g transform="matrix(12,0,0,12,792.681,93.5106)"></g><text x="614.591px" y="93.511px" style="font-family:'ArialMT', 'Arial', sans-serif;font-size:12px;fill:#dbdbdb;">Theory and Mechanism Selection</text><g transform="matrix(12,0,0,12,677.96,48.2709)"></g><text x="585.921px" y="48.271px" style="font-family:'ArialMT', 'Arial', sans-serif;font-size:12px;fill:#dbdbdb;">Theory Research</text><g transform="matrix(12,0,0,12,745.993,22.6774)"></g><text x="661.278px" y="22.677px" style="font-family:'ArialMT', 'Arial', sans-serif;font-size:12px;fill:#dbdbdb;">Literature Study</text><g transform="matrix(12,0,0,12,815.679,48.2709)"></g><text x="734.983px" y="48.271px" style="font-family:'ArialMT', 'Arial', sans-serif;font-size:12px;fill:#dbdbdb;">ABM Research</text></g><g id="Paper02"><path d="M521.154,120.12l0,19.045l-202.011,0l-0,-19.045l202.011,0Zm-2,2c0,0 -198.011,0 -198.011,0l-0,15.045c-0,0 198.011,0 198.011,0l0,-15.045Z" style="fill:#260000;"/><path d="M521.154,162.623l0,19.044l-202.011,0l-0,-19.044l202.011,-0Zm-2,2c0,-0 -177.143,-0 -198.011,-0l-0,15.044c-0,0 198.011,0 198.011,0l0,-15.044Z" style="fill:#260000;"/><path d="M774.441,162.668l-0,19.045l-202.012,0l0,-19.045l202.012,0Zm-2,2c-0,0 -177.144,0 -198.012,0l0,15.045c20.868,0 198.012,0 198.012,0l-0,-15.045Z" style="fill:#260000;"/><path d="M774.425,209.764l-0,19.045l-202.012,-0l0,-19.045l202.012,-0Zm-2,2c-0,-0 -198.012,-0 -198.012,-0l0,15.045c0,-0 198.012,-0 198.012,-0l-0,-15.045Z" style="fill:#260000;"/><path d="M834.858,256.905l0,19.045l-171.917,-0l0,-19.045l171.917,-0Zm-2,2c-17.88,-0 -150.036,-0 -167.917,-0l0,15.045c0,-0 167.917,-0 167.917,-0l0,-15.045Z" style="fill:#260000;"/><path d="M834.858,120.12l0,19.045l-262.445,0l0,-19.045l262.445,0Zm-2,2c0,0 -258.445,0 -258.445,0c0,0 0,15.045 0,15.045c0,0 258.445,0 258.445,0l0,-15.045Z" style="fill:#260000;"/><path d="M527.154,132.643l-6,-3l6,-3c-1.5,1.5 -1.5,4.5 0,6Z" style="fill:#060000;"/><path d="M572.413,129.643l-46.459,-0" style="fill:none;stroke:#060000;stroke-width:1px;stroke-linecap:round;stroke-miterlimit:1.5;"/><path d="M566.413,169.191l6,3l-6,3c1.5,-1.5 1.5,-4.5 0,-6Z" style="fill:#060000;"/><path d="M521.154,172.191l46.459,-0" style="fill:none;stroke:#060000;stroke-width:1px;stroke-linecap:round;stroke-miterlimit:1.5;"/><path d="M423.149,156.623l-3,6l-3,-6c1.5,1.5 4.5,1.5 6,-0Z" style="fill:#060000;"/><path d="M420.149,139.165l-0,18.658" style="fill:none;stroke:#060000;stroke-width:1px;stroke-linecap:round;stroke-miterlimit:1.5;"/><path d="M676.435,203.764l-3,6l-3,-6c1.5,1.5 4.5,1.5 6,-0Z" style="fill:#060000;"/><path d="M673.435,181.667l0,23.297" style="fill:none;stroke:#060000;stroke-width:1px;stroke-linecap:round;stroke-miterlimit:1.5;"/><path d="M734.352,250.971l-3,6l-3,-6c1.5,1.5 4.5,1.5 6,0Z" style="fill:#060000;"/><path d="M731.352,228.875l0,23.296" style="fill:none;stroke:#060000;stroke-width:1px;stroke-linecap:round;stroke-miterlimit:1.5;"/><g transform="matrix(12,0,0,12,499.523,133.94)"></g><text x="340.774px" y="133.94px" style="font-family:'ArialMT', 'Arial', sans-serif;font-size:12px;">Model Design &amp; Development</text><g transform="matrix(12,0,0,12,752.138,176.489)"></g><text x="594.732px" y="176.489px" style="font-family:'ArialMT', 'Arial', sans-serif;font-size:12px;">Prototype Model Optimisation</text><g transform="matrix(12,0,0,12,498.181,176.443)"></g><text x="342.116px" y="176.443px" style="font-family:'ArialMT', 'Arial', sans-serif;font-size:12px;">Single City Model (Prototype)</text><g transform="matrix(12,0,0,12,794.336,133.94)"></g><text x="612.936px" y="133.94px" style="font-family:'ArialMT', 'Arial', sans-serif;font-size:12px;">Conceptual Framework Formation</text><g transform="matrix(12,0,0,12,746.796,223.584)"></g><text x="600.042px" y="223.584px" style="font-family:'ArialMT', 'Arial', sans-serif;font-size:12px;">Prototype Model Evaluation</text><g transform="matrix(12,0,0,12,816.611,270.725)"></g><text x="681.189px" y="270.725px" style="font-family:'ArialMT', 'Arial', sans-serif;font-size:12px;">Conclusion on Groningen</text></g><g id="Paper03"><path d="M205.811,162.623l0,19.044l-202.012,0l0,-19.044l202.012,-0Zm-2,2c-19.677,-0 -178.335,-0 -198.012,-0l0,15.044c0,0 198.012,0 198.012,0l0,-15.044Z" style="fill:#dbdbdb;"/><path d="M205.811,209.764l0,19.045l-202.012,-0l0,-19.045l202.012,-0Zm-2,2c0,-0 -198.012,-0 -198.012,-0l0,15.045c0,-0 198.012,-0 198.012,-0l0,-15.045Z" style="fill:#dbdbdb;"/><path d="M521.154,209.764l0,19.045l-202.011,-0l-0,-19.045l202.011,-0Zm-2,2c0,-0 -198.011,-0 -198.011,-0l-0,15.045c-0,-0 198.011,-0 198.011,-0l0,-15.045Z" style="fill:#dbdbdb;"/><path d="M298.701,162.623l-0,19.044l-72.448,0l0,-19.044l72.448,-0Zm-2,2c-10.384,-0 -58.064,-0 -68.448,-0l0,15.044c11.476,0 68.448,0 68.448,0l-0,-15.044Z" style="fill:#dbdbdb;"/><path d="M618.931,256.905l-0,19.045l-184.731,-0l-0,-19.045l184.731,-0Zm-2,2c-0,-0 -180.731,-0 -180.731,-0l-0,15.045c-0,-0 180.731,-0 180.731,-0l-0,-15.045Z" style="fill:#dbdbdb;"/><path d="M313.143,216.286l6,3l-6,3c1.5,-1.5 1.5,-4.5 -0,-6Z" style="fill:#dbdbdb;"/><path d="M205.752,219.286l108.591,0" style="fill:none;stroke:#dbdbdb;stroke-width:1px;stroke-linecap:round;stroke-miterlimit:1.5;"/><path d="M211.811,175.145l-6,-3l6,-3c-1.5,1.5 -1.5,4.5 0,6Z" style="fill:#dbdbdb;"/><path d="M226.253,172.145l-15.642,0" style="fill:none;stroke:#dbdbdb;stroke-width:1px;stroke-linecap:round;stroke-miterlimit:1.5;"/><path d="M107.805,203.764l-3,6l-3,-6c1.5,1.5 4.5,1.5 6,-0Z" style="fill:#dbdbdb;"/><path d="M104.805,181.667l0,23.297" style="fill:none;stroke:#dbdbdb;stroke-width:1px;stroke-linecap:round;stroke-miterlimit:1.5;"/><path d="M349.021,250.905l-3,6l-3,-6c1.5,1.5 4.5,1.5 6,-0Z" style="fill:#dbdbdb;"/><path d="M346.021,228.809l-0,23.296" style="fill:none;stroke:#dbdbdb;stroke-width:1px;stroke-linecap:round;stroke-miterlimit:1.5;"/><path d="M481.906,250.971l-3,6l-3,-6c1.5,1.5 4.5,1.5 6,0Z" style="fill:#dbdbdb;"/><path d="M478.906,228.875l-0,23.296" style="fill:none;stroke:#dbdbdb;stroke-width:1px;stroke-linecap:round;stroke-miterlimit:1.5;"/><path d="M304.701,175.145l-6,-3l6,-3c-1.5,1.5 -1.5,4.5 -0,6Z" style="fill:#dbdbdb;"/><path d="M319.143,172.145l-15.642,0" style="fill:none;stroke:#dbdbdb;stroke-width:1px;stroke-linecap:round;stroke-miterlimit:1.5;"/><g transform="matrix(12,0,0,12,190.182,176.443)"></g><text x="19.428px" y="176.443px" style="font-family:'ArialMT', 'Arial', sans-serif;font-size:12px;fill:#dbdbdb;">National Scale Model (Baseline)</text><g transform="matrix(12,0,0,12,490.859,223.584)"></g><text x="349.438px" y="223.584px" style="font-family:'ArialMT', 'Arial', sans-serif;font-size:12px;fill:#dbdbdb;">Baseline Model Evaluation</text><g transform="matrix(12,0,0,12,180.842,223.584)"></g><text x="28.768px" y="223.584px" style="font-family:'ArialMT', 'Arial', sans-serif;font-size:12px;fill:#dbdbdb;">Baseline Model Optimisation</text><g transform="matrix(12,0,0,12,393.763,270.725)"></g><text x="229.659px" y="270.725px" style="font-family:'ArialMT', 'Arial', sans-serif;font-size:12px;fill:#dbdbdb;">Conclusion on the Netherlands</text><g transform="matrix(12,0,0,12,284.154,176.443)"></g><text x="240.8px" y="176.443px" style="font-family:'ArialMT', 'Arial', sans-serif;font-size:12px;fill:#dbdbdb;">Upscale</text><g transform="matrix(12,0,0,12,593.831,270.725)"></g><text x="459.3px" y="270.725px" style="font-family:'ArialMT', 'Arial', sans-serif;font-size:12px;fill:#dbdbdb;">V<tspan x="466.413px 473.087px " y="270.725px 270.725px ">al</tspan>idated Baseline Model</text></g><g id="Paper04"><path d="M340.171,304.046l-0,19.045l-119.944,0l-0,-19.045l119.944,0Zm-2,2c-0,0 -115.944,0 -115.944,0l-0,15.045c-0,0 115.944,0 115.944,0l-0,-15.045Z" style="fill:#dbdbdb;"/><path d="M403.618,256.905l0,19.045l-183.815,-0l0,-19.045l183.815,-0Zm-2,2c0,-0 -160.022,-0 -179.815,-0l0,15.045c0,-0 179.815,-0 179.815,-0l0,-15.045Z" style="fill:#dbdbdb;"/><path d="M160.873,304.046l0,19.045l-156.661,0l0,-19.045l156.661,0Zm-2,2c0,0 -152.661,0 -152.661,0l0,15.045c16.91,0 135.751,0 152.661,0l0,-15.045Z" style="fill:#dbdbdb;"/><path d="M185.527,256.82l-0,19.045l-181.315,0l0,-19.045l181.315,0Zm-2,2c-0,0 -157.675,0 -177.315,0l0,15.045c0,0 177.315,0 177.315,0l-0,-15.045Z" style="fill:#dbdbdb;"/><path d="M726.328,304.046l-0,19.045l-184.732,0l0,-19.045l184.732,0Zm-2,2c-0,0 -180.732,0 -180.732,0l0,15.045c0,0 180.732,0 180.732,0l-0,-15.045Z" style="fill:#dbdbdb;"/><path d="M503.876,304.046l0,19.045l-125.985,0l-0,-19.045l125.985,0Zm-2,2c0,0 -121.985,0 -121.985,0l-0,15.045c15.955,0 121.985,0 121.985,0l0,-15.045Z" style="fill:#dbdbdb;"/><path d="M509.876,316.569l-6,-3l6,-3c-1.5,1.5 -1.5,4.5 0,6Z" style="fill:#dbdbdb;"/><path d="M541.596,313.569l-32.92,-0" style="fill:none;stroke:#dbdbdb;stroke-width:1px;stroke-linecap:round;stroke-miterlimit:1.5;"/><path d="M346.171,316.569l-6,-3l6,-3c-1.5,1.5 -1.5,4.5 -0,6Z" style="fill:#dbdbdb;"/><path d="M377.891,313.569l-32.92,-0" style="fill:none;stroke:#dbdbdb;stroke-width:1px;stroke-linecap:round;stroke-miterlimit:1.5;"/><path d="M166.873,316.569l-6,-3l6,-3c-1.5,1.5 -1.5,4.5 0,6Z" style="fill:#dbdbdb;"/><path d="M220.227,313.569l-54.554,-0" style="fill:none;stroke:#dbdbdb;stroke-width:1px;stroke-linecap:round;stroke-miterlimit:1.5;"/><path d="M573.575,298.046l-3,6l-3,-6c1.5,1.5 4.5,1.5 6,0Z" style="fill:#dbdbdb;"/><path d="M570.575,275.95l0,23.296" style="fill:none;stroke:#dbdbdb;stroke-width:1px;stroke-linecap:round;stroke-miterlimit:1.5;"/><path d="M79.543,281.95l3,-6l3,6c-1.5,-1.5 -4.5,-1.5 -6,-0Z" style="fill:#dbdbdb;"/><path d="M82.543,304.046l-0,-23.296" style="fill:none;stroke:#dbdbdb;stroke-width:1px;stroke-linecap:round;stroke-miterlimit:1.5;"/><g transform="matrix(12,0,0,12,330.897,317.866)"></g><text x="229.501px" y="317.866px" style="font-family:'ArialMT', 'Arial', sans-serif;font-size:12px;fill:#dbdbdb;">Outputs Evaluation</text><g transform="matrix(12,0,0,12,704.547,317.866)"></g><text x="563.377px" y="317.866px" style="font-family:'ArialMT', 'Arial', sans-serif;font-size:12px;fill:#dbdbdb;">Policy Parameter V<tspan x="665.19px 671.863px " y="317.866px 317.866px ">ar</tspan>iation</text><g transform="matrix(12,0,0,12,131.896,317.866)"></g><text x="33.189px" y="317.866px" style="font-family:'ArialMT', 'Arial', sans-serif;font-size:12px;fill:#dbdbdb;">Optimal Strategies</text><g transform="matrix(12,0,0,12,176.247,270.641)"></g><text x="13.491px" y="270.641px" style="font-family:'ArialMT', 'Arial', sans-serif;font-size:12px;fill:#dbdbdb;">Policy Insights and Conclusion</text><g transform="matrix(12,0,0,12,494.245,317.866)"></g><text x="387.522px" y="317.866px" style="font-family:'ArialMT', 'Arial', sans-serif;font-size:12px;fill:#dbdbdb;">Scenario Simulation</text></g></g></svg>