<?xml version="1.0" encoding="UTF-8" standalone="no"?><!DOCTYPE svg PUBLIC "-//W3C//DTD SVG 1.1//EN" "http://www.w3.org/Graphics/SVG/1.1/DTD/svg11.dtd"><svg width="100%" height="100%" viewBox="0 0 2481 1330" version="1.1" xmlns="http://www.w3.org/2000/svg" xmlns:xlink="http://www.w3.org/1999/xlink" xml:space="preserve" xmlns:serif="http://www.serif.com/" style="fill-rule:evenodd;clip-rule:evenodd;stroke-linecap:round;stroke-linejoin:round;stroke-miterlimit:1.5;"><rect id="DataEngagement" x="0" y="0" width="2480.32" height="1329.97" style="fill:none;"/><g transform="matrix(41.6667,0,0,41.6667,501.044,631.894)"></g><text x="37.848px" y="631.894px" style="font-family:'ArialMT', 'Arial', sans-serif;font-size:41.667px;">Environment Initialisation</text><g transform="matrix(41.6667,0,0,41.6667,664.412,736.188)"></g><text x="351.83px" y="736.188px" style="font-family:'Arial-BoldMT', 'Arial', sans-serif;font-weight:700;font-size:41.667px;">01. Initialisation</text><g transform="matrix(41.6667,0,0,41.6667,2100.48,736.188)"></g><text x="1662.94px" y="736.188px" style="font-family:'Arial-BoldMT', 'Arial', sans-serif;font-weight:700;font-size:41.667px;">02. Output Generation</text><g transform="matrix(41.6667,0,0,41.6667,2223.85,1293.06)"></g><text x="1825.61px" y="1293.06px" style="font-family:'Arial-BoldMT', 'Arial', sans-serif;font-weight:700;font-size:41.667px;">03. Model V<tspan x="2052.54px 2075.71px " y="1293.06px 1293.06px ">al</tspan>idation</text><g transform="matrix(41.6667,0,0,41.6667,1300.23,1293.06)"></g><text x="922.81px" y="1293.06px" style="font-family:'Arial-BoldMT', 'Arial', sans-serif;font-weight:700;font-size:41.667px;">04. Model V<tspan x="1149.74px 1172.91px " y="1293.06px 1293.06px ">ar</tspan>iation</text><g transform="matrix(41.6667,0,0,41.6667,996.691,631.894)"></g><text x="681.709px" y="631.894px" style="font-family:'ArialMT', 'Arial', sans-serif;font-size:41.667px;">Rule Initialisation</text><g transform="matrix(41.6667,0,0,41.6667,1684.98,631.894)"></g><text x="1490.44px" y="631.894px" style="font-family:'ArialMT', 'Arial', sans-serif;font-size:41.667px;">Simulation</text><g transform="matrix(41.6667,0,0,41.6667,2137.96,1187.3)"></g><text x="1886.31px" y="1187.3px" style="font-family:'ArialMT', 'Arial', sans-serif;font-size:41.667px;">V<tspan x="1911.01px 1934.18px " y="1187.3px 1187.3px ">al</tspan>idity check</text><g transform="matrix(41.6667,0,0,41.6667,1276.11,1187.3)"></g><text x="921.739px" y="1187.3px" style="font-family:'ArialMT', 'Arial', sans-serif;font-size:41.667px;">Scenario Modelling</text><g transform="matrix(41.6667,0,0,41.6667,2409.83,631.894)"></g><text x="2053.2px" y="631.894px" style="font-family:'ArialMT', 'Arial', sans-serif;font-size:41.667px;">Model Optimisation</text><g><ellipse cx="137.926" cy="45.092" rx="85.408" ry="18.613" style="fill:none;stroke:#e50505;stroke-width:4.17px;"/><path d="M223.334,45.092l-0,153.428l-170.816,0l-0,-153.428c-0,10.273 38.27,18.613 85.408,18.613c47.138,-0 85.408,-8.34 85.408,-18.613Z" style="fill:none;stroke:#e50505;stroke-width:4.17px;"/><g transform="matrix(33.3333,0,0,33.3333,216.718,156.753)"></g><text x="59.28px" y="156.753px" style="font-family:'Arial-BoldMT', 'Arial', sans-serif;font-weight:700;font-size:33.333px;">Microdata</text></g><g><ellipse cx="1606.39" cy="132.756" rx="12.292" ry="2.679" style="fill:none;stroke:#e50505;stroke-width:0.83px;"/><path d="M1618.68,132.756l0,22.081l-24.584,0l0,-22.081c0,1.478 5.508,2.679 12.292,2.679c6.784,-0 12.292,-1.201 12.292,-2.679Z" style="fill:none;stroke:#e50505;stroke-width:0.83px;"/></g><g><ellipse cx="1306.89" cy="236.49" rx="12.292" ry="2.679" style="fill:none;stroke:#e50505;stroke-width:0.83px;"/><path d="M1319.18,236.49l-0,22.081l-24.584,0l-0,-22.081c-0,1.478 5.508,2.679 12.292,2.679c6.784,-0 12.292,-1.201 12.292,-2.679Z" style="fill:none;stroke:#e50505;stroke-width:0.83px;"/></g><g><ellipse cx="1606.39" cy="909.297" rx="12.292" ry="2.679" style="fill:none;stroke:#e50505;stroke-width:0.83px;"/><path d="M1618.68,909.297l0,22.081l-24.584,0l0,-22.081c0,1.478 5.508,2.679 12.292,2.679c6.784,-0 12.292,-1.201 12.292,-2.679Z" style="fill:none;stroke:#e50505;stroke-width:0.83px;"/></g><g><ellipse cx="415.624" cy="45.092" rx="85.408" ry="18.613" style="fill:none;stroke:#e50505;stroke-width:4.17px;"/><path d="M501.032,45.092l0,153.428l-170.816,0l0,-153.428c0,10.273 38.27,18.613 85.408,18.613c47.138,-0 85.408,-8.34 85.408,-18.613Z" style="fill:none;stroke:#e50505;stroke-width:4.17px;"/><g transform="matrix(1,0,0,1,241.086,-3260.83)"><text x="119.965px" y="3400.37px" style="font-family:'Arial-BoldMT', 'Arial', sans-serif;font-weight:700;font-size:33.333px;">Spatial</text><g transform="matrix(33.3333,0,0,33.3333,208.881,3434.79)"></g><text x="140.343px" y="3434.79px" style="font-family:'Arial-BoldMT', 'Arial', sans-serif;font-weight:700;font-size:33.333px;">data</text></g></g><path d="M513.334,231.182l-0,27.659c-0,7.633 -6.197,13.83 -13.83,13.83l-167.759,-0c-7.633,-0 -13.83,-6.197 -13.83,-13.83l-0,-27.659c-0,-7.633 6.197,-13.829 13.83,-13.829l167.759,-0c7.633,-0 13.83,6.196 13.83,13.829Z" style="fill:#fafafa;"/><clipPath id="_clip1"><path d="M513.334,231.182l-0,27.659c-0,7.633 -6.197,13.83 -13.83,13.83l-167.759,-0c-7.633,-0 -13.83,-6.197 -13.83,-13.83l-0,-27.659c-0,-7.633 6.197,-13.829 13.83,-13.829l167.759,-0c7.633,-0 13.83,6.196 13.83,13.829Z"/></clipPath><g clip-path="url(#_clip1)"><g transform="matrix(33.3333,0,0,33.3333,509.187,256.95)"></g><text x="322.062px" y="256.95px" style="font-family:'ArialMT', 'Arial', sans-serif;font-size:33.333px;fill:#231f20;">Environment</text></g><path d="M223.334,231.182l-0,27.659c-0,7.633 -6.197,13.83 -13.83,13.83l-143.157,-0c-7.632,-0 -13.829,-6.197 -13.829,-13.83l-0,-27.659c-0,-7.633 6.197,-13.829 13.829,-13.829l143.157,-0c7.633,-0 13.83,6.196 13.83,13.829Z" style="fill:#fafafa;"/><clipPath id="_clip2"><path d="M223.334,231.182l-0,27.659c-0,7.633 -6.197,13.83 -13.83,13.83l-143.157,-0c-7.632,-0 -13.829,-6.197 -13.829,-13.83l-0,-27.659c-0,-7.633 6.197,-13.829 13.829,-13.829l143.157,-0c7.633,-0 13.83,6.196 13.83,13.829Z"/></clipPath><g clip-path="url(#_clip2)"><g transform="matrix(33.3333,0,0,33.3333,217.613,256.95)"></g><text x="58.238px" y="256.95px" style="font-family:'ArialMT', 'Arial', sans-serif;font-size:33.333px;fill:#231f20;">Household</text></g><path d="M1644.05,232.832l-0,27.659c-0,7.632 -6.197,13.829 -13.83,13.829l-143.157,0c-7.632,0 -13.829,-6.197 -13.829,-13.829l-0,-27.659c-0,-7.633 6.197,-13.83 13.829,-13.83l143.157,-0c7.633,-0 13.83,6.197 13.83,13.83Z" style="fill:#d0d0d0;"/><clipPath id="_clip3"><path d="M1644.05,232.832l-0,27.659c-0,7.632 -6.197,13.829 -13.83,13.829l-143.157,0c-7.632,0 -13.829,-6.197 -13.829,-13.829l-0,-27.659c-0,-7.633 6.197,-13.83 13.829,-13.83l143.157,-0c7.633,-0 13.83,6.197 13.83,13.83Z"/></clipPath><g clip-path="url(#_clip3)"><g transform="matrix(33.3333,0,0,33.3333,1613.29,258.6)"></g><text x="1503.98px" y="258.6px" style="font-family:'ArialMT', 'Arial', sans-serif;font-size:33.333px;fill:#231f20;">Actions</text></g><path d="M1731.06,413.09l-0,27.66c-0,7.632 -6.197,13.829 -13.83,13.829l-317.193,0c-7.633,0 -13.829,-6.197 -13.829,-13.829l-0,-27.66c-0,-7.632 6.196,-13.829 13.829,-13.829l317.193,-0c7.633,-0 13.83,6.197 13.83,13.829Z" style="fill:#d0d0d0;"/><clipPath id="_clip4"><path d="M1731.06,413.09l-0,27.66c-0,7.632 -6.197,13.829 -13.83,13.829l-317.193,0c-7.633,0 -13.829,-6.197 -13.829,-13.829l-0,-27.66c-0,-7.632 6.196,-13.829 13.829,-13.829l317.193,-0c7.633,-0 13.83,6.197 13.83,13.829Z"/></clipPath><g clip-path="url(#_clip4)"><g transform="matrix(33.3333,0,0,33.3333,1711.47,438.858)"></g><text x="1405.81px" y="438.858px" style="font-family:'ArialMT', 'Arial', sans-serif;font-size:33.333px;fill:#231f20;">Collective Outcomes</text></g><path d="M2396.35,84.129l-0,27.66c-0,7.632 -6.197,13.829 -13.83,13.829l-317.193,0c-7.633,0 -13.829,-6.197 -13.829,-13.829l-0,-27.66c-0,-7.632 6.196,-13.829 13.829,-13.829l317.193,-0c7.633,-0 13.83,6.197 13.83,13.829Z" style="fill:#fafafa;"/><clipPath id="_clip5"><path d="M2396.35,84.129l-0,27.66c-0,7.632 -6.197,13.829 -13.83,13.829l-317.193,0c-7.633,0 -13.829,-6.197 -13.829,-13.829l-0,-27.66c-0,-7.632 6.196,-13.829 13.829,-13.829l317.193,-0c7.633,-0 13.83,6.197 13.83,13.829Z"/></clipPath><g clip-path="url(#_clip5)"><g transform="matrix(33.3333,0,0,33.3333,2374.91,109.897)"></g><text x="2072.94px" y="109.897px" style="font-family:'ArialMT', 'Arial', sans-serif;font-size:33.333px;fill:#231f20;">Desirable Outcomes</text></g><path d="M1969.8,1051.27l-0,27.659c-0,7.632 -6.197,13.829 -13.83,13.829l-317.193,0c-7.633,0 -13.83,-6.197 -13.83,-13.829l0,-27.659c0,-7.633 6.197,-13.83 13.83,-13.83l317.193,-0c7.633,-0 13.83,6.197 13.83,13.83Z" style="fill:#fafafa;"/><clipPath id="_clip6"><path d="M1969.8,1051.27l-0,27.659c-0,7.632 -6.197,13.829 -13.83,13.829l-317.193,0c-7.633,0 -13.83,-6.197 -13.83,-13.829l0,-27.659c0,-7.633 6.197,-13.83 13.83,-13.83l317.193,-0c7.633,-0 13.83,6.197 13.83,13.83Z"/></clipPath><g clip-path="url(#_clip6)"><g transform="matrix(33.3333,0,0,33.3333,1950.21,1077.03)"></g><text x="1644.54px" y="1077.04px" style="font-family:'ArialMT', 'Arial', sans-serif;font-size:33.333px;fill:#231f20;">Collective Outcomes</text></g><path d="M1969.8,126.33l-0,27.659c-0,7.632 -6.197,13.829 -13.83,13.829l-317.193,0c-7.633,0 -13.83,-6.197 -13.83,-13.829l0,-27.659c0,-7.633 6.197,-13.83 13.83,-13.83l317.193,0c7.633,0 13.83,6.197 13.83,13.83Z" style="fill:#fafafa;"/><clipPath id="_clip7"><path d="M1969.8,126.33l-0,27.659c-0,7.632 -6.197,13.829 -13.83,13.829l-317.193,0c-7.633,0 -13.83,-6.197 -13.83,-13.829l0,-27.659c0,-7.633 6.197,-13.83 13.83,-13.83l317.193,0c7.633,0 13.83,6.197 13.83,13.83Z"/></clipPath><g clip-path="url(#_clip7)"><g transform="matrix(33.3333,0,0,33.3333,1937.25,152.098)"></g><text x="1657.5px" y="152.098px" style="font-family:'ArialMT', 'Arial', sans-serif;font-size:33.333px;fill:#231f20;">Empirical evidence</text></g><path d="M1969.8,126.33l-0,27.659c-0,7.632 -6.197,13.829 -13.83,13.829l-317.193,0c-7.633,0 -13.83,-6.197 -13.83,-13.829l0,-27.659c0,-7.633 6.197,-13.83 13.83,-13.83l317.193,0c7.633,0 13.83,6.197 13.83,13.83Z" style="fill:none;stroke:#ff0039;stroke-width:4.17px;"/><path d="M1969.8,902.686l-0,27.659c-0,7.633 -6.197,13.83 -13.83,13.83l-317.193,0c-7.633,0 -13.83,-6.197 -13.83,-13.83l0,-27.659c0,-7.632 6.197,-13.829 13.83,-13.829l317.193,-0c7.633,-0 13.83,6.197 13.83,13.829Z" style="fill:#fafafa;"/><clipPath id="_clip8"><path d="M1969.8,902.686l-0,27.659c-0,7.633 -6.197,13.83 -13.83,13.83l-317.193,0c-7.633,0 -13.83,-6.197 -13.83,-13.83l0,-27.659c0,-7.632 6.197,-13.829 13.83,-13.829l317.193,-0c7.633,-0 13.83,6.197 13.83,13.829Z"/></clipPath><g clip-path="url(#_clip8)"><g transform="matrix(33.3333,0,0,33.3333,1941.88,928.454)"></g><text x="1652.87px" y="928.454px" style="font-family:'ArialMT', 'Arial', sans-serif;font-size:33.333px;fill:#231f20;">Empirical  evidence</text></g><path d="M1969.8,902.686l-0,27.659c-0,7.633 -6.197,13.83 -13.83,13.83l-317.193,0c-7.633,0 -13.83,-6.197 -13.83,-13.83l0,-27.659c0,-7.632 6.197,-13.829 13.83,-13.829l317.193,-0c7.633,-0 13.83,6.197 13.83,13.829Z" style="fill:none;stroke:#ff0039;stroke-width:4.17px;"/><path d="M1078.81,500.735l0,27.659c0,7.633 -6.197,13.83 -13.829,13.83l-338.601,-0c-7.632,-0 -13.829,-6.197 -13.829,-13.83l-0,-27.659c-0,-7.633 6.197,-13.829 13.829,-13.829l338.601,-0c7.632,-0 13.829,6.196 13.829,13.829Z" style="fill:#d0d0d0;"/><clipPath id="_clip9"><path d="M1078.81,500.735l0,27.659c0,7.633 -6.197,13.83 -13.829,13.83l-338.601,-0c-7.632,-0 -13.829,-6.197 -13.829,-13.83l-0,-27.659c-0,-7.633 6.197,-13.829 13.829,-13.829l338.601,-0c7.632,-0 13.829,6.196 13.829,13.829Z"/></clipPath><g clip-path="url(#_clip9)"><g transform="matrix(33.3333,0,0,33.3333,989.225,526.503)"></g><text x="802.132px" y="526.503px" style="font-family:'ArialMT', 'Arial', sans-serif;font-size:33.333px;fill:#231f20;">Mechanisms</text></g><path d="M851.554,474.406l-6.25,12.5l-6.25,-12.5c3.125,3.125 9.375,3.125 12.5,-0Z"/><path d="M712.549,399.261l-0,39.892l132.755,0l0,37.753" style="fill:none;stroke:#000;stroke-width:0.83px;"/><path d="M223.334,245.012l94.581,-0" style="fill:none;stroke:#000;stroke-width:0.83px;"/><path d="M425.842,479.596l-0,27.659c-0,7.632 -6.197,13.829 -13.83,13.829l-270.474,0c-7.633,0 -13.829,-6.197 -13.829,-13.829l-0,-27.659c-0,-7.633 6.196,-13.83 13.829,-13.83l270.474,-0c7.633,-0 13.83,6.197 13.83,13.83Z" style="fill:#fafafa;"/><clipPath id="_clip10"><path d="M425.842,479.596l-0,27.659c-0,7.632 -6.197,13.829 -13.83,13.829l-270.474,0c-7.633,0 -13.829,-6.197 -13.829,-13.829l-0,-27.659c-0,-7.633 6.196,-13.83 13.829,-13.83l270.474,-0c7.633,-0 13.83,6.197 13.83,13.83Z"/></clipPath><g clip-path="url(#_clip10)"><g transform="matrix(33.3333,0,0,33.3333,421.298,505.364)"></g><text x="132.252px" y="505.364px" style="font-family:'ArialMT', 'Arial', sans-serif;font-size:33.333px;fill:#231f20;">Registered address</text></g><path d="M323.855,1155.89l-0,27.659c-0,7.633 -6.197,13.83 -13.83,13.83l-270.474,-0c-7.633,-0 -13.829,-6.197 -13.829,-13.83l-0,-27.659c-0,-7.633 6.196,-13.83 13.829,-13.83l270.474,0c7.633,0 13.83,6.197 13.83,13.83Z" style="fill:#d0d0d0;"/><clipPath id="_clip11"><path d="M323.855,1155.89l-0,27.659c-0,7.633 -6.197,13.83 -13.83,13.83l-270.474,-0c-7.633,-0 -13.829,-6.197 -13.829,-13.83l-0,-27.659c-0,-7.633 6.196,-13.83 13.829,-13.83l270.474,0c7.633,0 13.83,6.197 13.83,13.83Z"/></clipPath><g clip-path="url(#_clip11)"><g transform="matrix(33.3333,0,0,33.3333,210.913,1181.66)"></g><text x="138.663px" y="1181.66px" style="font-family:'ArialMT', 'Arial', sans-serif;font-size:33.333px;fill:#231f20;">Core</text></g><path d="M425.842,357.753l-0,27.659c-0,7.633 -6.197,13.83 -13.83,13.83l-270.474,-0c-7.633,-0 -13.829,-6.197 -13.829,-13.83l-0,-27.659c-0,-7.632 6.196,-13.829 13.829,-13.829l270.474,-0c7.633,-0 13.83,6.197 13.83,13.829Z" style="fill:#d0d0d0;"/><clipPath id="_clip12"><path d="M425.842,357.753l-0,27.659c-0,7.633 -6.197,13.83 -13.83,13.83l-270.474,-0c-7.633,-0 -13.829,-6.197 -13.829,-13.83l-0,-27.659c-0,-7.632 6.196,-13.829 13.829,-13.829l270.474,-0c7.633,-0 13.83,6.197 13.83,13.829Z"/></clipPath><g clip-path="url(#_clip12)"><g transform="matrix(33.3333,0,0,33.3333,408.318,383.521)"></g><text x="145.232px" y="383.521px" style="font-family:'ArialMT', 'Arial', sans-serif;font-size:33.333px;fill:#231f20;">Synthetic process</text></g><path d="M1291.21,108.722l-0,27.659c-0,7.633 -6.197,13.829 -13.83,13.829l-317.72,0c-7.633,0 -13.83,-6.196 -13.83,-13.829l0,-27.659c0,-7.633 6.197,-13.83 13.83,-13.83l317.72,0c7.633,0 13.83,6.197 13.83,13.83Z" style="fill:#fafafa;"/><clipPath id="_clip13"><path d="M1291.21,108.722l-0,27.659c-0,7.633 -6.197,13.829 -13.83,13.829l-317.72,0c-7.633,0 -13.83,-6.196 -13.83,-13.829l0,-27.659c0,-7.633 6.197,-13.83 13.83,-13.83l317.72,0c7.633,0 13.83,6.197 13.83,13.83Z"/></clipPath><g clip-path="url(#_clip13)"><g transform="matrix(33.3333,0,0,33.3333,1247.3,134.49)"></g><text x="989.749px" y="134.49px" style="font-family:'ArialMT', 'Arial', sans-serif;font-size:33.333px;fill:#231f20;">Probability-based</text></g><path d="M861.615,232.832l0,27.659c0,7.632 -6.196,13.829 -13.829,13.829l-270.474,0c-7.633,0 -13.83,-6.197 -13.83,-13.829l0,-27.659c0,-7.633 6.197,-13.83 13.83,-13.83l270.474,-0c7.633,-0 13.829,6.197 13.829,13.83Z" style="fill:#fafafa;"/><clipPath id="_clip14"><path d="M861.615,232.832l0,27.659c0,7.632 -6.196,13.829 -13.829,13.829l-270.474,0c-7.633,0 -13.83,-6.197 -13.83,-13.829l0,-27.659c0,-7.633 6.197,-13.83 13.83,-13.83l270.474,-0c7.633,-0 13.829,6.197 13.829,13.83Z"/></clipPath><g clip-path="url(#_clip14)"><g transform="matrix(33.3333,0,0,33.3333,764.421,258.6)"></g><text x="660.677px" y="258.6px" style="font-family:'ArialMT', 'Arial', sans-serif;font-size:33.333px;fill:#231f20;">Theory</text></g><path d="M1291.21,233.662l-0,27.659c-0,7.633 -6.197,13.83 -13.83,13.83l-317.72,0c-7.633,0 -13.83,-6.197 -13.83,-13.83l0,-27.659c0,-7.632 6.197,-13.829 13.83,-13.829l317.72,-0c7.633,-0 13.83,6.197 13.83,13.829Z" style="fill:#d0d0d0;"/><clipPath id="_clip15"><path d="M1291.21,233.662l-0,27.659c-0,7.633 -6.197,13.83 -13.83,13.83l-317.72,0c-7.633,0 -13.83,-6.197 -13.83,-13.83l0,-27.659c0,-7.632 6.197,-13.829 13.83,-13.829l317.72,-0c7.633,-0 13.83,6.197 13.83,13.829Z"/></clipPath><g clip-path="url(#_clip15)"><g transform="matrix(33.3333,0,0,33.3333,1270.44,259.43)"></g><text x="966.612px" y="259.43px" style="font-family:'ArialMT', 'Arial', sans-serif;font-size:33.333px;fill:#231f20;">Statistical estimation</text></g><path d="M1291.21,233.662l-0,27.659c-0,7.633 -6.197,13.83 -13.83,13.83l-317.72,0c-7.633,0 -13.83,-6.197 -13.83,-13.83l0,-27.659c0,-7.632 6.197,-13.829 13.83,-13.829l317.72,-0c7.633,-0 13.83,6.197 13.83,13.829Z" style="fill:none;stroke:#ff0039;stroke-width:4.17px;"/><path d="M1291.21,357.772l-0,27.659c-0,7.633 -6.197,13.83 -13.83,13.83l-317.72,-0c-7.633,-0 -13.83,-6.197 -13.83,-13.83l0,-27.659c0,-7.633 6.197,-13.83 13.83,-13.83l317.72,0c7.633,0 13.83,6.197 13.83,13.83Z" style="fill:#fafafa;"/><clipPath id="_clip16"><path d="M1291.21,357.772l-0,27.659c-0,7.633 -6.197,13.83 -13.83,13.83l-317.72,-0c-7.633,-0 -13.83,-6.197 -13.83,-13.83l0,-27.659c0,-7.633 6.197,-13.83 13.83,-13.83l317.72,0c7.633,0 13.83,6.197 13.83,13.83Z"/></clipPath><g clip-path="url(#_clip16)"><g transform="matrix(33.3333,0,0,33.3333,1284.35,383.54)"></g><text x="952.696px" y="383.54px" style="font-family:'ArialMT', 'Arial', sans-serif;font-size:33.333px;fill:#231f20;">Rule-based estimation</text></g><path d="M2396.35,350.622l-0,27.659c-0,7.633 -6.197,13.83 -13.83,13.83l-317.72,-0c-7.633,-0 -13.83,-6.197 -13.83,-13.83l0,-27.659c0,-7.633 6.197,-13.829 13.83,-13.829l317.72,-0c7.633,-0 13.83,6.196 13.83,13.829Z" style="fill:#d0d0d0;"/><clipPath id="_clip17"><path d="M2396.35,350.622l-0,27.659c-0,7.633 -6.197,13.83 -13.83,13.83l-317.72,-0c-7.633,-0 -13.83,-6.197 -13.83,-13.83l0,-27.659c0,-7.633 6.197,-13.829 13.83,-13.829l317.72,-0c7.633,-0 13.83,6.196 13.83,13.829Z"/></clipPath><g clip-path="url(#_clip17)"><g transform="matrix(33.3333,0,0,33.3333,2303.33,376.39)"></g><text x="2143.99px" y="376.39px" style="font-family:'ArialMT', 'Arial', sans-serif;font-size:33.333px;fill:#231f20;">Calibration</text></g><path d="M2396.35,902.484l-0,27.659c-0,7.633 -6.197,13.83 -13.83,13.83l-317.72,-0c-7.633,-0 -13.83,-6.197 -13.83,-13.83l0,-27.659c0,-7.633 6.197,-13.83 13.83,-13.83l317.72,0c7.633,0 13.83,6.197 13.83,13.83Z" style="fill:#d0d0d0;"/><clipPath id="_clip18"><path d="M2396.35,902.484l-0,27.659c-0,7.633 -6.197,13.83 -13.83,13.83l-317.72,-0c-7.633,-0 -13.83,-6.197 -13.83,-13.83l0,-27.659c0,-7.633 6.197,-13.83 13.83,-13.83l317.72,0c7.633,0 13.83,6.197 13.83,13.83Z"/></clipPath><g clip-path="url(#_clip18)"><g transform="matrix(33.3333,0,0,33.3333,2295.62,928.252)"></g><text x="2151.69px" y="928.252px" style="font-family:'ArialMT', 'Arial', sans-serif;font-size:33.333px;fill:#231f20;">V<tspan x="2171.45px 2189.99px " y="928.252px 928.252px ">al</tspan>idation</text></g><path d="M2396.35,507.83l-0,27.66c-0,7.632 -6.197,13.829 -13.83,13.829l-317.72,0c-7.633,0 -13.83,-6.197 -13.83,-13.829l0,-27.66c0,-7.632 6.197,-13.829 13.83,-13.829l317.72,-0c7.633,-0 13.83,6.197 13.83,13.829Z" style="fill:#fafafa;"/><clipPath id="_clip19"><path d="M2396.35,507.83l-0,27.66c-0,7.632 -6.197,13.829 -13.83,13.829l-317.72,0c-7.633,0 -13.83,-6.197 -13.83,-13.829l0,-27.66c0,-7.632 6.197,-13.829 13.83,-13.829l317.72,-0c7.633,-0 13.83,6.197 13.83,13.829Z"/></clipPath><g clip-path="url(#_clip19)"><g transform="matrix(33.3333,0,0,33.3333,2373.73,533.598)"></g><text x="2073.58px" y="533.598px" style="font-family:'ArialMT', 'Arial', sans-serif;font-size:33.333px;fill:#231f20;">Modular generativity</text></g><path d="M2396.35,192.7l-0,27.659c-0,7.633 -6.197,13.83 -13.83,13.83l-317.72,-0c-7.633,-0 -13.83,-6.197 -13.83,-13.83l0,-27.659c0,-7.633 6.197,-13.83 13.83,-13.83l317.72,0c7.633,0 13.83,6.197 13.83,13.83Z" style="fill:#d0d0d0;"/><clipPath id="_clip20"><path d="M2396.35,192.7l-0,27.659c-0,7.633 -6.197,13.83 -13.83,13.83l-317.72,-0c-7.633,-0 -13.83,-6.197 -13.83,-13.83l0,-27.659c0,-7.633 6.197,-13.83 13.83,-13.83l317.72,0c7.633,0 13.83,6.197 13.83,13.83Z"/></clipPath><g clip-path="url(#_clip20)"><g transform="matrix(33.3333,0,0,33.3333,2388.53,218.468)"></g><text x="2058.78px" y="218.468px" style="font-family:'ArialMT', 'Arial', sans-serif;font-size:33.333px;fill:#231f20;">Optimal parameter set</text></g><path d="M938.403,969.038l0,-18.66" style="fill:none;stroke:#000;stroke-width:1px;"/><path d="M323.855,1249.11l-0,27.659c-0,7.633 -6.197,13.83 -13.83,13.83l-270.474,0c-7.633,0 -13.829,-6.197 -13.829,-13.83l-0,-27.659c-0,-7.632 6.196,-13.829 13.829,-13.829l270.474,-0c7.633,-0 13.83,6.197 13.83,13.829Z" style="fill:#fafafa;"/><clipPath id="_clip21"><path d="M323.855,1249.11l-0,27.659c-0,7.633 -6.197,13.83 -13.83,13.83l-270.474,0c-7.633,0 -13.829,-6.197 -13.829,-13.83l-0,-27.659c-0,-7.632 6.196,-13.829 13.829,-13.829l270.474,-0c7.633,-0 13.83,6.197 13.83,13.829Z"/></clipPath><g clip-path="url(#_clip21)"><g transform="matrix(33.3333,0,0,33.3333,233.162,1274.87)"></g><text x="116.414px" y="1274.87px" style="font-family:'ArialMT', 'Arial', sans-serif;font-size:33.333px;fill:#231f20;">Support</text></g><path d="M1111.09,908.889l0,27.659c0,7.633 -6.197,13.83 -13.829,13.83l-317.721,-0c-7.633,-0 -13.83,-6.197 -13.83,-13.83l0,-27.659c0,-7.633 6.197,-13.83 13.83,-13.83l317.721,0c7.632,0 13.829,6.197 13.829,13.83Z" style="fill:#fafafa;"/><clipPath id="_clip22"><path d="M1111.09,908.889l0,27.659c0,7.633 -6.197,13.83 -13.829,13.83l-317.721,-0c-7.633,-0 -13.83,-6.197 -13.83,-13.83l0,-27.659c0,-7.633 6.197,-13.83 13.83,-13.83l317.721,0c7.632,0 13.829,6.197 13.829,13.83Z"/></clipPath><g clip-path="url(#_clip22)"><g transform="matrix(33.3333,0,0,33.3333,858.732,934.657)"></g><g transform="matrix(33.3333,0,0,33.3333,867.993,934.657)"></g><g transform="matrix(33.3333,0,0,33.3333,1090.32,934.657)"></g><text x="786.483px" y="934.657px" style="font-family:'ArialMT', 'Arial', sans-serif;font-size:33.333px;fill:#231f20;">Modiﬁed parameters</text></g><path d="M2050.97,521.66l-972.159,-0" style="fill:none;stroke:#000;stroke-width:1px;stroke-dasharray:3,6,3,6,0,0;"/><path d="M2396.35,1051.27l-0,27.659c-0,7.632 -6.197,13.829 -13.83,13.829l-317.72,0c-7.633,0 -13.83,-6.197 -13.83,-13.829l0,-27.659c0,-7.633 6.197,-13.83 13.83,-13.83l317.72,-0c7.633,-0 13.83,6.197 13.83,13.83Z" style="fill:#d0d0d0;"/><clipPath id="_clip23"><path d="M2396.35,1051.27l-0,27.659c-0,7.632 -6.197,13.829 -13.83,13.829l-317.72,0c-7.633,0 -13.83,-6.197 -13.83,-13.829l0,-27.659c0,-7.633 6.197,-13.83 13.83,-13.83l317.72,-0c7.633,-0 13.83,6.197 13.83,13.83Z"/></clipPath><g clip-path="url(#_clip23)"><g transform="matrix(33.3333,0,0,33.3333,2298.68,1077.03)"></g><text x="2148.63px" y="1077.04px" style="font-family:'ArialMT', 'Arial', sans-serif;font-size:33.333px;fill:#231f20;">Sensitivity</text></g><path d="M885.239,357.772l-0,27.659c-0,7.633 -6.197,13.83 -13.83,13.83l-317.72,-0c-7.633,-0 -13.83,-6.197 -13.83,-13.83l-0,-27.659c-0,-7.633 6.197,-13.83 13.83,-13.83l317.72,0c7.633,0 13.83,6.197 13.83,13.83Z" style="fill:#d0d0d0;"/><clipPath id="_clip24"><path d="M885.239,357.772l-0,27.659c-0,7.633 -6.197,13.83 -13.83,13.83l-317.72,-0c-7.633,-0 -13.83,-6.197 -13.83,-13.83l-0,-27.659c-0,-7.633 6.197,-13.83 13.83,-13.83l317.72,0c7.633,0 13.83,6.197 13.83,13.83Z"/></clipPath><g clip-path="url(#_clip24)"><g transform="matrix(33.3333,0,0,33.3333,799.626,383.54)"></g><text x="625.472px" y="383.54px" style="font-family:'ArialMT', 'Arial', sans-serif;font-size:33.333px;fill:#231f20;">Assumption</text></g><path d="M1511.3,982.868l0,27.659c0,7.633 -6.197,13.83 -13.829,13.83l-317.721,-0c-7.633,-0 -13.829,-6.197 -13.829,-13.83l-0,-27.659c-0,-7.633 6.196,-13.83 13.829,-13.83l317.721,0c7.632,0 13.829,6.197 13.829,13.83Z" style="fill:#d0d0d0;"/><clipPath id="_clip25"><path d="M1511.3,982.868l0,27.659c0,7.633 -6.197,13.83 -13.829,13.83l-317.721,-0c-7.633,-0 -13.829,-6.197 -13.829,-13.83l-0,-27.659c-0,-7.633 6.196,-13.83 13.829,-13.83l317.721,0c7.632,0 13.829,6.197 13.829,13.83Z"/></clipPath><g clip-path="url(#_clip25)"><g transform="matrix(33.3333,0,0,33.3333,1452.57,1008.64)"></g><text x="1224.66px" y="1008.64px" style="font-family:'ArialMT', 'Arial', sans-serif;font-size:33.333px;fill:#231f20;">Baseline model</text></g><path d="M1111.09,982.868l0,27.659c0,7.633 -6.197,13.83 -13.829,13.83l-317.721,-0c-7.633,-0 -13.83,-6.197 -13.83,-13.83l0,-27.659c0,-7.633 6.197,-13.83 13.83,-13.83l317.721,0c7.632,0 13.829,6.197 13.829,13.83Z" style="fill:#d0d0d0;"/><clipPath id="_clip26"><path d="M1111.09,982.868l0,27.659c0,7.633 -6.197,13.83 -13.829,13.83l-317.721,-0c-7.633,-0 -13.83,-6.197 -13.83,-13.83l0,-27.659c0,-7.633 6.197,-13.83 13.83,-13.83l317.721,0c7.632,0 13.829,6.197 13.829,13.83Z"/></clipPath><g clip-path="url(#_clip26)"><g transform="matrix(33.3333,0,0,33.3333,1062.54,1008.64)"></g><text x="814.266px" y="1008.64px" style="font-family:'ArialMT', 'Arial', sans-serif;font-size:33.333px;fill:#231f20;">Scenario models</text></g><path d="M269.446,465.766l-0,-66.524" style="fill:none;stroke:#000;stroke-width:0.83px;"/><path d="M269.446,343.924l-0,-98.912" style="fill:none;stroke:#000;stroke-width:0.83px;"/><path d="M52.518,245.012l-12.561,-0l-0,248.413l88.03,0" style="fill:none;stroke:#000;stroke-width:0.83px;"/><path d="M718.799,331.442l-6.25,12.5l-6.25,-12.5c3.125,3.125 9.375,3.125 12.5,0Z"/><path d="M712.549,274.32l-0,59.622" style="fill:none;stroke:#000;stroke-width:0.83px;"/><path d="M1085.06,162.71l-6.25,-12.5l-6.25,12.5c3.125,-3.125 9.375,-3.125 12.5,0Z"/><path d="M1078.81,160.21l0,59.623" style="fill:none;stroke:#000;stroke-width:0.83px;"/><path d="M933.335,240.411l12.5,6.25l-12.5,6.25c3.125,-3.125 3.125,-9.375 0,-12.5Z"/><path d="M917.579,486.906l0,-240.245l18.256,0" style="fill:none;stroke:#000;stroke-width:0.83px;"/><path d="M933.335,365.352l12.5,6.25l-12.5,6.25c3.125,-3.125 3.125,-9.375 0,-12.5Z"/><path d="M917.579,486.906l0,-115.304l18.256,-0" style="fill:none;stroke:#000;stroke-width:0.83px;"/><path d="M1460.73,240.411l12.5,6.25l-12.5,6.25c3.125,-3.125 3.125,-9.375 -0,-12.5Z"/><path d="M1291.21,122.551l78.115,0l-0,124.11l93.9,0" style="fill:none;stroke:#000;stroke-width:0.83px;"/><path d="M1460.73,241.242l12.5,6.25l-12.5,6.25c3.125,-3.125 3.125,-9.375 -0,-12.5Z"/><path d="M1291.21,371.602l78.115,-0l-0,-124.11l93.9,-0" style="fill:none;stroke:#000;stroke-width:0.83px;"/><path d="M1564.89,386.761l-6.25,12.5l-6.25,-12.5c3.125,3.125 9.375,3.125 12.5,-0Z"/><path d="M1558.64,274.32l-0,114.941" style="fill:none;stroke:#000;stroke-width:0.83px;"/><path d="M1094.2,514.967l-15,-7.5l15,-7.5c-3.75,3.75 -3.75,11.25 0,15Z" style="fill:#231f20;"/><path d="M2050.91,364.452c0,-0 16.002,143.015 -504.839,143.015l-454.878,0" style="fill:none;stroke:#231f20;stroke-width:1px;"/><path d="M1746.59,434.42l-15,-7.5l15,-7.5c-3.75,3.75 -3.75,11.25 0,15Z" style="fill:#231f20;"/><path d="M2050.95,364.452c0,-0 5.259,62.468 -165.919,62.468l-141.444,-0" style="fill:none;stroke:#231f20;stroke-width:1px;"/><path d="M2035.84,909.016l15,7.5l-15,7.5c3.75,-3.75 3.75,-11.25 -0,-15Z" style="fill:#231f20;"/><path d="M1970.06,1065.1c-0,0 -1.33,-148.58 41.965,-148.58l26.81,-0" style="fill:none;stroke:#231f20;stroke-width:1px;stroke-dasharray:3,6,0,0,0,0;"/><path d="M2035.56,355.218l15,7.5l-15,7.5c3.75,-3.75 3.75,-11.25 -0,-15Z" style="fill:#231f20;"/><path d="M1797.39,167.818c0,0 -4.169,194.9 131.53,194.9l109.64,-0" style="fill:none;stroke:#231f20;stroke-width:1px;stroke-dasharray:3,6,0,0,0,0;"/><path d="M2231.16,407.111l-7.5,-15l-7.5,15c3.75,-3.75 11.25,-3.75 15,-0Z"/><path d="M2223.66,404.111l-0,89.89" style="fill:none;stroke:#000;stroke-width:1px;"/><path d="M2231.16,249.189l-7.5,-15l-7.5,15c3.75,-3.75 11.25,-3.75 15,-0Z"/><path d="M2223.66,246.189l-0,89.889" style="fill:none;stroke:#000;stroke-width:1px;"/><path d="M2231.16,140.618l-7.5,-15l-7.5,15c3.75,-3.75 11.25,-3.75 15,0Z"/><path d="M2223.66,137.618l-0,41.252" style="fill:none;stroke:#000;stroke-width:1px;"/><path d="M2038.47,910.266l12.5,6.25l-12.5,6.25c3.125,-3.125 3.125,-9.375 0,-12.5Z"/><path d="M1969.8,916.516l71.167,-0" style="fill:none;stroke:#000;stroke-width:0.83px;stroke-dasharray:2.5,5,2.5,5,0,0;"/><path d="M2038.47,1058.85l12.5,6.25l-12.5,6.25c3.125,-3.125 3.125,-9.375 0,-12.5Z"/><path d="M1969.8,1065.1l71.167,0" style="fill:none;stroke:#000;stroke-width:0.83px;stroke-dasharray:2.5,5,2.5,5,0,0;"/><path d="M1126.09,1004.2l-15,-7.5l15,-7.5c-3.75,3.75 -3.75,11.25 0,15Z"/><path d="M1165.92,996.698l-42.83,-0" style="fill:none;stroke:#000;stroke-width:1px;"/><path d="M2408.85,921.938l-12.5,-6.25l12.5,-6.25c-3.125,3.125 -3.125,9.375 -0,12.5Z"/><path d="M2396.35,97.959l35.34,-0l-0,817.729l-25.34,-0" style="fill:none;stroke:#000;stroke-width:0.83px;"/><path d="M2408.85,1075.22l-12.5,-6.25l12.5,-6.25c-3.125,3.125 -3.125,9.375 -0,12.5Z"/><path d="M2396.35,206.529l61.435,0l0,862.44l-51.435,-0" style="fill:none;stroke:#000;stroke-width:0.83px;"/><rect x="16.915" y="1110.55" width="319.051" height="197.884" style="fill:none;stroke:#000;stroke-width:0.83px;stroke-dasharray:2.5,5,2.5,5,0,0;"/></svg>