<?xml version="1.0" encoding="UTF-8" standalone="no"?><!DOCTYPE svg PUBLIC "-//W3C//DTD SVG 1.1//EN" "http://www.w3.org/Graphics/SVG/1.1/DTD/svg11.dtd"><svg width="100%" height="100%" viewBox="0 0 1749 2481" version="1.1" xmlns="http://www.w3.org/2000/svg" xmlns:xlink="http://www.w3.org/1999/xlink" xml:space="preserve" xmlns:serif="http://www.serif.com/" style="fill-rule:evenodd;clip-rule:evenodd;stroke-linecap:round;stroke-linejoin:round;stroke-miterlimit:1.5;"><rect id="Artboard1" x="0" y="0" width="1748.03" height="2480.32" style="fill:none;"/><clipPath id="_clip1"><rect x="0" y="0" width="1748.03" height="2480.32"/></clipPath><g clip-path="url(#_clip1)"><g id="Layer1"><rect x="46.115" y="70.176" width="827.9" height="2343.44" style="fill:#ecf4df;stroke:#fff;stroke-width:20.83px;"/><rect x="874.016" y="70.176" width="827.9" height="2343.44" style="fill:#c5e5de;stroke:#fff;stroke-width:20.83px;"/></g><path d="M792.318,403.119l-0,145.811c-0,40.238 -32.668,72.906 -72.906,72.906l-518.693,0c-40.237,0 -72.905,-32.668 -72.905,-72.906l-0,-145.811c-0,-40.238 32.668,-72.906 72.905,-72.906l518.693,0c40.238,0 72.906,32.668 72.906,72.906Z" style="fill:#918e8e;"/><path d="M1616.84,403.119l0,145.811c0,40.238 -32.668,72.906 -72.905,72.906l-518.693,0c-40.238,0 -72.906,-32.668 -72.906,-72.906l0,-145.811c0,-40.238 32.668,-72.906 72.906,-72.906l518.693,0c40.237,0 72.905,32.668 72.905,72.906Z" style="fill:#918e8e;"/><path d="M1616.84,2089.2l0,145.812c0,40.237 -32.668,72.905 -72.905,72.905l-518.693,0c-40.238,0 -72.906,-32.668 -72.906,-72.905l0,-145.812c0,-40.237 32.668,-72.905 72.906,-72.905l518.693,-0c40.237,-0 72.905,32.668 72.905,72.905Z" style="fill:#918e8e;"/><path d="M1292.97,975.832l-0,145.812c-0,40.237 -32.668,72.905 -72.906,72.905l-186.441,0c-40.237,0 -72.905,-32.668 -72.905,-72.905l-0,-145.812c-0,-40.237 32.668,-72.905 72.905,-72.905l186.441,-0c40.238,-0 72.906,32.668 72.906,72.905Z" style="fill:#918e8e;"/><path d="M792.318,1680.3l-0,145.811c-0,40.238 -32.668,72.906 -72.906,72.906l-518.693,-0c-40.237,-0 -72.905,-32.668 -72.905,-72.906l-0,-145.811c-0,-40.238 32.668,-72.906 72.905,-72.906l518.693,0c40.238,0 72.906,32.668 72.906,72.906Z" style="fill:#918e8e;"/><ellipse cx="463.44" cy="1113.23" rx="379.811" ry="170.402" style="fill:#918e8e;"/><path d="M1443.84,1362.47l238.292,165.032l-238.292,165.031l-238.292,-165.031l238.292,-165.032Z" style="fill:#ecf4df;"/><g transform="matrix(50,0,0,50,764.253,493.92)"></g><text x="155.879px" y="493.92px" style="font-family:'Arial-BoldMT', 'Arial', sans-serif;font-weight:700;font-size:50px;fill:#fff;">Environment and Context</text><g transform="matrix(50,0,0,50,1359.58,493.92)"></g><text x="1209.6px" y="493.92px" style="font-family:'Arial-BoldMT', 'Arial', sans-serif;font-weight:700;font-size:50px;fill:#fff;">Inputs</text><g transform="matrix(50,0,0,50,667.097,1131.13)"></g><text x="253.034px" y="1131.13px" style="font-family:'Arial-BoldMT', 'Arial', sans-serif;font-weight:700;font-size:50px;fill:#fff;">Decision process</text><g transform="matrix(50,0,0,50,1516.06,1540.03)"></g><text x="1371.62px" y="1540.03px" style="font-family:'Arial-BoldMT', 'Arial', sans-serif;font-weight:700;font-size:50px;">Model</text><g transform="matrix(50,0,0,50,690.693,1771.1)"></g><text x="229.438px" y="1771.1px" style="font-family:'Arial-BoldMT', 'Arial', sans-serif;font-weight:700;font-size:50px;fill:#fff;">Observed Outcome</text><g transform="matrix(50,0,0,50,1506.82,2180)"></g><text x="1062.36px" y="2180px" style="font-family:'Arial-BoldMT', 'Arial', sans-serif;font-weight:700;font-size:50px;fill:#fff;">Simulated Outputs</text><g transform="matrix(1,0,0,1,845.068,572.713)"><text x="170.64px" y="392.285px" style="font-family:'Arial-BoldMT', 'Arial', sans-serif;font-weight:700;font-size:50px;fill:#fff;">Structure</text><text x="263.719px" y="493.92px" style="font-family:'Arial-BoldMT', 'Arial', sans-serif;font-weight:700;font-size:50px;fill:#fff;">&amp;</text><g transform="matrix(50,0,0,50,417.979,595.556)"></g><text x="145.567px" y="595.556px" style="font-family:'Arial-BoldMT', 'Arial', sans-serif;font-weight:700;font-size:50px;fill:#fff;">Parameters</text></g><path d="M475.066,912.898l-15,30l-15,-30c7.5,7.5 22.5,7.5 30,-0Z"/><path d="M460.066,621.836l-0,297.062" style="fill:none;stroke:#000;stroke-width:1px;stroke-linejoin:miter;"/><path d="M1458.84,1332.47l-15,30l-15,-30c7.5,7.5 22.5,7.5 30,0Z"/><path d="M1443.84,621.836l0,716.631" style="fill:none;stroke:#000;stroke-width:1px;stroke-linejoin:miter;"/><path d="M475.066,1574.7l-15,30l-15,-30c7.5,7.5 22.5,7.5 30,-0Z"/><path d="M460.066,1283.63l-0,297.062" style="fill:none;stroke:#000;stroke-width:1px;stroke-linejoin:miter;"/><path d="M1458.84,1983.6l-15,30l-15,-30c7.5,7.5 22.5,7.5 30,0Z"/><path d="M1443.84,1692.54l0,297.061" style="fill:none;stroke:#000;stroke-width:1px;stroke-linejoin:miter;"/><path d="M1427.68,1338.94l16.435,22.608l-27.948,-0.416c8.426,-2.67 14.183,-13.766 11.513,-22.192Z"/><path d="M1126.84,1194.55c-0,0 52.936,68.2 157.75,66.95c78.738,-0.939 118.928,64.65 141.768,90.84" style="fill:none;stroke:#000;stroke-width:0.83px;stroke-linejoin:miter;"/><rect x="19.352" y="33.515" width="1748.03" height="2480.32" style="fill:#fff;fill-opacity:0.5;"/><text x="328.571px" y="164.632px" style="font-family:'Arial-BoldMT', 'Arial', sans-serif;font-weight:700;font-size:50px;">Real-W<tspan x="497.126px 527.668px " y="164.632px 164.632px ">or</tspan>ld</text><g transform="matrix(50,0,0,50,1578.73,164.632)"></g><text x="997.207px" y="164.632px" style="font-family:'Arial-BoldMT', 'Arial', sans-serif;font-weight:700;font-size:50px;">Implementation in <tspan x="1437.05px 1473.16px " y="164.632px 164.632px ">AB</tspan>Ms</text><g><ellipse cx="238.788" cy="2149.87" rx="128.742" ry="23.335" style="fill:none;stroke:#e50505;stroke-width:4.17px;"/><path d="M367.53,2149.87l0,192.355l-257.484,-0l0,-192.355c0,12.879 57.688,23.335 128.742,23.335c71.055,0 128.742,-10.456 128.742,-23.335Z" style="fill:none;stroke:#e50505;stroke-width:4.17px;"/><g transform="matrix(50,0,0,50,356.867,2273.43)"></g><text x="120.71px" y="2273.43px" style="font-family:'Arial-BoldMT', 'Arial', sans-serif;font-weight:700;font-size:50px;">Microdata</text></g><path d="M87.957,1749.39l23.527,15.089l-26.188,9.769c6.88,-5.55 8.21,-17.979 2.661,-24.858Z"/><path d="M140.813,2111.22c-0,0 -135.588,-341.32 -77.519,-346.735c12.188,-1.136 21.383,-1.796 28.304,-2.128" style="fill:none;stroke:#000;stroke-width:4.17px;stroke-linejoin:miter;"/><path d="M98.45,1201.93l20.33,19.182l-27.543,4.755c7.787,-4.181 11.394,-16.149 7.213,-23.937Z"/><path d="M151.524,2111.22c-0,0 -151.377,-876.206 -86.546,-890.107c15.483,-3.32 26.639,-5.054 34.653,-5.771" style="fill:none;stroke:#000;stroke-width:4.17px;stroke-linejoin:miter;"/><path d="M114.619,476.79l13.989,24.198l-27.752,-3.327c8.658,-1.777 15.54,-12.213 13.763,-20.871Z"/><path d="M165.953,2111.22c-0,0 -172.647,-1585.08 -98.707,-1610.23c21.251,-7.227 35.355,-10.3 44.666,-11.01" style="fill:none;stroke:#000;stroke-width:4.17px;stroke-linejoin:miter;"/><path d="M1136.12,303.849l-9.281,26.364l-15.523,-23.244c6.981,5.421 19.383,3.861 24.804,-3.12Z"/><path d="M621.478,330.129c-0,0 -5.56,-54.291 140.896,-54.291l307.039,-0c-0,-0 44.163,-1.143 54.931,34.532" style="fill:none;stroke:#000;stroke-width:4.17px;stroke-linejoin:miter;stroke-dasharray:12.5,25,12.5,25,12.5,25;"/><g transform="matrix(41.6667,0,0,41.6667,1052.38,263.249)"></g><text x="695.912px" y="263.249px" style="font-family:'Arial-BoldMT', 'Arial', sans-serif;font-weight:700;font-size:41.667px;">Input Initialisation</text><g transform="matrix(41.6667,0,0,41.6667,1046.62,802.47)"></g><text x="701.67px" y="802.47px" style="font-family:'Arial-BoldMT', 'Arial', sans-serif;font-weight:700;font-size:41.667px;">Rule Initialisation</text><g transform="matrix(41.6667,0,0,41.6667,1020.69,1984.31)"></g><text x="766.048px" y="1984.31px" style="font-family:'Arial-BoldMT', 'Arial', sans-serif;font-weight:700;font-size:41.667px;">Optimisation</text><path d="M1138.91,872.231l-12.069,25.21l-12.927,-24.782c6.356,6.142 18.854,5.928 24.996,-0.428Z"/><path d="M621.478,958.26c-0,-0 -5.56,-140.897 140.896,-140.897l307.039,0c-0,0 57.084,-1.722 57.084,57.085c0,1.027 0,2.026 0.001,2.996" style="fill:none;stroke:#000;stroke-width:4.17px;stroke-linejoin:miter;stroke-dasharray:12.5,25,12.5,25,12.5,25;"/><path d="M921.91,2144.11l27.532,4.822l-20.376,19.132c4.199,-7.777 0.622,-19.754 -7.156,-23.954Z"/><path d="M694.533,1902.22c-0,0 -11.496,129.467 134.961,129.467c146.456,0 71.438,72.4 76.044,113.207c1.285,11.387 13.515,11.848 24.741,9.761" style="fill:none;stroke:#000;stroke-width:4.17px;stroke-linejoin:miter;stroke-dasharray:12.5,25,12.5,25,12.5,25;"/></g></svg>