<?xml version="1.0" encoding="UTF-8" standalone="no"?><!DOCTYPE svg PUBLIC "-//W3C//DTD SVG 1.1//EN" "http://www.w3.org/Graphics/SVG/1.1/DTD/svg11.dtd"><svg width="100%" height="100%" viewBox="0 0 624 326" version="1.1" xmlns="http://www.w3.org/2000/svg" xmlns:xlink="http://www.w3.org/1999/xlink" xml:space="preserve" xmlns:serif="http://www.serif.com/" style="fill-rule:evenodd;clip-rule:evenodd;stroke-linecap:round;stroke-linejoin:round;stroke-miterlimit:1.5;"><rect id="Artboard1" x="0" y="0" width="623.875" height="325.709" style="fill:none;"/><g><path d="M27.136,247.192l-7.5,22.5l-7.5,-22.5l15,-0Z"/><path d="M19.636,11.826l0,239.866" style="fill:none;stroke:#000;stroke-width:1px;"/><rect x="20.137" y="245.358" width="7.084" height="25.223" style="fill:#fff;"/></g><g><path d="M418.961,30.561l0,12.452c0,3.436 -2.79,6.226 -6.226,6.226l-73.542,-0c-3.436,-0 -6.226,-2.79 -6.226,-6.226l0,-12.452c0,-3.436 2.79,-6.226 6.226,-6.226l73.542,0c3.436,0 6.226,2.79 6.226,6.226Z" style="fill:#7b8b65;fill-opacity:0.5;stroke:#000;stroke-width:2px;"/><g transform="matrix(12,0,0,12,408.97,41.0818)"></g><text x="342.958px" y="41.082px" style="font-family:'Arial-BoldMT', 'Arial', sans-serif;font-weight:700;font-size:12px;fill:#fff;">Life Course</text></g><path d="M302.246,9.466l0,10.928c0,3.016 -2.448,5.464 -5.464,5.464l-116.628,0c-3.016,0 -5.465,-2.448 -5.465,-5.464l0,-10.928c0,-3.016 2.449,-5.464 5.465,-5.464l116.628,-0c3.016,-0 5.464,2.448 5.464,5.464Z" style="fill:#eaf4dd;"/><clipPath id="_clip1"><path d="M302.246,9.466l0,10.928c0,3.016 -2.448,5.464 -5.464,5.464l-116.628,0c-3.016,0 -5.465,-2.448 -5.465,-5.464l0,-10.928c0,-3.016 2.449,-5.464 5.465,-5.464l116.628,-0c3.016,-0 5.464,2.448 5.464,5.464Z"/></clipPath><g clip-path="url(#_clip1)"><g transform="matrix(12,0,0,12,267.486,19.2278)"></g><text x="209.449px" y="19.228px" style="font-family:'ArialMT', 'Arial', sans-serif;font-size:12px;fill:#231f20;">Life events</text></g><path d="M302.246,9.466l0,10.928c0,3.016 -2.448,5.464 -5.464,5.464l-116.628,0c-3.016,0 -5.465,-2.448 -5.465,-5.464l0,-10.928c0,-3.016 2.449,-5.464 5.465,-5.464l116.628,-0c3.016,-0 5.464,2.448 5.464,5.464Z" style="fill:none;stroke:#000;stroke-width:1px;stroke-dasharray:3,6,3,6,0,0;"/><path d="M302.246,53.18l0,10.928c0,3.016 -2.448,5.464 -5.464,5.464l-116.628,0c-3.016,0 -5.465,-2.448 -5.465,-5.464l0,-10.928c0,-3.016 2.449,-5.465 5.465,-5.465l116.628,0c3.016,0 5.464,2.449 5.464,5.465Z" style="fill:#eaf4dd;"/><clipPath id="_clip2"><path d="M302.246,53.18l0,10.928c0,3.016 -2.448,5.464 -5.464,5.464l-116.628,0c-3.016,0 -5.465,-2.448 -5.465,-5.464l0,-10.928c0,-3.016 2.449,-5.465 5.465,-5.465l116.628,0c3.016,0 5.464,2.449 5.464,5.465Z"/></clipPath><g clip-path="url(#_clip2)"><g transform="matrix(12,0,0,12,293.502,62.9417)"></g><text x="183.434px" y="62.942px" style="font-family:'ArialMT', 'Arial', sans-serif;font-size:12px;fill:#231f20;">Household attributes</text></g><path d="M300.608,54.968l1.64,3.676l1.957,-3.517c-0.939,0.859 -2.737,0.78 -3.597,-0.159Z" style="fill:#231f20;"/><path d="M302.375,55.767c0.52,-5.934 3.107,-18.98 15.807,-18.98c16.438,-0 14.735,-0 14.735,-0" style="fill:none;stroke:#231f20;stroke-width:0.24px;"/><path d="M532.33,148.597l1.494,3.738l2.094,-3.438c-0.972,0.822 -2.766,0.672 -3.588,-0.3Z" style="fill:#231f20;"/><path d="M534.064,149.465c0.697,-4.289 3.391,-11.871 13.719,-11.871c14.402,-0 12.91,-0 12.91,-0" style="fill:none;stroke:#231f20;stroke-width:0.24px;"/><path d="M304.205,18.447l-1.957,-3.517l-1.64,3.676c0.86,-0.939 2.658,-1.018 3.597,-0.159Z" style="fill:#231f20;"/><path d="M302.375,17.807c0.52,5.934 3.107,18.98 15.807,18.98c16.438,-0 14.735,-0 14.735,-0" style="fill:none;stroke:#231f20;stroke-width:0.24px;"/><path d="M535.918,126.291l-2.094,-3.438l-1.494,3.737c0.822,-0.971 2.616,-1.121 3.588,-0.299Z" style="fill:#231f20;"/><path d="M534.064,125.723c0.697,4.289 3.391,11.871 13.719,11.871c14.402,-0 12.91,-0 12.91,-0" style="fill:none;stroke:#231f20;stroke-width:0.24px;"/><path d="M154.467,150.563l0,12.452c0,3.436 -2.789,6.226 -6.225,6.226l-113.363,-0c-3.436,-0 -6.226,-2.79 -6.226,-6.226l0,-12.452c0,-3.436 2.79,-6.226 6.226,-6.226l113.363,0c3.436,0 6.225,2.79 6.225,6.226Z" style="fill:#0f2d5e;fill-opacity:0.5;"/><clipPath id="_clip3"><path d="M154.467,150.563l0,12.452c0,3.436 -2.789,6.226 -6.225,6.226l-113.363,-0c-3.436,-0 -6.226,-2.79 -6.226,-6.226l0,-12.452c0,-3.436 2.79,-6.226 6.226,-6.226l113.363,0c3.436,0 6.225,2.79 6.225,6.226Z"/></clipPath><g clip-path="url(#_clip3)"><g transform="matrix(12,0,0,12,143.249,161.258)"></g><text x="39.872px" y="161.258px" style="font-family:'ArialMT', 'Arial', sans-serif;font-size:12px;fill:#fff;">Residential Mobility</text></g><path d="M154.467,150.563l0,12.452c0,3.436 -2.789,6.226 -6.225,6.226l-113.363,-0c-3.436,-0 -6.226,-2.79 -6.226,-6.226l0,-12.452c0,-3.436 2.79,-6.226 6.226,-6.226l113.363,0c3.436,0 6.225,2.79 6.225,6.226Z" style="fill:none;stroke:#000;stroke-width:2px;"/><path d="M148.741,203.204l-0,10.928c-0,3.016 -2.449,5.465 -5.465,5.465l-103.432,-0c-3.016,-0 -5.464,-2.449 -5.464,-5.465l-0,-10.928c-0,-3.016 2.448,-5.464 5.464,-5.464l103.432,-0c3.016,-0 5.465,2.448 5.465,5.464Z" style="fill:#eaf4dd;"/><clipPath id="_clip4"><path d="M148.741,203.204l-0,10.928c-0,3.016 -2.449,5.465 -5.465,5.465l-103.432,-0c-3.016,-0 -5.464,-2.449 -5.464,-5.465l-0,-10.928c-0,-3.016 2.448,-5.464 5.464,-5.464l103.432,-0c3.016,-0 5.465,2.448 5.465,5.464Z"/></clipPath><g clip-path="url(#_clip4)"><g transform="matrix(12,0,0,12,143.592,212.966)"></g><text x="39.529px" y="212.966px" style="font-family:'ArialMT', 'Arial', sans-serif;font-size:12px;fill:#231f20;">Relocation decision</text></g><path d="M148.741,203.204l-0,10.928c-0,3.016 -2.449,5.465 -5.465,5.465l-103.432,-0c-3.016,-0 -5.464,-2.449 -5.464,-5.465l-0,-10.928c-0,-3.016 2.448,-5.464 5.464,-5.464l103.432,-0c3.016,-0 5.465,2.448 5.465,5.464Z" style="fill:none;stroke:#000;stroke-width:1px;stroke-dasharray:3,6,3,6,0,0;"/><path d="M530.418,87.495l-0,10.928c-0,3.016 -2.449,5.464 -5.464,5.464l-123.474,0c-3.015,0 -5.464,-2.448 -5.464,-5.464l0,-10.928c0,-3.016 2.449,-5.465 5.464,-5.465l123.474,0c3.015,0 5.464,2.449 5.464,5.465Z" style="fill:#eaf4dd;"/><clipPath id="_clip5"><path d="M530.418,87.495l-0,10.928c-0,3.016 -2.449,5.464 -5.464,5.464l-123.474,0c-3.015,0 -5.464,-2.448 -5.464,-5.464l0,-10.928c0,-3.016 2.449,-5.465 5.464,-5.465l123.474,0c3.015,0 5.464,2.449 5.464,5.465Z"/></clipPath><g clip-path="url(#_clip5)"><g transform="matrix(12,0,0,12,516.915,97.2567)"></g><text x="409.519px" y="97.257px" style="font-family:'ArialMT', 'Arial', sans-serif;font-size:12px;fill:#231f20;">New housing supply</text></g><path d="M530.418,87.495l-0,10.928c-0,3.016 -2.449,5.464 -5.464,5.464l-123.474,0c-3.015,0 -5.464,-2.448 -5.464,-5.464l0,-10.928c0,-3.016 2.449,-5.465 5.464,-5.465l123.474,0c3.015,0 5.464,2.449 5.464,5.465Z" style="fill:none;stroke:#000;stroke-width:1px;stroke-dasharray:3,6,3,6,0,0;"/><path d="M530.418,117.708l-0,10.929c-0,3.016 -2.449,5.464 -5.464,5.464l-123.474,0c-3.015,0 -5.464,-2.448 -5.464,-5.464l0,-10.929c0,-3.015 2.449,-5.464 5.464,-5.464l123.474,0c3.015,0 5.464,2.449 5.464,5.464Z" style="fill:#eaf4dd;"/><clipPath id="_clip6"><path d="M530.418,117.708l-0,10.929c-0,3.016 -2.449,5.464 -5.464,5.464l-123.474,0c-3.015,0 -5.464,-2.448 -5.464,-5.464l0,-10.929c0,-3.015 2.449,-5.464 5.464,-5.464l123.474,0c3.015,0 5.464,2.449 5.464,5.464Z"/></clipPath><g clip-path="url(#_clip6)"><g transform="matrix(12,0,0,12,484.563,127.471)"></g><text x="441.871px" y="127.471px" style="font-family:'ArialMT', 'Arial', sans-serif;font-size:12px;fill:#231f20;">Subsidy</text></g><path d="M530.418,117.708l-0,10.929c-0,3.016 -2.449,5.464 -5.464,5.464l-123.474,0c-3.015,0 -5.464,-2.448 -5.464,-5.464l0,-10.929c0,-3.015 2.449,-5.464 5.464,-5.464l123.474,0c3.015,0 5.464,2.449 5.464,5.464Z" style="fill:none;stroke:#000;stroke-width:1px;stroke-dasharray:3,6,3,6,0,0;"/><path d="M530.418,145.623l-0,10.929c-0,3.015 -2.449,5.464 -5.464,5.464l-123.474,-0c-3.015,-0 -5.464,-2.449 -5.464,-5.464l0,-10.929c0,-3.016 2.449,-5.464 5.464,-5.464l123.474,-0c3.015,-0 5.464,2.448 5.464,5.464Z" style="fill:#eaf4dd;"/><clipPath id="_clip7"><path d="M530.418,145.623l-0,10.929c-0,3.015 -2.449,5.464 -5.464,5.464l-123.474,-0c-3.015,-0 -5.464,-2.449 -5.464,-5.464l0,-10.929c0,-3.016 2.449,-5.464 5.464,-5.464l123.474,-0c3.015,-0 5.464,2.448 5.464,5.464Z"/></clipPath><g clip-path="url(#_clip7)"><g transform="matrix(12,0,0,12,502.243,155.385)"></g><text x="424.191px" y="155.385px" style="font-family:'ArialMT', 'Arial', sans-serif;font-size:12px;fill:#231f20;">Social housing</text></g><path d="M530.418,145.623l-0,10.929c-0,3.015 -2.449,5.464 -5.464,5.464l-123.474,-0c-3.015,-0 -5.464,-2.449 -5.464,-5.464l0,-10.929c0,-3.016 2.449,-5.464 5.464,-5.464l123.474,-0c3.015,-0 5.464,2.448 5.464,5.464Z" style="fill:none;stroke:#000;stroke-width:1px;stroke-dasharray:3,6,3,6,0,0;"/><path d="M530.418,174.073l-0,10.928c-0,3.016 -2.449,5.465 -5.464,5.465l-123.474,-0c-3.015,-0 -5.464,-2.449 -5.464,-5.465l0,-10.928c0,-3.016 2.449,-5.464 5.464,-5.464l123.474,-0c3.015,-0 5.464,2.448 5.464,5.464Z" style="fill:#eaf4dd;"/><clipPath id="_clip8"><path d="M530.418,174.073l-0,10.928c-0,3.016 -2.449,5.465 -5.464,5.465l-123.474,-0c-3.015,-0 -5.464,-2.449 -5.464,-5.465l0,-10.928c0,-3.016 2.449,-5.464 5.464,-5.464l123.474,-0c3.015,-0 5.464,2.448 5.464,5.464Z"/></clipPath><g clip-path="url(#_clip8)"><g transform="matrix(12,0,0,12,495.233,183.835)"></g><text x="431.201px" y="183.835px" style="font-family:'ArialMT', 'Arial', sans-serif;font-size:12px;fill:#231f20;">Interest rate</text></g><path d="M530.418,174.073l-0,10.928c-0,3.016 -2.449,5.465 -5.464,5.465l-123.474,-0c-3.015,-0 -5.464,-2.449 -5.464,-5.465l0,-10.928c0,-3.016 2.449,-5.464 5.464,-5.464l123.474,-0c3.015,-0 5.464,2.448 5.464,5.464Z" style="fill:none;stroke:#000;stroke-width:1px;stroke-dasharray:3,6,3,6,0,0;"/><path d="M323.826,257.019l0,10.929c0,3.015 -2.448,5.464 -5.464,5.464l-127.662,-0c-3.016,-0 -5.464,-2.449 -5.464,-5.464l-0,-10.929c-0,-3.016 2.448,-5.464 5.464,-5.464l127.662,-0c3.016,-0 5.464,2.448 5.464,5.464Z" style="fill:#eaf4dd;"/><clipPath id="_clip9"><path d="M323.826,257.019l0,10.929c0,3.015 -2.448,5.464 -5.464,5.464l-127.662,-0c-3.016,-0 -5.464,-2.449 -5.464,-5.464l-0,-10.929c-0,-3.016 2.448,-5.464 5.464,-5.464l127.662,-0c3.016,-0 5.464,2.448 5.464,5.464Z"/></clipPath><g clip-path="url(#_clip9)"><g transform="matrix(12,0,0,12,300.225,266.781)"></g><text x="208.837px" y="266.781px" style="font-family:'ArialMT', 'Arial', sans-serif;font-size:12px;fill:#231f20;">Housing decision</text></g><path d="M323.826,257.019l0,10.929c0,3.015 -2.448,5.464 -5.464,5.464l-127.662,-0c-3.016,-0 -5.464,-2.449 -5.464,-5.464l-0,-10.929c-0,-3.016 2.448,-5.464 5.464,-5.464l127.662,-0c3.016,-0 5.464,2.448 5.464,5.464Z" style="fill:none;stroke:#000;stroke-width:1px;stroke-dasharray:3,6,3,6,0,0;"/><path d="M189.953,105.396l3.6,1.8l-3.6,1.8c0.9,-0.9 0.9,-2.7 -0,-3.6Z" style="fill:#231f20;"/><path d="M163.686,107.196l26.987,0" style="fill:none;stroke:#231f20;stroke-width:0.24px;"/><path d="M179.619,206.713l3.6,1.8l-3.6,1.8c0.9,-0.9 0.9,-2.7 -0,-3.6Z" style="fill:#231f20;"/><path d="M148.741,208.513l31.598,-0" style="fill:none;stroke:#231f20;stroke-width:0.24px;"/><path d="M38.211,140.737l-1.8,3.6l-1.8,-3.6c0.9,0.9 2.7,0.9 3.6,0Z" style="fill:#231f20;"/><path d="M174.689,14.93l-138.278,-0l0,126.527" style="fill:none;stroke:#231f20;stroke-width:0.24px;"/><path d="M328.585,202.287l0,12.452c0,3.436 -2.79,6.225 -6.226,6.225l-130.898,0c-3.436,0 -6.225,-2.789 -6.225,-6.225l-0,-12.452c-0,-3.437 2.789,-6.226 6.225,-6.226l130.898,-0c3.436,-0 6.226,2.789 6.226,6.226Z" style="fill:#3d2e19;fill-opacity:0.5;"/><clipPath id="_clip10"><path d="M328.585,202.287l0,12.452c0,3.436 -2.79,6.225 -6.226,6.225l-130.898,0c-3.436,0 -6.225,-2.789 -6.225,-6.225l-0,-12.452c-0,-3.437 2.789,-6.226 6.225,-6.226l130.898,-0c3.436,-0 6.226,2.789 6.226,6.226Z"/></clipPath><g clip-path="url(#_clip10)"><g transform="matrix(12,0,0,12,311.271,212.81)"></g><text x="202.55px" y="212.81px" style="font-family:'ArialMT', 'Arial', sans-serif;font-size:12px;fill:#fff;">Residential Decision</text></g><path d="M328.585,202.287l0,12.452c0,3.436 -2.79,6.225 -6.226,6.225l-130.898,0c-3.436,0 -6.225,-2.789 -6.225,-6.225l-0,-12.452c-0,-3.437 2.789,-6.226 6.225,-6.226l130.898,-0c3.436,-0 6.226,2.789 6.226,6.226Z" style="fill:none;stroke:#000;stroke-width:2px;"/><path d="M264.648,192.461l-1.8,3.6l-1.8,-3.6c0.9,0.9 2.7,0.9 3.6,-0Z" style="fill:#231f20;"/><path d="M262.848,118.125l-0,75.056" style="fill:none;stroke:#231f20;stroke-width:0.24px;"/><path d="M256.331,247.955l-1.8,3.6l-1.8,-3.6c0.9,0.9 2.7,0.9 3.6,-0Z" style="fill:#231f20;"/><path d="M254.531,220.964l-0,27.711" style="fill:none;stroke:#231f20;stroke-width:0.24px;"/><path d="M93.36,194.14l-1.8,3.6l-1.8,-3.6c0.9,0.9 2.7,0.9 3.6,-0Z" style="fill:#231f20;"/><path d="M91.56,169.241l0,25.619" style="fill:none;stroke:#231f20;stroke-width:0.24px;"/><path d="M162.926,100.97l0,12.452c0,3.437 -2.79,6.226 -6.226,6.226l-103.819,0c-3.436,0 -6.226,-2.789 -6.226,-6.226l0,-12.452c0,-3.436 2.79,-6.225 6.226,-6.225l103.819,-0c3.436,-0 6.226,2.789 6.226,6.225Z" style="fill:#b29aae;fill-opacity:0.5;"/><clipPath id="_clip11"><path d="M162.926,100.97l0,12.452c0,3.437 -2.79,6.226 -6.226,6.226l-103.819,0c-3.436,0 -6.226,-2.789 -6.226,-6.226l0,-12.452c0,-3.436 2.79,-6.225 6.226,-6.225l103.819,-0c3.436,-0 6.226,2.789 6.226,6.225Z"/></clipPath><g clip-path="url(#_clip11)"><g transform="matrix(12,0,0,12,153.139,111.665)"></g><text x="56.442px" y="111.665px" style="font-family:'ArialMT', 'Arial', sans-serif;font-size:12px;">Economic Mobility</text></g><path d="M162.926,100.97l0,12.452c0,3.437 -2.79,6.226 -6.226,6.226l-103.819,0c-3.436,0 -6.226,-2.789 -6.226,-6.226l0,-12.452c0,-3.436 2.79,-6.225 6.226,-6.225l103.819,-0c3.436,-0 6.226,2.789 6.226,6.225Z" style="fill:none;stroke:#000;stroke-width:2px;"/><g><path d="M332.143,101.732l0,10.929c0,3.015 -2.448,5.464 -5.464,5.464l-127.662,-0c-3.016,-0 -5.464,-2.449 -5.464,-5.464l-0,-10.929c-0,-3.016 2.448,-5.464 5.464,-5.464l127.662,-0c3.016,-0 5.464,2.448 5.464,5.464Z" style="fill:#eaf4dd;"/><g transform="matrix(12,0,0,12,306.866,111.494)"></g><text x="218.829px" y="111.494px" style="font-family:'ArialMT', 'Arial', sans-serif;font-size:12px;fill:#231f20;">Economic states</text></g><g transform="matrix(6.12323e-17,-1,1,6.12323e-17,-241.949,214.535)"><g transform="matrix(10,0,0,10,90.7705,254.651)"></g><text x="46.874px" y="254.651px" style="font-family:'Arial-BoldMT', 'Arial', sans-serif;font-weight:700;font-size:10px;fill:#231f20;">One Step</text></g><path d="M101.677,90.591l-1.8,3.6l-1.8,-3.6c0.9,0.9 2.7,0.9 3.6,-0Z" style="fill:#231f20;"/><path d="M174.689,58.644l-74.812,-0l0,32.667" style="fill:none;stroke:#231f20;stroke-width:0.24px;stroke-dasharray:0.72,1.44,0.72,1.44,0,0;"/><path d="M622.195,130.141l-0,12.452c-0,3.436 -2.79,6.226 -6.226,6.226l-49.006,-0c-3.437,-0 -6.226,-2.79 -6.226,-6.226l-0,-12.452c-0,-3.436 2.789,-6.226 6.226,-6.226l49.006,0c3.436,0 6.226,2.79 6.226,6.226Z" style="fill:#f4f284;fill-opacity:0.5;"/><clipPath id="_clip12"><path d="M622.195,130.141l-0,12.452c-0,3.436 -2.79,6.226 -6.226,6.226l-49.006,-0c-3.437,-0 -6.226,-2.79 -6.226,-6.226l-0,-12.452c-0,-3.436 2.789,-6.226 6.226,-6.226l49.006,0c3.436,0 6.226,2.79 6.226,6.226Z"/></clipPath><g clip-path="url(#_clip12)"><g transform="matrix(12,0,0,12,608.136,140.665)"></g><text x="574.796px" y="140.665px" style="font-family:'ArialMT', 'Arial', sans-serif;font-size:12px;">Macro</text></g><path d="M622.195,130.141l-0,12.452c-0,3.436 -2.79,6.226 -6.226,6.226l-49.006,-0c-3.437,-0 -6.226,-2.79 -6.226,-6.226l-0,-12.452c-0,-3.436 2.789,-6.226 6.226,-6.226l49.006,0c3.436,0 6.226,2.79 6.226,6.226Z" style="fill:none;stroke:#000;stroke-width:2px;"/><path d="M532.059,176.513l1.765,3.617l1.835,-3.582c-0.909,0.891 -2.708,0.874 -3.6,-0.035Z" style="fill:#231f20;"/><path d="M533.852,177.25c0.207,-9.562 1.818,-39.656 13.931,-39.656c14.402,-0 12.91,-0 12.91,-0" style="fill:none;stroke:#231f20;stroke-width:0.24px;"/><path d="M535.659,98.64l-1.835,-3.583l-1.765,3.618c0.892,-0.909 2.691,-0.926 3.6,-0.035Z" style="fill:#231f20;"/><path d="M533.852,97.937c0.207,9.563 1.818,39.657 13.931,39.657c14.402,-0 12.91,-0 12.91,-0" style="fill:none;stroke:#231f20;stroke-width:0.24px;"/><path d="M159.424,158.589l-3.6,-1.8l3.6,-1.8c-0.9,0.9 -0.9,2.7 0,3.6Z" style="fill:#231f20;"/><path d="M395.232,179.988l-52.124,0c-0,0 -10.638,2.224 -19.866,-10.573c-9.228,-12.796 -33.388,-12.626 -50.781,-12.626l-113.757,0" style="fill:none;stroke:#231f20;stroke-width:0.24px;stroke-dasharray:0.72,1.44,0.72,1.44,0,0;"/><path d="M332.185,210.313l-3.6,-1.8l3.6,-1.8c-0.9,0.9 -0.9,2.7 0,3.6Z" style="fill:#231f20;"/><path d="M395.232,92.751l-14.813,-0c-0,-0 -15.446,0.068 -15.446,11.234l-0,89.673c-0,0 -0.482,14.855 -14.45,14.855l-19.058,-0" style="fill:none;stroke:#231f20;stroke-width:0.24px;"/><path d="M391.632,124.907l3.6,-1.8l-3.6,-1.8c0.9,0.9 0.9,2.7 0,3.6Z" style="fill:#231f20;"/><path d="M335.743,109.415l-3.6,-1.8l3.6,-1.8c-0.9,0.9 -0.9,2.7 0,3.6Z" style="fill:#231f20;"/><path d="M392.352,123.107l-11.142,-0c-0,-0 -14.622,1.076 -14.622,-4.816l0,-3.423c0,-0 -0.456,-7.253 -13.678,-7.253l-17.887,-0" style="fill:none;stroke:#231f20;stroke-width:0.24px;"/><path d="M391.632,150.199l3.6,-1.8l-3.6,-1.8c0.9,0.9 0.9,2.7 0,3.6Z" style="fill:#231f20;"/><path d="M392.352,148.399l-11.142,-0c-0,-0 -14.622,4.075 -14.622,-13.165l0,-4.353c0,-0 -0.456,-15.421 -13.678,-15.421l-20.767,-0" style="fill:none;stroke:#231f20;stroke-width:0.24px;"/><path d="M332.185,210.313l-3.6,-1.8l3.6,-1.8c-0.9,0.9 -0.9,2.7 0,3.6Z" style="fill:#231f20;"/><path d="M395.232,153.981l-14.813,-0.017c-0,-0 -11.589,0.248 -11.589,11.451c-0,9.305 0.033,27.873 0.033,27.873c0,-0 1.593,15.225 -18.34,15.225l-19.058,-0" style="fill:none;stroke:#231f20;stroke-width:0.24px;stroke-dasharray:0.72,1.44,0.72,1.44,0,0;"/><path d="M159.424,158.589l-3.6,-1.8l3.6,-1.8c-0.9,0.9 -0.9,2.7 0,3.6Z" style="fill:#231f20;"/><path d="M395.232,153.981l-52.124,0c-0,0 -10.638,-0.269 -19.866,1.28c-9.228,1.549 -33.388,1.528 -50.781,1.528l-113.757,0" style="fill:none;stroke:#231f20;stroke-width:0.24px;stroke-dasharray:0.72,1.44,0.72,1.44,0,0;"/><g><g><path d="M183.94,302.416l0,11.218c0,3.096 -2.513,5.61 -5.609,5.61l-79.675,-0c-3.096,-0 -5.609,-2.514 -5.609,-5.61l-0,-11.218c-0,-3.096 2.513,-5.609 5.609,-5.609l79.675,-0c3.096,-0 5.609,2.513 5.609,5.609Z" style="fill:#7b8b65;fill-opacity:0.5;"/><clipPath id="_clip13"><path d="M183.94,302.416l0,11.218c0,3.096 -2.513,5.61 -5.609,5.61l-79.675,-0c-3.096,-0 -5.609,-2.514 -5.609,-5.61l-0,-11.218c-0,-3.096 2.513,-5.609 5.609,-5.609l79.675,-0c3.096,-0 5.609,2.513 5.609,5.609Z"/></clipPath><g clip-path="url(#_clip13)"><g transform="matrix(12,0,0,12,171.499,312.32)"></g><text x="105.488px" y="312.32px" style="font-family:'Arial-BoldMT', 'Arial', sans-serif;font-weight:700;font-size:12px;">Life Course</text></g><path d="M183.94,302.416l0,11.218c0,3.096 -2.513,5.61 -5.609,5.61l-79.675,-0c-3.096,-0 -5.609,-2.514 -5.609,-5.61l-0,-11.218c-0,-3.096 2.513,-5.609 5.609,-5.609l79.675,-0c3.096,-0 5.609,2.513 5.609,5.609Z" style="fill:none;stroke:#000;stroke-width:2px;"/><g transform="matrix(12,0,0,12,82.997,313.406)"></g><text x="14.958px" y="313.406px" style="font-family:'ArialMT', 'Arial', sans-serif;font-size:12px;">Components</text><path d="M412.238,302.416l-0,11.218c-0,3.096 -2.514,5.61 -5.61,5.61l-99.543,-0c-3.096,-0 -5.61,-2.514 -5.61,-5.61l0,-11.218c0,-3.096 2.514,-5.609 5.61,-5.609l99.543,-0c3.096,-0 5.61,2.513 5.61,5.609Z" style="fill:#0f2d5e;fill-opacity:0.5;"/><clipPath id="_clip14"><path d="M412.238,302.416l-0,11.218c-0,3.096 -2.514,5.61 -5.61,5.61l-99.543,-0c-3.096,-0 -5.61,-2.514 -5.61,-5.61l0,-11.218c0,-3.096 2.514,-5.609 5.61,-5.609l99.543,-0c3.096,-0 5.61,2.513 5.61,5.609Z"/></clipPath><g clip-path="url(#_clip14)"><g transform="matrix(12,0,0,12,408.545,312.477)"></g><text x="305.168px" y="312.477px" style="font-family:'ArialMT', 'Arial', sans-serif;font-size:12px;">Residential Mobility</text></g><path d="M412.238,302.416l-0,11.218c-0,3.096 -2.514,5.61 -5.61,5.61l-99.543,-0c-3.096,-0 -5.61,-2.514 -5.61,-5.61l0,-11.218c0,-3.096 2.514,-5.609 5.61,-5.609l99.543,-0c3.096,-0 5.61,2.513 5.61,5.609Z" style="fill:none;stroke:#000;stroke-width:2px;"/><path d="M530.03,302.416l-0,11.218c-0,3.096 -2.514,5.61 -5.61,5.61l-101.274,-0c-3.096,-0 -5.609,-2.514 -5.609,-5.61l0,-11.218c0,-3.096 2.513,-5.609 5.609,-5.609l101.274,-0c3.096,-0 5.61,2.513 5.61,5.609Z" style="fill:#3d2e19;fill-opacity:0.5;"/><clipPath id="_clip15"><path d="M530.03,302.416l-0,11.218c-0,3.096 -2.514,5.61 -5.61,5.61l-101.274,-0c-3.096,-0 -5.609,-2.514 -5.609,-5.61l0,-11.218c0,-3.096 2.513,-5.609 5.609,-5.609l101.274,-0c3.096,-0 5.61,2.513 5.61,5.609Z"/></clipPath><g clip-path="url(#_clip15)"><g transform="matrix(12,0,0,12,528.144,312.323)"></g><text x="419.423px" y="312.323px" style="font-family:'ArialMT', 'Arial', sans-serif;font-size:12px;">Residential Decision</text></g><path d="M530.03,302.416l-0,11.218c-0,3.096 -2.514,5.61 -5.61,5.61l-101.274,-0c-3.096,-0 -5.609,-2.514 -5.609,-5.61l0,-11.218c0,-3.096 2.513,-5.609 5.609,-5.609l101.274,-0c3.096,-0 5.61,2.513 5.61,5.609Z" style="fill:none;stroke:#000;stroke-width:2px;"/><path d="M295.096,302.416l-0,11.218c-0,3.096 -2.514,5.61 -5.609,5.61l-93.536,-0c-3.096,-0 -5.61,-2.514 -5.61,-5.61l0,-11.218c0,-3.096 2.514,-5.609 5.61,-5.609l93.536,-0c3.095,-0 5.609,2.513 5.609,5.609Z" style="fill:#b29aae;fill-opacity:0.5;"/><clipPath id="_clip16"><path d="M295.096,302.416l-0,11.218c-0,3.096 -2.514,5.61 -5.609,5.61l-93.536,-0c-3.096,-0 -5.61,-2.514 -5.61,-5.61l0,-11.218c0,-3.096 2.514,-5.609 5.61,-5.609l93.536,-0c3.095,-0 5.609,2.513 5.609,5.609Z"/></clipPath><g clip-path="url(#_clip16)"><g transform="matrix(12,0,0,12,291.067,312.477)"></g><text x="194.37px" y="312.477px" style="font-family:'ArialMT', 'Arial', sans-serif;font-size:12px;">Economic Mobility</text></g><path d="M295.096,302.416l-0,11.218c-0,3.096 -2.514,5.61 -5.609,5.61l-93.536,-0c-3.096,-0 -5.61,-2.514 -5.61,-5.61l0,-11.218c0,-3.096 2.514,-5.609 5.61,-5.609l93.536,-0c3.095,-0 5.609,2.513 5.609,5.609Z" style="fill:none;stroke:#000;stroke-width:2px;"/><path d="M613.508,302.416l-0,11.218c-0,3.096 -2.514,5.61 -5.609,5.61l-66.728,-0c-3.096,-0 -5.61,-2.514 -5.61,-5.61l0,-11.218c0,-3.096 2.514,-5.609 5.61,-5.609l66.728,-0c3.095,-0 5.609,2.513 5.609,5.609Z" style="fill:#f4f284;fill-opacity:0.5;"/><clipPath id="_clip17"><path d="M613.508,302.416l-0,11.218c-0,3.096 -2.514,5.61 -5.609,5.61l-66.728,-0c-3.096,-0 -5.61,-2.514 -5.61,-5.61l0,-11.218c0,-3.096 2.514,-5.609 5.61,-5.609l66.728,-0c3.095,-0 5.609,2.513 5.609,5.609Z"/></clipPath><g clip-path="url(#_clip17)"><g transform="matrix(12,0,0,12,591.205,312.323)"></g><text x="557.865px" y="312.323px" style="font-family:'ArialMT', 'Arial', sans-serif;font-size:12px;">Macro</text></g><path d="M613.508,302.416l-0,11.218c-0,3.096 -2.514,5.61 -5.609,5.61l-66.728,-0c-3.096,-0 -5.61,-2.514 -5.61,-5.61l0,-11.218c0,-3.096 2.514,-5.609 5.61,-5.609l66.728,-0c3.095,-0 5.609,2.513 5.609,5.609Z" style="fill:none;stroke:#000;stroke-width:2px;"/></g></g></svg>