<?xml version="1.0" encoding="UTF-8" standalone="no"?><!DOCTYPE svg PUBLIC "-//W3C//DTD SVG 1.1//EN" "http://www.w3.org/Graphics/SVG/1.1/DTD/svg11.dtd"><svg width="100%" height="100%" viewBox="0 0 360 420" version="1.1" xmlns="http://www.w3.org/2000/svg" xmlns:xlink="http://www.w3.org/1999/xlink" xml:space="preserve" xmlns:serif="http://www.serif.com/" style="fill-rule:evenodd;clip-rule:evenodd;"><g transform="matrix(0.893349,-0.449363,0.481531,0.83367,-37.1314,157.813)"><text x="239.44px" y="143.158px" style="font-family:'Arial-BoldMT', 'Arial', sans-serif;font-weight:700;font-size:12.087px;">Simulation Outcome</text></g><g transform="matrix(0.893349,-0.449363,0.481531,0.83367,-110.612,158.126)"><text x="246.643px" y="284.335px" style="font-family:'Arial-BoldMT', 'Arial', sans-serif;font-weight:700;font-size:12.087px;">Modelling Framework</text></g><g transform="matrix(0.893349,-0.449363,0.481531,0.83367,-39.5715,85.9152)"><text x="123.677px" y="115.089px" style="font-family:'ArialMT', 'Arial', sans-serif;font-size:10.073px;">Residential</text></g><g transform="matrix(0.893349,-0.449363,0.481531,0.83367,-43.5225,90.1373)"><text x="122.27px" y="124.596px" style="font-family:'ArialMT', 'Arial', sans-serif;font-size:10.073px;">States change</text></g><g transform="matrix(0.893349,-0.449363,0.481531,0.83367,-15.1021,111.037)"><text x="195.534px" y="79.568px" style="font-family:'ArialMT', 'Arial', sans-serif;font-size:10.073px;">Economic</text></g><g transform="matrix(0.893349,-0.449363,0.481531,0.83367,-19.1513,115.156)"><text x="191.042px" y="89.216px" style="font-family:'ArialMT', 'Arial', sans-serif;font-size:10.073px;">States change</text></g><g transform="matrix(0.893349,-0.449363,0.481531,0.83367,-150.375,63.7078)"><text x="24.198px" y="317.645px" style="font-family:'Arial-BoldMT', 'Arial', sans-serif;font-weight:700;font-size:10.073px;">Human Mobility</text></g><g transform="matrix(0.893349,-0.449363,0.481531,0.83367,-107.037,88.83)"><text x="90.142px" y="245.907px" style="font-family:'ArialMT', 'Arial', sans-serif;font-size:10.073px;">Entities</text></g><g transform="matrix(0.893349,-0.449363,0.481531,0.83367,-10.6106,36.329)"><text x="38.077px" y="36.915px" style="font-family:'Arial-BoldMT', 'Arial', sans-serif;font-weight:700;font-size:10.073px;">Segregation</text></g><g transform="matrix(0.893349,-0.449363,0.481531,0.83367,-47.5277,131.166)"><text x="236.012px" y="150.974px" style="font-family:'Arial-BoldMT', 'Arial', sans-serif;font-weight:700;font-size:12.087px;">Pattern Observation</text></g><g transform="matrix(0.893349,-0.449363,0.481531,0.83367,-135.87,134.812)"><text x="140.164px" y="322.195px" style="font-family:'ArialMT', 'Arial', sans-serif;font-size:10.073px;">Economic Mobility</text></g><g transform="matrix(0.893349,-0.449363,0.481531,0.83367,-162.735,101.591)"><text x="49.946px" y="358.626px" style="font-family:'ArialMT', 'Arial', sans-serif;font-size:10.073px;">Residential Mobility</text></g><g transform="matrix(0.893349,-0.449363,0.481531,0.83367,-18.8222,64.573)"><text x="97.326px" y="65.542px" style="font-family:'ArialMT', 'Arial', sans-serif;font-size:10.073px;">Economic</text></g><g transform="matrix(0.893349,-0.449363,0.481531,0.83367,-22.9143,68.6473)"><text x="97.75px" y="75.252px" style="font-family:'ArialMT', 'Arial', sans-serif;font-size:10.073px;">Segregation</text></g><g transform="matrix(0.893349,-0.449363,0.481531,0.83367,-72.2849,116.895)"><text x="163.035px" y="191.99px" style="font-family:'ArialMT', 'Arial', sans-serif;font-size:10.073px;">Interactions</text></g><g transform="matrix(0.893349,-0.449363,0.481531,0.83367,-76.3095,121.04)"><text x="186.333px" y="201.603px" style="font-family:'ArialMT', 'Arial', sans-serif;font-size:10.073px;">and</text></g><g transform="matrix(0.893349,-0.449363,0.481531,0.83367,-80.3648,125.153)"><text x="175.117px" y="211.26px" style="font-family:'ArialMT', 'Arial', sans-serif;font-size:10.073px;">Behaviours</text></g><g transform="matrix(0.893349,-0.449363,0.481531,0.83367,-170.721,175.933)"><text x="240.564px" y="407.819px" style="font-family:'Arial-BoldMT', 'Arial', sans-serif;font-weight:700;font-size:12.087px;">Human Behaviours</text></g><g transform="matrix(0.893349,-0.449363,0.481531,0.83367,-79.3887,60.5468)"><text x="26.151px" y="179.957px" style="font-family:'Arial-BoldMT', 'Arial', sans-serif;font-weight:700;font-size:10.073px;">Social Simulation</text></g><path d="M146.41,218.849c10.47,5.002 28.018,8.528 45.36,8.312c17.342,-0.217 34.479,-4.177 44.386,-9.434c10.479,-4.997 17.866,-13.374 17.412,-21.652c-0.454,-8.278 -8.75,-16.458 -19.762,-21.187c-10.47,-5.002 -28.018,-8.528 -45.36,-8.312c-17.342,0.217 -34.479,4.177 -44.386,9.434c-10.479,4.998 -17.866,13.374 -17.412,21.652c0.454,8.278 8.75,16.458 19.762,21.187Z" style="fill:none;fill-rule:nonzero;stroke:#000;stroke-width:0.41px;"/><path d="M48.493,268.102c24.237,11.578 64.856,19.741 105,19.239c40.144,-0.501 79.813,-9.668 102.747,-21.836c24.255,-11.569 41.357,-30.958 40.305,-50.12c-1.051,-19.163 -20.254,-38.098 -45.745,-49.045c-24.237,-11.578 -64.856,-19.741 -105,-19.239c-40.144,0.501 -79.813,9.668 -102.747,21.836c-24.255,11.569 -41.356,30.958 -40.305,50.12c1.051,19.162 20.255,38.098 45.745,49.045Z" style="fill:none;fill-rule:nonzero;stroke:#4f9b2b;stroke-width:0.41px;"/><path d="M48.493,385.937c24.237,11.578 64.856,19.741 105,19.239c40.144,-0.502 79.813,-9.668 102.747,-21.836c24.255,-11.569 41.357,-30.958 40.305,-50.12c-1.051,-19.163 -20.254,-38.098 -45.745,-49.045c-24.237,-11.578 -64.856,-19.742 -105,-19.24c-40.144,0.502 -79.813,9.669 -102.747,21.837c-24.255,11.568 -41.356,30.958 -40.305,50.12c1.051,19.162 20.255,38.098 45.745,49.045Z" style="fill:none;fill-rule:nonzero;stroke:#000;stroke-width:0.41px;"/><path d="M190.982,98.187c7.271,3.474 19.456,5.923 31.5,5.772c12.043,-0.15 23.943,-2.9 30.824,-6.551c7.276,-3.47 12.407,-9.287 12.091,-15.036c-0.315,-5.748 -6.076,-11.429 -13.723,-14.713c-7.271,-3.474 -19.457,-5.923 -31.5,-5.772c-12.044,0.15 -23.944,2.9 -30.824,6.551c-7.277,3.47 -12.407,9.287 -12.092,15.036c0.315,5.749 6.076,11.429 13.724,14.713Z" style="fill:none;fill-rule:nonzero;stroke:#000;stroke-width:0.41px;"/><rect x="2.548" y="77.648" width="0.421" height="0.392"/><rect x="2.548" y="81.104" width="0.421" height="0.392"/><rect x="2.548" y="83.847" width="0.421" height="0.392"/><rect x="2.548" y="86.589" width="0.421" height="0.392"/><rect x="2.548" y="89.332" width="0.421" height="0.392"/><rect x="2.548" y="92.075" width="0.421" height="0.392"/><rect x="2.548" y="94.817" width="0.421" height="0.392"/><rect x="2.548" y="97.56" width="0.421" height="0.392"/><rect x="2.548" y="100.303" width="0.421" height="0.392"/><rect x="2.548" y="103.045" width="0.421" height="0.392"/><rect x="2.548" y="105.788" width="0.421" height="0.392"/><rect x="2.548" y="108.531" width="0.421" height="0.392"/><rect x="2.548" y="111.273" width="0.421" height="0.392"/><rect x="2.548" y="114.016" width="0.421" height="0.392"/><rect x="2.548" y="116.758" width="0.421" height="0.392"/><rect x="2.548" y="119.501" width="0.421" height="0.392"/><rect x="2.548" y="122.244" width="0.421" height="0.392"/><rect x="2.548" y="124.986" width="0.421" height="0.392"/><rect x="2.548" y="127.729" width="0.421" height="0.392"/><rect x="2.548" y="130.472" width="0.421" height="0.392"/><rect x="2.548" y="133.214" width="0.421" height="0.392"/><rect x="2.548" y="135.957" width="0.421" height="0.392"/><rect x="2.548" y="138.7" width="0.421" height="0.392"/><rect x="2.548" y="141.442" width="0.421" height="0.392"/><rect x="2.548" y="144.185" width="0.421" height="0.392"/><rect x="2.548" y="146.928" width="0.421" height="0.392"/><rect x="2.548" y="149.67" width="0.421" height="0.392"/><rect x="2.548" y="152.413" width="0.421" height="0.392"/><rect x="2.548" y="155.156" width="0.421" height="0.392"/><rect x="2.548" y="157.898" width="0.421" height="0.392"/><rect x="2.548" y="160.641" width="0.421" height="0.392"/><rect x="2.548" y="163.384" width="0.421" height="0.392"/><rect x="2.548" y="166.126" width="0.421" height="0.392"/><rect x="2.548" y="168.869" width="0.421" height="0.392"/><rect x="2.548" y="171.611" width="0.421" height="0.392"/><rect x="2.548" y="174.354" width="0.421" height="0.392"/><rect x="2.548" y="177.097" width="0.421" height="0.392"/><rect x="2.548" y="179.839" width="0.421" height="0.392"/><rect x="2.548" y="182.582" width="0.421" height="0.392"/><rect x="2.548" y="185.325" width="0.421" height="0.392"/><rect x="2.548" y="188.067" width="0.421" height="0.392"/><rect x="2.548" y="190.81" width="0.421" height="0.392"/><rect x="2.548" y="193.553" width="0.421" height="0.392"/><rect x="2.548" y="196.295" width="0.421" height="0.392"/><rect x="2.548" y="199.038" width="0.421" height="0.392"/><rect x="2.548" y="201.781" width="0.421" height="0.392"/><rect x="2.548" y="204.523" width="0.421" height="0.392"/><rect x="2.548" y="207.266" width="0.421" height="0.392"/><rect x="2.548" y="210.009" width="0.421" height="0.392"/><rect x="2.548" y="212.751" width="0.421" height="0.392"/><rect x="2.548" y="215.494" width="0.421" height="0.392"/><rect x="2.548" y="218.236" width="0.421" height="0.392"/><rect x="2.548" y="220.979" width="0.421" height="0.392"/><rect x="2.548" y="223.722" width="0.421" height="0.392"/><rect x="2.548" y="226.464" width="0.421" height="0.392"/><rect x="2.548" y="229.207" width="0.421" height="0.392"/><rect x="2.548" y="231.95" width="0.421" height="0.392"/><rect x="2.548" y="234.692" width="0.421" height="0.392"/><rect x="2.548" y="237.435" width="0.421" height="0.392"/><rect x="2.548" y="240.178" width="0.421" height="0.392"/><rect x="2.548" y="242.92" width="0.421" height="0.392"/><rect x="2.548" y="245.663" width="0.421" height="0.392"/><rect x="2.548" y="248.406" width="0.421" height="0.392"/><rect x="2.548" y="251.148" width="0.421" height="0.392"/><rect x="2.548" y="253.891" width="0.421" height="0.392"/><rect x="2.548" y="256.634" width="0.421" height="0.392"/><rect x="2.548" y="259.376" width="0.421" height="0.392"/><rect x="2.548" y="262.119" width="0.421" height="0.392"/><rect x="2.548" y="264.861" width="0.421" height="0.392"/><rect x="2.548" y="267.604" width="0.421" height="0.392"/><rect x="2.548" y="270.347" width="0.421" height="0.392"/><rect x="2.548" y="273.089" width="0.421" height="0.392"/><rect x="2.548" y="275.832" width="0.421" height="0.392"/><rect x="2.548" y="278.575" width="0.421" height="0.392"/><rect x="2.548" y="281.317" width="0.421" height="0.392"/><rect x="2.548" y="284.06" width="0.421" height="0.392"/><rect x="2.548" y="286.803" width="0.421" height="0.392"/><rect x="2.548" y="289.545" width="0.421" height="0.392"/><rect x="2.548" y="292.288" width="0.421" height="0.392"/><rect x="2.548" y="295.031" width="0.421" height="0.392"/><rect x="2.548" y="297.773" width="0.421" height="0.392"/><rect x="2.548" y="300.516" width="0.421" height="0.392"/><rect x="2.548" y="303.259" width="0.421" height="0.392"/><rect x="2.548" y="306.001" width="0.421" height="0.392"/><rect x="2.548" y="308.744" width="0.421" height="0.392"/><rect x="2.548" y="311.487" width="0.421" height="0.392"/><rect x="2.548" y="314.229" width="0.421" height="0.392"/><rect x="2.548" y="316.972" width="0.421" height="0.392"/><rect x="2.548" y="319.715" width="0.421" height="0.392"/><rect x="2.548" y="322.457" width="0.421" height="0.392"/><rect x="2.548" y="325.2" width="0.421" height="0.392"/><rect x="2.548" y="327.942" width="0.421" height="0.392"/><rect x="2.548" y="330.685" width="0.421" height="0.392"/><rect x="2.548" y="333.428" width="0.421" height="0.392"/><rect x="2.548" y="336.884" width="0.421" height="0.392"/><path d="M135.485,342.179c9.695,4.631 25.943,7.897 42,7.696c16.058,-0.201 31.925,-3.867 41.099,-8.735c9.702,-4.627 16.542,-12.383 16.122,-20.048c-0.42,-7.665 -8.102,-15.239 -18.298,-19.618c-9.695,-4.631 -25.943,-7.896 -42,-7.695c-16.058,0.2 -31.925,3.867 -41.099,8.734c-9.702,4.628 -16.543,12.383 -16.122,20.048c0.42,7.665 8.102,15.239 18.298,19.618Z" style="fill:none;fill-rule:nonzero;stroke:#000;stroke-width:0.41px;"/><path d="M122.21,133.567c7.27,3.474 19.456,5.923 31.499,5.772c12.044,-0.15 23.944,-2.9 30.824,-6.551c7.277,-3.47 12.407,-9.287 12.092,-15.036c-0.315,-5.748 -6.076,-11.429 -13.724,-14.713c-7.271,-3.474 -19.456,-5.922 -31.5,-5.772c-12.043,0.151 -23.944,2.901 -30.824,6.551c-7.276,3.471 -12.407,9.287 -12.091,15.036c0.315,5.749 6.076,11.429 13.724,14.713Z" style="fill:none;fill-rule:nonzero;stroke:#000;stroke-width:0.41px;"/><path d="M63.06,378.61c9.694,4.631 25.942,7.896 41.999,7.696c16.058,-0.201 31.926,-3.868 41.099,-8.735c9.702,-4.627 16.543,-12.383 16.122,-20.048c-0.42,-7.665 -8.102,-15.239 -18.298,-19.618c-9.694,-4.631 -25.942,-7.896 -42,-7.696c-16.058,0.201 -31.925,3.868 -41.098,8.735c-9.703,4.627 -16.543,12.383 -16.123,20.048c0.421,7.665 8.102,15.239 18.299,19.618Z" style="fill:none;fill-rule:nonzero;stroke:#000;stroke-width:0.41px;"/><path d="M48.493,126.7c24.237,11.578 64.856,19.741 105,19.24c40.144,-0.502 79.813,-9.669 102.747,-21.837c24.255,-11.569 41.357,-30.958 40.305,-50.12c-1.051,-19.162 -20.254,-38.098 -45.745,-49.045c-24.237,-11.578 -64.856,-19.741 -105,-19.239c-40.144,0.501 -79.813,9.668 -102.747,21.836c-24.255,11.569 -41.356,30.958 -40.305,50.12c1.051,19.162 20.255,38.098 45.745,49.045Z" style="fill:none;fill-rule:nonzero;stroke:#6f75a6;stroke-width:0.41px;"/><path d="M48.493,150.267c24.237,11.578 64.856,19.741 105,19.239c40.144,-0.501 79.813,-9.668 102.747,-21.836c24.255,-11.569 41.357,-30.958 40.305,-50.12c-1.051,-19.163 -20.254,-38.098 -45.745,-49.045c-24.237,-11.578 -64.856,-19.741 -105,-19.239c-40.144,0.501 -79.813,9.668 -102.747,21.836c-24.255,11.569 -41.356,30.958 -40.305,50.12c1.051,19.162 20.255,38.098 45.745,49.045Z" style="fill:none;fill-rule:nonzero;stroke:#6f75a6;stroke-width:0.41px;"/><path d="M96.77,113.161c14.542,6.947 38.914,11.845 63,11.544c24.086,-0.301 47.888,-5.801 61.648,-13.102c14.553,-6.941 24.814,-18.575 24.183,-30.072c-0.63,-11.498 -12.153,-22.859 -27.447,-29.427c-14.542,-6.947 -38.913,-11.845 -63,-11.544c-24.086,0.301 -47.888,5.801 -61.648,13.102c-14.553,6.941 -24.814,18.575 -24.183,30.072c0.63,11.498 12.153,22.859 27.447,29.427Z" style="fill:none;fill-rule:nonzero;stroke:#000;stroke-width:0.41px;"/><path d="M66.094,259.248c8.725,4.169 23.348,7.107 37.8,6.927c14.452,-0.181 28.733,-3.481 36.989,-7.861c8.732,-4.165 14.888,-11.145 14.51,-18.044c-0.379,-6.898 -7.292,-13.715 -16.469,-17.656c-8.725,-4.168 -23.348,-7.107 -37.8,-6.926c-14.451,0.181 -28.732,3.481 -36.988,7.861c-8.732,4.165 -14.889,11.145 -14.51,18.043c0.378,6.899 7.291,13.716 16.468,17.656Z" style="fill:none;fill-rule:nonzero;stroke:#000;stroke-width:0.41px;"/></svg>